<svg width="208" height="110" viewBox="0 0 208 110" fill="none" xmlns="http://www.w3.org/2000/svg">
<path d="M44.869 92.5973L45.2946 92.0443L44.6341 91.8191C31.2334 87.2503 20.1827 81.1862 12.4913 74.1476C4.80089 67.1099 0.5 59.1299 0.5 50.708C0.5 37.0034 11.9081 24.4542 30.68 15.3014C49.4184 6.16507 75.3403 0.5 104 0.5C132.66 0.5 158.582 6.16507 177.32 15.3014C196.092 24.4542 207.5 37.0034 207.5 50.708C207.5 64.4125 196.092 76.9617 177.32 86.1145C158.582 95.2509 132.66 100.916 104 100.916C90.6756 100.916 77.9408 99.6908 66.2426 97.461L66.1126 97.4362L65.9875 97.4789L32.2522 108.992L44.869 92.5973Z" fill="black" fill-opacity="0.5" stroke="white"/>
</svg>
