<svg width="155" height="180" viewBox="0 0 155 180" fill="none" xmlns="http://www.w3.org/2000/svg">
<path d="M6.5 15C6.5 7.54416 12.5442 1.5 20 1.5H135C142.456 1.5 148.5 7.54416 148.5 15V88.5H6.5V15Z" fill="#0E161E" stroke="#212B36" stroke-width="3"/>
<path d="M6.5 91.5H148.5V165C148.5 172.456 142.456 178.5 135 178.5H20C12.5442 178.5 6.5 172.456 6.5 165V91.5Z" fill="#212B36" stroke="#2A3642" stroke-width="3"/>
<path d="M150 65H155V115H150V65Z" fill="url(#paint0_linear)"/>
<path d="M0 65H5V115H0V65Z" fill="url(#paint1_linear)"/>
<path d="M5 92L5 88L150 88L150 92L5 92Z" fill="black"/>
<defs>
<linearGradient id="paint0_linear" x1="152.5" y1="65" x2="152.5" y2="115" gradientUnits="userSpaceOnUse">
<stop stop-color="#212B36"/>
<stop offset="0.494792" stop-color="#738397"/>
<stop offset="1" stop-color="#0E161E"/>
</linearGradient>
<linearGradient id="paint1_linear" x1="2.5" y1="65" x2="2.5" y2="115" gradientUnits="userSpaceOnUse">
<stop stop-color="#212B36"/>
<stop offset="0.494792" stop-color="#738397"/>
<stop offset="1" stop-color="#0E161E"/>
</linearGradient>
</defs>
</svg>
