<svg width="423" height="457" viewBox="0 0 423 457" fill="none" xmlns="http://www.w3.org/2000/svg">
<path d="M27.84 389.42V372.76H69.28V389.42H27.84ZM121.248 425.4C110.422 425.4 101.462 422.787 94.3684 417.56C87.3684 412.333 83.8684 405.52 83.8684 397.12C83.8684 386.107 89.7484 378.127 101.508 373.18C91.9884 368.14 87.2284 360.767 87.2284 351.06C87.2284 343.5 90.4484 337.2 96.8884 332.16C103.328 327.12 111.448 324.6 121.248 324.6C131.048 324.6 139.168 327.12 145.608 332.16C152.048 337.2 155.268 343.593 155.268 351.34C155.268 360.86 150.508 368.14 140.988 373.18C152.748 378.593 158.628 386.527 158.628 396.98C158.628 405.567 155.128 412.473 148.128 417.7C141.128 422.833 132.168 425.4 121.248 425.4ZM108.648 363.38C112.008 366.087 116.208 367.44 121.248 367.44C126.288 367.44 130.442 366.087 133.708 363.38C137.068 360.58 138.748 357.033 138.748 352.74C138.748 348.913 137.115 345.693 133.848 343.08C130.582 340.373 126.382 339.02 121.248 339.02C116.115 339.02 111.915 340.373 108.648 343.08C105.382 345.693 103.748 348.96 103.748 352.88C103.748 357.173 105.382 360.673 108.648 363.38ZM106.268 406.78C110.002 409.58 114.995 410.98 121.248 410.98C127.502 410.98 132.495 409.58 136.228 406.78C139.962 403.887 141.828 400.293 141.828 396C141.828 391.613 139.868 388.067 135.948 385.36C132.028 382.56 127.128 381.16 121.248 381.16C115.368 381.16 110.468 382.56 106.548 385.36C102.628 388.067 100.668 391.707 100.668 396.28C100.668 400.387 102.535 403.887 106.268 406.78ZM320.93 375C314.21 375 308.703 372.573 304.41 367.72C300.117 362.867 297.97 356.94 297.97 349.94C297.97 343.033 300.117 337.153 304.41 332.3C308.797 327.353 314.397 324.88 321.21 324.88C327.93 324.88 333.437 327.307 337.73 332.16C342.023 337.013 344.17 342.94 344.17 349.94C344.17 356.847 341.977 362.773 337.59 367.72C333.297 372.573 327.743 375 320.93 375ZM307.91 424L379.59 326H393.45L321.77 424H307.91ZM380.15 425.12C373.43 425.12 367.923 422.693 363.63 417.84C359.337 412.987 357.19 407.06 357.19 400.06C357.19 393.153 359.337 387.273 363.63 382.42C368.017 377.473 373.617 375 380.43 375C387.15 375 392.657 377.427 396.95 382.28C401.243 387.133 403.39 393.06 403.39 400.06C403.39 406.967 401.197 412.893 396.81 417.84C392.517 422.693 386.963 425.12 380.15 425.12ZM321.21 364.22C324.383 364.22 326.903 362.867 328.77 360.16C330.73 357.36 331.71 353.953 331.71 349.94C331.71 345.927 330.683 342.567 328.63 339.86C326.577 337.06 324.01 335.66 320.93 335.66C317.757 335.66 315.19 337.06 313.23 339.86C311.363 342.567 310.43 345.927 310.43 349.94C310.43 353.953 311.457 357.36 313.51 360.16C315.563 362.867 318.13 364.22 321.21 364.22ZM380.43 414.34C383.603 414.34 386.123 412.987 387.99 410.28C389.95 407.48 390.93 404.073 390.93 400.06C390.93 396.047 389.903 392.687 387.85 389.98C385.797 387.18 383.23 385.78 380.15 385.78C376.977 385.78 374.41 387.18 372.45 389.98C370.583 392.687 369.65 396.047 369.65 400.06C369.65 404.073 370.677 407.48 372.73 410.28C374.783 412.987 377.35 414.34 380.43 414.34Z" fill="#FB5ECF"/>
<path d="M36.5311 352.1C37.5211 349.73 37.7011 346.91 37.7311 344.18V343.82H42.0211V352.1H36.5311ZM44.3911 356V359.78H48.2311L48.7711 352.1H46.5811V339.92H33.4411V341.3C33.4411 345.17 33.2311 349.22 31.8811 352.1H30.1411V359.78H33.9811L34.3111 356H44.3911ZM59.137 356.36C64.147 356.36 67.867 352.61 67.867 347.99C67.867 343.31 64.177 339.62 59.197 339.62C54.187 339.62 50.467 343.37 50.467 347.99C50.467 352.67 54.157 356.36 59.137 356.36ZM59.197 352.43C56.677 352.43 54.967 350.36 54.967 347.99C54.967 345.56 56.527 343.55 59.137 343.55C61.657 343.55 63.367 345.62 63.367 347.99C63.367 350.42 61.807 352.43 59.197 352.43Z" fill="#FB5ECF"/>
<path d="M288 362.173C288 341.676 271.287 325 250.743 325C240.296 325 231.983 330.753 227.217 335.067C222.721 330.676 214.697 325 203.257 325C182.713 325 166 341.676 166 362.173C166 375.734 174.063 388.415 182.261 397.804C179.933 400.823 179.453 402.313 179.453 403.91C179.453 406.843 181.836 409.22 184.776 409.22C187.112 409.22 189.092 407.717 189.809 405.629C190.651 406.424 191.464 407.168 192.236 407.857C201.543 416.17 214.406 424.917 223.19 427.615C224.019 428.147 225.006 428.456 226.065 428.456C226.366 428.456 226.678 428.442 227 428.414C227.322 428.442 227.634 428.456 227.935 428.456C228.994 428.456 229.981 428.147 230.811 427.615C239.594 424.917 252.457 416.17 261.764 407.857C262.523 407.179 263.322 406.448 264.149 405.668C264.186 405.719 264.223 405.769 264.254 405.814C265.021 407.806 266.957 409.22 269.224 409.22C272.164 409.22 274.546 406.843 274.546 403.91C274.546 402.345 274.237 401.169 271.611 397.951C279.853 388.548 288 375.804 288 362.173ZM203.257 335.621C215.611 335.621 222.266 345.442 222.526 345.834C223.463 347.283 225.04 348.196 226.766 348.27C228.49 348.351 230.141 347.585 231.198 346.221C231.282 346.115 239.665 335.621 250.743 335.621C265.417 335.621 277.355 347.532 277.355 362.173C277.355 372.253 271.124 382.221 264.463 389.996C263.012 388.459 261.617 387.002 259.979 385.323L259.989 358.948H245.323V370.89C231.373 357.77 228.887 357.768 227 357.768C224.622 357.768 222.235 358.838 215.102 364.924C211.047 368.383 205.872 373.158 200.53 378.369C196.436 382.363 192.559 386.303 189.326 389.75C182.746 382.011 176.645 372.147 176.645 362.173C176.645 347.532 188.583 335.621 203.257 335.621ZM254.746 399.871C242.91 410.461 231.156 416.702 227 417.695C222.844 416.702 211.09 410.461 199.254 399.871C198.438 399.14 197.568 398.34 196.662 397.478C199.591 394.334 203.403 390.418 208.032 385.905C217.728 376.449 224.102 371.083 226.97 369.038C229.8 371.109 236.088 376.534 245.983 386.316C250.376 390.66 254.141 394.536 257.109 397.695C256.286 398.474 255.493 399.202 254.746 399.871Z" fill="url(#paint0_linear)"/>
<path d="M231.519 388.417H222.481C220.81 388.417 219.456 389.768 219.456 391.435V400.453C219.456 402.12 220.81 403.471 222.481 403.471H231.519C233.189 403.471 234.543 402.12 234.543 400.453V391.435C234.543 389.768 233.189 388.417 231.519 388.417Z" fill="url(#paint1_linear)"/>
<path d="M73.52 244.34L74.2764 241.437L74.2646 241.434L73.52 244.34ZM90.46 232.3L88.7503 234.765C89.4052 235.219 90.214 235.394 90.9981 235.251C91.7822 235.108 92.4771 234.659 92.9296 234.003L90.46 232.3ZM101.66 216.06L104.13 217.763C105.022 216.469 104.764 214.705 103.538 213.721L101.66 216.06ZM63.44 263.38L64.1851 260.474L64.1822 260.473L63.44 263.38ZM39.78 273.46L41.6897 271.146C40.417 270.096 38.5347 270.271 37.4771 271.537L39.78 273.46ZM27.04 288.72L24.7371 286.797C23.7001 288.039 23.835 289.88 25.042 290.958L27.04 288.72ZM68.62 307.4C79.672 307.4 89.401 304.548 96.4295 298.836C103.533 293.063 107.6 284.586 107.6 274.02H101.6C101.6 282.914 98.2468 289.627 92.6455 294.179C86.969 298.792 78.708 301.4 68.62 301.4V307.4ZM107.6 274.02C107.6 264.581 104.502 257.59 98.4852 252.35C92.6529 247.271 84.3133 244.052 74.2764 241.437L72.7636 247.243C82.6067 249.808 89.8071 252.749 94.5448 256.875C99.0976 260.84 101.6 266.099 101.6 274.02H107.6ZM74.2646 241.434C65.6911 239.237 60.8535 237.718 58.1242 236.105C56.8448 235.349 56.2417 234.688 55.9155 234.108C55.5893 233.528 55.38 232.746 55.38 231.46H49.38C49.38 233.394 49.6957 235.289 50.6863 237.05C51.6771 238.811 53.1827 240.154 55.0708 241.27C58.6765 243.402 64.4089 245.103 72.7755 247.246L74.2646 241.434ZM55.38 231.46C55.38 229.894 56.0118 228.58 57.3729 227.567C58.8157 226.494 61.267 225.64 64.98 225.64V219.64C60.433 219.64 56.5843 220.676 53.7921 222.753C50.9182 224.89 49.38 227.986 49.38 231.46H55.38ZM64.98 225.64C72.3703 225.64 80.3068 228.909 88.7503 234.765L92.1697 229.835C83.2533 223.651 74.1097 219.64 64.98 219.64V225.64ZM92.9296 234.003L104.13 217.763L99.1904 214.357L87.9904 230.597L92.9296 234.003ZM103.538 213.721C93.0566 205.306 80.2114 200.6 65.26 200.6V206.6C78.8686 206.6 90.3834 210.854 99.7819 218.399L103.538 213.721ZM65.26 200.6C54.678 200.6 45.3721 203.71 38.6594 209.417C31.9054 215.159 27.96 223.385 27.96 233.14H33.96C33.96 225.115 37.1546 218.571 42.5456 213.988C47.9779 209.37 55.822 206.6 65.26 206.6V200.6ZM27.96 233.14C27.96 243.784 31.4594 251.012 37.9386 256.127C44.1506 261.031 52.8613 263.775 62.6978 266.287L64.1822 260.473C54.2787 257.945 46.7494 255.439 41.6564 251.418C36.8306 247.608 33.96 242.236 33.96 233.14H27.96ZM62.6949 266.286C70.9121 268.393 75.3834 270.045 77.7989 271.641C78.9342 272.391 79.46 273.032 79.7385 273.566C80.0183 274.103 80.18 274.785 80.18 275.84H86.18C86.18 274.165 85.9217 272.449 85.0597 270.794C84.1963 269.137 82.8583 267.792 81.1061 266.634C77.7466 264.415 72.3479 262.567 64.1851 260.474L62.6949 266.286ZM80.18 275.84C80.18 277.821 79.3724 279.278 77.7493 280.364C75.9889 281.542 73.1149 282.36 69.04 282.36V288.36C73.7851 288.36 77.9811 287.428 81.0857 285.351C84.3276 283.182 86.18 279.879 86.18 275.84H80.18ZM69.04 282.36C58.7717 282.36 50.1864 278.159 41.6897 271.146L37.8703 275.774C47.0136 283.321 56.9083 288.36 69.04 288.36V282.36ZM37.4771 271.537L24.7371 286.797L29.3429 290.643L42.0829 275.383L37.4771 271.537ZM25.042 290.958C37.3866 301.98 53.0912 307.4 68.62 307.4V301.4C54.4689 301.4 40.2134 296.46 29.038 286.482L25.042 290.958ZM112.86 303L110.1 301.825C109.705 302.752 109.802 303.815 110.358 304.655C110.913 305.495 111.853 306 112.86 306V303ZM134.84 303V306C136.06 306 137.158 305.262 137.618 304.132L134.84 303ZM143.8 281.02V278.02C142.58 278.02 141.482 278.758 141.022 279.888L143.8 281.02ZM185.24 281.02L188.018 279.888C187.558 278.758 186.46 278.02 185.24 278.02V281.02ZM194.2 303L191.422 304.132C191.882 305.262 192.98 306 194.2 306V303ZM216.74 303V306C217.747 306 218.687 305.495 219.242 304.655C219.798 303.815 219.895 302.752 219.5 301.825L216.74 303ZM174.74 204.3L177.5 203.125C177.029 202.018 175.943 201.3 174.74 201.3V204.3ZM154.86 204.3V201.3C153.657 201.3 152.571 202.018 152.1 203.125L154.86 204.3ZM151.5 261.98L148.724 260.843C148.345 261.768 148.452 262.821 149.009 263.652C149.566 264.482 150.5 264.98 151.5 264.98V261.98ZM164.52 230.2L167.296 229.063C166.834 227.936 165.738 227.2 164.52 227.2C163.302 227.2 162.206 227.936 161.744 229.063L164.52 230.2ZM177.54 261.98V264.98C178.54 264.98 179.474 264.482 180.031 263.652C180.588 262.821 180.695 261.768 180.316 260.843L177.54 261.98ZM112.86 306H134.84V300H112.86V306ZM137.618 304.132L146.578 282.152L141.022 279.888L132.062 301.868L137.618 304.132ZM143.8 284.02H185.24V278.02H143.8V284.02ZM182.462 282.152L191.422 304.132L196.978 301.868L188.018 279.888L182.462 282.152ZM194.2 306H216.74V300H194.2V306ZM219.5 301.825L177.5 203.125L171.98 205.475L213.98 304.175L219.5 301.825ZM174.74 201.3H154.86V207.3H174.74V201.3ZM152.1 203.125L110.1 301.825L115.62 304.175L157.62 205.475L152.1 203.125ZM154.276 263.117L167.296 231.337L161.744 229.063L148.724 260.843L154.276 263.117ZM161.744 231.337L174.764 263.117L180.316 260.843L167.296 229.063L161.744 231.337ZM177.54 258.98H151.5V264.98H177.54V258.98ZM231.865 303H228.865C228.865 304.657 230.209 306 231.865 306V303ZM302.285 303V306C303.942 306 305.285 304.657 305.285 303H302.285ZM302.285 283.4H305.285C305.285 281.743 303.942 280.4 302.285 280.4V283.4ZM253.425 283.4H250.425C250.425 285.057 251.769 286.4 253.425 286.4V283.4ZM253.425 205H256.425C256.425 203.343 255.082 202 253.425 202V205ZM231.865 205V202C230.209 202 228.865 203.343 228.865 205H231.865ZM231.865 306H302.285V300H231.865V306ZM305.285 303V283.4H299.285V303H305.285ZM302.285 280.4H253.425V286.4H302.285V280.4ZM256.425 283.4V205H250.425V283.4H256.425ZM253.425 202H231.865V208H253.425V202ZM228.865 205V303H234.865V205H228.865ZM318.545 303H315.545C315.545 304.657 316.888 306 318.545 306V303ZM393.165 303V306C394.822 306 396.165 304.657 396.165 303H393.165ZM393.165 283.82H396.165C396.165 282.163 394.822 280.82 393.165 280.82V283.82ZM339.965 283.82H336.965C336.965 285.477 338.308 286.82 339.965 286.82V283.82ZM339.965 263.24V260.24C338.308 260.24 336.965 261.583 336.965 263.24H339.965ZM386.165 263.24V266.24C387.822 266.24 389.165 264.897 389.165 263.24H386.165ZM386.165 244.06H389.165C389.165 242.403 387.822 241.06 386.165 241.06V244.06ZM339.965 244.06H336.965C336.965 245.717 338.308 247.06 339.965 247.06V244.06ZM339.965 224.18V221.18C338.308 221.18 336.965 222.523 336.965 224.18H339.965ZM392.465 224.18V227.18C394.122 227.18 395.465 225.837 395.465 224.18H392.465ZM392.465 205H395.465C395.465 203.343 394.122 202 392.465 202V205ZM318.545 205V202C316.888 202 315.545 203.343 315.545 205H318.545ZM318.545 306H393.165V300H318.545V306ZM396.165 303V283.82H390.165V303H396.165ZM393.165 280.82H339.965V286.82H393.165V280.82ZM342.965 283.82V263.24H336.965V283.82H342.965ZM339.965 266.24H386.165V260.24H339.965V266.24ZM389.165 263.24V244.06H383.165V263.24H389.165ZM386.165 241.06H339.965V247.06H386.165V241.06ZM342.965 244.06V224.18H336.965V244.06H342.965ZM339.965 227.18H392.465V221.18H339.965V227.18ZM395.465 224.18V205H389.465V224.18H395.465ZM392.465 202H318.545V208H392.465V202ZM315.545 205V303H321.545V205H315.545Z" fill="#FB5ECF"/>
<path d="M27.7613 178H43.1613V150.9H76.5613V136.9H43.1613V122H81.0613V108H27.7613V178ZM93.3863 178H108.786V155.6H120.686L135.886 178H153.886L136.786 153C145.686 149.7 151.786 142.6 151.786 131.3C151.786 124.5 149.686 119 145.786 115.1C141.186 110.5 134.286 108 125.386 108H93.3863V178ZM108.786 142V121.9H124.086C131.586 121.9 136.186 125.3 136.186 131.9C136.186 138 131.886 142 124.386 142H108.786ZM166.352 178H181.752V108H166.352V178ZM199.246 178H226.546C248.546 178 263.746 162.7 263.746 143C263.746 123.1 248.546 108 226.546 108H199.246V178ZM214.646 164.1V121.9H226.546C239.146 121.9 247.646 130.6 247.646 143C247.646 155.6 239.146 164.1 226.546 164.1H214.646ZM266.488 178H282.188L288.588 162.3H318.188L324.588 178H340.688L310.688 107.5H296.488L266.488 178ZM294.088 148.7L303.388 126L312.688 148.7H294.088ZM360.157 178H375.557V150.1L402.457 108H384.957L367.957 136.1L351.257 108H333.257L360.157 150.4V178Z" fill="#00FFF0"/>
<path d="M28.6189 85H64.5829C81.6469 85 92.8789 78.088 92.8789 64.264C92.8789 53.896 87.4789 48.82 78.7309 45.472C84.1309 42.448 88.6669 37.696 88.6669 29.164C88.6669 23.764 86.9389 19.552 83.4829 16.096C79.1629 11.776 72.3589 9.39999 63.7189 9.39999H28.6189V85ZM44.8189 39.964V23.98H61.2349C68.2549 23.98 72.1429 26.788 72.1429 31.756C72.1429 37.588 67.4989 39.964 60.1549 39.964H44.8189ZM44.8189 70.42V53.788H64.0429C72.5749 53.788 76.3549 56.92 76.3549 61.996C76.3549 67.828 71.9269 70.42 64.5829 70.42H44.8189ZM106.56 85H160.884V69.88H123.192V9.39999H106.56V85ZM166.947 85H183.903L190.815 68.044H222.783L229.695 85H247.083L214.683 8.86H199.347L166.947 85ZM196.755 53.356L206.799 28.84L216.843 53.356H196.755ZM289.324 86.296C303.904 86.296 312.544 81.76 320.32 73.444L309.736 62.104C303.796 67.504 298.504 70.96 289.864 70.96C276.904 70.96 267.94 60.16 267.94 47.2C267.94 34.024 277.12 23.44 289.864 23.44C298.504 23.44 303.472 26.572 309.304 31.864L319.24 20.416C312.22 13.504 304.228 8.104 289.972 8.104C266.752 8.104 250.552 25.708 250.552 47.2C250.552 69.124 267.076 86.296 289.324 86.296ZM333.635 85H350.267V61.888L359.015 52.816L382.451 85H402.431L370.247 41.476L401.027 9.39999H380.939L350.267 42.448V9.39999H333.635V85Z" fill="#00FFF0"/>
<defs>
<linearGradient id="paint0_linear" x1="227" y1="325" x2="227" y2="428.456" gradientUnits="userSpaceOnUse">
<stop offset="0.177083" stop-color="#5350FD"/>
<stop offset="0.890625" stop-color="#FB5ECF"/>
</linearGradient>
<linearGradient id="paint1_linear" x1="227" y1="325" x2="227" y2="428.456" gradientUnits="userSpaceOnUse">
<stop offset="0.177083" stop-color="#5350FD"/>
<stop offset="0.890625" stop-color="#FB5ECF"/>
</linearGradient>
</defs>
</svg>
