<svg width="1786" height="364" viewBox="0 0 1786 364" fill="none" xmlns="http://www.w3.org/2000/svg">
<g style="mix-blend-mode:screen">
<path d="M29.2473 23.3261L30.08 21.5077L30.0725 21.5043L29.2473 23.3261ZM38.634 18.8684L37.2261 20.2889C37.6035 20.6629 38.1142 20.8714 38.6456 20.8683C39.1769 20.8652 39.6852 20.6508 40.0582 20.2725L38.634 18.8684ZM45.5589 11.8441L46.9832 13.2483C47.719 12.5018 47.7538 11.3138 47.0628 10.5257L45.5589 11.8441ZM22.6307 31.8263L23.4563 30.0046L23.4545 30.0038L22.6307 31.8263ZM10.1053 34.7354L11.6269 33.4375C10.9129 32.6005 9.6569 32.4973 8.81586 33.2066L10.1053 34.7354ZM2.50709 41.1434L1.2177 39.6145C0.393089 40.31 0.268559 41.534 0.936236 42.3813L2.50709 41.1434ZM21.2725 54.444C26.7937 55.4176 31.956 54.8589 36.0396 52.5859C40.1798 50.2816 43.0022 46.3267 43.9439 40.9864L40.0046 40.2918C39.2567 44.5337 37.1067 47.4142 34.0943 49.0909C31.0255 50.7989 26.8554 51.3667 21.9671 50.5048L21.2725 54.444ZM43.9439 40.9864C44.7853 36.2144 43.8433 32.3521 41.2336 29.1236C38.7267 26.0222 34.8103 23.6738 30.08 21.5077L28.4146 25.1445C33.0235 27.2551 36.2242 29.2892 38.1228 31.6381C39.9186 33.8598 40.6705 36.5158 40.0046 40.2918L43.9439 40.9864ZM30.0725 21.5043C26.0254 19.671 23.846 18.531 22.7066 17.5547C22.1871 17.1096 22.0117 16.8008 21.9389 16.5936C21.866 16.3862 21.8235 16.0756 21.9258 15.4958L17.9865 14.8012C17.8092 15.8069 17.7928 16.8602 18.1651 17.9198C18.5375 18.9794 19.2265 19.8404 20.1041 20.5923C21.7589 22.0101 24.5046 23.3734 28.422 25.1479L30.0725 21.5043ZM21.9258 15.4958C22.0341 14.8814 22.3592 14.4219 22.9769 14.112C23.6552 13.7717 24.8191 13.5588 26.5789 13.8691L27.2735 9.92984C24.9662 9.52298 22.8637 9.69367 21.1832 10.5367C19.4421 11.4102 18.3158 12.9338 17.9865 14.8012L21.9258 15.4958ZM26.5789 13.8691C30.0752 14.4855 33.611 16.706 37.2261 20.2889L40.0418 17.4478C36.1542 13.5949 31.9118 10.7477 27.2735 9.92984L26.5789 13.8691ZM40.0582 20.2725L46.9832 13.2483L44.1347 10.44L37.2097 17.4642L40.0582 20.2725ZM47.0628 10.5257C42.5559 5.38514 36.5369 1.89635 29.0645 0.578775L28.3699 4.51801C34.9606 5.68012 40.1586 8.71831 44.055 13.1626L47.0628 10.5257ZM29.0645 0.578775C23.76 -0.356558 18.7829 0.373616 14.8612 2.67166C10.9083 4.98792 8.16544 8.82294 7.29338 13.7686L11.2326 14.4632C11.9043 10.654 13.9596 7.83612 16.8834 6.1228C19.8384 4.39125 23.8165 3.71512 28.3699 4.51801L29.0645 0.578775ZM7.29338 13.7686C6.34682 19.1369 7.46715 23.1612 10.3302 26.3735C13.0423 29.4164 17.1867 31.5604 21.807 33.6488L23.4545 30.0038C18.7923 27.8965 15.3959 26.0454 13.3163 23.7121C11.3876 21.5481 10.4653 18.8151 11.2326 14.4632L7.29338 13.7686ZM21.8051 33.6479C25.6726 35.4008 27.6576 36.5729 28.64 37.5035C29.0892 37.929 29.2359 38.2209 29.2949 38.4077C29.3544 38.5963 29.382 38.8593 29.2993 39.3282L33.2386 40.0228C33.3929 39.1475 33.4218 38.1935 33.1094 37.2037C32.7964 36.2121 32.1979 35.3641 31.3909 34.5996C29.8609 33.1503 27.2897 31.742 23.4563 30.0046L21.8051 33.6479ZM29.2993 39.3282C29.1571 40.1351 28.7454 40.6458 28.0004 40.9742C27.1546 41.3469 25.7786 41.51 23.8271 41.1659L23.1325 45.1051C25.524 45.5268 27.7812 45.442 29.6136 44.6344C31.5467 43.7824 32.8582 42.1802 33.2386 40.0228L29.2993 39.3282ZM23.8271 41.1659C18.9238 40.3013 15.1564 37.5754 11.6269 33.4375L8.58362 36.0334C12.4759 40.5965 17.0059 44.0249 23.1325 45.1051L23.8271 41.1659ZM8.81586 33.2066L1.2177 39.6145L3.79648 42.6723L11.3946 36.2643L8.81586 33.2066ZM0.936236 42.3813C6.13869 48.983 13.513 53.0758 21.2725 54.444L21.9671 50.5048C15.1121 49.2961 8.63353 45.6864 4.07795 39.9055L0.936236 42.3813ZM43.5253 55.6262L41.849 54.5354C41.4828 55.0981 41.4234 55.807 41.6909 56.4228C41.9583 57.0387 42.5169 57.4792 43.178 57.5958L43.5253 55.6262ZM54.3484 57.5346L54.0011 59.5042C54.8018 59.6454 55.6082 59.2878 56.0412 58.5997L54.3484 57.5346ZM60.6687 47.4895L61.016 45.5198C60.2153 45.3787 59.4089 45.7362 58.9759 46.4244L60.6687 47.4895ZM81.0739 51.0875L83.0289 50.6656C82.8574 49.8708 82.2219 49.259 81.4212 49.1178L81.0739 51.0875ZM83.5775 62.6884L81.6225 63.1103C81.794 63.9051 82.4295 64.5169 83.2302 64.6581L83.5775 62.6884ZM94.6763 64.6455L94.329 66.6151C94.9901 66.7317 95.6657 66.5087 96.1276 66.0215C96.5896 65.5343 96.7762 64.8478 96.6246 64.1938L94.6763 64.6455ZM82.5648 12.3986L84.5132 11.9469C84.3321 11.1657 83.7019 10.5682 82.9121 10.429L82.5648 12.3986ZM72.7758 10.6725L73.1231 8.70289C72.3334 8.56364 71.5368 8.90957 71.0995 9.58173L72.7758 10.6725ZM66.1134 38.7826L64.4224 37.7146C64.0664 38.2782 64.0146 38.982 64.2843 39.5917C64.5539 40.2013 65.1096 40.6365 65.7661 40.7523L66.1134 38.7826ZM75.2837 24.2645L77.238 23.8392C77.0653 23.046 76.4304 22.4358 75.631 22.2949C74.8316 22.1539 74.0263 22.5101 73.5928 23.1964L75.2837 24.2645ZM78.9356 41.0435L78.5883 43.0132C79.2447 43.1289 79.9157 42.91 80.3776 42.4294C80.8395 41.9487 81.0316 41.2696 80.8898 40.6182L78.9356 41.0435ZM43.178 57.5958L54.0011 59.5042L54.6957 55.5649L43.8726 53.6566L43.178 57.5958ZM56.0412 58.5997L62.3615 48.5546L58.9759 46.4244L52.6556 56.4695L56.0412 58.5997ZM60.3214 49.4591L80.7266 53.0571L81.4212 49.1178L61.016 45.5198L60.3214 49.4591ZM79.1189 51.5094L81.6225 63.1103L85.5325 62.2665L83.0289 50.6656L79.1189 51.5094ZM83.2302 64.6581L94.329 66.6151L95.0236 62.6758L83.9248 60.7188L83.2302 64.6581ZM96.6246 64.1938L84.5132 11.9469L80.6165 12.8502L92.7279 65.0971L96.6246 64.1938ZM82.9121 10.429L73.1231 8.70289L72.4286 12.6421L82.2175 14.3682L82.9121 10.429ZM71.0995 9.58173L41.849 54.5354L45.2017 56.7169L74.4522 11.7633L71.0995 9.58173ZM67.8043 39.8507L76.9746 25.3326L73.5928 23.1964L64.4224 37.7146L67.8043 39.8507ZM73.3295 24.6898L76.9813 41.4689L80.8898 40.6182L77.238 23.8392L73.3295 24.6898ZM79.2829 39.0739L66.4607 36.813L65.7661 40.7523L78.5883 43.0132L79.2829 39.0739ZM102.124 65.9587L100.154 65.6114C99.9627 66.6992 100.689 67.7365 101.777 67.9283L102.124 65.9587ZM136.799 72.0729L136.452 74.0425C137.54 74.2343 138.577 73.5079 138.769 72.4202L136.799 72.0729ZM138.501 62.4217L140.471 62.769C140.662 61.6813 139.936 60.6439 138.848 60.4521L138.501 62.4217ZM114.442 58.1795L112.472 57.8322C112.281 58.92 113.007 59.9573 114.095 60.1491L114.442 58.1795ZM121.249 19.5751L123.219 19.9223C123.411 18.8346 122.684 17.7972 121.596 17.6054L121.249 19.5751ZM110.633 17.7031L110.98 15.7335C109.892 15.5417 108.855 16.268 108.663 17.3558L110.633 17.7031ZM101.777 67.9283L136.452 74.0425L137.146 70.1032L102.471 63.9891L101.777 67.9283ZM138.769 72.4202L140.471 62.769L136.531 62.0744L134.83 71.7256L138.769 72.4202ZM138.848 60.4521L114.789 56.2099L114.095 60.1491L138.154 64.3914L138.848 60.4521ZM116.412 58.5268L123.219 19.9223L119.279 19.2278L112.472 57.8322L116.412 58.5268ZM121.596 17.6054L110.98 15.7335L110.286 19.6727L120.902 21.5447L121.596 17.6054ZM108.663 17.3558L100.154 65.6114L104.094 66.306L112.602 18.0504L108.663 17.3558ZM144.806 73.4846L142.836 73.1373C142.644 74.2251 143.37 75.2624 144.458 75.4542L144.806 73.4846ZM181.549 79.9634L181.201 81.933C182.289 82.1248 183.327 81.3985 183.518 80.3107L181.549 79.9634ZM183.214 70.5191L185.184 70.8664C185.375 69.7786 184.649 68.7413 183.561 68.5495L183.214 70.5191ZM157.018 65.9001L155.048 65.5528C154.857 66.6405 155.583 67.6779 156.671 67.8697L157.018 65.9001ZM158.805 55.7664L159.152 53.7968C158.064 53.605 157.027 54.3313 156.835 55.4191L158.805 55.7664ZM181.554 59.7777L181.207 61.7473C182.294 61.9391 183.332 61.2127 183.524 60.125L181.554 59.7777ZM183.219 50.3333L185.189 50.6806C185.381 49.5929 184.654 48.5555 183.567 48.3637L183.219 50.3333ZM160.47 46.3221L158.501 45.9748C158.309 47.0626 159.035 48.0999 160.123 48.2917L160.47 46.3221ZM162.196 36.5331L162.544 34.5635C161.456 34.3717 160.418 35.098 160.227 36.1858L162.196 36.5331ZM188.047 41.0914L187.7 43.061C188.788 43.2528 189.825 42.5264 190.017 41.4386L188.047 41.0914ZM189.713 31.647L191.682 31.9943C191.874 30.9066 191.148 29.8692 190.06 29.6774L189.713 31.647ZM153.314 25.229L153.662 23.2594C152.574 23.0676 151.536 23.7939 151.345 24.8817L153.314 25.229ZM144.458 75.4542L181.201 81.933L181.896 77.9938L145.153 71.515L144.458 75.4542ZM183.518 80.3107L185.184 70.8664L181.244 70.1718L179.579 79.6161L183.518 80.3107ZM183.561 68.5495L157.365 63.9304L156.671 67.8697L182.867 72.4887L183.561 68.5495ZM158.988 66.2474L160.775 56.1137L156.835 55.4191L155.048 65.5528L158.988 66.2474ZM158.458 57.736L181.207 61.7473L181.901 57.808L159.152 53.7968L158.458 57.736ZM183.524 60.125L185.189 50.6806L181.25 49.9861L179.584 59.4304L183.524 60.125ZM183.567 48.3637L160.818 44.3525L160.123 48.2917L182.872 52.303L183.567 48.3637ZM162.44 46.6694L164.166 36.8804L160.227 36.1858L158.501 45.9748L162.44 46.6694ZM161.849 38.5027L187.7 43.061L188.395 39.1217L162.544 34.5635L161.849 38.5027ZM190.017 41.4386L191.682 31.9943L187.743 31.2997L186.078 40.7441L190.017 41.4386ZM190.06 29.6774L153.662 23.2594L152.967 27.1986L189.365 33.6167L190.06 29.6774ZM151.345 24.8817L142.836 73.1373L146.775 73.8319L155.284 25.5763L151.345 24.8817ZM256.994 63.4839L257.826 61.6655L257.819 61.6621L256.994 63.4839ZM266.38 59.0262L264.973 60.4467C265.35 60.8208 265.861 61.0292 266.392 61.0262C266.923 61.0231 267.432 60.8087 267.805 60.4303L266.38 59.0262ZM273.305 52.002L274.73 53.4061C275.465 52.6596 275.5 51.4717 274.809 50.6835L273.305 52.002ZM250.377 71.9841L251.203 70.1625L251.201 70.1616L250.377 71.9841ZM237.852 74.8933L239.373 73.5953C238.659 72.7583 237.403 72.6551 236.562 73.3644L237.852 74.8933ZM230.253 81.3012L228.964 79.7724C228.14 80.4678 228.015 81.6919 228.683 82.5391L230.253 81.3012ZM249.019 94.6019C254.54 95.5754 259.702 95.0167 263.786 92.7438C267.926 90.4394 270.749 86.4845 271.69 81.1443L267.751 80.4497C267.003 84.6916 264.853 87.5721 261.841 89.2487C258.772 90.9567 254.602 91.5246 249.714 90.6627L249.019 94.6019ZM271.69 81.1443C272.532 76.3722 271.59 72.51 268.98 69.2814C266.473 66.18 262.557 63.8317 257.826 61.6655L256.161 65.3023C260.77 67.4129 263.971 69.447 265.869 71.7959C267.665 74.0177 268.417 76.6736 267.751 80.4497L271.69 81.1443ZM257.819 61.6621C253.772 59.8288 251.592 58.6888 250.453 57.7126C249.933 57.2674 249.758 56.9586 249.685 56.7514C249.612 56.5441 249.57 56.2334 249.672 55.6536L245.733 54.959C245.556 55.9647 245.539 57.0181 245.912 58.0776C246.284 59.1373 246.973 59.9982 247.85 60.7501C249.505 62.1679 252.251 63.5312 256.168 65.3057L257.819 61.6621ZM249.672 55.6536C249.781 55.0393 250.106 54.5798 250.723 54.2699C251.402 53.9296 252.565 53.7166 254.325 54.0269L255.02 50.0877C252.713 49.6808 250.61 49.8515 248.93 50.6946C247.189 51.568 246.062 53.0916 245.733 54.959L249.672 55.6536ZM254.325 54.0269C257.822 54.6434 261.357 56.8639 264.973 60.4467L267.788 57.6057C263.901 53.7527 259.658 50.9055 255.02 50.0877L254.325 54.0269ZM267.805 60.4303L274.73 53.4061L271.881 50.5979L264.956 57.6221L267.805 60.4303ZM274.809 50.6835C270.302 45.543 264.283 42.0542 256.811 40.7366L256.116 44.6758C262.707 45.838 267.905 48.8761 271.801 53.3205L274.809 50.6835ZM256.811 40.7366C251.506 39.8013 246.529 40.5315 242.608 42.8295C238.655 45.1458 235.912 48.9808 235.04 53.9265L238.979 54.6211C239.651 50.8118 241.706 47.994 244.63 46.2806C247.585 44.5491 251.563 43.873 256.116 44.6758L256.811 40.7366ZM235.04 53.9265C234.093 59.2947 235.214 63.319 238.077 66.5313C240.789 69.5743 244.933 71.7182 249.553 73.8066L251.201 70.1616C246.539 68.0544 243.142 66.2032 241.063 63.8699C239.134 61.7059 238.212 58.9729 238.979 54.6211L235.04 53.9265ZM249.552 73.8057C253.419 75.5586 255.404 76.7308 256.386 77.6614C256.836 78.0868 256.982 78.3787 257.041 78.5655C257.101 78.7541 257.128 79.0172 257.046 79.4861L260.985 80.1807C261.139 79.3053 261.168 78.3514 260.856 77.3615C260.543 76.3699 259.944 75.5219 259.137 74.7574C257.607 73.3081 255.036 71.8999 251.203 70.1625L249.552 73.8057ZM257.046 79.4861C256.903 80.293 256.492 80.8036 255.747 81.132C254.901 81.5048 253.525 81.6679 251.573 81.3237L250.879 85.263C253.27 85.6847 255.528 85.5999 257.36 84.7923C259.293 83.9403 260.605 82.3381 260.985 80.1807L257.046 79.4861ZM251.573 81.3237C246.67 80.4592 242.903 77.7332 239.373 73.5953L236.33 76.1912C240.222 80.7544 244.752 84.1827 250.879 85.263L251.573 81.3237ZM236.562 73.3644L228.964 79.7724L231.543 82.8301L239.141 76.4222L236.562 73.3644ZM228.683 82.5391C233.885 89.1409 241.259 93.2337 249.019 94.6019L249.714 90.6627C242.859 89.4539 236.38 85.8442 231.824 80.0633L228.683 82.5391ZM271.272 95.784L269.595 94.6932C269.229 95.256 269.17 95.9649 269.437 96.5807C269.705 97.1965 270.263 97.637 270.924 97.7536L271.272 95.784ZM282.095 97.6924L281.748 99.662C282.548 99.8032 283.355 99.4456 283.788 98.7575L282.095 97.6924ZM288.415 87.6473L288.762 85.6777C287.962 85.5365 287.155 85.8941 286.722 86.5822L288.415 87.6473ZM308.82 91.2453L310.775 90.8234C310.604 90.0287 309.968 89.4169 309.168 89.2757L308.82 91.2453ZM311.324 102.846L309.369 103.268C309.54 104.063 310.176 104.675 310.977 104.816L311.324 102.846ZM322.423 104.803L322.075 106.773C322.737 106.889 323.412 106.667 323.874 106.179C324.336 105.692 324.523 105.006 324.371 104.352L322.423 104.803ZM310.311 52.5564L312.26 52.1048C312.078 51.3236 311.448 50.726 310.659 50.5868L310.311 52.5564ZM300.522 50.8303L300.87 48.8607C300.08 48.7215 299.283 49.0674 298.846 49.7396L300.522 50.8303ZM293.86 78.9405L292.169 77.8724C291.813 78.436 291.761 79.1399 292.031 79.7495C292.3 80.3591 292.856 80.7943 293.512 80.9101L293.86 78.9405ZM303.03 64.4223L304.984 63.997C304.812 63.2038 304.177 62.5937 303.377 62.4527C302.578 62.3118 301.773 62.668 301.339 63.3543L303.03 64.4223ZM306.682 81.2014L306.335 83.171C306.991 83.2867 307.662 83.0678 308.124 82.5872C308.586 82.1066 308.778 81.4274 308.636 80.776L306.682 81.2014ZM270.924 97.7536L281.748 99.662L282.442 95.7228L271.619 93.8144L270.924 97.7536ZM283.788 98.7575L290.108 88.7124L286.722 86.5822L280.402 96.6273L283.788 98.7575ZM288.068 89.6169L308.473 93.2149L309.168 89.2757L288.762 85.6777L288.068 89.6169ZM306.865 91.6672L309.369 103.268L313.279 102.424L310.775 90.8234L306.865 91.6672ZM310.977 104.816L322.075 106.773L322.77 102.834L311.671 100.877L310.977 104.816ZM324.371 104.352L312.26 52.1048L308.363 53.0081L320.474 105.255L324.371 104.352ZM310.659 50.5868L300.87 48.8607L300.175 52.8L309.964 54.526L310.659 50.5868ZM298.846 49.7396L269.595 94.6932L272.948 96.8748L302.199 51.9211L298.846 49.7396ZM295.551 80.0085L304.721 65.4904L301.339 63.3543L292.169 77.8724L295.551 80.0085ZM301.076 64.8477L304.728 81.6267L308.636 80.776L304.984 63.997L301.076 64.8477ZM307.029 79.2318L294.207 76.9709L293.512 80.9101L306.335 83.171L307.029 79.2318ZM329.871 106.117L327.901 105.769C327.709 106.857 328.435 107.894 329.523 108.086L329.871 106.117ZM364.546 112.231L364.198 114.2C365.286 114.392 366.323 113.666 366.515 112.578L364.546 112.231ZM366.247 102.58L368.217 102.927C368.409 101.839 367.682 100.802 366.595 100.61L366.247 102.58ZM342.189 98.3374L340.219 97.9901C340.027 99.0778 340.753 100.115 341.841 100.307L342.189 98.3374ZM348.996 59.7329L350.965 60.0802C351.157 58.9924 350.431 57.9551 349.343 57.7633L348.996 59.7329ZM338.379 57.861L338.727 55.8913C337.639 55.6995 336.601 56.4259 336.41 57.5137L338.379 57.861ZM329.523 108.086L364.198 114.2L364.893 110.261L330.218 104.147L329.523 108.086ZM366.515 112.578L368.217 102.927L364.278 102.232L362.576 111.883L366.515 112.578ZM366.595 100.61L342.536 96.3677L341.841 100.307L365.9 104.549L366.595 100.61ZM344.158 98.6847L350.965 60.0802L347.026 59.3856L340.219 97.9901L344.158 98.6847ZM349.343 57.7633L338.727 55.8913L338.032 59.8306L348.648 61.7025L349.343 57.7633ZM336.41 57.5137L327.901 105.769L331.84 106.464L340.349 58.2083L336.41 57.5137ZM372.552 113.642L370.582 113.295C370.391 114.383 371.117 115.42 372.205 115.612L372.552 113.642ZM409.295 120.121L408.948 122.091C410.036 122.283 411.073 121.556 411.265 120.469L409.295 120.121ZM410.96 110.677L412.93 111.024C413.122 109.936 412.396 108.899 411.308 108.707L410.96 110.677ZM384.765 106.058L382.795 105.711C382.603 106.798 383.329 107.836 384.417 108.028L384.765 106.058ZM386.551 95.9242L386.899 93.9546C385.811 93.7628 384.774 94.4891 384.582 95.5769L386.551 95.9242ZM409.3 99.9355L408.953 101.905C410.041 102.097 411.078 101.371 411.27 100.283L409.3 99.9355ZM410.966 90.4912L412.935 90.8385C413.127 89.7507 412.401 88.7134 411.313 88.5216L410.966 90.4912ZM388.217 86.4799L386.247 86.1326C386.055 87.2204 386.782 88.2577 387.869 88.4495L388.217 86.4799ZM389.943 76.6909L390.29 74.7213C389.202 74.5295 388.165 75.2558 387.973 76.3436L389.943 76.6909ZM415.794 81.2492L415.447 83.2188C416.534 83.4106 417.572 82.6843 417.764 81.5965L415.794 81.2492ZM417.459 71.8049L419.429 72.1522C419.621 71.0644 418.894 70.0271 417.806 69.8353L417.459 71.8049ZM381.061 65.3868L381.408 63.4172C380.32 63.2254 379.283 63.9518 379.091 65.0395L381.061 65.3868ZM372.205 115.612L408.948 122.091L409.642 118.152L372.899 111.673L372.205 115.612ZM411.265 120.469L412.93 111.024L408.991 110.33L407.326 119.774L411.265 120.469ZM411.308 108.707L385.112 104.088L384.417 108.028L410.613 112.647L411.308 108.707ZM386.734 106.405L388.521 96.2715L384.582 95.5769L382.795 105.711L386.734 106.405ZM386.204 97.8938L408.953 101.905L409.648 97.9659L386.899 93.9546L386.204 97.8938ZM411.27 100.283L412.935 90.8385L408.996 90.1439L407.331 99.5882L411.27 100.283ZM411.313 88.5216L388.564 84.5103L387.869 88.4495L410.618 92.4608L411.313 88.5216ZM390.186 86.8272L391.912 77.0382L387.973 76.3436L386.247 86.1326L390.186 86.8272ZM389.595 78.6605L415.447 83.2188L416.141 79.2796L390.29 74.7213L389.595 78.6605ZM417.764 81.5965L419.429 72.1522L415.49 71.4576L413.824 80.9019L417.764 81.5965ZM417.806 69.8353L381.408 63.4172L380.713 67.3565L417.112 73.7745L417.806 69.8353ZM379.091 65.0395L370.582 113.295L374.522 113.99L383.03 65.7341L379.091 65.0395ZM484.74 103.642L485.573 101.823L485.565 101.82L484.74 103.642ZM494.127 99.184L492.719 100.605C493.096 100.979 493.607 101.187 494.138 101.184C494.67 101.181 495.178 100.967 495.551 100.588L494.127 99.184ZM501.052 92.1598L502.476 93.5639C503.212 92.8175 503.247 91.6295 502.556 90.8413L501.052 92.1598ZM478.124 112.142L478.949 110.32L478.947 110.319L478.124 112.142ZM465.598 115.051L467.12 113.753C466.406 112.916 465.15 112.813 464.309 113.522L465.598 115.051ZM458 121.459L456.711 119.93C455.886 120.626 455.761 121.85 456.429 122.697L458 121.459ZM476.765 134.76C482.287 135.733 487.449 135.175 491.532 132.902C495.673 130.597 498.495 126.642 499.437 121.302L495.497 120.608C494.749 124.849 492.6 127.73 489.587 129.407C486.518 131.115 482.348 131.682 477.46 130.82L476.765 134.76ZM499.437 121.302C500.278 116.53 499.336 112.668 496.726 109.439C494.22 106.338 490.303 103.989 485.573 101.823L483.907 105.46C488.516 107.571 491.717 109.605 493.616 111.954C495.411 114.175 496.163 116.831 495.497 120.608L499.437 121.302ZM485.565 101.82C481.518 99.9867 479.339 98.8466 478.199 97.8704C477.68 97.4252 477.505 97.1164 477.432 96.9092C477.359 96.7019 477.316 96.3913 477.419 95.8114L473.479 95.1168C473.302 96.1226 473.286 97.1759 473.658 98.2354C474.03 99.2951 474.719 100.156 475.597 100.908C477.252 102.326 479.997 103.689 483.915 105.464L485.565 101.82ZM477.419 95.8114C477.527 95.1971 477.852 94.7376 478.47 94.4277C479.148 94.0874 480.312 93.8744 482.072 94.1847L482.766 90.2455C480.459 89.8387 478.357 90.0093 476.676 90.8524C474.935 91.7259 473.809 93.2495 473.479 95.1168L477.419 95.8114ZM482.072 94.1847C485.568 94.8012 489.104 97.0217 492.719 100.605L495.535 97.7635C491.647 93.9105 487.405 91.0634 482.766 90.2455L482.072 94.1847ZM495.551 100.588L502.476 93.5639L499.628 90.7557L492.703 97.7799L495.551 100.588ZM502.556 90.8413C498.049 85.7008 492.03 82.212 484.557 80.8944L483.863 84.8337C490.453 85.9958 495.651 89.034 499.548 93.4783L502.556 90.8413ZM484.557 80.8944C479.253 79.9591 474.276 80.6893 470.354 82.9873C466.401 85.3036 463.658 89.1386 462.786 94.0843L466.725 94.7789C467.397 90.9697 469.452 88.1518 472.376 86.4385C475.331 84.7069 479.309 84.0308 483.863 84.8337L484.557 80.8944ZM462.786 94.0843C461.84 99.4525 462.96 103.477 465.823 106.689C468.535 109.732 472.68 111.876 477.3 113.964L478.947 110.319C474.285 108.212 470.889 106.361 468.809 104.028C466.88 101.864 465.958 99.1307 466.725 94.7789L462.786 94.0843ZM477.298 113.964C481.165 115.716 483.15 116.889 484.133 117.819C484.582 118.245 484.729 118.537 484.788 118.723C484.847 118.912 484.875 119.175 484.792 119.644L488.731 120.339C488.886 119.463 488.915 118.509 488.602 117.519C488.289 116.528 487.691 115.68 486.884 114.915C485.354 113.466 482.783 112.058 478.949 110.32L477.298 113.964ZM484.792 119.644C484.65 120.451 484.238 120.961 483.493 121.29C482.647 121.663 481.271 121.826 479.32 121.482L478.625 125.421C481.017 125.843 483.274 125.758 485.106 124.95C487.04 124.098 488.351 122.496 488.731 120.339L484.792 119.644ZM479.32 121.482C474.417 120.617 470.649 117.891 467.12 113.753L464.076 116.349C467.969 120.912 472.499 124.341 478.625 125.421L479.32 121.482ZM464.309 113.522L456.711 119.93L459.289 122.988L466.887 116.58L464.309 113.522ZM456.429 122.697C461.632 129.299 469.006 133.392 476.765 134.76L477.46 130.82C470.605 129.612 464.126 126.002 459.571 120.221L456.429 122.697ZM499.018 135.942L497.342 134.851C496.976 135.414 496.916 136.123 497.184 136.739C497.451 137.354 498.01 137.795 498.671 137.911L499.018 135.942ZM509.841 137.85L509.494 139.82C510.295 139.961 511.101 139.603 511.534 138.915L509.841 137.85ZM516.162 127.805L516.509 125.836C515.708 125.694 514.902 126.052 514.469 126.74L516.162 127.805ZM536.567 131.403L538.522 130.981C538.35 130.187 537.715 129.575 536.914 129.434L536.567 131.403ZM539.07 143.004L537.115 143.426C537.287 144.221 537.922 144.833 538.723 144.974L539.07 143.004ZM550.169 144.961L549.822 146.931C550.483 147.047 551.159 146.824 551.62 146.337C552.082 145.85 552.269 145.164 552.117 144.509L550.169 144.961ZM538.058 92.7142L540.006 92.2626C539.825 91.4814 539.195 90.8839 538.405 90.7446L538.058 92.7142ZM528.269 90.9882L528.616 89.0186C527.826 88.8793 527.03 89.2252 526.592 89.8974L528.269 90.9882ZM521.606 119.098L519.915 118.03C519.559 118.594 519.507 119.298 519.777 119.907C520.047 120.517 520.602 120.952 521.259 121.068L521.606 119.098ZM530.777 104.58L532.731 104.155C532.558 103.362 531.923 102.752 531.124 102.611C530.324 102.47 529.519 102.826 529.086 103.512L530.777 104.58ZM534.428 121.359L534.081 123.329C534.738 123.445 535.409 123.226 535.87 122.745C536.332 122.264 536.524 121.585 536.383 120.934L534.428 121.359ZM498.671 137.911L509.494 139.82L510.189 135.881L499.365 133.972L498.671 137.911ZM511.534 138.915L517.854 128.87L514.469 126.74L508.148 136.785L511.534 138.915ZM515.814 129.775L536.219 133.373L536.914 129.434L516.509 125.836L515.814 129.775ZM534.612 131.825L537.115 143.426L541.025 142.582L538.522 130.981L534.612 131.825ZM538.723 144.974L549.822 146.931L550.516 142.992L539.418 141.034L538.723 144.974ZM552.117 144.509L540.006 92.2626L536.109 93.1659L548.221 145.413L552.117 144.509ZM538.405 90.7446L528.616 89.0186L527.921 92.9578L537.71 94.6839L538.405 90.7446ZM526.592 89.8974L497.342 134.851L500.695 137.033L529.945 92.079L526.592 89.8974ZM523.297 120.166L532.468 105.648L529.086 103.512L519.915 118.03L523.297 120.166ZM528.822 105.005L532.474 121.785L536.383 120.934L532.731 104.155L528.822 105.005ZM534.776 119.39L521.953 117.129L521.259 121.068L534.081 123.329L534.776 119.39ZM557.617 146.274L555.647 145.927C555.456 147.015 556.182 148.052 557.27 148.244L557.617 146.274ZM592.292 152.389L591.945 154.358C593.033 154.55 594.07 153.824 594.262 152.736L592.292 152.389ZM593.994 142.737L595.963 143.085C596.155 141.997 595.429 140.96 594.341 140.768L593.994 142.737ZM569.935 138.495L567.965 138.148C567.773 139.236 568.5 140.273 569.588 140.465L569.935 138.495ZM576.742 99.8907L578.712 100.238C578.903 99.1502 578.177 98.1129 577.089 97.9211L576.742 99.8907ZM566.126 98.0188L566.473 96.0492C565.385 95.8574 564.348 96.5837 564.156 97.6715L566.126 98.0188ZM557.27 148.244L591.945 154.358L592.639 150.419L557.964 144.305L557.27 148.244ZM594.262 152.736L595.963 143.085L592.024 142.39L590.322 152.041L594.262 152.736ZM594.341 140.768L570.282 136.526L569.588 140.465L593.647 144.707L594.341 140.768ZM571.905 138.842L578.712 100.238L574.772 99.5434L567.965 138.148L571.905 138.842ZM577.089 97.9211L566.473 96.0492L565.778 99.9884L576.395 101.86L577.089 97.9211ZM564.156 97.6715L555.647 145.927L559.587 146.622L568.095 98.3661L564.156 97.6715ZM600.298 153.8L598.329 153.453C598.137 154.541 598.863 155.578 599.951 155.77L600.298 153.8ZM637.042 160.279L636.694 162.249C637.782 162.44 638.819 161.714 639.011 160.626L637.042 160.279ZM638.707 150.835L640.676 151.182C640.868 150.094 640.142 149.057 639.054 148.865L638.707 150.835ZM612.511 146.216L610.541 145.868C610.35 146.956 611.076 147.994 612.164 148.185L612.511 146.216ZM614.298 136.082L614.645 134.112C613.557 133.921 612.52 134.647 612.328 135.735L614.298 136.082ZM637.047 140.093L636.7 142.063C637.787 142.255 638.825 141.528 639.016 140.441L637.047 140.093ZM638.712 130.649L640.682 130.996C640.874 129.909 640.147 128.871 639.059 128.679L638.712 130.649ZM615.963 126.638L613.993 126.29C613.802 127.378 614.528 128.416 615.616 128.607L615.963 126.638ZM617.689 116.849L618.036 114.879C616.949 114.687 615.911 115.414 615.72 116.501L617.689 116.849ZM643.54 121.407L643.193 123.377C644.281 123.568 645.318 122.842 645.51 121.754L643.54 121.407ZM645.206 111.963L647.175 112.31C647.367 111.222 646.641 110.185 645.553 109.993L645.206 111.963ZM608.807 105.545L609.154 103.575C608.067 103.383 607.029 104.11 606.838 105.197L608.807 105.545ZM599.951 155.77L636.694 162.249L637.389 158.309L600.646 151.831L599.951 155.77ZM639.011 160.626L640.676 151.182L636.737 150.487L635.072 159.932L639.011 160.626ZM639.054 148.865L612.858 144.246L612.164 148.185L638.36 152.804L639.054 148.865ZM614.481 146.563L616.267 136.429L612.328 135.735L610.541 145.868L614.481 146.563ZM613.951 138.052L636.7 142.063L637.394 138.124L614.645 134.112L613.951 138.052ZM639.016 140.441L640.682 130.996L636.743 130.302L635.077 139.746L639.016 140.441ZM639.059 128.679L616.31 124.668L615.616 128.607L638.365 132.619L639.059 128.679ZM617.933 126.985L619.659 117.196L615.72 116.501L613.993 126.29L617.933 126.985ZM617.342 118.818L643.193 123.377L643.888 119.437L618.036 114.879L617.342 118.818ZM645.51 121.754L647.175 112.31L643.236 111.615L641.571 121.06L645.51 121.754ZM645.553 109.993L609.154 103.575L608.46 107.514L644.858 113.932L645.553 109.993ZM606.838 105.197L598.329 153.453L602.268 154.148L610.777 105.892L606.838 105.197ZM712.487 143.8L713.319 141.981L713.312 141.978L712.487 143.8ZM721.873 139.342L720.465 140.762C720.843 141.136 721.353 141.345 721.885 141.342C722.416 141.339 722.924 141.124 723.297 140.746L721.873 139.342ZM728.798 132.318L730.222 133.722C730.958 132.975 730.993 131.787 730.302 130.999L728.798 132.318ZM705.87 152.3L706.696 150.478L706.694 150.477L705.87 152.3ZM693.345 155.209L694.866 153.911C694.152 153.074 692.896 152.971 692.055 153.68L693.345 155.209ZM685.746 161.617L684.457 160.088C683.632 160.783 683.508 162.008 684.176 162.855L685.746 161.617ZM704.512 174.918C710.033 175.891 715.195 175.332 719.279 173.059C723.419 170.755 726.241 166.8 727.183 161.46L723.244 160.765C722.496 165.007 720.346 167.888 717.334 169.564C714.265 171.272 710.095 171.84 705.206 170.978L704.512 174.918ZM727.183 161.46C728.025 156.688 727.083 152.826 724.473 149.597C721.966 146.496 718.049 144.147 713.319 141.981L711.654 145.618C716.263 147.729 719.463 149.763 721.362 152.112C723.158 154.333 723.91 156.989 723.244 160.765L727.183 161.46ZM713.312 141.978C709.265 140.145 707.085 139.004 705.946 138.028C705.426 137.583 705.251 137.274 705.178 137.067C705.105 136.86 705.063 136.549 705.165 135.969L701.226 135.275C701.048 136.28 701.032 137.334 701.404 138.393C701.777 139.453 702.466 140.314 703.343 141.066C704.998 142.484 707.744 143.847 711.661 145.621L713.312 141.978ZM705.165 135.969C705.273 135.355 705.598 134.895 706.216 134.586C706.894 134.245 708.058 134.032 709.818 134.343L710.513 130.403C708.205 129.996 706.103 130.167 704.423 131.01C702.681 131.884 701.555 133.407 701.226 135.275L705.165 135.969ZM709.818 134.343C713.314 134.959 716.85 137.18 720.465 140.762L723.281 137.921C719.393 134.068 715.151 131.221 710.513 130.403L709.818 134.343ZM723.297 140.746L730.222 133.722L727.374 130.914L720.449 137.938L723.297 140.746ZM730.302 130.999C725.795 125.859 719.776 122.37 712.304 121.052L711.609 124.992C718.2 126.154 723.398 129.192 727.294 133.636L730.302 130.999ZM712.304 121.052C706.999 120.117 702.022 120.847 698.1 123.145C694.148 125.461 691.405 129.296 690.533 134.242L694.472 134.937C695.144 131.127 697.199 128.31 700.123 126.596C703.078 124.865 707.056 124.189 711.609 124.992L712.304 121.052ZM690.533 134.242C689.586 139.61 690.706 143.635 693.569 146.847C696.282 149.89 700.426 152.034 705.046 154.122L706.694 150.477C702.032 148.37 698.635 146.519 696.556 144.186C694.627 142.022 693.705 139.289 694.472 134.937L690.533 134.242ZM705.044 154.121C708.912 155.874 710.897 157.046 711.879 157.977C712.328 158.403 712.475 158.694 712.534 158.881C712.594 159.07 712.621 159.333 712.539 159.802L716.478 160.496C716.632 159.621 716.661 158.667 716.349 157.677C716.036 156.686 715.437 155.838 714.63 155.073C713.1 153.624 710.529 152.216 706.696 150.478L705.044 154.121ZM712.539 159.802C712.396 160.609 711.985 161.119 711.24 161.448C710.394 161.82 709.018 161.984 707.066 161.639L706.372 165.579C708.763 166 711.02 165.916 712.853 165.108C714.786 164.256 716.097 162.654 716.478 160.496L712.539 159.802ZM707.066 161.639C702.163 160.775 698.396 158.049 694.866 153.911L691.823 156.507C695.715 161.07 700.245 164.498 706.372 165.579L707.066 161.639ZM692.055 153.68L684.457 160.088L687.036 163.146L694.634 156.738L692.055 153.68ZM684.176 162.855C689.378 169.457 696.752 173.549 704.512 174.918L705.206 170.978C698.351 169.77 691.873 166.16 687.317 160.379L684.176 162.855ZM726.765 176.1L725.088 175.009C724.722 175.572 724.663 176.281 724.93 176.896C725.198 177.512 725.756 177.953 726.417 178.069L726.765 176.1ZM737.588 178.008L737.24 179.978C738.041 180.119 738.847 179.761 739.28 179.073L737.588 178.008ZM743.908 167.963L744.255 165.993C743.455 165.852 742.648 166.21 742.215 166.898L743.908 167.963ZM764.313 171.561L766.268 171.139C766.097 170.344 765.461 169.733 764.66 169.591L764.313 171.561ZM766.817 183.162L764.862 183.584C765.033 184.379 765.669 184.99 766.469 185.132L766.817 183.162ZM777.916 185.119L777.568 187.089C778.229 187.205 778.905 186.982 779.367 186.495C779.829 186.008 780.015 185.321 779.864 184.667L777.916 185.119ZM765.804 132.872L767.752 132.42C767.571 131.639 766.941 131.042 766.151 130.902L765.804 132.872ZM756.015 131.146L756.362 129.176C755.573 129.037 754.776 129.383 754.339 130.055L756.015 131.146ZM749.353 159.256L747.662 158.188C747.306 158.752 747.254 159.456 747.524 160.065C747.793 160.675 748.349 161.11 749.005 161.226L749.353 159.256ZM758.523 144.738L760.477 144.313C760.305 143.52 759.67 142.909 758.87 142.768C758.071 142.627 757.266 142.984 756.832 143.67L758.523 144.738ZM762.175 161.517L761.828 163.487C762.484 163.602 763.155 163.384 763.617 162.903C764.079 162.422 764.271 161.743 764.129 161.092L762.175 161.517ZM726.417 178.069L737.24 179.978L737.935 176.038L727.112 174.13L726.417 178.069ZM739.28 179.073L745.601 169.028L742.215 166.898L735.895 176.943L739.28 179.073ZM743.561 169.933L763.966 173.531L764.66 169.591L744.255 165.993L743.561 169.933ZM762.358 171.983L764.862 183.584L768.772 182.74L766.268 171.139L762.358 171.983ZM766.469 185.132L777.568 187.089L778.263 183.149L767.164 181.192L766.469 185.132ZM779.864 184.667L767.752 132.42L763.856 133.324L775.967 185.571L779.864 184.667ZM766.151 130.902L756.362 129.176L755.668 133.116L765.457 134.842L766.151 130.902ZM754.339 130.055L725.088 175.009L728.441 177.19L757.691 132.237L754.339 130.055ZM751.044 160.324L760.214 145.806L756.832 143.67L747.662 158.188L751.044 160.324ZM756.569 145.163L760.221 161.942L764.129 161.092L760.477 144.313L756.569 145.163ZM762.522 159.547L749.7 157.287L749.005 161.226L761.828 163.487L762.522 159.547ZM785.363 186.432L783.394 186.085C783.202 187.173 783.928 188.21 785.016 188.402L785.363 186.432ZM820.038 192.546L819.691 194.516C820.779 194.708 821.816 193.981 822.008 192.894L820.038 192.546ZM821.74 182.895L823.71 183.243C823.902 182.155 823.175 181.117 822.088 180.926L821.74 182.895ZM797.681 178.653L795.712 178.306C795.52 179.394 796.246 180.431 797.334 180.623L797.681 178.653ZM804.488 140.049L806.458 140.396C806.65 139.308 805.923 138.271 804.836 138.079L804.488 140.049ZM793.872 138.177L794.219 136.207C793.132 136.015 792.094 136.742 791.903 137.829L793.872 138.177ZM785.016 188.402L819.691 194.516L820.386 190.577L785.711 184.463L785.016 188.402ZM822.008 192.894L823.71 183.243L819.771 182.548L818.069 192.199L822.008 192.894ZM822.088 180.926L798.029 176.683L797.334 180.623L821.393 184.865L822.088 180.926ZM799.651 179L806.458 140.396L802.519 139.701L795.712 178.306L799.651 179ZM804.836 138.079L794.219 136.207L793.525 140.146L804.141 142.018L804.836 138.079ZM791.903 137.829L783.394 186.085L787.333 186.78L795.842 138.524L791.903 137.829ZM828.045 193.958L826.075 193.611C825.883 194.699 826.61 195.736 827.697 195.928L828.045 193.958ZM864.788 200.437L864.441 202.407C865.528 202.598 866.566 201.872 866.758 200.784L864.788 200.437ZM866.453 190.993L868.423 191.34C868.615 190.252 867.888 189.215 866.801 189.023L866.453 190.993ZM840.257 186.374L838.288 186.026C838.096 187.114 838.822 188.151 839.91 188.343L840.257 186.374ZM842.044 176.24L842.392 174.27C841.304 174.078 840.266 174.805 840.075 175.893L842.044 176.24ZM864.793 180.251L864.446 182.221C865.534 182.413 866.571 181.686 866.763 180.598L864.793 180.251ZM866.459 170.807L868.428 171.154C868.62 170.066 867.894 169.029 866.806 168.837L866.459 170.807ZM843.71 166.796L841.74 166.448C841.548 167.536 842.274 168.573 843.362 168.765L843.71 166.796ZM845.436 157.007L845.783 155.037C844.695 154.845 843.658 155.572 843.466 156.659L845.436 157.007ZM871.287 161.565L870.939 163.534C872.027 163.726 873.065 163 873.256 161.912L871.287 161.565ZM872.952 152.121L874.922 152.468C875.113 151.38 874.387 150.343 873.299 150.151L872.952 152.121ZM836.554 145.703L836.901 143.733C835.813 143.541 834.776 144.267 834.584 145.355L836.554 145.703ZM827.697 195.928L864.441 202.407L865.135 198.467L828.392 191.988L827.697 195.928ZM866.758 200.784L868.423 191.34L864.484 190.645L862.818 200.09L866.758 200.784ZM866.801 189.023L840.605 184.404L839.91 188.343L866.106 192.962L866.801 189.023ZM842.227 186.721L844.014 176.587L840.075 175.893L838.288 186.026L842.227 186.721ZM841.697 178.21L864.446 182.221L865.141 178.282L842.392 174.27L841.697 178.21ZM866.763 180.598L868.428 171.154L864.489 170.46L862.824 179.904L866.763 180.598ZM866.806 168.837L844.057 164.826L843.362 168.765L866.111 172.776L866.806 168.837ZM845.679 167.143L847.405 157.354L843.466 156.659L841.74 166.448L845.679 167.143ZM845.088 158.976L870.939 163.534L871.634 159.595L845.783 155.037L845.088 158.976ZM873.256 161.912L874.922 152.468L870.982 151.773L869.317 161.218L873.256 161.912ZM873.299 150.151L836.901 143.733L836.206 147.672L872.605 154.09L873.299 150.151ZM834.584 145.355L826.075 193.611L830.014 194.305L838.523 146.05L834.584 145.355ZM940.233 183.957L941.066 182.139L941.058 182.136L940.233 183.957ZM949.62 179.5L948.212 180.92C948.589 181.294 949.1 181.503 949.631 181.5C950.163 181.497 950.671 181.282 951.044 180.904L949.62 179.5ZM956.545 172.475L957.969 173.88C958.705 173.133 958.739 171.945 958.048 171.157L956.545 172.475ZM933.616 192.458L934.442 190.636L934.44 190.635L933.616 192.458ZM921.091 195.367L922.613 194.069C921.899 193.232 920.643 193.129 919.802 193.838L921.091 195.367ZM913.493 201.775L912.203 200.246C911.379 200.941 911.254 202.165 911.922 203.013L913.493 201.775ZM932.258 215.075C937.779 216.049 942.942 215.49 947.025 213.217C951.165 210.913 953.988 206.958 954.93 201.618L950.99 200.923C950.242 205.165 948.092 208.046 945.08 209.722C942.011 211.43 937.841 211.998 932.953 211.136L932.258 215.075ZM954.93 201.618C955.771 196.846 954.829 192.983 952.219 189.755C949.712 186.654 945.796 184.305 941.066 182.139L939.4 185.776C944.009 187.886 947.21 189.921 949.108 192.269C950.904 194.491 951.656 197.147 950.99 200.923L954.93 201.618ZM941.058 182.136C937.011 180.302 934.832 179.162 933.692 178.186C933.173 177.741 932.997 177.432 932.925 177.225C932.852 177.018 932.809 176.707 932.911 176.127L928.972 175.433C928.795 176.438 928.778 177.492 929.151 178.551C929.523 179.611 930.212 180.472 931.09 181.224C932.745 182.641 935.49 184.005 939.408 185.779L941.058 182.136ZM932.911 176.127C933.02 175.513 933.345 175.053 933.963 174.743C934.641 174.403 935.805 174.19 937.565 174.5L938.259 170.561C935.952 170.154 933.849 170.325 932.169 171.168C930.428 172.042 929.301 173.565 928.972 175.433L932.911 176.127ZM937.565 174.5C941.061 175.117 944.597 177.337 948.212 180.92L951.028 178.079C947.14 174.226 942.897 171.379 938.259 170.561L937.565 174.5ZM951.044 180.904L957.969 173.88L955.12 171.071L948.195 178.096L951.044 180.904ZM958.048 171.157C953.542 166.016 947.523 162.528 940.05 161.21L939.356 165.149C945.946 166.311 951.144 169.35 955.041 173.794L958.048 171.157ZM940.05 161.21C934.746 160.275 929.769 161.005 925.847 163.303C921.894 165.619 919.151 169.454 918.279 174.4L922.218 175.095C922.89 171.285 924.945 168.467 927.869 166.754C930.824 165.023 934.802 164.346 939.356 165.149L940.05 161.21ZM918.279 174.4C917.332 179.768 918.453 183.793 921.316 187.005C924.028 190.048 928.172 192.192 932.793 194.28L934.44 190.635C929.778 188.528 926.382 186.677 924.302 184.343C922.373 182.179 921.451 179.446 922.218 175.095L918.279 174.4ZM932.791 194.279C936.658 196.032 938.643 197.204 939.626 198.135C940.075 198.56 940.222 198.852 940.281 199.039C940.34 199.228 940.368 199.491 940.285 199.96L944.224 200.654C944.379 199.779 944.407 198.825 944.095 197.835C943.782 196.843 943.184 195.995 942.377 195.231C940.847 193.782 938.275 192.373 934.442 190.636L932.791 194.279ZM940.285 199.96C940.143 200.766 939.731 201.277 938.986 201.606C938.14 201.978 936.764 202.141 934.813 201.797L934.118 205.736C936.51 206.158 938.767 206.073 940.599 205.266C942.532 204.414 943.844 202.812 944.224 200.654L940.285 199.96ZM934.813 201.797C929.91 200.933 926.142 198.207 922.613 194.069L919.569 196.665C923.462 201.228 927.992 204.656 934.118 205.736L934.813 201.797ZM919.802 193.838L912.203 200.246L914.782 203.304L922.38 196.896L919.802 193.838ZM911.922 203.013C917.124 209.614 924.499 213.707 932.258 215.075L932.953 211.136C926.098 209.927 919.619 206.318 915.064 200.537L911.922 203.013ZM954.511 216.258L952.835 215.167C952.469 215.729 952.409 216.438 952.677 217.054C952.944 217.67 953.503 218.111 954.164 218.227L954.511 216.258ZM965.334 218.166L964.987 220.136C965.788 220.277 966.594 219.919 967.027 219.231L965.334 218.166ZM971.654 208.121L972.002 206.151C971.201 206.01 970.395 206.368 969.962 207.056L971.654 208.121ZM992.06 211.719L994.015 211.297C993.843 210.502 993.208 209.89 992.407 209.749L992.06 211.719ZM994.563 223.32L992.608 223.742C992.78 224.536 993.415 225.148 994.216 225.289L994.563 223.32ZM1005.66 225.277L1005.31 227.246C1005.98 227.363 1006.65 227.14 1007.11 226.653C1007.58 226.166 1007.76 225.479 1007.61 224.825L1005.66 225.277ZM993.551 173.03L995.499 172.578C995.318 171.797 994.688 171.2 993.898 171.06L993.551 173.03ZM983.762 171.304L984.109 169.334C983.319 169.195 982.523 169.541 982.085 170.213L983.762 171.304ZM977.099 199.414L975.408 198.346C975.052 198.91 975 199.613 975.27 200.223C975.54 200.833 976.095 201.268 976.752 201.384L977.099 199.414ZM986.269 184.896L988.224 184.471C988.051 183.677 987.416 183.067 986.617 182.926C985.817 182.785 985.012 183.141 984.579 183.828L986.269 184.896ZM989.921 201.675L989.574 203.645C990.231 203.76 990.901 203.541 991.363 203.061C991.825 202.58 992.017 201.901 991.876 201.25L989.921 201.675ZM954.164 218.227L964.987 220.136L965.681 216.196L954.858 214.288L954.164 218.227ZM967.027 219.231L973.347 209.186L969.962 207.056L963.641 217.101L967.027 219.231ZM971.307 210.09L991.712 213.688L992.407 209.749L972.002 206.151L971.307 210.09ZM990.105 212.141L992.608 223.742L996.518 222.898L994.015 211.297L990.105 212.141ZM994.216 225.289L1005.31 227.246L1006.01 223.307L994.91 221.35L994.216 225.289ZM1007.61 224.825L995.499 172.578L991.602 173.482L1003.71 225.728L1007.61 224.825ZM993.898 171.06L984.109 169.334L983.414 173.273L993.203 175L993.898 171.06ZM982.085 170.213L952.835 215.167L956.187 217.348L985.438 172.395L982.085 170.213ZM978.79 200.482L987.96 185.964L984.579 183.828L975.408 198.346L978.79 200.482ZM984.315 185.321L987.967 202.1L991.876 201.25L988.224 184.471L984.315 185.321ZM990.269 199.705L977.446 197.444L976.752 201.384L989.574 203.645L990.269 199.705ZM1013.11 226.59L1011.14 226.243C1010.95 227.331 1011.67 228.368 1012.76 228.56L1013.11 226.59ZM1047.78 232.704L1047.44 234.674C1048.53 234.866 1049.56 234.139 1049.75 233.052L1047.78 232.704ZM1049.49 223.053L1051.46 223.4C1051.65 222.313 1050.92 221.275 1049.83 221.083L1049.49 223.053ZM1025.43 218.811L1023.46 218.464C1023.27 219.551 1023.99 220.589 1025.08 220.78L1025.43 218.811ZM1032.23 180.206L1034.2 180.554C1034.4 179.466 1033.67 178.429 1032.58 178.237L1032.23 180.206ZM1021.62 178.334L1021.97 176.365C1020.88 176.173 1019.84 176.899 1019.65 177.987L1021.62 178.334ZM1012.76 228.56L1047.44 234.674L1048.13 230.735L1013.46 224.62L1012.76 228.56ZM1049.75 233.052L1051.46 223.4L1047.52 222.706L1045.82 232.357L1049.75 233.052ZM1049.83 221.083L1025.78 216.841L1025.08 220.78L1049.14 225.023L1049.83 221.083ZM1027.4 219.158L1034.2 180.554L1030.27 179.859L1023.46 218.464L1027.4 219.158ZM1032.58 178.237L1021.97 176.365L1021.27 180.304L1031.89 182.176L1032.58 178.237ZM1019.65 177.987L1011.14 226.243L1015.08 226.937L1023.59 178.682L1019.65 177.987ZM1055.79 234.116L1053.82 233.769C1053.63 234.856 1054.36 235.894 1055.44 236.086L1055.79 234.116ZM1092.53 240.595L1092.19 242.564C1093.27 242.756 1094.31 242.03 1094.5 240.942L1092.53 240.595ZM1094.2 231.15L1096.17 231.498C1096.36 230.41 1095.63 229.373 1094.55 229.181L1094.2 231.15ZM1068 226.531L1066.03 226.184C1065.84 227.272 1066.57 228.309 1067.66 228.501L1068 226.531ZM1069.79 216.398L1070.14 214.428C1069.05 214.236 1068.01 214.963 1067.82 216.05L1069.79 216.398ZM1092.54 220.409L1092.19 222.379C1093.28 222.57 1094.32 221.844 1094.51 220.756L1092.54 220.409ZM1094.2 210.965L1096.17 211.312C1096.37 210.224 1095.64 209.187 1094.55 208.995L1094.2 210.965ZM1071.46 206.953L1069.49 206.606C1069.29 207.694 1070.02 208.731 1071.11 208.923L1071.46 206.953ZM1073.18 197.164L1073.53 195.195C1072.44 195.003 1071.4 195.729 1071.21 196.817L1073.18 197.164ZM1099.03 201.723L1098.69 203.692C1099.77 203.884 1100.81 203.158 1101 202.07L1099.03 201.723ZM1100.7 192.278L1102.67 192.626C1102.86 191.538 1102.13 190.501 1101.05 190.309L1100.7 192.278ZM1064.3 185.86L1064.65 183.891C1063.56 183.699 1062.52 184.425 1062.33 185.513L1064.3 185.86ZM1055.44 236.086L1092.19 242.564L1092.88 238.625L1056.14 232.146L1055.44 236.086ZM1094.5 240.942L1096.17 231.498L1092.23 230.803L1090.56 240.247L1094.5 240.942ZM1094.55 229.181L1068.35 224.562L1067.66 228.501L1093.85 233.12L1094.55 229.181ZM1069.97 226.879L1071.76 216.745L1067.82 216.05L1066.03 226.184L1069.97 226.879ZM1069.44 218.367L1092.19 222.379L1092.89 218.439L1070.14 214.428L1069.44 218.367ZM1094.51 220.756L1096.17 211.312L1092.24 210.617L1090.57 220.062L1094.51 220.756ZM1094.55 208.995L1071.8 204.984L1071.11 208.923L1093.86 212.934L1094.55 208.995ZM1073.43 207.301L1075.15 197.512L1071.21 196.817L1069.49 206.606L1073.43 207.301ZM1072.83 199.134L1098.69 203.692L1099.38 199.753L1073.53 195.195L1072.83 199.134ZM1101 202.07L1102.67 192.626L1098.73 191.931L1097.06 201.375L1101 202.07ZM1101.05 190.309L1064.65 183.891L1063.95 187.83L1100.35 194.248L1101.05 190.309ZM1062.33 185.513L1053.82 233.769L1057.76 234.463L1066.27 186.208L1062.33 185.513ZM1167.98 224.115L1168.81 222.297L1168.8 222.293L1167.98 224.115ZM1177.37 219.658L1175.96 221.078C1176.34 221.452 1176.85 221.661 1177.38 221.658C1177.91 221.654 1178.42 221.44 1178.79 221.062L1177.37 219.658ZM1184.29 212.633L1185.72 214.037C1186.45 213.291 1186.49 212.103 1185.79 211.315L1184.29 212.633ZM1161.36 232.615L1162.19 230.794L1162.19 230.793L1161.36 232.615ZM1148.84 235.525L1150.36 234.227C1149.64 233.39 1148.39 233.286 1147.55 233.996L1148.84 235.525ZM1141.24 241.933L1139.95 240.404C1139.13 241.099 1139 242.323 1139.67 243.17L1141.24 241.933ZM1160 255.233C1165.53 256.207 1170.69 255.648 1174.77 253.375C1178.91 251.071 1181.73 247.116 1182.68 241.776L1178.74 241.081C1177.99 245.323 1175.84 248.203 1172.83 249.88C1169.76 251.588 1165.59 252.156 1160.7 251.294L1160 255.233ZM1182.68 241.776C1183.52 237.004 1182.58 233.141 1179.97 229.913C1177.46 226.811 1173.54 224.463 1168.81 222.297L1167.15 225.934C1171.76 228.044 1174.96 230.078 1176.85 232.427C1178.65 234.649 1179.4 237.305 1178.74 241.081L1182.68 241.776ZM1168.8 222.293C1164.76 220.46 1162.58 219.32 1161.44 218.344C1160.92 217.899 1160.74 217.59 1160.67 217.383C1160.6 217.175 1160.56 216.865 1160.66 216.285L1156.72 215.59C1156.54 216.596 1156.52 217.649 1156.9 218.709C1157.27 219.769 1157.96 220.63 1158.84 221.381C1160.49 222.799 1163.24 224.163 1167.15 225.937L1168.8 222.293ZM1160.66 216.285C1160.77 215.671 1161.09 215.211 1161.71 214.901C1162.39 214.561 1163.55 214.348 1165.31 214.658L1166.01 210.719C1163.7 210.312 1161.6 210.483 1159.92 211.326C1158.17 212.199 1157.05 213.723 1156.72 215.59L1160.66 216.285ZM1165.31 214.658C1168.81 215.275 1172.34 217.495 1175.96 221.078L1178.77 218.237C1174.89 214.384 1170.64 211.537 1166.01 210.719L1165.31 214.658ZM1178.79 221.062L1185.72 214.037L1182.87 211.229L1175.94 218.253L1178.79 221.062ZM1185.79 211.315C1181.29 206.174 1175.27 202.686 1167.8 201.368L1167.1 205.307C1173.69 206.469 1178.89 209.508 1182.79 213.952L1185.79 211.315ZM1167.8 201.368C1162.49 200.433 1157.51 201.163 1153.59 203.461C1149.64 205.777 1146.9 209.612 1146.03 214.558L1149.96 215.252C1150.64 211.443 1152.69 208.625 1155.62 206.912C1158.57 205.18 1162.55 204.504 1167.1 205.307L1167.8 201.368ZM1146.03 214.558C1145.08 219.926 1146.2 223.95 1149.06 227.163C1151.77 230.206 1155.92 232.35 1160.54 234.438L1162.19 230.793C1157.52 228.686 1154.13 226.835 1152.05 224.501C1150.12 222.337 1149.2 219.604 1149.96 215.252L1146.03 214.558ZM1160.54 234.437C1164.4 236.19 1166.39 237.362 1167.37 238.293C1167.82 238.718 1167.97 239.01 1168.03 239.197C1168.09 239.385 1168.11 239.649 1168.03 240.117L1171.97 240.812C1172.13 239.937 1172.15 238.983 1171.84 237.993C1171.53 237.001 1170.93 236.153 1170.12 235.389C1168.59 233.939 1166.02 232.531 1162.19 230.794L1160.54 234.437ZM1168.03 240.117C1167.89 240.924 1167.48 241.435 1166.73 241.763C1165.89 242.136 1164.51 242.299 1162.56 241.955L1161.86 245.894C1164.26 246.316 1166.51 246.231 1168.35 245.424C1170.28 244.572 1171.59 242.969 1171.97 240.812L1168.03 240.117ZM1162.56 241.955C1157.66 241.091 1153.89 238.365 1150.36 234.227L1147.32 236.823C1151.21 241.386 1155.74 244.814 1161.86 245.894L1162.56 241.955ZM1147.55 233.996L1139.95 240.404L1142.53 243.461L1150.13 237.054L1147.55 233.996ZM1139.67 243.17C1144.87 249.772 1152.25 253.865 1160 255.233L1160.7 251.294C1153.84 250.085 1147.37 246.476 1142.81 240.695L1139.67 243.17ZM1182.26 256.415L1180.58 255.325C1180.21 255.887 1180.16 256.596 1180.42 257.212C1180.69 257.828 1181.25 258.268 1181.91 258.385L1182.26 256.415ZM1193.08 258.324L1192.73 260.293C1193.53 260.435 1194.34 260.077 1194.77 259.389L1193.08 258.324ZM1199.4 248.279L1199.75 246.309C1198.95 246.168 1198.14 246.525 1197.71 247.214L1199.4 248.279ZM1219.81 251.877L1221.76 251.455C1221.59 250.66 1220.95 250.048 1220.15 249.907L1219.81 251.877ZM1222.31 263.478L1220.35 263.9C1220.53 264.694 1221.16 265.306 1221.96 265.447L1222.31 263.478ZM1233.41 265.435L1233.06 267.404C1233.72 267.521 1234.4 267.298 1234.86 266.811C1235.32 266.324 1235.51 265.637 1235.36 264.983L1233.41 265.435ZM1221.3 213.188L1223.25 212.736C1223.06 211.955 1222.43 211.357 1221.64 211.218L1221.3 213.188ZM1211.51 211.462L1211.86 209.492C1211.07 209.353 1210.27 209.699 1209.83 210.371L1211.51 211.462ZM1204.85 239.572L1203.15 238.504C1202.8 239.067 1202.75 239.771 1203.02 240.381C1203.29 240.99 1203.84 241.426 1204.5 241.541L1204.85 239.572ZM1214.02 225.054L1215.97 224.628C1215.8 223.835 1215.16 223.225 1214.36 223.084C1213.56 222.943 1212.76 223.299 1212.32 223.986L1214.02 225.054ZM1217.67 241.833L1217.32 243.802C1217.98 243.918 1218.65 243.699 1219.11 243.219C1219.57 242.738 1219.76 242.059 1219.62 241.407L1217.67 241.833ZM1181.91 258.385L1192.73 260.293L1193.43 256.354L1182.6 254.446L1181.91 258.385ZM1194.77 259.389L1201.09 249.344L1197.71 247.214L1191.39 257.259L1194.77 259.389ZM1199.05 250.248L1219.46 253.846L1220.15 249.907L1199.75 246.309L1199.05 250.248ZM1217.85 252.299L1220.35 263.9L1224.26 263.056L1221.76 251.455L1217.85 252.299ZM1221.96 265.447L1233.06 267.404L1233.76 263.465L1222.66 261.508L1221.96 265.447ZM1235.36 264.983L1223.25 212.736L1219.35 213.639L1231.46 265.886L1235.36 264.983ZM1221.64 211.218L1211.86 209.492L1211.16 213.431L1220.95 215.157L1221.64 211.218ZM1209.83 210.371L1180.58 255.325L1183.93 257.506L1213.18 212.552L1209.83 210.371ZM1206.54 240.64L1215.71 226.122L1212.32 223.986L1203.15 238.504L1206.54 240.64ZM1212.06 225.479L1215.71 242.258L1219.62 241.407L1215.97 224.628L1212.06 225.479ZM1218.02 239.863L1205.19 237.602L1204.5 241.541L1217.32 243.802L1218.02 239.863ZM1240.86 266.748L1238.89 266.401C1238.69 267.488 1239.42 268.526 1240.51 268.718L1240.86 266.748ZM1275.53 272.862L1275.18 274.832C1276.27 275.023 1277.31 274.297 1277.5 273.209L1275.53 272.862ZM1277.23 263.211L1279.2 263.558C1279.39 262.47 1278.67 261.433 1277.58 261.241L1277.23 263.211ZM1253.17 258.969L1251.2 258.621C1251.01 259.709 1251.74 260.747 1252.83 260.938L1253.17 258.969ZM1259.98 220.364L1261.95 220.712C1262.14 219.624 1261.42 218.586 1260.33 218.395L1259.98 220.364ZM1249.37 218.492L1249.71 216.523C1248.62 216.331 1247.59 217.057 1247.4 218.145L1249.37 218.492ZM1240.51 268.718L1275.18 274.832L1275.88 270.892L1241.2 264.778L1240.51 268.718ZM1277.5 273.209L1279.2 263.558L1275.26 262.864L1273.56 272.515L1277.5 273.209ZM1277.58 261.241L1253.52 256.999L1252.83 260.938L1276.89 265.181L1277.58 261.241ZM1255.14 259.316L1261.95 220.712L1258.01 220.017L1251.2 258.621L1255.14 259.316ZM1260.33 218.395L1249.71 216.523L1249.02 220.462L1259.63 222.334L1260.33 218.395ZM1247.4 218.145L1238.89 266.401L1242.83 267.095L1251.33 218.84L1247.4 218.145ZM1283.54 274.274L1281.57 273.926C1281.38 275.014 1282.1 276.052 1283.19 276.243L1283.54 274.274ZM1320.28 280.753L1319.93 282.722C1321.02 282.914 1322.06 282.188 1322.25 281.1L1320.28 280.753ZM1321.95 271.308L1323.92 271.656C1324.11 270.568 1323.38 269.53 1322.29 269.339L1321.95 271.308ZM1295.75 266.689L1293.78 266.342C1293.59 267.43 1294.32 268.467 1295.4 268.659L1295.75 266.689ZM1297.54 256.556L1297.88 254.586C1296.8 254.394 1295.76 255.12 1295.57 256.208L1297.54 256.556ZM1320.29 260.567L1319.94 262.536C1321.03 262.728 1322.06 262.002 1322.26 260.914L1320.29 260.567ZM1321.95 251.123L1323.92 251.47C1324.11 250.382 1323.39 249.345 1322.3 249.153L1321.95 251.123ZM1299.2 247.111L1297.23 246.764C1297.04 247.852 1297.77 248.889 1298.86 249.081L1299.2 247.111ZM1300.93 237.322L1301.28 235.353C1300.19 235.161 1299.15 235.887 1298.96 236.975L1300.93 237.322ZM1326.78 241.881L1326.43 243.85C1327.52 244.042 1328.56 243.316 1328.75 242.228L1326.78 241.881ZM1328.44 232.436L1330.41 232.784C1330.61 231.696 1329.88 230.658 1328.79 230.467L1328.44 232.436ZM1292.05 226.018L1292.39 224.049C1291.31 223.857 1290.27 224.583 1290.08 225.671L1292.05 226.018ZM1283.19 276.243L1319.93 282.722L1320.63 278.783L1283.88 272.304L1283.19 276.243ZM1322.25 281.1L1323.92 271.656L1319.98 270.961L1318.31 280.405L1322.25 281.1ZM1322.29 269.339L1296.1 264.72L1295.4 268.659L1321.6 273.278L1322.29 269.339ZM1297.72 267.037L1299.51 256.903L1295.57 256.208L1293.78 266.342L1297.72 267.037ZM1297.19 258.525L1319.94 262.536L1320.63 258.597L1297.88 254.586L1297.19 258.525ZM1322.26 260.914L1323.92 251.47L1319.98 250.775L1318.32 260.22L1322.26 260.914ZM1322.3 249.153L1299.55 245.142L1298.86 249.081L1321.6 253.092L1322.3 249.153ZM1301.17 247.459L1302.9 237.67L1298.96 236.975L1297.23 246.764L1301.17 247.459ZM1300.58 239.292L1326.43 243.85L1327.13 239.911L1301.28 235.353L1300.58 239.292ZM1328.75 242.228L1330.41 232.784L1326.48 232.089L1324.81 241.533L1328.75 242.228ZM1328.79 230.467L1292.39 224.049L1291.7 227.988L1328.1 234.406L1328.79 230.467ZM1290.08 225.671L1281.57 273.926L1285.51 274.621L1294.02 226.366L1290.08 225.671ZM1395.73 264.273L1396.56 262.455L1396.55 262.451L1395.73 264.273ZM1405.11 259.815L1403.7 261.236C1404.08 261.61 1404.59 261.818 1405.12 261.815C1405.66 261.812 1406.16 261.598 1406.54 261.22L1405.11 259.815ZM1412.04 252.791L1413.46 254.195C1414.2 253.449 1414.23 252.261 1413.54 251.473L1412.04 252.791ZM1389.11 272.773L1389.93 270.952L1389.93 270.951L1389.11 272.773ZM1376.58 275.682L1378.11 274.385C1377.39 273.547 1376.14 273.444 1375.29 274.154L1376.58 275.682ZM1368.99 282.09L1367.7 280.562C1366.87 281.257 1366.75 282.481 1367.41 283.328L1368.99 282.09ZM1387.75 295.391C1393.27 296.365 1398.43 295.806 1402.52 293.533C1406.66 291.229 1409.48 287.274 1410.42 281.933L1406.48 281.239C1405.74 285.481 1403.59 288.361 1400.57 290.038C1397.5 291.746 1393.33 292.314 1388.45 291.452L1387.75 295.391ZM1410.42 281.933C1411.26 277.161 1410.32 273.299 1407.71 270.071C1405.21 266.969 1401.29 264.621 1396.56 262.455L1394.89 266.092C1399.5 268.202 1402.7 270.236 1404.6 272.585C1406.4 274.807 1407.15 277.463 1406.48 281.239L1410.42 281.933ZM1396.55 262.451C1392.5 260.618 1390.32 259.478 1389.19 258.502C1388.67 258.057 1388.49 257.748 1388.42 257.541C1388.34 257.333 1388.3 257.023 1388.4 256.443L1384.47 255.748C1384.29 256.754 1384.27 257.807 1384.64 258.867C1385.02 259.926 1385.71 260.787 1386.58 261.539C1388.24 262.957 1390.98 264.32 1394.9 266.095L1396.55 262.451ZM1388.4 256.443C1388.51 255.828 1388.84 255.369 1389.46 255.059C1390.13 254.719 1391.3 254.506 1393.06 254.816L1393.75 250.877C1391.44 250.47 1389.34 250.641 1387.66 251.484C1385.92 252.357 1384.79 253.881 1384.47 255.748L1388.4 256.443ZM1393.06 254.816C1396.55 255.433 1400.09 257.653 1403.7 261.236L1406.52 258.395C1402.63 254.542 1398.39 251.695 1393.75 250.877L1393.06 254.816ZM1406.54 261.22L1413.46 254.195L1410.61 251.387L1403.69 258.411L1406.54 261.22ZM1413.54 251.473C1409.03 246.332 1403.02 242.843 1395.54 241.526L1394.85 245.465C1401.44 246.627 1406.64 249.665 1410.53 254.11L1413.54 251.473ZM1395.54 241.526C1390.24 240.59 1385.26 241.321 1381.34 243.619C1377.39 245.935 1374.64 249.77 1373.77 254.716L1377.71 255.41C1378.38 251.601 1380.44 248.783 1383.36 247.07C1386.32 245.338 1390.3 244.662 1394.85 245.465L1395.54 241.526ZM1373.77 254.716C1372.83 260.084 1373.95 264.108 1376.81 267.321C1379.52 270.363 1383.67 272.507 1388.29 274.596L1389.93 270.951C1385.27 268.844 1381.87 266.992 1379.79 264.659C1377.87 262.495 1376.94 259.762 1377.71 255.41L1373.77 254.716ZM1388.28 274.595C1392.15 276.348 1394.14 277.52 1395.12 278.451C1395.57 278.876 1395.71 279.168 1395.77 279.355C1395.83 279.543 1395.86 279.806 1395.78 280.275L1399.72 280.97C1399.87 280.094 1399.9 279.141 1399.59 278.151C1399.27 277.159 1398.68 276.311 1397.87 275.547C1396.34 274.097 1393.77 272.689 1389.93 270.952L1388.28 274.595ZM1395.78 280.275C1395.64 281.082 1395.22 281.593 1394.48 281.921C1393.63 282.294 1392.26 282.457 1390.31 282.113L1389.61 286.052C1392 286.474 1394.26 286.389 1396.09 285.581C1398.03 284.729 1399.34 283.127 1399.72 280.97L1395.78 280.275ZM1390.31 282.113C1385.4 281.248 1381.63 278.522 1378.11 274.385L1375.06 276.98C1378.95 281.544 1383.48 284.972 1389.61 286.052L1390.31 282.113ZM1375.29 274.154L1367.7 280.562L1370.28 283.619L1377.87 277.211L1375.29 274.154ZM1367.41 283.328C1372.62 289.93 1379.99 294.023 1387.75 295.391L1388.45 291.452C1381.59 290.243 1375.11 286.633 1370.56 280.853L1367.41 283.328ZM1410 296.573L1408.33 295.482C1407.96 296.045 1407.9 296.754 1408.17 297.37C1408.44 297.986 1409 298.426 1409.66 298.543L1410 296.573ZM1420.83 298.482L1420.48 300.451C1421.28 300.592 1422.09 300.235 1422.52 299.547L1420.83 298.482ZM1427.15 288.437L1427.49 286.467C1426.69 286.326 1425.89 286.683 1425.45 287.371L1427.15 288.437ZM1447.55 292.034L1449.51 291.613C1449.34 290.818 1448.7 290.206 1447.9 290.065L1447.55 292.034ZM1450.06 303.635L1448.1 304.057C1448.27 304.852 1448.91 305.464 1449.71 305.605L1450.06 303.635ZM1461.15 305.592L1460.81 307.562C1461.47 307.679 1462.14 307.456 1462.61 306.969C1463.07 306.481 1463.25 305.795 1463.1 305.141L1461.15 305.592ZM1449.04 253.346L1450.99 252.894C1450.81 252.113 1450.18 251.515 1449.39 251.376L1449.04 253.346ZM1439.25 251.62L1439.6 249.65C1438.81 249.511 1438.02 249.857 1437.58 250.529L1439.25 251.62ZM1432.59 279.73L1430.9 278.662C1430.55 279.225 1430.49 279.929 1430.76 280.539C1431.03 281.148 1431.59 281.584 1432.24 281.699L1432.59 279.73ZM1441.76 265.212L1443.72 264.786C1443.54 263.993 1442.91 263.383 1442.11 263.242C1441.31 263.101 1440.5 263.457 1440.07 264.143L1441.76 265.212ZM1445.41 281.991L1445.07 283.96C1445.72 284.076 1446.39 283.857 1446.86 283.376C1447.32 282.896 1447.51 282.217 1447.37 281.565L1445.41 281.991ZM1409.66 298.543L1420.48 300.451L1421.17 296.512L1410.35 294.604L1409.66 298.543ZM1422.52 299.547L1428.84 289.502L1425.45 287.371L1419.13 297.416L1422.52 299.547ZM1426.8 290.406L1447.21 294.004L1447.9 290.065L1427.49 286.467L1426.8 290.406ZM1445.6 292.456L1448.1 304.057L1452.01 303.214L1449.51 291.613L1445.6 292.456ZM1449.71 305.605L1460.81 307.562L1461.5 303.623L1450.4 301.666L1449.71 305.605ZM1463.1 305.141L1450.99 252.894L1447.1 253.797L1459.21 306.044L1463.1 305.141ZM1449.39 251.376L1439.6 249.65L1438.91 253.589L1448.7 255.315L1449.39 251.376ZM1437.58 250.529L1408.33 295.482L1411.68 297.664L1440.93 252.71L1437.58 250.529ZM1434.28 280.798L1443.45 266.28L1440.07 264.143L1430.9 278.662L1434.28 280.798ZM1439.81 265.637L1443.46 282.416L1447.37 281.565L1443.72 264.786L1439.81 265.637ZM1445.76 280.021L1432.94 277.76L1432.24 281.699L1445.07 283.96L1445.76 280.021ZM1468.6 306.906L1466.63 306.558C1466.44 307.646 1467.17 308.684 1468.26 308.875L1468.6 306.906ZM1503.28 313.02L1502.93 314.99C1504.02 315.181 1505.06 314.455 1505.25 313.367L1503.28 313.02ZM1504.98 303.369L1506.95 303.716C1507.14 302.628 1506.41 301.591 1505.33 301.399L1504.98 303.369ZM1480.92 299.127L1478.95 298.779C1478.76 299.867 1479.49 300.904 1480.57 301.096L1480.92 299.127ZM1487.73 260.522L1489.7 260.869C1489.89 259.782 1489.16 258.744 1488.07 258.552L1487.73 260.522ZM1477.11 258.65L1477.46 256.681C1476.37 256.489 1475.33 257.215 1475.14 258.303L1477.11 258.65ZM1468.26 308.875L1502.93 314.99L1503.63 311.05L1468.95 304.936L1468.26 308.875ZM1505.25 313.367L1506.95 303.716L1503.01 303.021L1501.31 312.673L1505.25 313.367ZM1505.33 301.399L1481.27 297.157L1480.57 301.096L1504.63 305.338L1505.33 301.399ZM1482.89 299.474L1489.7 260.869L1485.76 260.175L1478.95 298.779L1482.89 299.474ZM1488.07 258.552L1477.46 256.681L1476.76 260.62L1487.38 262.492L1488.07 258.552ZM1475.14 258.303L1466.63 306.558L1470.57 307.253L1479.08 258.997L1475.14 258.303ZM1511.28 314.432L1509.31 314.084C1509.12 315.172 1509.85 316.209 1510.94 316.401L1511.28 314.432ZM1548.03 320.91L1547.68 322.88C1548.77 323.072 1549.81 322.346 1550 321.258L1548.03 320.91ZM1549.69 311.466L1551.66 311.813C1551.85 310.726 1551.13 309.688 1550.04 309.497L1549.69 311.466ZM1523.5 306.847L1521.53 306.5C1521.34 307.588 1522.06 308.625 1523.15 308.817L1523.5 306.847ZM1525.28 296.713L1525.63 294.744C1524.54 294.552 1523.51 295.278 1523.31 296.366L1525.28 296.713ZM1548.03 300.725L1547.69 302.694C1548.77 302.886 1549.81 302.16 1550 301.072L1548.03 300.725ZM1549.7 291.28L1551.67 291.628C1551.86 290.54 1551.13 289.503 1550.05 289.311L1549.7 291.28ZM1526.95 287.269L1524.98 286.922C1524.79 288.01 1525.51 289.047 1526.6 289.239L1526.95 287.269ZM1528.67 277.48L1529.02 275.51C1527.93 275.319 1526.9 276.045 1526.71 277.133L1528.67 277.48ZM1554.53 282.038L1554.18 284.008C1555.27 284.2 1556.3 283.473 1556.5 282.386L1554.53 282.038ZM1556.19 272.594L1558.16 272.941C1558.35 271.854 1557.63 270.816 1556.54 270.624L1556.19 272.594ZM1519.79 266.176L1520.14 264.206C1519.05 264.015 1518.02 264.741 1517.82 265.829L1519.79 266.176ZM1510.94 316.401L1547.68 322.88L1548.37 318.941L1511.63 312.462L1510.94 316.401ZM1550 321.258L1551.66 311.813L1547.72 311.119L1546.06 320.563L1550 321.258ZM1550.04 309.497L1523.84 304.877L1523.15 308.817L1549.35 313.436L1550.04 309.497ZM1525.47 307.194L1527.25 297.061L1523.31 296.366L1521.53 306.5L1525.47 307.194ZM1524.94 298.683L1547.69 302.694L1548.38 298.755L1525.63 294.744L1524.94 298.683ZM1550 301.072L1551.67 291.628L1547.73 290.933L1546.06 300.377L1550 301.072ZM1550.05 289.311L1527.3 285.299L1526.6 289.239L1549.35 293.25L1550.05 289.311ZM1528.92 287.616L1530.64 277.827L1526.71 277.133L1524.98 286.922L1528.92 287.616ZM1528.33 279.45L1554.18 284.008L1554.87 280.069L1529.02 275.51L1528.33 279.45ZM1556.5 282.386L1558.16 272.941L1554.22 272.247L1552.56 281.691L1556.5 282.386ZM1556.54 270.624L1520.14 264.206L1519.45 268.146L1555.84 274.564L1556.54 270.624ZM1517.82 265.829L1509.31 314.084L1513.25 314.779L1521.76 266.523L1517.82 265.829ZM1623.47 304.431L1624.3 302.613L1624.3 302.609L1623.47 304.431ZM1632.86 299.973L1631.45 301.394C1631.83 301.768 1632.34 301.976 1632.87 301.973C1633.4 301.97 1633.91 301.756 1634.28 301.377L1632.86 299.973ZM1639.78 292.949L1641.21 294.353C1641.94 293.607 1641.98 292.419 1641.29 291.631L1639.78 292.949ZM1616.86 312.931L1617.68 311.11L1617.68 311.109L1616.86 312.931ZM1604.33 315.84L1605.85 314.542C1605.14 313.705 1603.88 313.602 1603.04 314.311L1604.33 315.84ZM1596.73 322.248L1595.44 320.719C1594.62 321.415 1594.49 322.639 1595.16 323.486L1596.73 322.248ZM1615.5 335.549C1621.02 336.522 1626.18 335.964 1630.26 333.691C1634.4 331.386 1637.23 327.432 1638.17 322.091L1634.23 321.397C1633.48 325.639 1631.33 328.519 1628.32 330.196C1625.25 331.904 1621.08 332.472 1616.19 331.61L1615.5 335.549ZM1638.17 322.091C1639.01 317.319 1638.07 313.457 1635.46 310.228C1632.95 307.127 1629.04 304.779 1624.3 302.613L1622.64 306.249C1627.25 308.36 1630.45 310.394 1632.35 312.743C1634.14 314.965 1634.9 317.621 1634.23 321.397L1638.17 322.091ZM1624.3 302.609C1620.25 300.776 1618.07 299.636 1616.93 298.66C1616.41 298.214 1616.24 297.906 1616.16 297.698C1616.09 297.491 1616.05 297.18 1616.15 296.601L1612.21 295.906C1612.03 296.912 1612.02 297.965 1612.39 299.025C1612.76 300.084 1613.45 300.945 1614.33 301.697C1615.98 303.115 1618.73 304.478 1622.65 306.253L1624.3 302.609ZM1616.15 296.601C1616.26 295.986 1616.58 295.527 1617.2 295.217C1617.88 294.877 1619.04 294.664 1620.8 294.974L1621.5 291.035C1619.19 290.628 1617.09 290.799 1615.41 291.642C1613.67 292.515 1612.54 294.039 1612.21 295.906L1616.15 296.601ZM1620.8 294.974C1624.3 295.59 1627.84 297.811 1631.45 301.394L1634.27 298.553C1630.38 294.7 1626.14 291.853 1621.5 291.035L1620.8 294.974ZM1634.28 301.377L1641.21 294.353L1638.36 291.545L1631.43 298.569L1634.28 301.377ZM1641.29 291.631C1636.78 286.49 1630.76 283.001 1623.29 281.684L1622.59 285.623C1629.19 286.785 1634.38 289.823 1638.28 294.267L1641.29 291.631ZM1623.29 281.684C1617.99 280.748 1613.01 281.478 1609.09 283.777C1605.13 286.093 1602.39 289.928 1601.52 294.874L1605.46 295.568C1606.13 291.759 1608.18 288.941 1611.11 287.228C1614.06 285.496 1618.04 284.82 1622.59 285.623L1623.29 281.684ZM1601.52 294.874C1600.57 300.242 1601.69 304.266 1604.56 307.478C1607.27 310.521 1611.41 312.665 1616.03 314.754L1617.68 311.109C1613.02 309.001 1609.62 307.15 1607.54 304.817C1605.61 302.653 1604.69 299.92 1605.46 295.568L1601.52 294.874ZM1616.03 314.753C1619.9 316.506 1621.88 317.678 1622.87 318.608C1623.31 319.034 1623.46 319.326 1623.52 319.513C1623.58 319.701 1623.61 319.964 1623.52 320.433L1627.46 321.128C1627.62 320.252 1627.65 319.298 1627.33 318.309C1627.02 317.317 1626.42 316.469 1625.62 315.704C1624.09 314.255 1621.51 312.847 1617.68 311.11L1616.03 314.753ZM1623.52 320.433C1623.38 321.24 1622.97 321.751 1622.23 322.079C1621.38 322.452 1620 322.615 1618.05 322.271L1617.36 326.21C1619.75 326.632 1622.01 326.547 1623.84 325.739C1625.77 324.887 1627.08 323.285 1627.46 321.128L1623.52 320.433ZM1618.05 322.271C1613.15 321.406 1609.38 318.68 1605.85 314.542L1602.81 317.138C1606.7 321.701 1611.23 325.13 1617.36 326.21L1618.05 322.271ZM1603.04 314.311L1595.44 320.719L1598.02 323.777L1605.62 317.369L1603.04 314.311ZM1595.16 323.486C1600.36 330.088 1607.74 334.181 1615.5 335.549L1616.19 331.61C1609.34 330.401 1602.86 326.791 1598.3 321.01L1595.16 323.486ZM1637.75 336.731L1636.07 335.64C1635.71 336.203 1635.65 336.912 1635.92 337.528C1636.18 338.144 1636.74 338.584 1637.4 338.701L1637.75 336.731ZM1648.57 338.639L1648.23 340.609C1649.03 340.75 1649.83 340.393 1650.27 339.705L1648.57 338.639ZM1654.89 328.594L1655.24 326.625C1654.44 326.484 1653.63 326.841 1653.2 327.529L1654.89 328.594ZM1675.3 332.192L1677.25 331.77C1677.08 330.976 1676.45 330.364 1675.65 330.223L1675.3 332.192ZM1677.8 343.793L1675.85 344.215C1676.02 345.01 1676.65 345.622 1677.46 345.763L1677.8 343.793ZM1688.9 345.75L1688.55 347.72C1689.22 347.837 1689.89 347.614 1690.35 347.126C1690.81 346.639 1691 345.953 1690.85 345.299L1688.9 345.75ZM1676.79 293.503L1678.74 293.052C1678.56 292.271 1677.93 291.673 1677.14 291.534L1676.79 293.503ZM1667 291.777L1667.35 289.808C1666.56 289.669 1665.76 290.014 1665.32 290.687L1667 291.777ZM1660.34 319.888L1658.65 318.819C1658.29 319.383 1658.24 320.087 1658.51 320.697C1658.78 321.306 1659.33 321.741 1659.99 321.857L1660.34 319.888ZM1669.51 305.369L1671.46 304.944C1671.29 304.151 1670.66 303.541 1669.86 303.4C1669.06 303.259 1668.25 303.615 1667.82 304.301L1669.51 305.369ZM1673.16 322.148L1672.81 324.118C1673.47 324.234 1674.14 324.015 1674.6 323.534C1675.06 323.054 1675.26 322.374 1675.11 321.723L1673.16 322.148ZM1637.4 338.701L1648.23 340.609L1648.92 336.67L1638.1 334.761L1637.4 338.701ZM1650.27 339.705L1656.59 329.659L1653.2 327.529L1646.88 337.574L1650.27 339.705ZM1654.55 330.564L1674.95 334.162L1675.65 330.223L1655.24 326.625L1654.55 330.564ZM1673.34 332.614L1675.85 344.215L1679.76 343.371L1677.25 331.77L1673.34 332.614ZM1677.46 345.763L1688.55 347.72L1689.25 343.781L1678.15 341.824L1677.46 345.763ZM1690.85 345.299L1678.74 293.052L1674.84 293.955L1686.95 346.202L1690.85 345.299ZM1677.14 291.534L1667.35 289.808L1666.65 293.747L1676.44 295.473L1677.14 291.534ZM1665.32 290.687L1636.07 335.64L1639.43 337.822L1668.68 292.868L1665.32 290.687ZM1662.03 320.956L1671.2 306.437L1667.82 304.301L1658.65 318.819L1662.03 320.956ZM1667.55 305.795L1671.21 322.574L1675.11 321.723L1671.46 304.944L1667.55 305.795ZM1673.51 320.179L1660.69 317.918L1659.99 321.857L1672.81 324.118L1673.51 320.179ZM1696.35 347.064L1694.38 346.716C1694.19 347.804 1694.91 348.841 1696 349.033L1696.35 347.064ZM1731.02 353.178L1730.68 355.147C1731.76 355.339 1732.8 354.613 1732.99 353.525L1731.02 353.178ZM1732.73 343.527L1734.7 343.874C1734.89 342.786 1734.16 341.749 1733.07 341.557L1732.73 343.527ZM1708.67 339.284L1706.7 338.937C1706.51 340.025 1707.23 341.062 1708.32 341.254L1708.67 339.284ZM1715.47 300.68L1717.44 301.027C1717.64 299.939 1716.91 298.902 1715.82 298.71L1715.47 300.68ZM1704.86 298.808L1705.21 296.838C1704.12 296.647 1703.08 297.373 1702.89 298.461L1704.86 298.808ZM1696 349.033L1730.68 355.147L1731.37 351.208L1696.7 345.094L1696 349.033ZM1732.99 353.525L1734.7 343.874L1730.76 343.179L1729.05 352.83L1732.99 353.525ZM1733.07 341.557L1709.01 337.315L1708.32 341.254L1732.38 345.496L1733.07 341.557ZM1710.64 339.632L1717.44 301.027L1713.5 300.333L1706.7 338.937L1710.64 339.632ZM1715.82 298.71L1705.21 296.838L1704.51 300.778L1715.13 302.65L1715.82 298.71ZM1702.89 298.461L1694.38 346.716L1698.32 347.411L1706.83 299.155L1702.89 298.461ZM1739.03 354.589L1737.06 354.242C1736.87 355.33 1737.6 356.367 1738.68 356.559L1739.03 354.589ZM1775.77 361.068L1775.43 363.038C1776.51 363.23 1777.55 362.503 1777.74 361.416L1775.77 361.068ZM1777.44 351.624L1779.41 351.971C1779.6 350.883 1778.87 349.846 1777.79 349.654L1777.44 351.624ZM1751.24 347.005L1749.27 346.658C1749.08 347.745 1749.81 348.783 1750.9 348.975L1751.24 347.005ZM1753.03 336.871L1753.38 334.902C1752.29 334.71 1751.25 335.436 1751.06 336.524L1753.03 336.871ZM1775.78 340.883L1775.43 342.852C1776.52 343.044 1777.56 342.318 1777.75 341.23L1775.78 340.883ZM1777.44 331.438L1779.41 331.786C1779.61 330.698 1778.88 329.66 1777.79 329.469L1777.44 331.438ZM1754.7 327.427L1752.73 327.08C1752.53 328.167 1753.26 329.205 1754.35 329.397L1754.7 327.427ZM1756.42 317.638L1756.77 315.668C1755.68 315.477 1754.64 316.203 1754.45 317.291L1756.42 317.638ZM1782.27 322.196L1781.93 324.166C1783.01 324.358 1784.05 323.631 1784.24 322.544L1782.27 322.196ZM1783.94 312.752L1785.91 313.099C1786.1 312.011 1785.37 310.974 1784.29 310.782L1783.94 312.752ZM1747.54 306.334L1747.89 304.364C1746.8 304.172 1745.76 304.899 1745.57 305.987L1747.54 306.334ZM1738.68 356.559L1775.43 363.038L1776.12 359.099L1739.38 352.62L1738.68 356.559ZM1777.74 361.416L1779.41 351.971L1775.47 351.277L1773.8 360.721L1777.74 361.416ZM1777.79 349.654L1751.59 345.035L1750.9 348.975L1777.09 353.594L1777.79 349.654ZM1753.21 347.352L1755 337.219L1751.06 336.524L1749.27 346.658L1753.21 347.352ZM1752.68 338.841L1775.43 342.852L1776.13 338.913L1753.38 334.902L1752.68 338.841ZM1777.75 341.23L1779.41 331.786L1775.47 331.091L1773.81 340.535L1777.75 341.23ZM1777.79 329.469L1755.04 325.457L1754.35 329.397L1777.1 333.408L1777.79 329.469ZM1756.66 327.774L1758.39 317.985L1754.45 317.291L1752.73 327.08L1756.66 327.774ZM1756.07 319.608L1781.93 324.166L1782.62 320.227L1756.77 315.668L1756.07 319.608ZM1784.24 322.544L1785.91 313.099L1781.97 312.405L1780.3 321.849L1784.24 322.544ZM1784.29 310.782L1747.89 304.364L1747.19 308.303L1783.59 314.722L1784.29 310.782ZM1745.57 305.987L1737.06 354.242L1741 354.937L1749.51 306.681L1745.57 305.987Z" fill="url(#paint0_linear)"/>
</g>
<defs>
<linearGradient id="paint0_linear" x1="-12.4999" y1="31.9995" x2="1825.5" y2="342.999" gradientUnits="userSpaceOnUse">
<stop offset="0.15625" stop-color="white"/>
<stop offset="0.505208" stop-color="#7B7B7B"/>
<stop offset="0.807292" stop-color="white"/>
</linearGradient>
</defs>
</svg>
