<svg width="1920" height="353" viewBox="0 0 1920 353" fill="none" xmlns="http://www.w3.org/2000/svg">
<rect x="-322.147" y="272.575" width="2600" height="80" transform="rotate(-6 -322.147 272.575)" fill="url(#paint0_linear)"/>
<path d="M710.907 227.529C724.87 226.061 733.912 214.458 732.56 201.593C731.194 188.6 720.081 179.246 706.118 180.713C692.154 182.181 683.113 193.784 684.465 206.648C685.831 219.642 696.944 228.996 710.907 227.529ZM710.072 218.336C702.056 219.178 695.688 213.312 694.873 205.555C694.044 197.668 698.937 190.749 706.953 189.906C714.969 189.064 721.337 194.93 722.152 202.687C722.981 210.574 718.088 217.493 710.072 218.336ZM743.769 223.291L753.724 222.244L751.815 204.079L770.174 202.15L772.083 220.315L782.038 219.268L777.282 174.018L767.327 175.064L769.209 192.97L750.85 194.9L748.968 176.994L739.013 178.04L743.769 223.291ZM794.139 172.246L795.124 181.619C797.686 205.99 795.008 209.736 789.642 210.299C788.996 210.367 788.536 210.35 788.077 210.333L788.293 218.611C789.556 218.805 791.975 218.812 793.591 218.642C803.934 217.555 807.552 210.312 804.752 183.679L804.392 180.253L817.45 178.881L821.262 215.146L831.217 214.1L826.461 168.849L794.139 172.246ZM838.182 213.367L848.331 212.301L851.402 201.717L870.536 199.706L875.74 209.42L886.148 208.326L861.965 164.79L852.785 165.755L838.182 213.367ZM854.033 192.552L858.502 177.246L866.057 191.288L854.033 192.552ZM927.356 158.244L918.112 159.216L901.32 190.98L898.202 161.309L888.376 162.341L893.132 207.592L902.505 206.607L919.168 174.856L922.286 204.528L932.112 203.495L927.356 158.244ZM907.667 156.85C913.615 156.225 917.242 152.183 917.495 145.882L911.633 145.453C911.071 148.191 909.696 150.035 906.981 150.321C904.266 150.606 902.538 149.088 901.419 146.526L895.774 148.165C897.332 154.276 901.72 157.475 907.667 156.85ZM943.004 202.35L952.959 201.304L951.05 183.139L969.408 181.209L971.318 199.374L981.273 198.328L976.517 153.077L966.562 154.124L968.444 172.03L950.085 173.96L948.203 156.053L938.248 157.1L943.004 202.35ZM1011.5 195.151L1021.45 194.105L1020 180.271L1024.66 174.291L1040.72 192.08L1052.68 190.823L1030.67 166.796L1047.08 145.661L1035.06 146.925L1018.78 168.635L1016.7 148.854L1006.74 149.9L1011.5 195.151ZM1075.61 166.845L1060.81 144.217L1049.7 145.386L1071.36 177.357C1069.84 180.327 1067.86 181.385 1066.05 181.575C1064.3 181.758 1062.45 181.561 1060.53 180.652L1057.42 188.364C1060.43 189.681 1063.58 190.396 1067.46 189.989C1073.79 189.323 1077.99 185.744 1081.1 177.443L1094.82 140.643L1084.02 141.778L1075.61 166.845ZM1106.19 185.199L1116.15 184.152L1112.34 147.887L1130.18 146.012L1133.99 182.277L1143.94 181.231L1139.19 135.98L1101.44 139.948L1106.19 185.199ZM1171.69 156.746L1156.9 134.119L1145.78 135.287L1167.44 167.258C1165.92 170.228 1163.94 171.286 1162.13 171.476C1160.39 171.66 1158.53 171.462 1156.61 170.553L1153.5 178.266C1156.51 179.583 1159.66 180.298 1163.54 179.89C1169.87 179.224 1174.07 175.646 1177.19 167.345L1190.9 130.545L1180.1 131.679L1171.69 156.746ZM1236.5 125.752L1227.25 126.724L1210.46 158.488L1207.34 128.816L1197.52 129.849L1202.27 175.1L1211.65 174.115L1228.31 142.364L1231.43 172.036L1241.25 171.003L1236.5 125.752ZM1216.81 124.358C1222.76 123.732 1226.38 119.691 1226.64 113.39L1220.77 112.961C1220.21 115.699 1218.84 117.543 1216.12 117.829C1213.41 118.114 1211.68 116.596 1210.56 114.034L1204.92 115.673C1206.47 121.784 1210.86 124.983 1216.81 124.358Z" fill="white"/>
<path d="M81.5877 295.343L79.5987 295.552C79.7141 296.65 80.6983 297.447 81.7968 297.332L81.5877 295.343ZM109.096 268.53L107.942 266.897C107.308 267.345 106.99 268.119 107.127 268.883C107.264 269.647 107.83 270.263 108.58 270.463L109.096 268.53ZM110.092 250.648L108.833 252.203L108.833 252.203L110.092 250.648ZM76.8317 250.092L76.6226 248.103C75.5241 248.218 74.7272 249.202 74.8426 250.301L76.8317 250.092ZM88.4511 267.367L86.462 267.576C86.5775 268.675 87.5616 269.471 88.6601 269.356L88.4511 267.367ZM87.4455 257.8L87.2364 255.811C86.1379 255.926 85.341 256.91 85.4565 258.009L87.4455 257.8ZM90.3671 285.597L88.378 285.806C88.4935 286.904 89.4776 287.701 90.5761 287.586L90.3671 285.597ZM89.3207 275.641L89.1117 273.652C88.0132 273.768 87.2162 274.752 87.3317 275.85L89.3207 275.641ZM81.7968 297.332L103.323 295.069L102.905 291.091L81.3787 293.354L81.7968 297.332ZM103.323 295.069C108.655 294.509 113.234 292.942 116.398 290.195C119.652 287.369 121.236 283.438 120.735 278.679L116.757 279.097C117.127 282.613 116.001 285.241 113.775 287.174C111.459 289.186 107.787 290.578 102.905 291.091L103.323 295.069ZM120.735 278.679C120.37 275.205 119.162 272.52 117.125 270.505C115.128 268.53 112.504 267.37 109.611 266.598L108.58 270.463C111.135 271.145 113.009 272.06 114.313 273.349C115.576 274.599 116.47 276.366 116.757 279.097L120.735 278.679ZM110.25 270.164C111.934 268.974 113.549 267.44 114.656 265.4C115.778 263.335 116.314 260.867 116.006 257.935L112.028 258.353C112.257 260.528 111.854 262.179 111.141 263.492C110.414 264.831 109.3 265.937 107.942 266.897L110.25 270.164ZM116.006 257.935C115.615 254.211 114.076 251.301 111.351 249.094L108.833 252.203C110.68 253.698 111.74 255.613 112.028 258.353L116.006 257.935ZM111.351 249.094C107.949 246.34 103.134 245.316 97.6319 245.895L98.05 249.873C102.891 249.364 106.52 250.329 108.833 252.203L111.351 249.094ZM97.6319 245.895L76.6226 248.103L77.0407 252.081L98.05 249.873L97.6319 245.895ZM74.8426 250.301L79.5987 295.552L83.5768 295.134L78.8207 249.883L74.8426 250.301ZM90.4401 267.158L89.4345 257.591L85.4565 258.009L86.462 267.576L90.4401 267.158ZM87.6546 259.789L97.4804 258.756L97.0623 254.778L87.2364 255.811L87.6546 259.789ZM97.4804 258.756C99.3604 258.558 100.564 258.819 101.252 259.21C101.837 259.542 102.206 260.048 102.301 260.944L106.279 260.526C106.06 258.449 105.021 256.75 103.226 255.731C101.534 254.77 99.3843 254.534 97.0623 254.778L97.4804 258.756ZM102.301 260.944C102.418 262.06 102.089 262.672 101.502 263.139C100.777 263.715 99.4669 264.198 97.4214 264.413L97.8396 268.391C100.19 268.144 102.393 267.539 103.99 266.27C105.726 264.891 106.528 262.9 106.279 260.526L102.301 260.944ZM97.4214 264.413L88.242 265.378L88.6601 269.356L97.8396 268.391L97.4214 264.413ZM92.3561 285.387L91.3098 275.432L87.3317 275.85L88.378 285.806L92.3561 285.387ZM89.5298 277.63L101.036 276.421L100.618 272.443L89.1117 273.652L89.5298 277.63ZM101.036 276.421C103.401 276.173 104.812 276.472 105.591 276.907C106.245 277.272 106.624 277.822 106.724 278.779L110.702 278.361C110.483 276.28 109.472 274.493 107.54 273.414C105.732 272.405 103.361 272.155 100.618 272.443L101.036 276.421ZM106.724 278.779C106.846 279.941 106.514 280.593 105.95 281.07C105.266 281.649 104.009 282.152 101.988 282.364L102.406 286.342C104.781 286.093 106.966 285.449 108.532 284.125C110.218 282.699 110.947 280.69 110.702 278.361L106.724 278.779ZM101.988 282.364L90.158 283.607L90.5761 287.586L102.406 286.342L101.988 282.364ZM124.448 300.38L122.459 300.589C122.575 301.688 123.559 302.485 124.657 302.369L124.448 300.38ZM133.434 299.436L133.643 301.425C134.689 301.315 135.471 300.414 135.432 299.363L133.434 299.436ZM133.088 289.93L132.879 287.941C131.833 288.051 131.051 288.952 131.09 290.002L133.088 289.93ZM161.402 286.954L163.391 286.745C163.276 285.646 162.292 284.849 161.193 284.965L161.402 286.954ZM162.394 296.392L160.405 296.601C160.521 297.699 161.505 298.496 162.603 298.381L162.394 296.392ZM170.733 295.515L170.942 297.504C171.987 297.395 172.768 296.496 172.732 295.446L170.733 295.515ZM170.09 276.956L172.089 276.887C172.069 276.332 171.821 275.811 171.402 275.447C170.983 275.083 170.432 274.909 169.881 274.967L170.09 276.956ZM164.66 277.527L162.671 277.736C162.786 278.834 163.77 279.631 164.869 279.516L164.66 277.527ZM160.848 241.261L162.837 241.052C162.722 239.954 161.738 239.157 160.639 239.272L160.848 241.261ZM127.944 244.72L127.735 242.731C126.637 242.846 125.84 243.83 125.955 244.929L127.944 244.72ZM126.778 281.508L126.987 283.497C127.782 283.414 128.451 282.865 128.688 282.101L126.778 281.508ZM122.512 281.957L122.303 279.967C121.204 280.083 120.407 281.067 120.523 282.166L122.512 281.957ZM151.837 251.293L153.826 251.084C153.711 249.986 152.727 249.189 151.628 249.304L151.837 251.293ZM154.705 278.573L154.914 280.562C156.012 280.447 156.809 279.462 156.694 278.364L154.705 278.573ZM137.251 280.407L135.332 279.842C135.144 280.483 135.287 281.175 135.714 281.688C136.141 282.2 136.796 282.466 137.46 282.396L137.251 280.407ZM138.456 252.7L138.247 250.711C137.148 250.826 136.352 251.81 136.467 252.909L138.456 252.7ZM124.657 302.369L133.643 301.425L133.225 297.447L124.239 298.391L124.657 302.369ZM135.432 299.363L135.087 289.857L131.09 290.002L131.435 299.508L135.432 299.363ZM133.297 291.919L161.611 288.943L161.193 284.965L132.879 287.941L133.297 291.919ZM159.413 287.163L160.405 296.601L164.383 296.183L163.391 286.745L159.413 287.163ZM162.603 298.381L170.942 297.504L170.524 293.526L162.185 294.403L162.603 298.381ZM172.732 295.446L172.089 276.887L168.091 277.025L168.735 295.585L172.732 295.446ZM169.881 274.967L164.451 275.538L164.869 279.516L170.299 278.945L169.881 274.967ZM166.649 277.318L162.837 241.052L158.859 241.47L162.671 277.736L166.649 277.318ZM160.639 239.272L127.735 242.731L128.153 246.709L161.057 243.25L160.639 239.272ZM125.955 244.929L126.512 250.23L130.49 249.811L129.933 244.511L125.955 244.929ZM126.512 250.23C128.118 265.509 127.302 273.08 124.868 280.915L128.688 282.101C131.333 273.586 132.132 265.432 130.49 249.811L126.512 250.23ZM126.569 279.519L122.303 279.967L122.721 283.946L126.987 283.497L126.569 279.519ZM120.523 282.166L122.459 300.589L126.437 300.171L124.501 281.747L120.523 282.166ZM149.848 251.502L152.715 278.782L156.694 278.364L153.826 251.084L149.848 251.502ZM154.495 276.584L137.042 278.418L137.46 282.396L154.914 280.562L154.495 276.584ZM139.169 280.972C141.177 274.155 141.958 266.881 140.927 257.08L136.949 257.498C137.93 266.832 137.178 273.575 135.332 279.842L139.169 280.972ZM140.927 257.08L140.445 252.491L136.467 252.909L136.949 257.498L140.927 257.08ZM138.665 254.689L152.046 253.282L151.628 249.304L138.247 250.711L138.665 254.689ZM200.255 285.665C215.299 284.084 225.157 271.512 223.688 257.532L219.71 257.95C220.944 269.698 212.719 280.333 199.837 281.687L200.255 285.665ZM223.688 257.532C222.205 243.429 210.098 233.29 195.047 234.872L195.465 238.85C208.34 237.496 218.46 246.066 219.71 257.95L223.688 257.532ZM195.047 234.872C180.003 236.453 170.145 249.025 171.614 263.005L175.593 262.587C174.358 250.839 182.583 240.204 195.465 238.85L195.047 234.872ZM171.614 263.005C173.097 277.108 185.204 287.247 200.255 285.665L199.837 281.687C186.962 283.041 176.842 274.471 175.593 262.587L171.614 263.005ZM199.001 272.494C192.203 273.209 186.713 268.275 186 261.493L182.022 261.911C182.94 270.644 190.186 277.443 199.419 276.472L199.001 272.494ZM186 261.493C185.272 254.568 189.515 248.756 196.301 248.043L195.883 244.065C186.636 245.036 181.092 253.063 182.022 261.911L186 261.493ZM196.301 248.043C203.099 247.328 208.589 252.262 209.302 259.044L213.28 258.626C212.362 249.893 205.116 243.094 195.883 244.065L196.301 248.043ZM209.302 259.044C210.03 265.969 205.787 271.781 199.001 272.494L199.419 276.472C208.666 275.501 214.21 267.474 213.28 258.626L209.302 259.044ZM232.908 279.438L230.918 279.647C231.034 280.746 232.018 281.543 233.117 281.427L232.908 279.438ZM242.669 278.412L242.878 280.401C243.976 280.286 244.773 279.302 244.658 278.203L242.669 278.412ZM239.584 249.064L241.13 247.795C240.57 247.112 239.628 246.878 238.813 247.219C237.998 247.559 237.503 248.395 237.595 249.273L239.584 249.064ZM254.201 266.874L252.655 268.142C253.082 268.662 253.741 268.933 254.41 268.863L254.201 266.874ZM254.459 266.846L254.668 268.836C255.337 268.765 255.926 268.363 256.235 267.766L254.459 266.846ZM265.163 246.179L267.152 245.97C267.059 245.092 266.402 244.378 265.534 244.214C264.666 244.05 263.793 244.475 263.387 245.26L265.163 246.179ZM268.268 275.722L266.279 275.931C266.394 277.029 267.378 277.826 268.477 277.711L268.268 275.722ZM278.158 274.682L278.367 276.671C279.466 276.556 280.263 275.572 280.147 274.473L278.158 274.682ZM273.402 229.431L275.391 229.222C275.276 228.124 274.292 227.327 273.193 227.442L273.402 229.431ZM262.671 230.559L262.462 228.57C261.775 228.643 261.173 229.065 260.872 229.687L262.671 230.559ZM252.788 250.944L251.209 252.172C251.633 252.717 252.31 253.005 252.997 252.933C253.685 252.861 254.286 252.439 254.588 251.817L252.788 250.944ZM238.882 233.06L240.461 231.832C240.037 231.286 239.361 230.998 238.673 231.071L238.882 233.06ZM228.151 234.188L227.942 232.198C226.844 232.314 226.047 233.298 226.162 234.397L228.151 234.188ZM233.117 281.427L242.878 280.401L242.46 276.423L232.698 277.449L233.117 281.427ZM244.658 278.203L241.573 248.855L237.595 249.273L240.68 278.621L244.658 278.203ZM238.038 250.333L252.655 268.142L255.747 265.605L241.13 247.795L238.038 250.333ZM254.41 268.863L254.668 268.836L254.25 264.857L253.992 264.885L254.41 268.863ZM256.235 267.766L266.939 247.099L263.387 245.26L252.683 265.927L256.235 267.766ZM263.174 246.389L266.279 275.931L270.257 275.513L267.152 245.97L263.174 246.389ZM268.477 277.711L278.367 276.671L277.949 272.693L268.059 273.733L268.477 277.711ZM280.147 274.473L275.391 229.222L271.413 229.641L276.169 274.891L280.147 274.473ZM273.193 227.442L262.462 228.57L262.88 232.548L273.611 231.421L273.193 227.442ZM260.872 229.687L250.988 250.072L254.588 251.817L264.471 231.432L260.872 229.687ZM254.367 249.716L240.461 231.832L237.303 234.287L251.209 252.172L254.367 249.716ZM238.673 231.071L227.942 232.198L228.361 236.177L239.091 235.049L238.673 231.071ZM226.162 234.397L230.918 279.647L234.897 279.229L230.141 233.978L226.162 234.397ZM285.15 273.947L283.238 273.361C283.041 274.003 283.18 274.701 283.607 275.219C284.033 275.737 284.692 276.007 285.359 275.936L285.15 273.947ZM295.3 272.881L295.509 274.87C296.317 274.785 296.994 274.219 297.22 273.438L295.3 272.881ZM298.37 262.297L298.161 260.308C297.352 260.393 296.676 260.959 296.449 261.739L298.37 262.297ZM317.505 260.286L319.268 259.341C318.884 258.624 318.104 258.211 317.296 258.296L317.505 260.286ZM322.709 270L320.946 270.944C321.329 271.661 322.109 272.074 322.918 271.989L322.709 270ZM333.116 268.906L333.325 270.895C333.993 270.825 334.581 270.424 334.891 269.829C335.2 269.233 335.191 268.522 334.865 267.935L333.116 268.906ZM308.933 225.37L310.681 224.399C310.292 223.698 309.521 223.297 308.724 223.381L308.933 225.37ZM299.754 226.335L299.545 224.346C298.747 224.43 298.077 224.982 297.842 225.749L299.754 226.335ZM301.001 253.131L299.082 252.571C298.895 253.211 299.039 253.902 299.466 254.413C299.893 254.925 300.548 255.19 301.21 255.12L301.001 253.131ZM305.471 237.825L307.232 236.878C306.848 236.163 306.069 235.751 305.262 235.836C304.455 235.921 303.779 236.486 303.551 237.265L305.471 237.825ZM313.025 251.868L313.234 253.857C313.897 253.787 314.482 253.392 314.793 252.802C315.105 252.213 315.102 251.507 314.786 250.92L313.025 251.868ZM285.359 275.936L295.509 274.87L295.09 270.892L284.941 271.958L285.359 275.936ZM297.22 273.438L300.291 262.854L296.449 261.739L293.379 272.323L297.22 273.438ZM298.579 264.286L317.714 262.275L317.296 258.296L298.161 260.308L298.579 264.286ZM315.742 261.23L320.946 270.944L324.472 269.055L319.268 259.341L315.742 261.23ZM322.918 271.989L333.325 270.895L332.907 266.917L322.5 268.011L322.918 271.989ZM334.865 267.935L310.681 224.399L307.185 226.341L331.368 269.877L334.865 267.935ZM308.724 223.381L299.545 224.346L299.963 228.324L309.142 227.359L308.724 223.381ZM297.842 225.749L283.238 273.361L287.063 274.534L301.666 226.921L297.842 225.749ZM302.921 253.692L307.391 238.386L303.551 237.265L299.082 252.571L302.921 253.692ZM303.71 238.773L311.264 252.815L314.786 250.92L307.232 236.878L303.71 238.773ZM312.816 249.879L300.792 251.142L301.21 255.12L313.234 253.857L312.816 249.879ZM359.481 266.135L357.492 266.344C357.607 267.442 358.591 268.239 359.69 268.124L359.481 266.135ZM369.436 265.089L369.645 267.078C370.744 266.962 371.541 265.978 371.425 264.879L369.436 265.089ZM367.982 251.255L366.405 250.025C366.087 250.433 365.939 250.949 365.993 251.464L367.982 251.255ZM372.647 245.274L374.132 243.934C373.736 243.496 373.167 243.254 372.576 243.276C371.985 243.297 371.434 243.578 371.071 244.044L372.647 245.274ZM388.7 263.064L387.215 264.404C387.643 264.878 388.273 265.12 388.909 265.053L388.7 263.064ZM400.659 261.807L400.868 263.796C401.619 263.717 402.262 263.222 402.529 262.516C402.797 261.81 402.644 261.013 402.134 260.456L400.659 261.807ZM378.657 237.78L377.077 236.554C376.48 237.324 376.524 238.412 377.182 239.131L378.657 237.78ZM395.063 216.644L396.643 217.871C397.134 217.238 397.2 216.372 396.81 215.672C396.421 214.972 395.651 214.572 394.854 214.655L395.063 216.644ZM383.039 217.908L382.83 215.919C382.277 215.977 381.772 216.263 381.439 216.708L383.039 217.908ZM366.759 239.619L364.77 239.828C364.856 240.646 365.434 241.328 366.227 241.547C367.02 241.766 367.866 241.477 368.359 240.819L366.759 239.619ZM364.68 219.838L366.669 219.629C366.554 218.53 365.569 217.733 364.471 217.849L364.68 219.838ZM354.725 220.884L354.516 218.895C353.417 219.011 352.62 219.995 352.736 221.093L354.725 220.884ZM359.69 268.124L369.645 267.078L369.227 263.099L359.272 264.146L359.69 268.124ZM371.425 264.879L369.971 251.046L365.993 251.464L367.447 265.298L371.425 264.879ZM369.559 252.485L374.224 246.504L371.071 244.044L366.405 250.025L369.559 252.485ZM371.163 246.614L387.215 264.404L390.185 261.724L374.132 243.934L371.163 246.614ZM388.909 265.053L400.868 263.796L400.45 259.818L388.491 261.075L388.909 265.053ZM402.134 260.456L380.132 236.429L377.182 239.131L399.184 263.158L402.134 260.456ZM380.237 239.006L396.643 217.871L393.483 215.418L377.077 236.554L380.237 239.006ZM394.854 214.655L382.83 215.919L383.248 219.897L395.272 218.633L394.854 214.655ZM381.439 216.708L365.159 238.419L368.359 240.819L384.639 219.108L381.439 216.708ZM368.748 239.41L366.669 219.629L362.691 220.047L364.77 239.828L368.748 239.41ZM364.471 217.849L354.516 218.895L354.934 222.873L364.889 221.827L364.471 217.849ZM352.736 221.093L357.492 266.344L361.47 265.926L356.714 220.675L352.736 221.093ZM402.823 261.579L400.91 260.993C400.714 261.635 400.852 262.333 401.279 262.851C401.706 263.369 402.364 263.639 403.032 263.569L402.823 261.579ZM412.972 260.513L413.181 262.502C413.989 262.417 414.666 261.851 414.892 261.07L412.972 260.513ZM416.042 249.929L415.833 247.94C415.025 248.025 414.348 248.591 414.121 249.372L416.042 249.929ZM435.177 247.918L436.94 246.973C436.556 246.257 435.776 245.844 434.968 245.929L435.177 247.918ZM440.381 257.632L438.618 258.576C439.002 259.293 439.781 259.706 440.59 259.621L440.381 257.632ZM450.788 256.538L450.997 258.527C451.665 258.457 452.253 258.056 452.563 257.461C452.873 256.865 452.863 256.154 452.537 255.567L450.788 256.538ZM426.605 213.002L428.354 212.031C427.964 211.33 427.194 210.93 426.396 211.013L426.605 213.002ZM417.426 213.967L417.217 211.978C416.419 212.062 415.749 212.614 415.514 213.381L417.426 213.967ZM418.674 240.764L416.754 240.203C416.567 240.843 416.711 241.534 417.138 242.045C417.566 242.557 418.22 242.822 418.883 242.753L418.674 240.764ZM423.143 225.458L424.904 224.51C424.52 223.795 423.741 223.384 422.934 223.468C422.127 223.553 421.451 224.118 421.223 224.897L423.143 225.458ZM430.697 239.5L430.906 241.489C431.569 241.419 432.154 241.024 432.465 240.434C432.777 239.845 432.774 239.139 432.459 238.552L430.697 239.5ZM403.032 263.569L413.181 262.502L412.763 258.524L402.614 259.59L403.032 263.569ZM414.892 261.07L417.963 250.486L414.121 249.372L411.051 259.956L414.892 261.07ZM416.251 251.918L435.386 249.907L434.968 245.929L415.833 247.94L416.251 251.918ZM433.414 248.862L438.618 258.576L442.144 256.688L436.94 246.973L433.414 248.862ZM440.59 259.621L450.997 258.527L450.579 254.549L440.172 255.643L440.59 259.621ZM452.537 255.567L428.354 212.031L424.857 213.974L449.04 257.509L452.537 255.567ZM426.396 211.013L417.217 211.978L417.635 215.956L426.814 214.991L426.396 211.013ZM415.514 213.381L400.91 260.993L404.735 262.166L419.338 214.554L415.514 213.381ZM420.593 241.324L425.063 226.018L421.223 224.897L416.754 240.203L420.593 241.324ZM421.382 226.405L428.936 240.447L432.459 238.552L424.904 224.51L421.382 226.405ZM430.488 237.511L418.464 238.775L418.883 242.753L430.906 241.489L430.488 237.511ZM491.997 206.456L493.986 206.247C493.87 205.149 492.886 204.352 491.788 204.467L491.997 206.456ZM482.753 207.428L482.544 205.439C481.881 205.508 481.296 205.904 480.984 206.493L482.753 207.428ZM465.961 239.192L463.972 239.401C464.064 240.277 464.717 240.989 465.582 241.156C466.446 241.323 467.318 240.905 467.729 240.127L465.961 239.192ZM462.842 209.521L464.831 209.311C464.716 208.213 463.732 207.416 462.633 207.531L462.842 209.521ZM453.016 210.553L452.807 208.564C451.709 208.68 450.912 209.664 451.027 210.762L453.016 210.553ZM457.772 255.804L455.783 256.013C455.899 257.112 456.883 257.909 457.981 257.793L457.772 255.804ZM467.146 254.819L467.355 256.808C468.02 256.738 468.606 256.34 468.917 255.748L467.146 254.819ZM483.808 223.068L485.797 222.859C485.705 221.983 485.05 221.27 484.185 221.104C483.319 220.938 482.447 221.358 482.037 222.139L483.808 223.068ZM486.927 252.74L484.938 252.949C485.053 254.047 486.037 254.844 487.136 254.729L486.927 252.74ZM496.753 251.707L496.962 253.696C498.06 253.581 498.857 252.596 498.742 251.498L496.753 251.707ZM482.135 194.094L484.134 194.174C484.177 193.097 483.358 192.179 482.282 192.1L482.135 194.094ZM476.273 193.665L476.42 191.67C475.417 191.597 474.516 192.278 474.314 193.263L476.273 193.665ZM466.06 194.738L467.893 193.938C467.49 193.017 466.467 192.537 465.502 192.818L466.06 194.738ZM460.415 196.377L459.857 194.457C458.821 194.757 458.211 195.826 458.477 196.871L460.415 196.377ZM491.788 204.467L482.544 205.439L482.962 209.417L492.206 208.445L491.788 204.467ZM480.984 206.493L464.193 238.257L467.729 240.127L484.521 208.363L480.984 206.493ZM467.95 238.983L464.831 209.311L460.853 209.73L463.972 239.401L467.95 238.983ZM462.633 207.531L452.807 208.564L453.225 212.542L463.051 211.51L462.633 207.531ZM451.027 210.762L455.783 256.013L459.761 255.595L455.005 210.344L451.027 210.762ZM457.981 257.793L467.355 256.808L466.937 252.83L457.563 253.815L457.981 257.793ZM468.917 255.748L485.579 223.998L482.037 222.139L465.375 253.889L468.917 255.748ZM481.819 223.277L484.938 252.949L488.916 252.531L485.797 222.859L481.819 223.277ZM487.136 254.729L496.962 253.696L496.544 249.718L486.718 250.751L487.136 254.729ZM498.742 251.498L493.986 206.247L490.008 206.665L494.764 251.916L498.742 251.498ZM472.517 207.051C475.908 206.694 478.786 205.34 480.846 203.041C482.899 200.752 483.993 197.691 484.134 194.174L480.137 194.014C480.025 196.798 479.179 198.909 477.868 200.371C476.564 201.825 474.655 202.804 472.099 203.073L472.517 207.051ZM482.282 192.1L476.42 191.67L476.127 195.659L481.989 196.089L482.282 192.1ZM474.314 193.263C474.076 194.427 473.702 195.198 473.267 195.682C472.871 196.123 472.319 196.448 471.413 196.544L471.831 200.522C473.639 200.332 475.132 199.592 476.243 198.355C477.315 197.161 477.91 195.641 478.233 194.067L474.314 193.263ZM471.413 196.544C470.506 196.639 469.898 196.435 469.42 196.087C468.894 195.703 468.368 195.027 467.893 193.938L464.227 195.539C464.87 197.012 465.768 198.375 467.064 199.32C468.409 200.299 470.023 200.712 471.831 200.522L471.413 196.544ZM465.502 192.818L459.857 194.457L460.973 198.298L466.617 196.659L465.502 192.818ZM458.477 196.871C459.346 200.282 461.053 203.048 463.536 204.861C466.029 206.68 469.126 207.407 472.517 207.051L472.099 203.073C469.543 203.341 467.472 202.781 465.894 201.63C464.308 200.472 463.041 198.583 462.353 195.883L458.477 196.871ZM533.742 213.441L533.533 211.452C532.434 211.567 531.637 212.551 531.753 213.65L533.742 213.441ZM536.059 235.485L534.07 235.694C534.185 236.792 535.169 237.589 536.268 237.474L536.059 235.485ZM537.506 249.254L537.715 251.243C538.814 251.127 539.611 250.143 539.495 249.045L537.506 249.254ZM536.99 244.341L536.781 242.352C535.682 242.467 534.885 243.451 535.001 244.55L536.99 244.341ZM532.811 204.585L530.822 204.794C530.938 205.892 531.922 206.689 533.02 206.574L532.811 204.585ZM532.376 200.448L534.365 200.238C534.25 199.14 533.266 198.343 532.167 198.458L532.376 200.448ZM522.421 201.494L522.212 199.505C521.114 199.62 520.317 200.604 520.432 201.703L522.421 201.494ZM522.856 205.631L523.065 207.62C524.164 207.505 524.96 206.521 524.845 205.422L522.856 205.631ZM527.034 245.387L529.024 245.178C528.908 244.08 527.924 243.283 526.825 243.398L527.034 245.387ZM527.551 250.3L525.562 250.509C525.677 251.608 526.661 252.405 527.76 252.289L527.551 250.3ZM526.104 236.531L526.313 238.52C527.411 238.404 528.208 237.42 528.093 236.322L526.104 236.531ZM523.787 214.487L525.776 214.278C525.66 213.18 524.676 212.383 523.578 212.498L523.787 214.487ZM533.951 215.43C537.216 215.087 539.848 215.785 541.697 217.13C543.523 218.458 544.765 220.543 545.061 223.362L549.039 222.944C548.636 219.105 546.875 215.95 544.049 213.895C541.245 211.856 537.573 211.027 533.533 211.452L533.951 215.43ZM545.061 223.362C545.365 226.255 544.579 228.566 543.074 230.239C541.55 231.933 539.122 233.152 535.85 233.495L536.268 237.474C540.3 237.05 543.725 235.496 546.048 232.914C548.391 230.309 549.448 226.838 549.039 222.944L545.061 223.362ZM538.048 235.275L535.731 213.232L531.753 213.65L534.07 235.694L538.048 235.275ZM539.495 249.045L538.979 244.132L535.001 244.55L535.517 249.463L539.495 249.045ZM537.199 246.33C544.595 245.552 550.473 242.609 554.344 238.173C558.221 233.731 559.956 227.935 559.304 221.734L555.326 222.153C555.87 227.329 554.424 231.998 551.33 235.543C548.23 239.095 543.348 241.661 536.781 242.352L537.199 246.33ZM559.304 221.734C558.651 215.52 555.714 210.29 550.981 206.837C546.263 203.394 539.917 201.827 532.602 202.596L533.02 206.574C539.539 205.889 544.847 207.313 548.623 210.068C552.385 212.813 554.783 216.99 555.326 222.153L559.304 221.734ZM534.8 204.376L534.365 200.238L530.387 200.657L530.822 204.794L534.8 204.376ZM532.167 198.458L522.212 199.505L522.63 203.483L532.585 202.437L532.167 198.458ZM520.432 201.703L520.867 205.84L524.845 205.422L524.41 201.285L520.432 201.703ZM522.647 203.642C515.301 204.414 509.42 207.265 505.526 211.606C501.621 215.96 499.851 221.669 500.501 227.85L504.479 227.431C503.94 222.299 505.404 217.734 508.504 214.277C511.616 210.806 516.512 208.309 523.065 207.62L522.647 203.642ZM500.501 227.85C501.156 234.08 504.057 239.404 508.775 242.953C513.485 246.496 519.847 248.153 527.244 247.376L526.825 243.398C520.259 244.088 514.95 242.593 511.179 239.757C507.416 236.926 505.027 232.643 504.479 227.431L500.501 227.85ZM525.045 245.596L525.562 250.509L529.54 250.091L529.024 245.178L525.045 245.596ZM527.76 252.289L537.715 251.243L537.297 247.265L527.342 248.311L527.76 252.289ZM525.895 234.542C522.621 234.886 519.974 234.201 518.112 232.857C516.276 231.532 515.016 229.437 514.713 226.552L510.735 226.97C511.145 230.873 512.923 234.046 515.772 236.101C518.595 238.138 522.281 238.944 526.313 238.52L525.895 234.542ZM514.713 226.552C514.418 223.741 515.209 221.443 516.736 219.758C518.282 218.052 520.73 216.82 523.996 216.476L523.578 212.498C519.539 212.923 516.106 214.498 513.772 217.072C511.419 219.668 510.331 223.122 510.735 226.97L514.713 226.552ZM521.798 214.696L524.115 236.74L528.093 236.322L525.776 214.278L521.798 214.696ZM584.762 220.889L583.088 221.983C583.507 222.625 584.256 222.97 585.016 222.872C585.776 222.775 586.414 222.252 586.658 221.525L584.762 220.889ZM569.965 198.261L571.639 197.167C571.229 196.539 570.502 196.194 569.756 196.272L569.965 198.261ZM558.847 199.43L558.638 197.441C557.939 197.514 557.329 197.949 557.033 198.587C556.737 199.224 556.797 199.97 557.191 200.552L558.847 199.43ZM580.507 231.401L582.288 232.311C582.62 231.662 582.572 230.883 582.163 230.279L580.507 231.401ZM569.677 234.696L570.531 232.887C570.033 232.653 569.46 232.633 568.948 232.834C568.435 233.035 568.028 233.438 567.822 233.948L569.677 234.696ZM566.566 242.409L564.712 241.66C564.307 242.664 564.774 243.808 565.766 244.241L566.566 242.409ZM590.255 231.488L592.127 232.19L592.129 232.186L590.255 231.488ZM603.968 194.688L605.842 195.386C606.084 194.737 605.973 194.01 605.549 193.462C605.125 192.915 604.448 192.626 603.759 192.699L603.968 194.688ZM593.173 195.822L592.963 193.833C592.185 193.915 591.526 194.444 591.276 195.186L593.173 195.822ZM586.435 219.794L571.639 197.167L568.291 199.356L583.088 221.983L586.435 219.794ZM569.756 196.272L558.638 197.441L559.056 201.419L570.174 200.25L569.756 196.272ZM557.191 200.552L578.851 232.523L582.163 230.279L560.502 198.308L557.191 200.552ZM578.726 230.491C577.481 232.928 576.054 233.518 574.99 233.63L575.408 237.608C577.964 237.339 580.498 235.814 582.288 232.311L578.726 230.491ZM574.99 233.63C573.56 233.78 572.083 233.62 570.531 232.887L568.824 236.505C571.122 237.59 573.348 237.825 575.408 237.608L574.99 233.63ZM567.822 233.948L564.712 241.66L568.421 243.157L571.532 235.444L567.822 233.948ZM565.766 244.241C569.039 245.672 572.534 246.472 576.815 246.022L576.397 242.044C572.921 242.409 570.122 241.78 567.367 240.576L565.766 244.241ZM576.815 246.022C580.338 245.652 583.388 244.448 585.979 242.108C588.532 239.801 590.506 236.51 592.127 232.19L588.382 230.785C586.888 234.766 585.206 237.415 583.297 239.139C581.427 240.83 579.209 241.748 576.397 242.044L576.815 246.022ZM592.129 232.186L605.842 195.386L602.094 193.989L588.38 230.789L592.129 232.186ZM603.759 192.699L592.963 193.833L593.382 197.811L604.177 196.677L603.759 192.699ZM591.276 195.186L582.866 220.253L586.658 221.525L595.069 196.458L591.276 195.186ZM649.566 189.895L651.555 189.686C651.44 188.587 650.456 187.791 649.357 187.906L649.566 189.895ZM640.322 190.867L640.113 188.878C639.45 188.947 638.866 189.343 638.554 189.932L640.322 190.867ZM623.53 222.631L621.541 222.84C621.633 223.715 622.287 224.428 623.151 224.595C624.015 224.761 624.887 224.344 625.299 223.566L623.53 222.631ZM620.412 192.959L622.401 192.75C622.285 191.652 621.301 190.855 620.203 190.97L620.412 192.959ZM610.586 193.992L610.377 192.003C609.278 192.118 608.481 193.103 608.597 194.201L610.586 193.992ZM615.342 239.243L613.353 239.452C613.468 240.55 614.453 241.347 615.551 241.232L615.342 239.243ZM624.715 238.258L624.924 240.247C625.589 240.177 626.176 239.779 626.486 239.187L624.715 238.258ZM641.378 206.507L643.367 206.298C643.275 205.421 642.62 204.709 641.754 204.543C640.889 204.377 640.016 204.797 639.607 205.578L641.378 206.507ZM644.496 236.179L642.507 236.388C642.623 237.486 643.607 238.283 644.706 238.168L644.496 236.179ZM654.322 235.146L654.531 237.135C655.63 237.019 656.427 236.035 656.311 234.937L654.322 235.146ZM639.705 177.533L641.703 177.613C641.747 176.535 640.927 175.617 639.851 175.538L639.705 177.533ZM633.843 177.103L633.989 175.109C632.987 175.035 632.086 175.717 631.884 176.702L633.843 177.103ZM623.629 178.177L625.462 177.377C625.06 176.456 624.037 175.976 623.072 176.256L623.629 178.177ZM617.985 179.816L617.427 177.895C616.391 178.196 615.78 179.264 616.047 180.31L617.985 179.816ZM649.357 187.906L640.113 188.878L640.531 192.856L649.775 191.884L649.357 187.906ZM638.554 189.932L621.762 221.696L625.299 223.566L642.09 191.801L638.554 189.932ZM625.52 222.422L622.401 192.75L618.423 193.168L621.541 222.84L625.52 222.422ZM620.203 190.97L610.377 192.003L610.795 195.981L620.621 194.948L620.203 190.97ZM608.597 194.201L613.353 239.452L617.331 239.034L612.575 193.783L608.597 194.201ZM615.551 241.232L624.924 240.247L624.506 236.269L615.133 237.254L615.551 241.232ZM626.486 239.187L643.149 207.436L639.607 205.578L622.944 237.328L626.486 239.187ZM639.389 206.716L642.507 236.388L646.486 235.969L643.367 206.298L639.389 206.716ZM644.706 238.168L654.531 237.135L654.113 233.157L644.287 234.189L644.706 238.168ZM656.311 234.937L651.555 189.686L647.577 190.104L652.333 235.355L656.311 234.937ZM630.087 190.489C633.478 190.133 636.356 188.778 638.416 186.48C640.468 184.191 641.562 181.13 641.703 177.613L637.707 177.453C637.595 180.237 636.749 182.347 635.438 183.81C634.134 185.264 632.225 186.243 629.669 186.511L630.087 190.489ZM639.851 175.538L633.989 175.109L633.697 179.098L639.559 179.528L639.851 175.538ZM631.884 176.702C631.645 177.865 631.272 178.637 630.837 179.121C630.441 179.562 629.889 179.887 628.982 179.982L629.4 183.96C631.209 183.77 632.702 183.031 633.813 181.794C634.884 180.6 635.479 179.08 635.802 177.505L631.884 176.702ZM628.982 179.982C628.076 180.078 627.468 179.874 626.99 179.526C626.463 179.142 625.938 178.465 625.462 177.377L621.796 178.977C622.44 180.451 623.338 181.814 624.634 182.758C625.978 183.738 627.592 184.15 629.4 183.96L628.982 179.982ZM623.072 176.256L617.427 177.895L618.542 181.737L624.187 180.098L623.072 176.256ZM616.047 180.31C616.916 183.72 618.622 186.487 621.106 188.3C623.599 190.119 626.696 190.846 630.087 190.489L629.669 186.511C627.112 186.78 625.041 186.22 623.464 185.069C621.877 183.91 620.611 182.022 619.923 179.322L616.047 180.31ZM663.405 244.779L661.5 245.386C661.791 246.302 662.694 246.881 663.648 246.764L663.405 244.779ZM673.177 222.707L675.166 222.498C675.05 221.399 674.066 220.602 672.968 220.718L673.177 222.707ZM662.705 223.807L662.496 221.818C661.397 221.934 660.6 222.918 660.716 224.017L662.705 223.807ZM663.792 234.151L661.803 234.36C661.918 235.458 662.902 236.255 664.001 236.14L663.792 234.151ZM667.8 233.729L669.789 233.52C669.673 232.422 668.689 231.625 667.591 231.74L667.8 233.729ZM662.137 240.795L661.716 238.84C661.165 238.958 660.689 239.304 660.407 239.792C660.124 240.28 660.06 240.864 660.231 241.402L662.137 240.795ZM663.648 246.764C667.733 246.265 671.207 244.943 673.491 242.248C675.797 239.528 676.564 235.8 676.083 231.225L672.105 231.643C672.521 235.601 671.784 238.076 670.44 239.661C669.076 241.271 666.757 242.355 663.163 242.794L663.648 246.764ZM676.083 231.225L675.166 222.498L671.188 222.916L672.105 231.643L676.083 231.225ZM672.968 220.718L662.496 221.818L662.914 225.797L673.386 224.696L672.968 220.718ZM660.716 224.017L661.803 234.36L665.781 233.941L664.694 223.598L660.716 224.017ZM664.001 236.14L668.009 235.718L667.591 231.74L663.583 232.161L664.001 236.14ZM665.811 233.938L665.885 234.649L669.863 234.231L669.789 233.52L665.811 233.938ZM665.885 234.649C666.009 235.831 665.726 236.604 665.207 237.181C664.634 237.818 663.565 238.442 661.716 238.84L662.558 242.75C664.863 242.254 666.837 241.349 668.18 239.857C669.578 238.303 670.086 236.347 669.863 234.231L665.885 234.649ZM660.231 241.402L661.5 245.386L665.311 244.172L664.043 240.188L660.231 241.402Z" fill="url(#paint1_linear)"/>
<path d="M1272.59 166.343L1270.6 166.552C1270.71 167.65 1271.7 168.447 1272.8 168.332L1272.59 166.343ZM1300.1 139.53L1298.94 137.897C1298.31 138.345 1297.99 139.119 1298.13 139.883C1298.26 140.647 1298.83 141.263 1299.58 141.463L1300.1 139.53ZM1301.09 121.648L1299.83 123.203L1299.83 123.203L1301.09 121.648ZM1267.83 121.092L1267.62 119.103C1266.52 119.218 1265.73 120.202 1265.84 121.301L1267.83 121.092ZM1279.45 138.367L1277.46 138.576C1277.58 139.675 1278.56 140.471 1279.66 140.356L1279.45 138.367ZM1278.45 128.8L1278.24 126.811C1277.14 126.926 1276.34 127.91 1276.46 129.009L1278.45 128.8ZM1281.37 156.597L1279.38 156.806C1279.49 157.904 1280.48 158.701 1281.58 158.586L1281.37 156.597ZM1280.32 146.641L1280.11 144.652C1279.01 144.768 1278.22 145.752 1278.33 146.85L1280.32 146.641ZM1272.8 168.332L1294.32 166.069L1293.91 162.091L1272.38 164.354L1272.8 168.332ZM1294.32 166.069C1299.66 165.509 1304.23 163.942 1307.4 161.195C1310.65 158.369 1312.24 154.438 1311.74 149.679L1307.76 150.097C1308.13 153.613 1307 156.241 1304.78 158.174C1302.46 160.186 1298.79 161.578 1293.91 162.091L1294.32 166.069ZM1311.74 149.679C1311.37 146.205 1310.16 143.52 1308.13 141.505C1306.13 139.53 1303.5 138.37 1300.61 137.598L1299.58 141.463C1302.13 142.145 1304.01 143.06 1305.31 144.349C1306.58 145.599 1307.47 147.366 1307.76 150.097L1311.74 149.679ZM1301.25 141.164C1302.93 139.974 1304.55 138.44 1305.66 136.4C1306.78 134.335 1307.31 131.867 1307.01 128.935L1303.03 129.353C1303.26 131.528 1302.85 133.179 1302.14 134.492C1301.41 135.831 1300.3 136.937 1298.94 137.897L1301.25 141.164ZM1307.01 128.935C1306.61 125.211 1305.08 122.301 1302.35 120.094L1299.83 123.203C1301.68 124.698 1302.74 126.613 1303.03 129.353L1307.01 128.935ZM1302.35 120.094C1298.95 117.34 1294.13 116.316 1288.63 116.895L1289.05 120.873C1293.89 120.364 1297.52 121.329 1299.83 123.203L1302.35 120.094ZM1288.63 116.895L1267.62 119.103L1268.04 123.081L1289.05 120.873L1288.63 116.895ZM1265.84 121.301L1270.6 166.552L1274.58 166.134L1269.82 120.883L1265.84 121.301ZM1281.44 138.158L1280.43 128.591L1276.46 129.009L1277.46 138.576L1281.44 138.158ZM1278.65 130.789L1288.48 129.756L1288.06 125.778L1278.24 126.811L1278.65 130.789ZM1288.48 129.756C1290.36 129.558 1291.56 129.819 1292.25 130.21C1292.84 130.542 1293.21 131.048 1293.3 131.944L1297.28 131.526C1297.06 129.449 1296.02 127.75 1294.23 126.731C1292.53 125.77 1290.38 125.534 1288.06 125.778L1288.48 129.756ZM1293.3 131.944C1293.42 133.06 1293.09 133.672 1292.5 134.139C1291.78 134.715 1290.47 135.198 1288.42 135.413L1288.84 139.391C1291.19 139.144 1293.39 138.539 1294.99 137.27C1296.73 135.891 1297.53 133.9 1297.28 131.526L1293.3 131.944ZM1288.42 135.413L1279.24 136.378L1279.66 140.356L1288.84 139.391L1288.42 135.413ZM1283.36 156.387L1282.31 146.432L1278.33 146.85L1279.38 156.806L1283.36 156.387ZM1280.53 148.63L1292.04 147.421L1291.62 143.443L1280.11 144.652L1280.53 148.63ZM1292.04 147.421C1294.4 147.173 1295.81 147.472 1296.59 147.907C1297.25 148.272 1297.62 148.822 1297.72 149.779L1301.7 149.361C1301.48 147.28 1300.47 145.493 1298.54 144.414C1296.73 143.405 1294.36 143.155 1291.62 143.443L1292.04 147.421ZM1297.72 149.779C1297.85 150.941 1297.51 151.593 1296.95 152.07C1296.27 152.649 1295.01 153.152 1292.99 153.364L1293.41 157.342C1295.78 157.093 1297.97 156.45 1299.53 155.125C1301.22 153.699 1301.95 151.69 1301.7 149.361L1297.72 149.779ZM1292.99 153.364L1281.16 154.608L1281.58 158.586L1293.41 157.342L1292.99 153.364ZM1315.45 171.38L1313.46 171.589C1313.57 172.688 1314.56 173.485 1315.66 173.369L1315.45 171.38ZM1324.43 170.436L1324.64 172.425C1325.69 172.315 1326.47 171.414 1326.43 170.363L1324.43 170.436ZM1324.09 160.93L1323.88 158.941C1322.83 159.051 1322.05 159.952 1322.09 161.002L1324.09 160.93ZM1352.4 157.954L1354.39 157.745C1354.28 156.646 1353.29 155.849 1352.19 155.965L1352.4 157.954ZM1353.39 167.392L1351.41 167.601C1351.52 168.699 1352.5 169.496 1353.6 169.381L1353.39 167.392ZM1361.73 166.515L1361.94 168.504C1362.99 168.395 1363.77 167.496 1363.73 166.446L1361.73 166.515ZM1361.09 147.956L1363.09 147.887C1363.07 147.332 1362.82 146.811 1362.4 146.447C1361.98 146.083 1361.43 145.909 1360.88 145.967L1361.09 147.956ZM1355.66 148.527L1353.67 148.736C1353.79 149.834 1354.77 150.631 1355.87 150.516L1355.66 148.527ZM1351.85 112.261L1353.84 112.052C1353.72 110.954 1352.74 110.157 1351.64 110.272L1351.85 112.261ZM1318.94 115.72L1318.74 113.731C1317.64 113.846 1316.84 114.83 1316.96 115.929L1318.94 115.72ZM1317.78 152.508L1317.99 154.497C1318.78 154.414 1319.45 153.865 1319.69 153.101L1317.78 152.508ZM1313.51 152.957L1313.3 150.968C1312.2 151.083 1311.41 152.067 1311.52 153.166L1313.51 152.957ZM1342.84 122.293L1344.83 122.084C1344.71 120.986 1343.73 120.189 1342.63 120.304L1342.84 122.293ZM1345.7 149.573L1345.91 151.562C1347.01 151.447 1347.81 150.462 1347.69 149.364L1345.7 149.573ZM1328.25 151.407L1326.33 150.842C1326.14 151.483 1326.29 152.175 1326.71 152.688C1327.14 153.2 1327.8 153.466 1328.46 153.396L1328.25 151.407ZM1329.46 123.7L1329.25 121.711C1328.15 121.826 1327.35 122.81 1327.47 123.909L1329.46 123.7ZM1315.66 173.369L1324.64 172.425L1324.22 168.447L1315.24 169.391L1315.66 173.369ZM1326.43 170.363L1326.09 160.857L1322.09 161.002L1322.44 170.508L1326.43 170.363ZM1324.3 162.919L1352.61 159.943L1352.19 155.965L1323.88 158.941L1324.3 162.919ZM1350.41 158.163L1351.41 167.601L1355.38 167.183L1354.39 157.745L1350.41 158.163ZM1353.6 169.381L1361.94 168.504L1361.52 164.526L1353.19 165.403L1353.6 169.381ZM1363.73 166.446L1363.09 147.887L1359.09 148.025L1359.73 166.585L1363.73 166.446ZM1360.88 145.967L1355.45 146.538L1355.87 150.516L1361.3 149.945L1360.88 145.967ZM1357.65 148.318L1353.84 112.052L1349.86 112.47L1353.67 148.736L1357.65 148.318ZM1351.64 110.272L1318.74 113.731L1319.15 117.709L1352.06 114.25L1351.64 110.272ZM1316.96 115.929L1317.51 121.23L1321.49 120.811L1320.93 115.511L1316.96 115.929ZM1317.51 121.23C1319.12 136.509 1318.3 144.08 1315.87 151.915L1319.69 153.101C1322.33 144.586 1323.13 136.432 1321.49 120.811L1317.51 121.23ZM1317.57 150.519L1313.3 150.968L1313.72 154.946L1317.99 154.497L1317.57 150.519ZM1311.52 153.166L1313.46 171.589L1317.44 171.171L1315.5 152.748L1311.52 153.166ZM1340.85 122.502L1343.72 149.782L1347.69 149.364L1344.83 122.084L1340.85 122.502ZM1345.5 147.584L1328.04 149.418L1328.46 153.396L1345.91 151.562L1345.5 147.584ZM1330.17 151.972C1332.18 145.155 1332.96 137.881 1331.93 128.08L1327.95 128.498C1328.93 137.832 1328.18 144.575 1326.33 150.842L1330.17 151.972ZM1331.93 128.08L1331.45 123.491L1327.47 123.909L1327.95 128.498L1331.93 128.08ZM1329.67 125.689L1343.05 124.282L1342.63 120.304L1329.25 121.711L1329.67 125.689ZM1391.25 156.666C1406.3 155.084 1416.16 142.512 1414.69 128.532L1410.71 128.95C1411.94 140.698 1403.72 151.333 1390.84 152.687L1391.25 156.666ZM1414.69 128.532C1413.21 114.429 1401.1 104.29 1386.05 105.872L1386.47 109.85C1399.34 108.496 1409.46 117.066 1410.71 128.95L1414.69 128.532ZM1386.05 105.872C1371 107.453 1361.15 120.025 1362.61 134.005L1366.59 133.587C1365.36 121.839 1373.58 111.204 1386.47 109.85L1386.05 105.872ZM1362.61 134.005C1364.1 148.108 1376.2 158.247 1391.25 156.666L1390.84 152.687C1377.96 154.041 1367.84 145.471 1366.59 133.587L1362.61 134.005ZM1390 143.494C1383.2 144.209 1377.71 139.275 1377 132.493L1373.02 132.911C1373.94 141.644 1381.19 148.443 1390.42 147.472L1390 143.494ZM1377 132.493C1376.27 125.568 1380.52 119.756 1387.3 119.043L1386.88 115.065C1377.64 116.036 1372.09 124.063 1373.02 132.911L1377 132.493ZM1387.3 119.043C1394.1 118.328 1399.59 123.262 1400.3 130.044L1404.28 129.626C1403.36 120.893 1396.12 114.094 1386.88 115.065L1387.3 119.043ZM1400.3 130.044C1401.03 136.969 1396.79 142.781 1390 143.494L1390.42 147.472C1399.67 146.501 1405.21 138.474 1404.28 129.626L1400.3 130.044ZM1423.91 150.438L1421.92 150.647C1422.03 151.746 1423.02 152.543 1424.12 152.427L1423.91 150.438ZM1433.67 149.412L1433.88 151.401C1434.98 151.286 1435.77 150.302 1435.66 149.203L1433.67 149.412ZM1430.58 120.064L1432.13 118.795C1431.57 118.112 1430.63 117.878 1429.81 118.219C1429 118.559 1428.5 119.395 1428.6 120.273L1430.58 120.064ZM1445.2 137.874L1443.65 139.143C1444.08 139.662 1444.74 139.933 1445.41 139.863L1445.2 137.874ZM1445.46 137.847L1445.67 139.836C1446.34 139.765 1446.93 139.363 1447.24 138.766L1445.46 137.847ZM1456.16 117.179L1458.15 116.97C1458.06 116.092 1457.4 115.378 1456.53 115.214C1455.67 115.05 1454.79 115.475 1454.39 116.26L1456.16 117.179ZM1459.27 146.722L1457.28 146.931C1457.39 148.029 1458.38 148.826 1459.48 148.711L1459.27 146.722ZM1469.16 145.682L1469.37 147.671C1470.47 147.556 1471.26 146.572 1471.15 145.473L1469.16 145.682ZM1464.4 100.431L1466.39 100.222C1466.28 99.1239 1465.29 98.327 1464.19 98.4424L1464.4 100.431ZM1453.67 101.559L1453.46 99.5703C1452.77 99.6426 1452.17 100.065 1451.87 100.687L1453.67 101.559ZM1443.79 121.944L1442.21 123.172C1442.63 123.717 1443.31 124.005 1444 123.933C1444.68 123.861 1445.29 123.439 1445.59 122.817L1443.79 121.944ZM1429.88 104.06L1431.46 102.832C1431.04 102.286 1430.36 101.998 1429.67 102.071L1429.88 104.06ZM1419.15 105.188L1418.94 103.198C1417.84 103.314 1417.05 104.298 1417.16 105.397L1419.15 105.188ZM1424.12 152.427L1433.88 151.401L1433.46 147.423L1423.7 148.449L1424.12 152.427ZM1435.66 149.203L1432.57 119.855L1428.6 120.273L1431.68 149.621L1435.66 149.203ZM1429.04 121.333L1443.65 139.143L1446.75 136.605L1432.13 118.795L1429.04 121.333ZM1445.41 139.863L1445.67 139.836L1445.25 135.857L1444.99 135.885L1445.41 139.863ZM1447.24 138.766L1457.94 118.099L1454.39 116.26L1443.68 136.927L1447.24 138.766ZM1454.17 117.389L1457.28 146.931L1461.26 146.513L1458.15 116.97L1454.17 117.389ZM1459.48 148.711L1469.37 147.671L1468.95 143.693L1459.06 144.733L1459.48 148.711ZM1471.15 145.473L1466.39 100.222L1462.41 100.641L1467.17 145.891L1471.15 145.473ZM1464.19 98.4424L1453.46 99.5703L1453.88 103.548L1464.61 102.421L1464.19 98.4424ZM1451.87 100.687L1441.99 121.072L1445.59 122.817L1455.47 102.432L1451.87 100.687ZM1445.37 120.716L1431.46 102.832L1428.3 105.287L1442.21 123.172L1445.37 120.716ZM1429.67 102.071L1418.94 103.198L1419.36 107.177L1430.09 106.049L1429.67 102.071ZM1417.16 105.397L1421.92 150.647L1425.9 150.229L1421.14 104.978L1417.16 105.397ZM1476.15 144.947L1474.24 144.361C1474.04 145.003 1474.18 145.701 1474.61 146.219C1475.03 146.737 1475.69 147.007 1476.36 146.936L1476.15 144.947ZM1486.3 143.881L1486.51 145.87C1487.32 145.785 1487.99 145.219 1488.22 144.438L1486.3 143.881ZM1489.37 133.297L1489.16 131.308C1488.35 131.393 1487.68 131.959 1487.45 132.739L1489.37 133.297ZM1508.5 131.286L1510.27 130.341C1509.88 129.624 1509.1 129.212 1508.3 129.297L1508.5 131.286ZM1513.71 141L1511.95 141.944C1512.33 142.661 1513.11 143.074 1513.92 142.989L1513.71 141ZM1524.12 139.906L1524.33 141.895C1524.99 141.825 1525.58 141.424 1525.89 140.829C1526.2 140.233 1526.19 139.522 1525.86 138.935L1524.12 139.906ZM1499.93 96.3703L1501.68 95.3991C1501.29 94.698 1500.52 94.2974 1499.72 94.3812L1499.93 96.3703ZM1490.75 97.3351L1490.54 95.346C1489.75 95.4298 1489.08 95.9819 1488.84 96.7486L1490.75 97.3351ZM1492 124.131L1490.08 123.571C1489.89 124.211 1490.04 124.902 1490.47 125.413C1490.89 125.925 1491.55 126.19 1492.21 126.12L1492 124.131ZM1496.47 108.825L1498.23 107.878C1497.85 107.163 1497.07 106.751 1496.26 106.836C1495.45 106.921 1494.78 107.486 1494.55 108.265L1496.47 108.825ZM1504.03 122.868L1504.23 124.857C1504.9 124.787 1505.48 124.392 1505.79 123.802C1506.1 123.213 1506.1 122.507 1505.79 121.92L1504.03 122.868ZM1476.36 146.936L1486.51 145.87L1486.09 141.892L1475.94 142.958L1476.36 146.936ZM1488.22 144.438L1491.29 133.854L1487.45 132.739L1484.38 143.323L1488.22 144.438ZM1489.58 135.286L1508.71 133.275L1508.3 129.297L1489.16 131.308L1489.58 135.286ZM1506.74 132.23L1511.95 141.944L1515.47 140.055L1510.27 130.341L1506.74 132.23ZM1513.92 142.989L1524.33 141.895L1523.91 137.917L1513.5 139.011L1513.92 142.989ZM1525.86 138.935L1501.68 95.3991L1498.18 97.3414L1522.37 140.877L1525.86 138.935ZM1499.72 94.3812L1490.54 95.346L1490.96 99.3241L1500.14 98.3593L1499.72 94.3812ZM1488.84 96.7486L1474.24 144.361L1478.06 145.534L1492.67 97.9215L1488.84 96.7486ZM1493.92 124.692L1498.39 109.386L1494.55 108.265L1490.08 123.571L1493.92 124.692ZM1494.71 109.773L1502.26 123.815L1505.79 121.92L1498.23 107.878L1494.71 109.773ZM1503.82 120.879L1491.79 122.142L1492.21 126.12L1504.23 124.857L1503.82 120.879ZM1550.48 137.135L1548.49 137.344C1548.61 138.442 1549.59 139.239 1550.69 139.124L1550.48 137.135ZM1560.44 136.089L1560.65 138.078C1561.74 137.962 1562.54 136.978 1562.43 135.879L1560.44 136.089ZM1558.98 122.255L1557.41 121.025C1557.09 121.433 1556.94 121.949 1556.99 122.464L1558.98 122.255ZM1563.65 116.274L1565.13 114.934C1564.74 114.496 1564.17 114.254 1563.58 114.276C1562.99 114.297 1562.43 114.578 1562.07 115.044L1563.65 116.274ZM1579.7 134.064L1578.22 135.404C1578.64 135.878 1579.27 136.12 1579.91 136.053L1579.7 134.064ZM1591.66 132.807L1591.87 134.796C1592.62 134.717 1593.26 134.222 1593.53 133.516C1593.8 132.81 1593.64 132.013 1593.13 131.456L1591.66 132.807ZM1569.66 108.78L1568.08 107.554C1567.48 108.324 1567.52 109.412 1568.18 110.131L1569.66 108.78ZM1586.06 87.6445L1587.64 88.8708C1588.13 88.2377 1588.2 87.3724 1587.81 86.6721C1587.42 85.9717 1586.65 85.5716 1585.85 85.6554L1586.06 87.6445ZM1574.04 88.9082L1573.83 86.9192C1573.28 86.9773 1572.77 87.2633 1572.44 87.7084L1574.04 88.9082ZM1557.76 110.619L1555.77 110.828C1555.86 111.646 1556.43 112.328 1557.23 112.547C1558.02 112.766 1558.87 112.477 1559.36 111.819L1557.76 110.619ZM1555.68 90.8378L1557.67 90.6287C1557.55 89.5302 1556.57 88.7333 1555.47 88.8488L1555.68 90.8378ZM1545.72 91.8841L1545.52 89.8951C1544.42 90.0106 1543.62 90.9947 1543.74 92.0932L1545.72 91.8841ZM1550.69 139.124L1560.65 138.078L1560.23 134.1L1550.27 135.146L1550.69 139.124ZM1562.43 135.879L1560.97 122.046L1556.99 122.464L1558.45 136.298L1562.43 135.879ZM1560.56 123.485L1565.22 117.505L1562.07 115.044L1557.41 121.025L1560.56 123.485ZM1562.16 117.614L1578.22 135.404L1581.18 132.724L1565.13 114.934L1562.16 117.614ZM1579.91 136.053L1591.87 134.796L1591.45 130.818L1579.49 132.075L1579.91 136.053ZM1593.13 131.456L1571.13 107.429L1568.18 110.131L1590.18 134.158L1593.13 131.456ZM1571.24 110.006L1587.64 88.8708L1584.48 86.4181L1568.08 107.554L1571.24 110.006ZM1585.85 85.6554L1573.83 86.9192L1574.25 90.8973L1586.27 89.6335L1585.85 85.6554ZM1572.44 87.7084L1556.16 109.419L1559.36 111.819L1575.64 90.1081L1572.44 87.7084ZM1559.75 110.41L1557.67 90.6287L1553.69 91.0469L1555.77 110.828L1559.75 110.41ZM1555.47 88.8488L1545.52 89.8951L1545.93 93.8732L1555.89 92.8269L1555.47 88.8488ZM1543.74 92.0932L1548.49 137.344L1552.47 136.926L1547.71 91.6751L1543.74 92.0932ZM1593.82 132.579L1591.91 131.993C1591.71 132.635 1591.85 133.333 1592.28 133.851C1592.71 134.369 1593.36 134.639 1594.03 134.569L1593.82 132.579ZM1603.97 131.513L1604.18 133.502C1604.99 133.417 1605.67 132.851 1605.89 132.07L1603.97 131.513ZM1607.04 120.929L1606.83 118.94C1606.02 119.025 1605.35 119.591 1605.12 120.372L1607.04 120.929ZM1626.18 118.918L1627.94 117.973C1627.56 117.257 1626.78 116.844 1625.97 116.929L1626.18 118.918ZM1631.38 128.632L1629.62 129.576C1630 130.293 1630.78 130.706 1631.59 130.621L1631.38 128.632ZM1641.79 127.538L1642 129.527C1642.67 129.457 1643.25 129.056 1643.56 128.461C1643.87 127.865 1643.86 127.154 1643.54 126.567L1641.79 127.538ZM1617.61 84.0024L1619.35 83.0312C1618.96 82.3302 1618.19 81.9295 1617.4 82.0134L1617.61 84.0024ZM1608.43 84.9672L1608.22 82.9782C1607.42 83.062 1606.75 83.6141 1606.51 84.3808L1608.43 84.9672ZM1609.67 111.764L1607.75 111.203C1607.57 111.843 1607.71 112.534 1608.14 113.045C1608.57 113.557 1609.22 113.822 1609.88 113.753L1609.67 111.764ZM1614.14 96.4575L1615.9 95.51C1615.52 94.7952 1614.74 94.3836 1613.93 94.4685C1613.13 94.5533 1612.45 95.1177 1612.22 95.8969L1614.14 96.4575ZM1621.7 110.5L1621.91 112.489C1622.57 112.419 1623.15 112.024 1623.47 111.434C1623.78 110.845 1623.77 110.139 1623.46 109.552L1621.7 110.5ZM1594.03 134.569L1604.18 133.502L1603.76 129.524L1593.61 130.59L1594.03 134.569ZM1605.89 132.07L1608.96 121.486L1605.12 120.372L1602.05 130.956L1605.89 132.07ZM1607.25 122.918L1626.39 120.907L1625.97 116.929L1606.83 118.94L1607.25 122.918ZM1624.41 119.862L1629.62 129.576L1633.14 127.688L1627.94 117.973L1624.41 119.862ZM1631.59 130.621L1642 129.527L1641.58 125.549L1631.17 126.643L1631.59 130.621ZM1643.54 126.567L1619.35 83.0312L1615.86 84.9736L1640.04 128.509L1643.54 126.567ZM1617.4 82.0134L1608.22 82.9782L1608.63 86.9563L1617.81 85.9915L1617.4 82.0134ZM1606.51 84.3808L1591.91 131.993L1595.73 133.166L1610.34 85.5537L1606.51 84.3808ZM1611.59 112.324L1616.06 97.0181L1612.22 95.8969L1607.75 111.203L1611.59 112.324ZM1612.38 97.405L1619.94 111.447L1623.46 109.552L1615.9 95.51L1612.38 97.405ZM1621.49 108.511L1609.46 109.775L1609.88 113.753L1621.91 112.489L1621.49 108.511ZM1683 77.4563L1684.99 77.2472C1684.87 76.1487 1683.89 75.3518 1682.79 75.4672L1683 77.4563ZM1673.75 78.4279L1673.54 76.4388C1672.88 76.5085 1672.3 76.9039 1671.98 77.4932L1673.75 78.4279ZM1656.96 110.192L1654.97 110.401C1655.06 111.277 1655.72 111.989 1656.58 112.156C1657.45 112.323 1658.32 111.905 1658.73 111.127L1656.96 110.192ZM1653.84 80.5205L1655.83 80.3115C1655.72 79.213 1654.73 78.416 1653.63 78.5315L1653.84 80.5205ZM1644.02 81.5533L1643.81 79.5642C1642.71 79.6797 1641.91 80.6638 1642.03 81.7623L1644.02 81.5533ZM1648.77 126.804L1646.78 127.013C1646.9 128.112 1647.88 128.909 1648.98 128.793L1648.77 126.804ZM1658.15 125.819L1658.35 127.808C1659.02 127.738 1659.61 127.34 1659.92 126.748L1658.15 125.819ZM1674.81 94.0682L1676.8 93.8592C1676.71 92.9826 1676.05 92.2698 1675.18 92.1039C1674.32 91.9381 1673.45 92.3584 1673.04 93.1388L1674.81 94.0682ZM1677.93 123.74L1675.94 123.949C1676.05 125.047 1677.04 125.844 1678.14 125.729L1677.93 123.74ZM1687.75 122.707L1687.96 124.696C1689.06 124.581 1689.86 123.596 1689.74 122.498L1687.75 122.707ZM1673.14 65.0943L1675.13 65.1745C1675.18 64.0965 1674.36 63.1785 1673.28 63.0997L1673.14 65.0943ZM1667.27 64.6647L1667.42 62.6701C1666.42 62.5966 1665.52 63.2784 1665.31 64.2628L1667.27 64.6647ZM1657.06 65.7382L1658.89 64.9378C1658.49 64.0168 1657.47 63.5373 1656.5 63.8176L1657.06 65.7382ZM1651.42 67.3772L1650.86 65.4566C1649.82 65.7574 1649.21 66.8257 1649.48 67.8711L1651.42 67.3772ZM1682.79 75.4672L1673.54 76.4388L1673.96 80.4169L1683.21 79.4453L1682.79 75.4672ZM1671.98 77.4932L1655.19 109.257L1658.73 111.127L1675.52 79.3626L1671.98 77.4932ZM1658.95 109.983L1655.83 80.3115L1651.85 80.7296L1654.97 110.401L1658.95 109.983ZM1653.63 78.5315L1643.81 79.5642L1644.23 83.5423L1654.05 82.5096L1653.63 78.5315ZM1642.03 81.7623L1646.78 127.013L1650.76 126.595L1646.01 81.3442L1642.03 81.7623ZM1648.98 128.793L1658.35 127.808L1657.94 123.83L1648.56 124.815L1648.98 128.793ZM1659.92 126.748L1676.58 94.9976L1673.04 93.1388L1656.37 124.889L1659.92 126.748ZM1672.82 94.2773L1675.94 123.949L1679.92 123.531L1676.8 93.8592L1672.82 94.2773ZM1678.14 125.729L1687.96 124.696L1687.54 120.718L1677.72 121.751L1678.14 125.729ZM1689.74 122.498L1684.99 77.2472L1681.01 77.6653L1685.76 122.916L1689.74 122.498ZM1663.52 78.0507C1666.91 77.6943 1669.79 76.3396 1671.85 74.0415C1673.9 71.7522 1674.99 68.6913 1675.13 65.1745L1671.14 65.0142C1671.03 67.7983 1670.18 69.9086 1668.87 71.3714C1667.56 72.8255 1665.66 73.804 1663.1 74.0726L1663.52 78.0507ZM1673.28 63.0997L1667.42 62.6701L1667.13 66.6594L1672.99 67.089L1673.28 63.0997ZM1665.31 64.2628C1665.08 65.4267 1664.7 66.198 1664.27 66.6825C1663.87 67.123 1663.32 67.4483 1662.41 67.5436L1662.83 71.5217C1664.64 71.3316 1666.13 70.5923 1667.24 69.3549C1668.31 68.1615 1668.91 66.6415 1669.23 65.0666L1665.31 64.2628ZM1662.41 67.5436C1661.51 67.6389 1660.9 67.4354 1660.42 67.0868C1659.89 66.7034 1659.37 66.0266 1658.89 64.9378L1655.23 66.5387C1655.87 68.012 1656.77 69.3751 1658.06 70.3196C1659.41 71.299 1661.02 71.7117 1662.83 71.5217L1662.41 67.5436ZM1656.5 63.8176L1650.86 65.4566L1651.97 69.2979L1657.62 67.6589L1656.5 63.8176ZM1649.48 67.8711C1650.35 71.2817 1652.05 74.0483 1654.54 75.8608C1657.03 77.6804 1660.13 78.4071 1663.52 78.0507L1663.1 74.0726C1660.54 74.3413 1658.47 73.7811 1656.89 72.6299C1655.31 71.4717 1654.04 69.5834 1653.35 66.8833L1649.48 67.8711ZM1724.74 84.441L1724.53 82.4519C1723.43 82.5674 1722.64 83.5515 1722.75 84.65L1724.74 84.441ZM1727.06 106.485L1725.07 106.694C1725.19 107.792 1726.17 108.589 1727.27 108.474L1727.06 106.485ZM1728.51 120.254L1728.72 122.243C1729.81 122.127 1730.61 121.143 1730.5 120.045L1728.51 120.254ZM1727.99 115.341L1727.78 113.352C1726.68 113.467 1725.89 114.451 1726 115.55L1727.99 115.341ZM1723.81 75.5848L1721.82 75.7938C1721.94 76.8923 1722.92 77.6893 1724.02 77.5738L1723.81 75.5848ZM1723.38 71.4475L1725.37 71.2385C1725.25 70.14 1724.27 69.343 1723.17 69.4585L1723.38 71.4475ZM1713.42 72.4939L1713.21 70.5048C1712.11 70.6203 1711.32 71.6044 1711.43 72.7029L1713.42 72.4939ZM1713.86 76.6311L1714.07 78.6201C1715.16 78.5047 1715.96 77.5205 1715.84 76.422L1713.86 76.6311ZM1718.03 116.387L1720.02 116.178C1719.91 115.08 1718.92 114.283 1717.83 114.398L1718.03 116.387ZM1718.55 121.3L1716.56 121.509C1716.68 122.608 1717.66 123.405 1718.76 123.289L1718.55 121.3ZM1717.1 107.531L1717.31 109.52C1718.41 109.404 1719.21 108.42 1719.09 107.322L1717.1 107.531ZM1714.79 85.4873L1716.78 85.2782C1716.66 84.1797 1715.68 83.3828 1714.58 83.4983L1714.79 85.4873ZM1724.95 86.43C1728.22 86.0868 1730.85 86.7853 1732.7 88.1298C1734.52 89.4581 1735.76 91.5432 1736.06 94.3622L1740.04 93.944C1739.64 90.1047 1737.88 86.9498 1735.05 84.8947C1732.25 82.8558 1728.57 82.0273 1724.53 82.4519L1724.95 86.43ZM1736.06 94.3622C1736.37 97.2555 1735.58 99.5662 1734.07 101.239C1732.55 102.933 1730.12 104.152 1726.85 104.496L1727.27 108.474C1731.3 108.05 1734.73 106.496 1737.05 103.914C1739.39 101.309 1740.45 97.8383 1740.04 93.944L1736.06 94.3622ZM1729.05 106.275L1726.73 84.2319L1722.75 84.65L1725.07 106.694L1729.05 106.275ZM1730.5 120.045L1729.98 115.132L1726 115.55L1726.52 120.463L1730.5 120.045ZM1728.2 117.33C1735.59 116.552 1741.47 113.609 1745.34 109.173C1749.22 104.731 1750.96 98.9354 1750.3 92.7345L1746.33 93.1526C1746.87 98.3289 1745.42 102.998 1742.33 106.543C1739.23 110.095 1734.35 112.662 1727.78 113.352L1728.2 117.33ZM1750.3 92.7345C1749.65 86.5201 1746.71 81.2904 1741.98 77.8368C1737.26 74.3937 1730.92 72.8269 1723.6 73.5957L1724.02 77.5738C1730.54 76.8887 1735.85 78.3125 1739.62 81.068C1743.38 83.8129 1745.78 87.9896 1746.33 93.1526L1750.3 92.7345ZM1725.8 75.3757L1725.37 71.2385L1721.39 71.6566L1721.82 75.7938L1725.8 75.3757ZM1723.17 69.4585L1713.21 70.5048L1713.63 74.4829L1723.59 73.4366L1723.17 69.4585ZM1711.43 72.7029L1711.87 76.8401L1715.84 76.422L1715.41 72.2848L1711.43 72.7029ZM1713.65 74.642C1706.3 75.4141 1700.42 78.265 1696.53 82.606C1692.62 86.9602 1690.85 92.6688 1691.5 98.8495L1695.48 98.4314C1694.94 93.2994 1696.4 88.7338 1699.5 85.2767C1702.62 81.8064 1707.51 79.3089 1714.07 78.6201L1713.65 74.642ZM1691.5 98.8495C1692.16 105.08 1695.06 110.404 1699.77 113.953C1704.49 117.496 1710.85 119.154 1718.24 118.376L1717.83 114.398C1711.26 115.088 1705.95 113.593 1702.18 110.757C1698.42 107.926 1696.03 103.643 1695.48 98.4314L1691.5 98.8495ZM1716.05 116.596L1716.56 121.509L1720.54 121.091L1720.02 116.178L1716.05 116.596ZM1718.76 123.289L1728.72 122.243L1728.3 118.265L1718.34 119.311L1718.76 123.289ZM1716.89 105.542C1713.62 105.886 1710.97 105.201 1709.11 103.857C1707.28 102.532 1706.02 100.437 1705.71 97.5518L1701.74 97.97C1702.15 101.873 1703.92 105.046 1706.77 107.101C1709.6 109.138 1713.28 109.944 1717.31 109.52L1716.89 105.542ZM1705.71 97.5518C1705.42 94.7413 1706.21 92.4428 1707.74 90.7584C1709.28 89.0525 1711.73 87.8196 1715 87.4763L1714.58 83.4983C1710.54 83.9228 1707.11 85.4975 1704.77 88.0719C1702.42 90.6678 1701.33 94.1222 1701.74 97.97L1705.71 97.5518ZM1712.8 85.6964L1715.11 107.74L1719.09 107.322L1716.78 85.2782L1712.8 85.6964ZM1775.76 91.8888L1774.09 92.9833C1774.51 93.6247 1775.26 93.9701 1776.02 93.8725C1776.78 93.7749 1777.41 93.2515 1777.66 92.525L1775.76 91.8888ZM1760.97 69.2614L1762.64 68.1669C1762.23 67.5393 1761.5 67.194 1760.76 67.2724L1760.97 69.2614ZM1749.85 70.4301L1749.64 68.441C1748.94 68.5145 1748.33 68.9494 1748.03 69.5867C1747.74 70.224 1747.8 70.97 1748.19 71.5519L1749.85 70.4301ZM1771.51 102.401L1773.29 103.311C1773.62 102.662 1773.57 101.883 1773.16 101.279L1771.51 102.401ZM1760.68 105.696L1761.53 103.887C1761.03 103.653 1760.46 103.633 1759.95 103.834C1759.44 104.035 1759.03 104.438 1758.82 104.948L1760.68 105.696ZM1757.57 113.409L1755.71 112.66C1755.31 113.664 1755.77 114.808 1756.77 115.241L1757.57 113.409ZM1781.25 102.488L1783.13 103.19L1783.13 103.186L1781.25 102.488ZM1794.97 65.6876L1796.84 66.386C1797.08 65.7372 1796.97 65.0095 1796.55 64.4623C1796.12 63.9151 1795.45 63.6262 1794.76 63.6986L1794.97 65.6876ZM1784.17 66.8223L1783.96 64.8332C1783.18 64.9151 1782.53 65.4438 1782.28 66.186L1784.17 66.8223ZM1777.44 90.7942L1762.64 68.1669L1759.29 70.356L1774.09 92.9833L1777.44 90.7942ZM1760.76 67.2724L1749.64 68.441L1750.06 72.4191L1761.17 71.2505L1760.76 67.2724ZM1748.19 71.5519L1769.85 103.523L1773.16 101.279L1751.5 69.3083L1748.19 71.5519ZM1769.73 101.491C1768.48 103.928 1767.05 104.518 1765.99 104.63L1766.41 108.608C1768.96 108.339 1771.5 106.814 1773.29 103.311L1769.73 101.491ZM1765.99 104.63C1764.56 104.78 1763.08 104.62 1761.53 103.887L1759.82 107.505C1762.12 108.59 1764.35 108.825 1766.41 108.608L1765.99 104.63ZM1758.82 104.948L1755.71 112.66L1759.42 114.157L1762.53 106.444L1758.82 104.948ZM1756.77 115.241C1760.04 116.672 1763.53 117.472 1767.82 117.022L1767.4 113.044C1763.92 113.409 1761.12 112.78 1758.37 111.576L1756.77 115.241ZM1767.82 117.022C1771.34 116.652 1774.39 115.448 1776.98 113.108C1779.53 110.801 1781.51 107.51 1783.13 103.19L1779.38 101.785C1777.89 105.766 1776.21 108.415 1774.3 110.139C1772.43 111.83 1770.21 112.748 1767.4 113.044L1767.82 117.022ZM1783.13 103.186L1796.84 66.386L1793.09 64.9892L1779.38 101.789L1783.13 103.186ZM1794.76 63.6986L1783.96 64.8332L1784.38 68.8113L1795.18 67.6767L1794.76 63.6986ZM1782.28 66.186L1773.87 91.2525L1777.66 92.525L1786.07 67.4585L1782.28 66.186ZM1840.57 60.895L1842.56 60.686C1842.44 59.5875 1841.46 58.7905 1840.36 58.906L1840.57 60.895ZM1831.32 61.8666L1831.11 59.8776C1830.45 59.9473 1829.87 60.3426 1829.55 60.9319L1831.32 61.8666ZM1814.53 93.6309L1812.54 93.8399C1812.63 94.7153 1813.29 95.4277 1814.15 95.5946C1815.02 95.7615 1815.89 95.3437 1816.3 94.5656L1814.53 93.6309ZM1811.41 63.9593L1813.4 63.7502C1813.29 62.6517 1812.3 61.8548 1811.2 61.9703L1811.41 63.9593ZM1801.59 64.992L1801.38 63.003C1800.28 63.1185 1799.48 64.1026 1799.6 65.2011L1801.59 64.992ZM1806.34 110.243L1804.35 110.452C1804.47 111.55 1805.45 112.347 1806.55 112.232L1806.34 110.243ZM1815.72 109.258L1815.92 111.247C1816.59 111.177 1817.18 110.779 1817.49 110.187L1815.72 109.258ZM1832.38 77.507L1834.37 77.2979C1834.27 76.4214 1833.62 75.7085 1832.75 75.5427C1831.89 75.3769 1831.02 75.7972 1830.61 76.5776L1832.38 77.507ZM1835.5 107.179L1833.51 107.388C1833.62 108.486 1834.61 109.283 1835.71 109.168L1835.5 107.179ZM1845.32 106.146L1845.53 108.135C1846.63 108.019 1847.43 107.035 1847.31 105.937L1845.32 106.146ZM1830.71 48.5331L1832.7 48.6133C1832.75 47.5353 1831.93 46.6173 1830.85 46.5385L1830.71 48.5331ZM1824.84 48.1035L1824.99 46.1088C1823.99 46.0354 1823.09 46.7171 1822.88 47.7016L1824.84 48.1035ZM1814.63 49.177L1816.46 48.3765C1816.06 47.4556 1815.04 46.9761 1814.07 47.2563L1814.63 49.177ZM1808.98 50.816L1808.43 48.8953C1807.39 49.1962 1806.78 50.2645 1807.05 51.3099L1808.98 50.816ZM1840.36 58.906L1831.11 59.8776L1831.53 63.8557L1840.78 62.8841L1840.36 58.906ZM1829.55 60.9319L1812.76 92.6962L1816.3 94.5656L1833.09 62.8013L1829.55 60.9319ZM1816.52 93.4218L1813.4 63.7502L1809.42 64.1684L1812.54 93.8399L1816.52 93.4218ZM1811.2 61.9703L1801.38 63.003L1801.8 66.9811L1811.62 65.9483L1811.2 61.9703ZM1799.6 65.2011L1804.35 110.452L1808.33 110.034L1803.58 64.783L1799.6 65.2011ZM1806.55 112.232L1815.92 111.247L1815.51 107.269L1806.13 108.254L1806.55 112.232ZM1817.49 110.187L1834.15 78.4364L1830.61 76.5776L1813.94 108.328L1817.49 110.187ZM1830.39 77.716L1833.51 107.388L1837.49 106.969L1834.37 77.2979L1830.39 77.716ZM1835.71 109.168L1845.53 108.135L1845.11 104.157L1835.29 105.189L1835.71 109.168ZM1847.31 105.937L1842.56 60.686L1838.58 61.1041L1843.33 106.355L1847.31 105.937ZM1821.09 61.4895C1824.48 61.1331 1827.36 59.7784 1829.42 57.4802C1831.47 55.1909 1832.56 52.1301 1832.7 48.6133L1828.71 48.4529C1828.6 51.2371 1827.75 53.3473 1826.44 54.8102C1825.13 56.2642 1823.22 57.2427 1820.67 57.5114L1821.09 61.4895ZM1830.85 46.5385L1824.99 46.1088L1824.7 50.0982L1830.56 50.5278L1830.85 46.5385ZM1822.88 47.7016C1822.65 48.8655 1822.27 49.6368 1821.84 50.1213C1821.44 50.5617 1820.89 50.8871 1819.98 50.9824L1820.4 54.9604C1822.21 54.7704 1823.7 54.0311 1824.81 52.7937C1825.88 51.6002 1826.48 50.0803 1826.8 48.5054L1822.88 47.7016ZM1819.98 50.9824C1819.08 51.0777 1818.47 50.8742 1817.99 50.5256C1817.46 50.1421 1816.94 49.4653 1816.46 48.3765L1812.8 49.9775C1813.44 51.4507 1814.34 52.8138 1815.63 53.7584C1816.98 54.7378 1818.59 55.1505 1820.4 54.9604L1819.98 50.9824ZM1814.07 47.2563L1808.43 48.8953L1809.54 52.7367L1815.19 51.0977L1814.07 47.2563ZM1807.05 51.3099C1807.92 54.7205 1809.62 57.487 1812.11 59.2996C1814.6 61.1192 1817.7 61.8459 1821.09 61.4895L1820.67 57.5114C1818.11 57.7801 1816.04 57.2199 1814.46 56.0687C1812.88 54.9104 1811.61 53.0222 1810.92 50.3221L1807.05 51.3099ZM1854.41 115.779L1852.5 116.386C1852.79 117.302 1853.69 117.881 1854.65 117.764L1854.41 115.779ZM1864.18 93.7068L1866.17 93.4978C1866.05 92.3992 1865.07 91.6023 1863.97 91.7178L1864.18 93.7068ZM1853.7 94.8075L1853.5 92.8185C1852.4 92.9339 1851.6 93.918 1851.72 95.0166L1853.7 94.8075ZM1854.79 105.151L1852.8 105.36C1852.92 106.458 1853.9 107.255 1855 107.14L1854.79 105.151ZM1858.8 104.729L1860.79 104.52C1860.67 103.422 1859.69 102.625 1858.59 102.74L1858.8 104.729ZM1853.14 111.795L1852.72 109.84C1852.17 109.958 1851.69 110.304 1851.41 110.792C1851.12 111.28 1851.06 111.864 1851.23 112.402L1853.14 111.795ZM1854.65 117.764C1858.73 117.265 1862.21 115.943 1864.49 113.248C1866.8 110.528 1867.56 106.8 1867.08 102.225L1863.11 102.643C1863.52 106.601 1862.78 109.076 1861.44 110.661C1860.08 112.271 1857.76 113.355 1854.16 113.794L1854.65 117.764ZM1867.08 102.225L1866.17 93.4978L1862.19 93.9159L1863.11 102.643L1867.08 102.225ZM1863.97 91.7178L1853.5 92.8185L1853.91 96.7965L1864.39 95.6959L1863.97 91.7178ZM1851.72 95.0166L1852.8 105.36L1856.78 104.941L1855.69 94.5984L1851.72 95.0166ZM1855 107.14L1859.01 106.718L1858.59 102.74L1854.58 103.161L1855 107.14ZM1856.81 104.938L1856.89 105.649L1860.86 105.231L1860.79 104.52L1856.81 104.938ZM1856.89 105.649C1857.01 106.831 1856.73 107.604 1856.21 108.181C1855.63 108.818 1854.57 109.442 1852.72 109.84L1853.56 113.75C1855.86 113.254 1857.84 112.349 1859.18 110.857C1860.58 109.303 1861.09 107.347 1860.86 105.231L1856.89 105.649ZM1851.23 112.402L1852.5 116.386L1856.31 115.172L1855.04 111.188L1851.23 112.402Z" fill="url(#paint2_linear)"/>
<defs>
<linearGradient id="paint0_linear" x1="-308.322" y1="321.162" x2="2208.92" y2="291.216" gradientUnits="userSpaceOnUse">
<stop offset="0.125219" stop-color="#FB5ECF"/>
<stop offset="0.887044" stop-color="#00FFF0"/>
</linearGradient>
<linearGradient id="paint1_linear" x1="55.3793" y1="288.736" x2="695.649" y2="219.943" gradientUnits="userSpaceOnUse">
<stop stop-color="white"/>
<stop offset="1" stop-color="white"/>
</linearGradient>
<linearGradient id="paint2_linear" x1="1246.38" y1="159.736" x2="1886.65" y2="90.9431" gradientUnits="userSpaceOnUse">
<stop stop-color="white"/>
<stop offset="1" stop-color="white"/>
</linearGradient>
</defs>
</svg>
