<svg width="405" height="328" viewBox="0 0 405 328" fill="none" xmlns="http://www.w3.org/2000/svg">
<path d="M405 253.173C405 232.676 388.287 216 367.743 216C357.296 216 348.983 221.753 344.217 226.067C339.721 221.676 331.697 216 320.257 216C299.713 216 283 232.676 283 253.173C283 266.734 291.063 279.415 299.261 288.804C296.933 291.823 296.453 293.313 296.453 294.91C296.453 297.843 298.836 300.22 301.776 300.22C304.112 300.22 306.092 298.717 306.809 296.629C307.651 297.424 308.464 298.168 309.236 298.857C318.543 307.17 331.406 315.917 340.19 318.615C341.019 319.147 342.006 319.456 343.065 319.456C343.366 319.456 343.678 319.442 344 319.414C344.322 319.442 344.634 319.456 344.935 319.456C345.994 319.456 346.981 319.147 347.811 318.615C356.594 315.917 369.457 307.17 378.764 298.857C379.523 298.179 380.322 297.448 381.149 296.668C381.186 296.719 381.223 296.769 381.254 296.814C382.021 298.806 383.957 300.22 386.224 300.22C389.164 300.22 391.546 297.843 391.546 294.91C391.546 293.345 391.237 292.169 388.611 288.951C396.853 279.548 405 266.804 405 253.173ZM320.257 226.621C332.611 226.621 339.266 236.442 339.526 236.834C340.463 238.283 342.04 239.196 343.766 239.27C345.49 239.351 347.141 238.585 348.198 237.221C348.282 237.115 356.665 226.621 367.743 226.621C382.417 226.621 394.355 238.532 394.355 253.173C394.355 263.253 388.124 273.221 381.463 280.996C380.012 279.459 378.617 278.002 376.979 276.323L376.989 249.948H362.323V261.89C348.373 248.77 345.887 248.768 344 248.768C341.622 248.768 339.235 249.838 332.102 255.924C328.047 259.383 322.872 264.158 317.53 269.369C313.436 273.363 309.559 277.303 306.326 280.75C299.746 273.011 293.645 263.147 293.645 253.173C293.645 238.532 305.583 226.621 320.257 226.621ZM371.746 290.871C359.91 301.461 348.156 307.702 344 308.695C339.844 307.702 328.09 301.461 316.254 290.871C315.438 290.14 314.568 289.34 313.662 288.478C316.591 285.334 320.403 281.418 325.032 276.905C334.728 267.449 341.102 262.083 343.97 260.038C346.8 262.109 353.088 267.534 362.983 277.316C367.376 281.66 371.141 285.536 374.109 288.695C373.286 289.474 372.493 290.202 371.746 290.871Z" fill="url(#paint0_linear)"/>
<path d="M348.519 279.417H339.481C337.81 279.417 336.456 280.768 336.456 282.435V291.453C336.456 293.12 337.81 294.471 339.481 294.471H348.519C350.189 294.471 351.543 293.12 351.543 291.453V282.435C351.543 280.768 350.189 279.417 348.519 279.417Z" fill="url(#paint1_linear)"/>
<path d="M10.86 317H7.86C7.86 318.657 9.20315 320 10.86 320V317ZM83.38 317V320C85.0369 320 86.38 318.657 86.38 317H83.38ZM83.38 298.38H86.38C86.38 296.723 85.0369 295.38 83.38 295.38V298.38ZM40.68 298.38L38.8468 296.005C37.8307 296.79 37.4262 298.134 37.8406 299.348C38.255 300.563 39.3964 301.38 40.68 301.38V298.38ZM56.64 286.06L58.4732 288.435L58.4765 288.432L56.64 286.06ZM12.12 237.9L9.7016 236.125C8.75218 237.418 8.98852 239.23 10.238 240.236L12.12 237.9ZM27.24 250.08L25.358 252.416C26.6445 253.453 28.5266 253.254 29.5683 251.972L27.24 250.08ZM43.48 273.18L45.3819 275.5L45.3927 275.491L43.48 273.18ZM10.86 299.92L8.95812 297.6C8.263 298.17 7.86 299.021 7.86 299.92H10.86ZM10.86 320H83.38V314H10.86V320ZM86.38 317V298.38H80.38V317H86.38ZM83.38 295.38H40.68V301.38H83.38V295.38ZM42.5132 300.755L58.4732 288.435L54.8068 283.685L38.8468 296.005L42.5132 300.755ZM58.4765 288.432C67.1278 281.734 73.8898 276.114 78.4396 269.98C83.1088 263.684 85.4 256.927 85.4 248.12H79.4C79.4 255.693 77.4912 261.186 73.6204 266.405C69.6302 271.786 63.5122 276.946 54.8035 283.688L58.4765 288.432ZM85.4 248.12C85.4 238.047 81.741 229.574 75.1483 223.647C68.5885 217.749 59.3856 214.6 48.66 214.6V220.6C58.2344 220.6 65.9015 223.401 71.1367 228.108C76.339 232.786 79.4 239.573 79.4 248.12H85.4ZM48.66 214.6C39.4709 214.6 32.1972 216.483 25.9111 220.24C19.6766 223.965 14.6358 229.403 9.7016 236.125L14.5384 239.675C19.2642 233.237 23.7434 228.525 28.9889 225.39C34.1828 222.287 40.3491 220.6 48.66 220.6V214.6ZM10.238 240.236L25.358 252.416L29.122 247.744L14.002 235.564L10.238 240.236ZM29.5683 251.972C36.795 243.077 41.1874 239.92 47.26 239.92V233.92C38.2126 233.92 32.245 239.163 24.9117 248.188L29.5683 251.972ZM47.26 239.92C50.5429 239.92 53.0416 240.87 54.6906 242.395C56.3055 243.888 57.42 246.222 57.42 249.66H63.42C63.42 244.838 61.8046 240.802 58.7644 237.99C55.7584 235.21 51.6771 233.92 47.26 233.92V239.92ZM57.42 249.66C57.42 256.182 53.905 260.658 41.5673 270.869L45.3927 275.491C57.415 265.542 63.42 259.378 63.42 249.66H57.42ZM41.5781 270.86L8.95812 297.6L12.7619 302.24L45.3819 275.5L41.5781 270.86ZM7.86 299.92V317H13.86V299.92H7.86ZM142.187 321.68C170.496 321.68 188.867 297.561 188.867 268H182.867C182.867 295.279 166.237 315.68 142.187 315.68V321.68ZM188.867 268C188.867 238.161 170.498 214.32 142.467 214.32V220.32C166.235 220.32 182.867 240.439 182.867 268H188.867ZM142.467 214.32C114.303 214.32 95.7866 238.432 95.7866 268H101.787C101.787 240.728 118.55 220.32 142.467 220.32V214.32ZM95.7866 268C95.7866 297.825 113.864 321.68 142.187 321.68V315.68C118.149 315.68 101.787 295.575 101.787 268H95.7866ZM142.467 296.22C137.117 296.22 132.593 293.535 129.289 288.65C125.943 283.701 123.907 276.524 123.907 268H117.907C117.907 277.396 120.14 285.829 124.319 292.01C128.54 298.255 134.796 302.22 142.467 302.22V296.22ZM123.907 268C123.907 259.319 125.916 252.143 129.208 247.236C132.452 242.401 136.9 239.78 142.187 239.78V233.78C134.593 233.78 128.401 237.669 124.225 243.894C120.097 250.047 117.907 258.481 117.907 268H123.907ZM142.187 239.78C147.448 239.78 151.979 242.482 155.312 247.405C158.681 252.379 160.747 259.56 160.747 268H166.747C166.747 258.66 164.472 250.231 160.281 244.04C156.054 237.798 149.805 233.78 142.187 233.78V239.78ZM160.747 268C160.747 276.617 158.77 283.795 155.492 288.72C152.264 293.569 147.818 296.22 142.467 296.22V302.22C150.135 302.22 156.329 298.291 160.486 292.045C164.593 285.875 166.747 277.443 166.747 268H160.747ZM198.985 317H195.985C195.985 318.657 197.328 320 198.985 320V317ZM271.505 317V320C273.162 320 274.505 318.657 274.505 317H271.505ZM271.505 298.38H274.505C274.505 296.723 273.162 295.38 271.505 295.38V298.38ZM228.805 298.38L226.972 296.005C225.956 296.79 225.551 298.134 225.966 299.348C226.38 300.563 227.521 301.38 228.805 301.38V298.38ZM244.765 286.06L246.598 288.435L246.602 288.432L244.765 286.06ZM200.245 237.9L197.827 236.125C196.877 237.418 197.114 239.23 198.363 240.236L200.245 237.9ZM215.365 250.08L213.483 252.416C214.769 253.453 216.652 253.254 217.693 251.972L215.365 250.08ZM231.605 273.18L233.507 275.5L233.518 275.491L231.605 273.18ZM198.985 299.92L197.083 297.6C196.388 298.17 195.985 299.021 195.985 299.92H198.985ZM198.985 320H271.505V314H198.985V320ZM274.505 317V298.38H268.505V317H274.505ZM271.505 295.38H228.805V301.38H271.505V295.38ZM230.638 300.755L246.598 288.435L242.932 283.685L226.972 296.005L230.638 300.755ZM246.602 288.432C255.253 281.734 262.015 276.114 266.565 269.98C271.234 263.684 273.525 256.927 273.525 248.12H267.525C267.525 255.693 265.616 261.186 261.745 266.405C257.755 271.786 251.637 276.946 242.928 283.688L246.602 288.432ZM273.525 248.12C273.525 238.047 269.866 229.574 263.273 223.647C256.714 217.749 247.511 214.6 236.785 214.6V220.6C246.359 220.6 254.026 223.401 259.262 228.108C264.464 232.786 267.525 239.573 267.525 248.12H273.525ZM236.785 214.6C227.596 214.6 220.322 216.483 214.036 220.24C207.802 223.965 202.761 229.403 197.827 236.125L202.663 239.675C207.389 233.237 211.868 228.525 217.114 225.39C222.308 222.287 228.474 220.6 236.785 220.6V214.6ZM198.363 240.236L213.483 252.416L217.247 247.744L202.127 235.564L198.363 240.236ZM217.693 251.972C224.92 243.077 229.312 239.92 235.385 239.92V233.92C226.338 233.92 220.37 239.163 213.037 248.188L217.693 251.972ZM235.385 239.92C238.668 239.92 241.167 240.87 242.816 242.395C244.43 243.888 245.545 246.222 245.545 249.66H251.545C251.545 244.838 249.93 240.802 246.889 237.99C243.883 235.21 239.802 233.92 235.385 233.92V239.92ZM245.545 249.66C245.545 256.182 242.03 260.658 229.692 270.869L233.518 275.491C245.54 265.542 251.545 259.378 251.545 249.66H245.545ZM229.703 270.86L197.083 297.6L200.887 302.24L233.507 275.5L229.703 270.86ZM195.985 299.92V317H201.985V299.92H195.985Z" fill="#FB5ECF"/>
<path d="M10.6189 86H46.5829C63.6469 86 74.8789 79.088 74.8789 65.264C74.8789 54.896 69.4789 49.82 60.7309 46.472C66.1309 43.448 70.6669 38.696 70.6669 30.164C70.6669 24.764 68.9389 20.552 65.4829 17.096C61.1629 12.776 54.3589 10.4 45.7189 10.4H10.6189V86ZM26.8189 40.964V24.98H43.2349C50.2549 24.98 54.1429 27.788 54.1429 32.756C54.1429 38.588 49.4989 40.964 42.1549 40.964H26.8189ZM26.8189 71.42V54.788H46.0429C54.5749 54.788 58.3549 57.92 58.3549 62.996C58.3549 68.828 53.9269 71.42 46.5829 71.42H26.8189ZM88.5603 86H142.884V70.88H105.192V10.4H88.5603V86ZM148.947 86H165.903L172.815 69.044H204.783L211.695 86H229.083L196.683 9.86H181.347L148.947 86ZM178.755 54.356L188.799 29.84L198.843 54.356H178.755ZM271.324 87.296C285.904 87.296 294.544 82.76 302.32 74.444L291.736 63.104C285.796 68.504 280.504 71.96 271.864 71.96C258.904 71.96 249.94 61.16 249.94 48.2C249.94 35.024 259.12 24.44 271.864 24.44C280.504 24.44 285.472 27.572 291.304 32.864L301.24 21.416C294.22 14.504 286.228 9.104 271.972 9.104C248.752 9.104 232.552 26.708 232.552 48.2C232.552 70.124 249.076 87.296 271.324 87.296ZM315.635 86H332.267V62.888L341.015 53.816L364.451 86H384.431L352.247 42.476L383.027 10.4H362.939L332.267 43.448V10.4H315.635V86ZM9.76133 189H25.1613V161.9H58.5613V147.9H25.1613V133H63.0613V119H9.76133V189ZM75.3863 189H90.7863V166.6H102.686L117.886 189H135.886L118.786 164C127.686 160.7 133.786 153.6 133.786 142.3C133.786 135.5 131.686 130 127.786 126.1C123.186 121.5 116.286 119 107.386 119H75.3863V189ZM90.7863 153V132.9H106.086C113.586 132.9 118.186 136.3 118.186 142.9C118.186 149 113.886 153 106.386 153H90.7863ZM148.352 189H163.752V119H148.352V189ZM181.246 189H208.546C230.546 189 245.746 173.7 245.746 154C245.746 134.1 230.546 119 208.546 119H181.246V189ZM196.646 175.1V132.9H208.546C221.146 132.9 229.646 141.6 229.646 154C229.646 166.6 221.146 175.1 208.546 175.1H196.646ZM248.488 189H264.188L270.588 173.3H300.188L306.588 189H322.688L292.688 118.5H278.488L248.488 189ZM276.088 159.7L285.388 137L294.688 159.7H276.088ZM342.157 189H357.557V161.1L384.457 119H366.957L349.957 147.1L333.257 119H315.257L342.157 161.4V189Z" fill="#00FFF0"/>
<defs>
<linearGradient id="paint0_linear" x1="344" y1="216" x2="344" y2="319.456" gradientUnits="userSpaceOnUse">
<stop offset="0.177083" stop-color="#5350FD"/>
<stop offset="0.890625" stop-color="#FB5ECF"/>
</linearGradient>
<linearGradient id="paint1_linear" x1="344" y1="216" x2="344" y2="319.456" gradientUnits="userSpaceOnUse">
<stop offset="0.177083" stop-color="#5350FD"/>
<stop offset="0.890625" stop-color="#FB5ECF"/>
</linearGradient>
</defs>
</svg>
