<svg width="54" height="54" viewBox="0 0 54 54" fill="none" xmlns="http://www.w3.org/2000/svg">
<circle cx="27" cy="27" r="26.5" fill="white" stroke="white"/>
<path d="M17.118 44.6581L13.8219 42.5155L13.3929 43.1796L14.6858 44.0201L12.4857 47.4258L13.1986 47.8893L15.3988 44.4836L16.689 45.3223L17.118 44.6581Z" fill="#8D3EEF"/>
<path d="M19.3933 45.5964L17.6174 44.8867L15.828 49.3919L16.6173 49.7074L17.1888 48.2684L18.0835 48.6261C18.4204 48.7607 18.7449 48.8244 19.057 48.8173C19.369 48.8102 19.6542 48.7209 19.9126 48.5494C20.1711 48.378 20.3656 48.1279 20.4962 47.7992C20.6801 47.3363 20.6729 46.9057 20.4748 46.5074C20.2767 46.1091 19.9162 45.8054 19.3933 45.5964ZM19.6856 47.4825C19.5883 47.7276 19.4222 47.89 19.1873 47.9696C18.9525 48.0493 18.6879 48.0303 18.3935 47.9126L17.4758 47.5458L18.1197 45.9247L19.0373 46.2914C19.3379 46.4116 19.547 46.5753 19.6644 46.7823C19.7817 46.9894 19.7888 47.2228 19.6856 47.4825Z" fill="#8D3EEF"/>
<path d="M21.8113 50.0384L22.396 46.5464L21.5714 46.4075L20.7707 51.1902L21.562 51.3235L24.5487 48.2465L23.9658 51.7285L24.7904 51.8674L25.5911 47.0847L24.8065 46.9525L21.8113 50.0384Z" fill="#8D3EEF"/>
<path d="M30.2504 46.8782L28.9535 49.2739L27.3186 47.0963L26.4142 47.1636L26.7718 52L27.6055 51.9379L27.3502 48.4843L29.0274 50.6384L29.0543 50.6365L30.4054 48.2435L30.6618 51.7106L31.509 51.6475L31.1514 46.8111L30.2504 46.8782Z" fill="#8D3EEF"/>
<path d="M33.5594 46.051L33.0631 51.357L33.8892 51.0838L33.9979 49.8158L36.1687 49.098L36.9982 50.0558L37.8499 49.7741L34.3086 45.8032L33.5594 46.051ZM34.057 49.0021L34.2389 46.8981L35.6388 48.4791L34.057 49.0021Z" fill="#8D3EEF"/>
<path d="M39.4903 43.2186L39.2544 47.519L37.4074 44.5015L36.6949 44.9404L39.2245 49.0731L39.9083 48.6521L40.1438 44.3638L41.9855 47.3726L42.6979 46.9337L40.1683 42.801L39.4903 43.2186Z" fill="#8D3EEF"/>
<path d="M37.9515 43.0313C37.7044 43.1836 37.4593 43.1494 37.2161 42.9287L36.8248 43.2849C37.023 43.5139 37.2493 43.6509 37.5035 43.6957C37.7578 43.7405 38.0094 43.6862 38.2584 43.5328C38.5074 43.3795 38.6691 43.1792 38.7433 42.9321C38.8176 42.685 38.7958 42.4221 38.678 42.1434L38.1929 42.327C38.2733 42.648 38.1928 42.8827 37.9515 43.0313Z" fill="#8D3EEF"/>
<path d="M23.6335 11.3583C23.9226 11.3583 24.1569 11.1233 24.1569 10.8334C24.1569 10.5434 23.9226 10.3084 23.6335 10.3084C23.3445 10.3084 23.1102 10.5434 23.1102 10.8334C23.1102 11.1233 23.3445 11.3583 23.6335 11.3583Z" fill="#8D3EEF"/>
<path d="M47.5857 21.338H30.26C30.0311 21.338 29.8456 21.524 29.8456 21.7536V25.9782C29.8456 26.2078 30.0311 26.3938 30.26 26.3938H30.8983V28.6468L27.8885 27.8378L27.8878 15.3647H31.6794L27.8876 11.9209L27.8876 11.6251C27.8876 11.6231 27.8875 11.6211 27.8875 11.6191C27.8618 9.84538 27.1539 8.18201 25.8942 6.93531C24.6331 5.68728 22.963 5 21.1913 5C19.4196 5 17.7494 5.68728 16.4884 6.93531C15.2287 8.18201 14.5207 9.84538 14.4951 11.6191C14.495 11.6211 14.495 11.623 14.495 11.625C14.495 11.625 14.4938 16.7764 14.4938 18.6593C14.4938 19.9792 14.2768 20.9812 13.8303 21.7224C13.2178 22.7394 12.0395 23.2229 10.5258 23.2229V23.2232C9.84582 23.2303 9.15515 23.7108 8.67546 24.5123C8.29249 25.1521 7.87092 26.2926 8.03734 28.0926C8.19662 29.8151 8.86141 31.7882 10.0132 33.9571C10.9002 35.6273 11.9964 37.1614 13.2712 38.5167C14.2915 39.6014 15.4278 40.5744 16.6486 41.4088C18.7413 42.8391 20.3621 43.3699 20.43 43.3918C20.5133 43.4186 20.5987 43.4317 20.6833 43.4317C20.9214 43.4317 21.153 43.3285 21.3131 43.1406C21.5301 42.8861 21.5737 42.5257 21.4235 42.2266L21.0897 41.5616L21.663 42.1068C21.6696 42.1131 21.6763 42.1192 21.6831 42.1253C22.7348 43.0616 23.905 43.7534 25.161 44.1814C26.1685 44.5246 27.2303 44.6987 28.3169 44.6987C30.1792 44.6987 31.485 44.1832 31.5397 44.1613C31.8019 44.0561 31.9927 43.8241 32.0458 43.5458C32.0989 43.2675 32.007 42.9812 31.802 42.7863L29.6048 40.6969L30.3181 41.0807C30.3307 41.0874 30.3434 41.0938 30.3563 41.0999C31.6655 41.7195 32.9916 42.0336 34.2977 42.0336C37.5842 42.0336 39.6259 40.0623 39.7112 39.9784C39.8994 39.7932 39.9885 39.5293 39.9513 39.2676C39.9141 39.0058 39.7549 38.7774 39.5227 38.6524L35.9759 36.744C36.7819 36.9476 37.5855 37.0508 38.3667 37.0508C38.4798 37.0508 38.5917 37.0479 38.703 37.0436H46.5331C46.7619 37.0436 46.9474 36.8576 46.9474 36.628V26.3938H47.5857C47.8145 26.3938 48 26.2078 48 25.9782V21.7536C48 21.524 47.8145 21.338 47.5857 21.338ZM29.5296 14.5335H27.8886L27.888 13.0425L29.5296 14.5335ZM14.5395 22.1523C15.0664 21.2777 15.3225 20.1351 15.3225 18.6593C15.3225 16.803 15.3236 11.7698 15.3236 11.6283C15.3715 8.43151 18.0031 5.83122 21.1913 5.83122C24.3773 5.83122 27.0075 8.42803 27.0588 11.6218L27.0599 27.6151L12.5754 23.7219C13.4183 23.4136 14.0946 22.891 14.5395 22.1523ZM36.0323 35.8999L29.2818 34.0855L39.131 39.3849C39.131 39.3849 37.2835 41.2024 34.2977 41.2024C33.2353 41.2024 32.0286 40.9722 30.7098 40.3482L24.5467 37.032L31.2319 43.3895C31.2319 43.3895 30.041 43.8674 28.3169 43.8674C26.6007 43.8674 24.3561 43.3937 22.2331 41.5036L18.2145 37.682L20.6834 42.6004C20.6834 42.6004 14.4812 40.6024 10.7445 33.5663C7.16638 26.8286 9.50481 24.0539 10.541 24.0541C10.5869 24.0541 10.6304 24.0596 10.6706 24.0704L43.8622 32.9919C42.7444 35.1867 40.7834 36.1268 38.6862 36.2124H38.6633C38.6633 36.2127 38.6633 36.213 38.6632 36.2133C38.5646 36.217 38.4658 36.2196 38.3667 36.2196C37.5905 36.2196 36.8003 36.1064 36.0323 35.8999ZM46.1188 36.2124H41.8786C41.8861 36.2084 41.8937 36.2046 41.9012 36.2006C43.0568 35.5696 43.9649 34.6173 44.6001 33.3701C44.7139 33.1466 44.721 32.8835 44.6194 32.6543C44.5178 32.4249 44.3183 32.254 44.0767 32.189L31.7269 28.8695V26.3938H46.1188V36.2124ZM47.1714 25.5626H30.6743V22.1692H47.1714V25.5626Z" fill="#8D3EEF"/>
</svg>
