<svg width="58" height="58" viewBox="0 0 58 58" fill="none" xmlns="http://www.w3.org/2000/svg">
<path d="M58 29C58 12.9862 45.0138 0 29 0C12.9862 0 0 12.9862 0 29C0 45.0138 12.9862 58 29 58C29.1704 58 29.3398 57.9965 29.5098 57.9934V35.4181H23.2793V28.157H29.5098V22.8138C29.5098 16.6169 33.2927 13.2442 38.8205 13.2442C41.4676 13.2442 43.7429 13.4415 44.4062 13.5296V20.0061H40.5945C37.5872 20.0061 37.0049 21.4354 37.0049 23.5324V28.157H44.1956L43.2584 35.4181H37.0049V56.8796C49.1264 53.4046 58 42.2371 58 29Z" fill="url(#paint0_linear)"/>
<defs>
<linearGradient id="paint0_linear" x1="29" y1="0" x2="29" y2="58" gradientUnits="userSpaceOnUse">
<stop stop-color="#00FFF0"/>
<stop offset="1" stop-color="#5350FD"/>
</linearGradient>
</defs>
</svg>
