<svg width="58" height="58" viewBox="0 0 58 58" fill="none" xmlns="http://www.w3.org/2000/svg">
    <path d="M34.5508 29C34.5508 32.0657 32.0657 34.5508 29 34.5508C25.9343 34.5508 23.4492 32.0657 23.4492 29C23.4492 25.9343 25.9343 23.4492 29 23.4492C32.0657 23.4492 34.5508 25.9343 34.5508 29Z"
          fill="url(#paint0_linear)"/>
    <path d="M41.9814 19.1791C41.7145 18.456 41.2888 17.8016 40.7357 17.2644C40.1985 16.7112 39.5445 16.2855 38.821 16.0187C38.2342 15.7908 37.3527 15.5196 35.7292 15.4457C33.9729 15.3656 33.4463 15.3483 29 15.3483C24.5533 15.3483 24.0267 15.3651 22.2709 15.4452C20.6473 15.5196 19.7654 15.7908 19.1791 16.0187C18.4556 16.2855 17.8011 16.7112 17.2644 17.2644C16.7112 17.8016 16.2855 18.4556 16.0183 19.1791C15.7904 19.7658 15.5191 20.6478 15.4452 22.2713C15.3651 24.0272 15.3479 24.5537 15.3479 29.0005C15.3479 33.4468 15.3651 33.9733 15.4452 35.7296C15.5191 37.3532 15.7904 38.2347 16.0183 38.8214C16.2855 39.5449 16.7108 40.199 17.2639 40.7361C17.8011 41.2893 18.4551 41.715 19.1786 41.9818C19.7654 42.2101 20.6473 42.4814 22.2709 42.5553C24.0267 42.6354 24.5529 42.6522 28.9996 42.6522C33.4468 42.6522 33.9733 42.6354 35.7288 42.5553C37.3523 42.4814 38.2342 42.2101 38.821 41.9818C40.2733 41.4216 41.4211 40.2737 41.9814 38.8214C42.2092 38.2347 42.4805 37.3532 42.5548 35.7296C42.6349 33.9733 42.6517 33.4468 42.6517 29.0005C42.6517 24.5537 42.6349 24.0272 42.5548 22.2713C42.4809 20.6478 42.2097 19.7658 41.9814 19.1791ZM29 37.551C24.2772 37.551 20.4486 33.7229 20.4486 29C20.4486 24.2772 24.2772 20.4491 29 20.4491C33.7224 20.4491 37.551 24.2772 37.551 29C37.551 33.7229 33.7224 37.551 29 37.551ZM37.8891 22.1094C36.7855 22.1094 35.8907 21.2146 35.8907 20.111C35.8907 19.0074 36.7855 18.1126 37.8891 18.1126C38.9927 18.1126 39.8874 19.0074 39.8874 20.111C39.887 21.2146 38.9927 22.1094 37.8891 22.1094Z"
          fill="url(#paint1_linear)"/>
    <path d="M29 0C12.9862 0 0 12.9862 0 29C0 45.0138 12.9862 58 29 58C45.0138 58 58 45.0138 58 29C58 12.9862 45.0138 0 29 0ZM45.5519 35.8655C45.4714 37.6381 45.1895 38.8484 44.778 39.9077C43.9129 42.1446 42.1446 43.9129 39.9077 44.778C38.8488 45.1895 37.6381 45.4709 35.8659 45.5519C34.0901 45.6329 33.5228 45.6523 29.0004 45.6523C24.4776 45.6523 23.9108 45.6329 22.1345 45.5519C20.3623 45.4709 19.1516 45.1895 18.0927 44.778C16.9811 44.3598 15.9749 43.7044 15.143 42.857C14.296 42.0256 13.6407 41.0189 13.2225 39.9077C12.811 38.8488 12.5291 37.6381 12.4485 35.8659C12.3667 34.0897 12.3477 33.5224 12.3477 29C12.3477 24.4776 12.3667 23.9103 12.4481 22.1345C12.5286 20.3619 12.8101 19.1516 13.2216 18.0923C13.6398 16.9811 14.2956 15.9744 15.143 15.143C15.9744 14.2956 16.9811 13.6402 18.0923 13.222C19.1516 12.8105 20.3619 12.5291 22.1345 12.4481C23.9103 12.3671 24.4776 12.3477 29 12.3477C33.5224 12.3477 34.0897 12.3671 35.8655 12.4485C37.6381 12.5291 38.8484 12.8105 39.9077 13.2216C41.0189 13.6398 42.0256 14.2956 42.8575 15.143C43.7044 15.9749 44.3602 16.9811 44.778 18.0923C45.1899 19.1516 45.4714 20.3619 45.5523 22.1345C45.6333 23.9103 45.6523 24.4776 45.6523 29C45.6523 33.5224 45.6333 34.0897 45.5519 35.8655Z"
          fill="url(#paint2_linear)"/>
    <defs>
        <linearGradient id="paint0_linear" x1="29" y1="0" x2="29" y2="58" gradientUnits="userSpaceOnUse">
            <stop stop-color="#FB5ECF"/>
            <stop offset="1" stop-color="#FF0081"/>
        </linearGradient>
        <linearGradient id="paint1_linear" x1="29" y1="0" x2="29" y2="58" gradientUnits="userSpaceOnUse">
            <stop stop-color="#FB5ECF"/>
            <stop offset="1" stop-color="#FF0081"/>
        </linearGradient>
        <linearGradient id="paint2_linear" x1="29" y1="0" x2="29" y2="58" gradientUnits="userSpaceOnUse">
            <stop stop-color="#FB5ECF"/>
            <stop offset="1" stop-color="#FF0081"/>
        </linearGradient>
    </defs>
</svg>
