<svg width="2575" height="532" viewBox="0 0 2575 532" fill="none" xmlns="http://www.w3.org/2000/svg">
<rect x="14.2505" y="0.825684" width="2600" height="80" transform="rotate(10 14.2505 0.825684)" fill="url(#paint0_linear)"/>
<g style="mix-blend-mode:screen">
<path d="M414.247 106.326L415.08 104.508L415.073 104.504L414.247 106.326ZM423.634 101.868L422.226 103.289C422.604 103.663 423.114 103.871 423.646 103.868C424.177 103.865 424.685 103.651 425.058 103.272L423.634 101.868ZM430.559 94.8441L431.983 96.2483C432.719 95.5018 432.754 94.3138 432.063 93.5257L430.559 94.8441ZM407.631 114.826L408.456 113.005L408.454 113.004L407.631 114.826ZM395.105 117.735L396.627 116.438C395.913 115.6 394.657 115.497 393.816 116.207L395.105 117.735ZM387.507 124.143L386.218 122.615C385.393 123.31 385.269 124.534 385.936 125.381L387.507 124.143ZM406.273 137.444C411.794 138.418 416.956 137.859 421.04 135.586C425.18 133.282 428.002 129.327 428.944 123.986L425.005 123.292C424.257 127.534 422.107 130.414 419.094 132.091C416.026 133.799 411.855 134.367 406.967 133.505L406.273 137.444ZM428.944 123.986C429.785 119.214 428.843 115.352 426.234 112.124C423.727 109.022 419.81 106.674 415.08 104.508L413.415 108.144C418.024 110.255 421.224 112.289 423.123 114.638C424.919 116.86 425.67 119.516 425.005 123.292L428.944 123.986ZM415.073 104.504C411.025 102.671 408.846 101.531 407.707 100.555C407.187 100.11 407.012 99.8008 406.939 99.5936C406.866 99.3862 406.824 99.0756 406.926 98.4958L402.987 97.8012C402.809 98.8069 402.793 99.8602 403.165 100.92C403.538 101.979 404.227 102.84 405.104 103.592C406.759 105.01 409.505 106.373 413.422 108.148L415.073 104.504ZM406.926 98.4958C407.034 97.8814 407.359 97.4219 407.977 97.112C408.655 96.7717 409.819 96.5588 411.579 96.8691L412.274 92.9298C409.966 92.523 407.864 92.6937 406.183 93.5367C404.442 94.4102 403.316 95.9338 402.987 97.8012L406.926 98.4958ZM411.579 96.8691C415.075 97.4855 418.611 99.706 422.226 103.289L425.042 100.448C421.154 96.5949 416.912 93.7477 412.274 92.9298L411.579 96.8691ZM425.058 103.272L431.983 96.2483L429.135 93.44L422.21 100.464L425.058 103.272ZM432.063 93.5257C427.556 88.3851 421.537 84.8964 414.065 83.5788L413.37 87.518C419.961 88.6801 425.159 91.7183 429.055 96.1626L432.063 93.5257ZM414.065 83.5788C408.76 82.6434 403.783 83.3736 399.861 85.6717C395.908 87.9879 393.165 91.8229 392.293 96.7686L396.233 97.4632C396.904 93.654 398.96 90.8361 401.883 89.1228C404.838 87.3912 408.817 86.7151 413.37 87.518L414.065 83.5788ZM392.293 96.7686C391.347 102.137 392.467 106.161 395.33 109.373C398.042 112.416 402.187 114.56 406.807 116.649L408.454 113.004C403.792 110.897 400.396 109.045 398.316 106.712C396.388 104.548 395.465 101.815 396.233 97.4632L392.293 96.7686ZM406.805 116.648C410.673 118.401 412.658 119.573 413.64 120.504C414.089 120.929 414.236 121.221 414.295 121.408C414.354 121.596 414.382 121.859 414.299 122.328L418.239 123.023C418.393 122.147 418.422 121.194 418.109 120.204C417.796 119.212 417.198 118.364 416.391 117.6C414.861 116.15 412.29 114.742 408.456 113.005L406.805 116.648ZM414.299 122.328C414.157 123.135 413.745 123.646 413 123.974C412.155 124.347 410.779 124.51 408.827 124.166L408.132 128.105C410.524 128.527 412.781 128.442 414.614 127.634C416.547 126.782 417.858 125.18 418.239 123.023L414.299 122.328ZM408.827 124.166C403.924 123.301 400.156 120.575 396.627 116.438L393.584 119.033C397.476 123.597 402.006 127.025 408.132 128.105L408.827 124.166ZM393.816 116.207L386.218 122.615L388.796 125.672L396.395 119.264L393.816 116.207ZM385.936 125.381C391.139 131.983 398.513 136.076 406.273 137.444L406.967 133.505C400.112 132.296 393.634 128.686 389.078 122.905L385.936 125.381ZM428.525 138.626L426.849 137.535C426.483 138.098 426.423 138.807 426.691 139.423C426.958 140.039 427.517 140.479 428.178 140.596L428.525 138.626ZM439.348 140.535L439.001 142.504C439.802 142.645 440.608 142.288 441.041 141.6L439.348 140.535ZM445.669 130.489L446.016 128.52C445.215 128.379 444.409 128.736 443.976 129.424L445.669 130.489ZM466.074 134.087L468.029 133.666C467.857 132.871 467.222 132.259 466.421 132.118L466.074 134.087ZM468.577 145.688L466.622 146.11C466.794 146.905 467.43 147.517 468.23 147.658L468.577 145.688ZM479.676 147.645L479.329 149.615C479.99 149.732 480.666 149.509 481.128 149.022C481.59 148.534 481.776 147.848 481.625 147.194L479.676 147.645ZM467.565 95.3986L469.513 94.9469C469.332 94.1657 468.702 93.5682 467.912 93.429L467.565 95.3986ZM457.776 93.6725L458.123 91.7029C457.333 91.5636 456.537 91.9096 456.099 92.5817L457.776 93.6725ZM451.113 121.783L449.422 120.715C449.066 121.278 449.015 121.982 449.284 122.592C449.554 123.201 450.11 123.637 450.766 123.752L451.113 121.783ZM460.284 107.264L462.238 106.839C462.065 106.046 461.43 105.436 460.631 105.295C459.832 105.154 459.026 105.51 458.593 106.196L460.284 107.264ZM463.936 124.044L463.588 126.013C464.245 126.129 464.916 125.91 465.378 125.429C465.839 124.949 466.032 124.27 465.89 123.618L463.936 124.044ZM428.178 140.596L439.001 142.504L439.696 138.565L428.873 136.657L428.178 140.596ZM441.041 141.6L447.362 131.555L443.976 129.424L437.656 139.469L441.041 141.6ZM445.321 132.459L465.727 136.057L466.421 132.118L446.016 128.52L445.321 132.459ZM464.119 134.509L466.622 146.11L470.532 145.267L468.029 133.666L464.119 134.509ZM468.23 147.658L479.329 149.615L480.024 145.676L468.925 143.719L468.23 147.658ZM481.625 147.194L469.513 94.9469L465.617 95.8502L477.728 148.097L481.625 147.194ZM467.912 93.429L458.123 91.7029L457.429 95.6421L467.218 97.3682L467.912 93.429ZM456.099 92.5817L426.849 137.535L430.202 139.717L459.452 94.7633L456.099 92.5817ZM452.804 122.851L461.975 108.333L458.593 106.196L449.422 120.715L452.804 122.851ZM458.329 107.69L461.981 124.469L465.89 123.618L462.238 106.839L458.329 107.69ZM464.283 122.074L451.461 119.813L450.766 123.752L463.588 126.013L464.283 122.074ZM487.124 148.959L485.154 148.611C484.963 149.699 485.689 150.737 486.777 150.928L487.124 148.959ZM521.799 155.073L521.452 157.042C522.54 157.234 523.577 156.508 523.769 155.42L521.799 155.073ZM523.501 145.422L525.471 145.769C525.662 144.681 524.936 143.644 523.848 143.452L523.501 145.422ZM499.442 141.18L497.472 140.832C497.281 141.92 498.007 142.957 499.095 143.149L499.442 141.18ZM506.249 102.575L508.219 102.922C508.411 101.835 507.684 100.797 506.596 100.605L506.249 102.575ZM495.633 100.703L495.98 98.7335C494.892 98.5417 493.855 99.268 493.663 100.356L495.633 100.703ZM486.777 150.928L521.452 157.042L522.146 153.103L487.471 146.989L486.777 150.928ZM523.769 155.42L525.471 145.769L521.531 145.074L519.83 154.726L523.769 155.42ZM523.848 143.452L499.789 139.21L499.095 143.149L523.154 147.391L523.848 143.452ZM501.412 141.527L508.219 102.922L504.279 102.228L497.472 140.832L501.412 141.527ZM506.596 100.605L495.98 98.7335L495.286 102.673L505.902 104.545L506.596 100.605ZM493.663 100.356L485.154 148.611L489.094 149.306L497.602 101.05L493.663 100.356ZM529.806 156.485L527.836 156.137C527.644 157.225 528.37 158.262 529.458 158.454L529.806 156.485ZM566.549 162.963L566.201 164.933C567.289 165.125 568.327 164.398 568.518 163.311L566.549 162.963ZM568.214 153.519L570.184 153.866C570.375 152.779 569.649 151.741 568.561 151.549L568.214 153.519ZM542.018 148.9L540.048 148.553C539.857 149.641 540.583 150.678 541.671 150.87L542.018 148.9ZM543.805 138.766L544.152 136.797C543.064 136.605 542.027 137.331 541.835 138.419L543.805 138.766ZM566.554 142.778L566.207 144.747C567.294 144.939 568.332 144.213 568.524 143.125L566.554 142.778ZM568.219 133.333L570.189 133.681C570.381 132.593 569.654 131.556 568.567 131.364L568.219 133.333ZM545.47 129.322L543.501 128.975C543.309 130.063 544.035 131.1 545.123 131.292L545.47 129.322ZM547.196 119.533L547.544 117.563C546.456 117.372 545.418 118.098 545.227 119.186L547.196 119.533ZM573.047 124.091L572.7 126.061C573.788 126.253 574.825 125.526 575.017 124.439L573.047 124.091ZM574.713 114.647L576.682 114.994C576.874 113.907 576.148 112.869 575.06 112.677L574.713 114.647ZM538.314 108.229L538.662 106.259C537.574 106.068 536.536 106.794 536.345 107.882L538.314 108.229ZM529.458 158.454L566.201 164.933L566.896 160.994L530.153 154.515L529.458 158.454ZM568.518 163.311L570.184 153.866L566.244 153.172L564.579 162.616L568.518 163.311ZM568.561 151.549L542.365 146.93L541.671 150.87L567.867 155.489L568.561 151.549ZM543.988 149.247L545.775 139.114L541.835 138.419L540.048 148.553L543.988 149.247ZM543.458 140.736L566.207 144.747L566.901 140.808L544.152 136.797L543.458 140.736ZM568.524 143.125L570.189 133.681L566.25 132.986L564.584 142.43L568.524 143.125ZM568.567 131.364L545.818 127.352L545.123 131.292L567.872 135.303L568.567 131.364ZM547.44 129.669L549.166 119.88L545.227 119.186L543.501 128.975L547.44 129.669ZM546.849 121.503L572.7 126.061L573.395 122.122L547.544 117.563L546.849 121.503ZM575.017 124.439L576.682 114.994L572.743 114.3L571.078 123.744L575.017 124.439ZM575.06 112.677L538.662 106.259L537.967 110.199L574.365 116.617L575.06 112.677ZM536.345 107.882L527.836 156.137L531.775 156.832L540.284 108.576L536.345 107.882ZM641.994 146.484L642.826 144.666L642.819 144.662L641.994 146.484ZM651.38 142.026L649.973 143.447C650.35 143.821 650.861 144.029 651.392 144.026C651.923 144.023 652.432 143.809 652.805 143.43L651.38 142.026ZM658.305 135.002L659.73 136.406C660.465 135.66 660.5 134.472 659.809 133.683L658.305 135.002ZM635.377 154.984L636.203 153.162L636.201 153.162L635.377 154.984ZM622.852 157.893L624.373 156.595C623.659 155.758 622.403 155.655 621.562 156.364L622.852 157.893ZM615.254 164.301L613.964 162.772C613.14 163.468 613.015 164.692 613.683 165.539L615.254 164.301ZM634.019 177.602C639.54 178.575 644.702 178.017 648.786 175.744C652.926 173.439 655.749 169.485 656.69 164.144L652.751 163.45C652.003 167.692 649.853 170.572 646.841 172.249C643.772 173.957 639.602 174.525 634.714 173.663L634.019 177.602ZM656.69 164.144C657.532 159.372 656.59 155.51 653.98 152.281C651.473 149.18 647.557 146.832 642.826 144.666L641.161 148.302C645.77 150.413 648.971 152.447 650.869 154.796C652.665 157.018 653.417 159.674 652.751 163.45L656.69 164.144ZM642.819 144.662C638.772 142.829 636.592 141.689 635.453 140.713C634.933 140.267 634.758 139.959 634.685 139.751C634.612 139.544 634.57 139.233 634.672 138.654L630.733 137.959C630.556 138.965 630.539 140.018 630.912 141.078C631.284 142.137 631.973 142.998 632.85 143.75C634.505 145.168 637.251 146.531 641.168 148.306L642.819 144.662ZM634.672 138.654C634.781 138.039 635.106 137.58 635.723 137.27C636.402 136.93 637.565 136.717 639.325 137.027L640.02 133.088C637.713 132.681 635.61 132.852 633.93 133.695C632.189 134.568 631.062 136.092 630.733 137.959L634.672 138.654ZM639.325 137.027C642.822 137.643 646.357 139.864 649.973 143.447L652.788 140.606C648.901 136.753 644.658 133.906 640.02 133.088L639.325 137.027ZM652.805 143.43L659.73 136.406L656.881 133.598L649.956 140.622L652.805 143.43ZM659.809 133.683C655.302 128.543 649.283 125.054 641.811 123.737L641.116 127.676C647.707 128.838 652.905 131.876 656.801 136.32L659.809 133.683ZM641.811 123.737C636.506 122.801 631.529 123.531 627.608 125.829C623.655 128.146 620.912 131.981 620.04 136.926L623.979 137.621C624.651 133.812 626.706 130.994 629.63 129.281C632.585 127.549 636.563 126.873 641.116 127.676L641.811 123.737ZM620.04 136.926C619.093 142.295 620.214 146.319 623.077 149.531C625.789 152.574 629.933 154.718 634.553 156.807L636.201 153.162C631.539 151.054 628.142 149.203 626.063 146.87C624.134 144.706 623.212 141.973 623.979 137.621L620.04 136.926ZM634.552 156.806C638.419 158.559 640.404 159.731 641.386 160.661C641.836 161.087 641.982 161.379 642.041 161.566C642.101 161.754 642.128 162.017 642.046 162.486L645.985 163.181C646.139 162.305 646.168 161.351 645.856 160.362C645.543 159.37 644.944 158.522 644.137 157.757C642.607 156.308 640.036 154.9 636.203 153.162L634.552 156.806ZM642.046 162.486C641.903 163.293 641.492 163.804 640.747 164.132C639.901 164.505 638.525 164.668 636.574 164.324L635.879 168.263C638.27 168.685 640.528 168.6 642.36 167.792C644.293 166.94 645.605 165.338 645.985 163.181L642.046 162.486ZM636.574 164.324C631.67 163.459 627.903 160.733 624.373 156.595L621.33 159.191C625.222 163.754 629.752 167.183 635.879 168.263L636.574 164.324ZM621.562 156.364L613.964 162.772L616.543 165.83L624.141 159.422L621.562 156.364ZM613.683 165.539C618.885 172.141 626.259 176.234 634.019 177.602L634.714 173.663C627.859 172.454 621.38 168.844 616.824 163.063L613.683 165.539ZM656.272 178.784L654.595 177.693C654.229 178.256 654.17 178.965 654.437 179.581C654.705 180.196 655.263 180.637 655.924 180.754L656.272 178.784ZM667.095 180.692L666.748 182.662C667.548 182.803 668.355 182.446 668.788 181.757L667.095 180.692ZM673.415 170.647L673.762 168.678C672.962 168.537 672.155 168.894 671.722 169.582L673.415 170.647ZM693.82 174.245L695.775 173.823C695.604 173.029 694.968 172.417 694.168 172.276L693.82 174.245ZM696.324 185.846L694.369 186.268C694.54 187.063 695.176 187.675 695.977 187.816L696.324 185.846ZM707.423 187.803L707.075 189.773C707.737 189.889 708.412 189.667 708.874 189.179C709.336 188.692 709.523 188.006 709.371 187.352L707.423 187.803ZM695.311 135.556L697.26 135.105C697.079 134.324 696.448 133.726 695.659 133.587L695.311 135.556ZM685.522 133.83L685.87 131.861C685.08 131.721 684.283 132.067 683.846 132.74L685.522 133.83ZM678.86 161.94L677.169 160.872C676.813 161.436 676.761 162.14 677.031 162.75C677.3 163.359 677.856 163.794 678.512 163.91L678.86 161.94ZM688.03 147.422L689.984 146.997C689.812 146.204 689.177 145.594 688.377 145.453C687.578 145.312 686.773 145.668 686.339 146.354L688.03 147.422ZM691.682 164.201L691.335 166.171C691.991 166.287 692.662 166.068 693.124 165.587C693.586 165.107 693.778 164.427 693.636 163.776L691.682 164.201ZM655.924 180.754L666.748 182.662L667.442 178.723L656.619 176.814L655.924 180.754ZM668.788 181.757L675.108 171.712L671.722 169.582L665.402 179.627L668.788 181.757ZM673.068 172.617L693.473 176.215L694.168 172.276L673.762 168.678L673.068 172.617ZM691.865 174.667L694.369 186.268L698.279 185.424L695.775 173.823L691.865 174.667ZM695.977 187.816L707.075 189.773L707.77 185.834L696.671 183.877L695.977 187.816ZM709.371 187.352L697.26 135.105L693.363 136.008L705.474 188.255L709.371 187.352ZM695.659 133.587L685.87 131.861L685.175 135.8L694.964 137.526L695.659 133.587ZM683.846 132.74L654.595 177.693L657.948 179.875L687.199 134.921L683.846 132.74ZM680.551 163.009L689.721 148.49L686.339 146.354L677.169 160.872L680.551 163.009ZM686.076 147.848L689.728 164.627L693.636 163.776L689.984 146.997L686.076 147.848ZM692.029 162.232L679.207 159.971L678.512 163.91L691.335 166.171L692.029 162.232ZM714.871 189.117L712.901 188.769C712.709 189.857 713.435 190.894 714.523 191.086L714.871 189.117ZM749.546 195.231L749.198 197.2C750.286 197.392 751.323 196.666 751.515 195.578L749.546 195.231ZM751.247 185.58L753.217 185.927C753.409 184.839 752.682 183.802 751.595 183.61L751.247 185.58ZM727.189 181.337L725.219 180.99C725.027 182.078 725.753 183.115 726.841 183.307L727.189 181.337ZM733.996 142.733L735.965 143.08C736.157 141.992 735.431 140.955 734.343 140.763L733.996 142.733ZM723.379 140.861L723.727 138.891C722.639 138.7 721.601 139.426 721.41 140.514L723.379 140.861ZM714.523 191.086L749.198 197.2L749.893 193.261L715.218 187.147L714.523 191.086ZM751.515 195.578L753.217 185.927L749.278 185.232L747.576 194.883L751.515 195.578ZM751.595 183.61L727.536 179.368L726.841 183.307L750.9 187.549L751.595 183.61ZM729.158 181.685L735.965 143.08L732.026 142.386L725.219 180.99L729.158 181.685ZM734.343 140.763L723.727 138.891L723.032 142.831L733.648 144.703L734.343 140.763ZM721.41 140.514L712.901 188.769L716.84 189.464L725.349 141.208L721.41 140.514ZM757.552 196.642L755.582 196.295C755.391 197.383 756.117 198.42 757.205 198.612L757.552 196.642ZM794.295 203.121L793.948 205.091C795.036 205.283 796.073 204.556 796.265 203.469L794.295 203.121ZM795.96 193.677L797.93 194.024C798.122 192.936 797.395 191.899 796.308 191.707L795.96 193.677ZM769.765 189.058L767.795 188.711C767.603 189.798 768.329 190.836 769.417 191.028L769.765 189.058ZM771.551 178.924L771.899 176.955C770.811 176.763 769.774 177.489 769.582 178.577L771.551 178.924ZM794.3 182.935L793.953 184.905C795.041 185.097 796.078 184.371 796.27 183.283L794.3 182.935ZM795.966 173.491L797.935 173.838C798.127 172.751 797.401 171.713 796.313 171.522L795.966 173.491ZM773.217 169.48L771.247 169.133C771.055 170.22 771.782 171.258 772.869 171.45L773.217 169.48ZM774.943 159.691L775.29 157.721C774.202 157.53 773.165 158.256 772.973 159.344L774.943 159.691ZM800.794 164.249L800.447 166.219C801.534 166.411 802.572 165.684 802.764 164.596L800.794 164.249ZM802.459 154.805L804.429 155.152C804.621 154.064 803.894 153.027 802.806 152.835L802.459 154.805ZM766.061 148.387L766.408 146.417C765.32 146.225 764.283 146.952 764.091 148.04L766.061 148.387ZM757.205 198.612L793.948 205.091L794.642 201.152L757.899 194.673L757.205 198.612ZM796.265 203.469L797.93 194.024L793.991 193.33L792.326 202.774L796.265 203.469ZM796.308 191.707L770.112 187.088L769.417 191.028L795.613 195.647L796.308 191.707ZM771.734 189.405L773.521 179.272L769.582 178.577L767.795 188.711L771.734 189.405ZM771.204 180.894L793.953 184.905L794.648 180.966L771.899 176.955L771.204 180.894ZM796.27 183.283L797.935 173.838L793.996 173.144L792.331 182.588L796.27 183.283ZM796.313 171.522L773.564 167.51L772.869 171.45L795.618 175.461L796.313 171.522ZM775.186 169.827L776.912 160.038L772.973 159.344L771.247 169.133L775.186 169.827ZM774.595 161.661L800.447 166.219L801.141 162.28L775.29 157.721L774.595 161.661ZM802.764 164.596L804.429 155.152L800.49 154.458L798.824 163.902L802.764 164.596ZM802.806 152.835L766.408 146.417L765.713 150.356L802.112 156.774L802.806 152.835ZM764.091 148.04L755.582 196.295L759.522 196.99L768.03 148.734L764.091 148.04ZM869.74 186.642L870.573 184.823L870.565 184.82L869.74 186.642ZM879.127 182.184L877.719 183.605C878.096 183.979 878.607 184.187 879.138 184.184C879.67 184.181 880.178 183.967 880.551 183.588L879.127 182.184ZM886.052 175.16L887.476 176.564C888.212 175.817 888.247 174.63 887.556 173.841L886.052 175.16ZM863.124 195.142L863.949 193.32L863.947 193.319L863.124 195.142ZM850.598 198.051L852.12 196.753C851.406 195.916 850.15 195.813 849.309 196.522L850.598 198.051ZM843 204.459L841.711 202.93C840.886 203.626 840.761 204.85 841.429 205.697L843 204.459ZM861.765 217.76C867.287 218.733 872.449 218.175 876.532 215.902C880.673 213.597 883.495 209.642 884.437 204.302L880.497 203.608C879.75 207.849 877.599 210.73 874.587 212.407C871.518 214.115 867.348 214.682 862.46 213.82L861.765 217.76ZM884.437 204.302C885.278 199.53 884.336 195.668 881.726 192.439C879.22 189.338 875.303 186.989 870.573 184.823L868.907 188.46C873.516 190.571 876.717 192.605 878.616 194.954C880.411 197.176 881.163 199.831 880.497 203.608L884.437 204.302ZM870.565 184.82C866.518 182.987 864.339 181.847 863.199 180.87C862.68 180.425 862.505 180.116 862.432 179.909C862.359 179.702 862.316 179.391 862.419 178.811L858.479 178.117C858.302 179.123 858.286 180.176 858.658 181.235C859.03 182.295 859.719 183.156 860.597 183.908C862.252 185.326 864.997 186.689 868.915 188.464L870.565 184.82ZM862.419 178.811C862.527 178.197 862.852 177.738 863.47 177.428C864.148 177.087 865.312 176.874 867.072 177.185L867.766 173.246C865.459 172.839 863.357 173.009 861.676 173.852C859.935 174.726 858.809 176.249 858.479 178.117L862.419 178.811ZM867.072 177.185C870.568 177.801 874.104 180.022 877.719 183.605L880.535 180.763C876.647 176.911 872.405 174.063 867.766 173.246L867.072 177.185ZM880.551 183.588L887.476 176.564L884.628 173.756L877.703 180.78L880.551 183.588ZM887.556 173.841C883.049 168.701 877.03 165.212 869.557 163.894L868.863 167.834C875.453 168.996 880.651 172.034 884.548 176.478L887.556 173.841ZM869.557 163.894C864.253 162.959 859.276 163.689 855.354 165.987C851.401 168.304 848.658 172.139 847.786 177.084L851.725 177.779C852.397 173.97 854.452 171.152 857.376 169.438C860.331 167.707 864.309 167.031 868.863 167.834L869.557 163.894ZM847.786 177.084C846.84 182.453 847.96 186.477 850.823 189.689C853.535 192.732 857.68 194.876 862.3 196.964L863.947 193.319C859.285 191.212 855.889 189.361 853.809 187.028C851.88 184.864 850.958 182.131 851.725 177.779L847.786 177.084ZM862.298 196.964C866.165 198.716 868.15 199.889 869.133 200.819C869.582 201.245 869.729 201.537 869.788 201.723C869.847 201.912 869.875 202.175 869.792 202.644L873.731 203.339C873.886 202.463 873.915 201.509 873.602 200.519C873.289 199.528 872.691 198.68 871.884 197.915C870.354 196.466 867.783 195.058 863.949 193.32L862.298 196.964ZM869.792 202.644C869.65 203.451 869.238 203.961 868.493 204.29C867.647 204.663 866.271 204.826 864.32 204.482L863.625 208.421C866.017 208.843 868.274 208.758 870.106 207.95C872.04 207.098 873.351 205.496 873.731 203.339L869.792 202.644ZM864.32 204.482C859.417 203.617 855.649 200.891 852.12 196.753L849.076 199.349C852.969 203.912 857.499 207.341 863.625 208.421L864.32 204.482ZM849.309 196.522L841.711 202.93L844.289 205.988L851.887 199.58L849.309 196.522ZM841.429 205.697C846.632 212.299 854.006 216.392 861.765 217.76L862.46 213.82C855.605 212.612 849.126 209.002 844.571 203.221L841.429 205.697ZM884.018 218.942L882.342 217.851C881.976 218.414 881.916 219.123 882.184 219.739C882.451 220.354 883.01 220.795 883.671 220.911L884.018 218.942ZM894.841 220.85L894.494 222.82C895.295 222.961 896.101 222.603 896.534 221.915L894.841 220.85ZM901.162 210.805L901.509 208.836C900.708 208.694 899.902 209.052 899.469 209.74L901.162 210.805ZM921.567 214.403L923.522 213.981C923.35 213.187 922.715 212.575 921.914 212.434L921.567 214.403ZM924.07 226.004L922.115 226.426C922.287 227.221 922.922 227.833 923.723 227.974L924.07 226.004ZM935.169 227.961L934.822 229.931C935.483 230.047 936.159 229.824 936.62 229.337C937.082 228.85 937.269 228.164 937.117 227.509L935.169 227.961ZM923.058 175.714L925.006 175.263C924.825 174.481 924.195 173.884 923.405 173.745L923.058 175.714ZM913.269 173.988L913.616 172.019C912.826 171.879 912.03 172.225 911.592 172.897L913.269 173.988ZM906.606 202.098L904.915 201.03C904.559 201.594 904.507 202.298 904.777 202.907C905.047 203.517 905.602 203.952 906.259 204.068L906.606 202.098ZM915.777 187.58L917.731 187.155C917.558 186.362 916.923 185.752 916.124 185.611C915.324 185.47 914.519 185.826 914.086 186.512L915.777 187.58ZM919.428 204.359L919.081 206.329C919.738 206.445 920.409 206.226 920.87 205.745C921.332 205.264 921.524 204.585 921.383 203.934L919.428 204.359ZM883.671 220.911L894.494 222.82L895.189 218.881L884.365 216.972L883.671 220.911ZM896.534 221.915L902.854 211.87L899.469 209.74L893.148 219.785L896.534 221.915ZM900.814 212.775L921.219 216.373L921.914 212.434L901.509 208.836L900.814 212.775ZM919.612 214.825L922.115 226.426L926.025 225.582L923.522 213.981L919.612 214.825ZM923.723 227.974L934.822 229.931L935.516 225.992L924.418 224.034L923.723 227.974ZM937.117 227.509L925.006 175.263L921.109 176.166L933.221 228.413L937.117 227.509ZM923.405 173.745L913.616 172.019L912.921 175.958L922.71 177.684L923.405 173.745ZM911.592 172.897L882.342 217.851L885.695 220.033L914.945 175.079L911.592 172.897ZM908.297 203.166L917.467 188.648L914.086 186.512L904.915 201.03L908.297 203.166ZM913.822 188.005L917.474 204.785L921.383 203.934L917.731 187.155L913.822 188.005ZM919.776 202.39L906.953 200.129L906.259 204.068L919.081 206.329L919.776 202.39ZM942.617 229.274L940.647 228.927C940.456 230.015 941.182 231.052 942.27 231.244L942.617 229.274ZM977.292 235.389L976.945 237.358C978.033 237.55 979.07 236.824 979.262 235.736L977.292 235.389ZM978.994 225.737L980.963 226.085C981.155 224.997 980.429 223.96 979.341 223.768L978.994 225.737ZM954.935 221.495L952.965 221.148C952.773 222.236 953.5 223.273 954.588 223.465L954.935 221.495ZM961.742 182.891L963.712 183.238C963.903 182.15 963.177 181.113 962.089 180.921L961.742 182.891ZM951.126 181.019L951.473 179.049C950.385 178.857 949.348 179.584 949.156 180.672L951.126 181.019ZM942.27 231.244L976.945 237.358L977.639 233.419L942.964 227.305L942.27 231.244ZM979.262 235.736L980.963 226.085L977.024 225.39L975.322 235.041L979.262 235.736ZM979.341 223.768L955.282 219.526L954.588 223.465L978.646 227.707L979.341 223.768ZM956.905 221.842L963.712 183.238L959.772 182.543L952.965 221.148L956.905 221.842ZM962.089 180.921L951.473 179.049L950.778 182.988L961.395 184.86L962.089 180.921ZM949.156 180.672L940.647 228.927L944.587 229.622L953.095 181.366L949.156 180.672ZM985.298 236.8L983.329 236.453C983.137 237.541 983.863 238.578 984.951 238.77L985.298 236.8ZM1022.04 243.279L1021.69 245.249C1022.78 245.441 1023.82 244.714 1024.01 243.626L1022.04 243.279ZM1023.71 233.835L1025.68 234.182C1025.87 233.094 1025.14 232.057 1024.05 231.865L1023.71 233.835ZM997.511 229.216L995.541 228.868C995.35 229.956 996.076 230.994 997.164 231.185L997.511 229.216ZM999.298 219.082L999.645 217.112C998.557 216.921 997.52 217.647 997.328 218.735L999.298 219.082ZM1022.05 223.093L1021.7 225.063C1022.79 225.255 1023.82 224.528 1024.02 223.441L1022.05 223.093ZM1023.71 213.649L1025.68 213.996C1025.87 212.909 1025.15 211.871 1024.06 211.679L1023.71 213.649ZM1000.96 209.638L998.993 209.29C998.802 210.378 999.528 211.416 1000.62 211.607L1000.96 209.638ZM1002.69 199.849L1003.04 197.879C1001.95 197.687 1000.91 198.414 1000.72 199.501L1002.69 199.849ZM1028.54 204.407L1028.19 206.377C1029.28 206.568 1030.32 205.842 1030.51 204.754L1028.54 204.407ZM1030.21 194.963L1032.18 195.31C1032.37 194.222 1031.64 193.185 1030.55 192.993L1030.21 194.963ZM993.807 188.545L994.154 186.575C993.067 186.383 992.029 187.11 991.838 188.197L993.807 188.545ZM984.951 238.77L1021.69 245.249L1022.39 241.309L985.646 234.831L984.951 238.77ZM1024.01 243.626L1025.68 234.182L1021.74 233.487L1020.07 242.932L1024.01 243.626ZM1024.05 231.865L997.858 227.246L997.164 231.185L1023.36 235.804L1024.05 231.865ZM999.481 229.563L1001.27 219.429L997.328 218.735L995.541 228.868L999.481 229.563ZM998.95 221.052L1021.7 225.063L1022.39 221.124L999.645 217.112L998.95 221.052ZM1024.02 223.441L1025.68 213.996L1021.74 213.302L1020.08 222.746L1024.02 223.441ZM1024.06 211.679L1001.31 207.668L1000.62 211.607L1023.36 215.619L1024.06 211.679ZM1002.93 209.985L1004.66 200.196L1000.72 199.501L998.993 209.29L1002.93 209.985ZM1002.34 201.818L1028.19 206.377L1028.89 202.437L1003.04 197.879L1002.34 201.818ZM1030.51 204.754L1032.18 195.31L1028.24 194.615L1026.57 204.06L1030.51 204.754ZM1030.55 192.993L994.154 186.575L993.46 190.514L1029.86 196.932L1030.55 192.993ZM991.838 188.197L983.329 236.453L987.268 237.148L995.777 188.892L991.838 188.197ZM1097.49 226.8L1098.32 224.981L1098.31 224.978L1097.49 226.8ZM1106.87 222.342L1105.47 223.762C1105.84 224.136 1106.35 224.345 1106.88 224.342C1107.42 224.339 1107.92 224.124 1108.3 223.746L1106.87 222.342ZM1113.8 215.318L1115.22 216.722C1115.96 215.975 1115.99 214.787 1115.3 213.999L1113.8 215.318ZM1090.87 235.3L1091.7 233.478L1091.69 233.477L1090.87 235.3ZM1078.34 238.209L1079.87 236.911C1079.15 236.074 1077.9 235.971 1077.06 236.68L1078.34 238.209ZM1070.75 244.617L1069.46 243.088C1068.63 243.783 1068.51 245.008 1069.18 245.855L1070.75 244.617ZM1089.51 257.918C1095.03 258.891 1100.2 258.332 1104.28 256.059C1108.42 253.755 1111.24 249.8 1112.18 244.46L1108.24 243.765C1107.5 248.007 1105.35 250.888 1102.33 252.564C1099.26 254.272 1095.09 254.84 1090.21 253.978L1089.51 257.918ZM1112.18 244.46C1113.02 239.688 1112.08 235.826 1109.47 232.597C1106.97 229.496 1103.05 227.147 1098.32 224.981L1096.65 228.618C1101.26 230.729 1104.46 232.763 1106.36 235.112C1108.16 237.333 1108.91 239.989 1108.24 243.765L1112.18 244.46ZM1098.31 224.978C1094.26 223.145 1092.09 222.004 1090.95 221.028C1090.43 220.583 1090.25 220.274 1090.18 220.067C1090.11 219.86 1090.06 219.549 1090.17 218.969L1086.23 218.275C1086.05 219.28 1086.03 220.334 1086.4 221.393C1086.78 222.453 1087.47 223.314 1088.34 224.066C1090 225.484 1092.74 226.847 1096.66 228.621L1098.31 224.978ZM1090.17 218.969C1090.27 218.355 1090.6 217.895 1091.22 217.586C1091.89 217.245 1093.06 217.032 1094.82 217.343L1095.51 213.403C1093.21 212.996 1091.1 213.167 1089.42 214.01C1087.68 214.884 1086.56 216.407 1086.23 218.275L1090.17 218.969ZM1094.82 217.343C1098.31 217.959 1101.85 220.18 1105.47 223.762L1108.28 220.921C1104.39 217.068 1100.15 214.221 1095.51 213.403L1094.82 217.343ZM1108.3 223.746L1115.22 216.722L1112.37 213.914L1105.45 220.938L1108.3 223.746ZM1115.3 213.999C1110.8 208.859 1104.78 205.37 1097.3 204.052L1096.61 207.992C1103.2 209.154 1108.4 212.192 1112.29 216.636L1115.3 213.999ZM1097.3 204.052C1092 203.117 1087.02 203.847 1083.1 206.145C1079.15 208.461 1076.4 212.296 1075.53 217.242L1079.47 217.937C1080.14 214.128 1082.2 211.31 1085.12 209.596C1088.08 207.865 1092.06 207.189 1096.61 207.992L1097.3 204.052ZM1075.53 217.242C1074.59 222.61 1075.71 226.635 1078.57 229.847C1081.28 232.89 1085.43 235.034 1090.05 237.122L1091.69 233.477C1087.03 231.37 1083.64 229.519 1081.56 227.186C1079.63 225.022 1078.7 222.289 1079.47 217.937L1075.53 217.242ZM1090.04 237.121C1093.91 238.874 1095.9 240.046 1096.88 240.977C1097.33 241.403 1097.48 241.694 1097.53 241.881C1097.59 242.07 1097.62 242.333 1097.54 242.802L1101.48 243.496C1101.63 242.621 1101.66 241.667 1101.35 240.677C1101.04 239.686 1100.44 238.838 1099.63 238.073C1098.1 236.624 1095.53 235.216 1091.7 233.478L1090.04 237.121ZM1097.54 242.802C1097.4 243.609 1096.98 244.119 1096.24 244.448C1095.39 244.82 1094.02 244.984 1092.07 244.639L1091.37 248.579C1093.76 249 1096.02 248.916 1097.85 248.108C1099.79 247.256 1101.1 245.654 1101.48 243.496L1097.54 242.802ZM1092.07 244.639C1087.16 243.775 1083.4 241.049 1079.87 236.911L1076.82 239.507C1080.72 244.07 1085.25 247.498 1091.37 248.579L1092.07 244.639ZM1077.06 236.68L1069.46 243.088L1072.04 246.146L1079.63 239.738L1077.06 236.68ZM1069.18 245.855C1074.38 252.457 1081.75 256.549 1089.51 257.918L1090.21 253.978C1083.35 252.77 1076.87 249.16 1072.32 243.379L1069.18 245.855ZM1111.76 259.1L1110.09 258.009C1109.72 258.572 1109.66 259.281 1109.93 259.896C1110.2 260.512 1110.76 260.953 1111.42 261.069L1111.76 259.1ZM1122.59 261.008L1122.24 262.978C1123.04 263.119 1123.85 262.761 1124.28 262.073L1122.59 261.008ZM1128.91 250.963L1129.26 248.993C1128.45 248.852 1127.65 249.21 1127.22 249.898L1128.91 250.963ZM1149.31 254.561L1151.27 254.139C1151.1 253.344 1150.46 252.733 1149.66 252.591L1149.31 254.561ZM1151.82 266.162L1149.86 266.584C1150.03 267.379 1150.67 267.99 1151.47 268.132L1151.82 266.162ZM1162.92 268.119L1162.57 270.089C1163.23 270.205 1163.9 269.982 1164.37 269.495C1164.83 269.008 1165.02 268.321 1164.86 267.667L1162.92 268.119ZM1150.8 215.872L1152.75 215.42C1152.57 214.639 1151.94 214.042 1151.15 213.902L1150.8 215.872ZM1141.02 214.146L1141.36 212.176C1140.57 212.037 1139.78 212.383 1139.34 213.055L1141.02 214.146ZM1134.35 242.256L1132.66 241.188C1132.31 241.752 1132.25 242.456 1132.52 243.065C1132.79 243.675 1133.35 244.11 1134.01 244.226L1134.35 242.256ZM1143.52 227.738L1145.48 227.313C1145.3 226.52 1144.67 225.909 1143.87 225.768C1143.07 225.627 1142.27 225.984 1141.83 226.67L1143.52 227.738ZM1147.17 244.517L1146.83 246.487C1147.48 246.602 1148.15 246.384 1148.62 245.903C1149.08 245.422 1149.27 244.743 1149.13 244.092L1147.17 244.517ZM1111.42 261.069L1122.24 262.978L1122.93 259.038L1112.11 257.13L1111.42 261.069ZM1124.28 262.073L1130.6 252.028L1127.22 249.898L1120.89 259.943L1124.28 262.073ZM1128.56 252.933L1148.97 256.531L1149.66 252.591L1129.26 248.993L1128.56 252.933ZM1147.36 254.983L1149.86 266.584L1153.77 265.74L1151.27 254.139L1147.36 254.983ZM1151.47 268.132L1162.57 270.089L1163.26 266.149L1152.16 264.192L1151.47 268.132ZM1164.86 267.667L1152.75 215.42L1148.86 216.324L1160.97 268.571L1164.86 267.667ZM1151.15 213.902L1141.36 212.176L1140.67 216.116L1150.46 217.842L1151.15 213.902ZM1139.34 213.055L1110.09 258.009L1113.44 260.19L1142.69 215.237L1139.34 213.055ZM1136.04 243.324L1145.21 228.806L1141.83 226.67L1132.66 241.188L1136.04 243.324ZM1141.57 228.163L1145.22 244.942L1149.13 244.092L1145.48 227.313L1141.57 228.163ZM1147.52 242.547L1134.7 240.287L1134.01 244.226L1146.83 246.487L1147.52 242.547ZM1170.36 269.432L1168.39 269.085C1168.2 270.173 1168.93 271.21 1170.02 271.402L1170.36 269.432ZM1205.04 275.546L1204.69 277.516C1205.78 277.708 1206.82 276.981 1207.01 275.894L1205.04 275.546ZM1206.74 265.895L1208.71 266.243C1208.9 265.155 1208.18 264.117 1207.09 263.926L1206.74 265.895ZM1182.68 261.653L1180.71 261.306C1180.52 262.394 1181.25 263.431 1182.33 263.623L1182.68 261.653ZM1189.49 223.049L1191.46 223.396C1191.65 222.308 1190.92 221.271 1189.84 221.079L1189.49 223.049ZM1178.87 221.177L1179.22 219.207C1178.13 219.015 1177.09 219.742 1176.9 220.829L1178.87 221.177ZM1170.02 271.402L1204.69 277.516L1205.39 273.577L1170.71 267.463L1170.02 271.402ZM1207.01 275.894L1208.71 266.243L1204.77 265.548L1203.07 275.199L1207.01 275.894ZM1207.09 263.926L1183.03 259.683L1182.33 263.623L1206.39 267.865L1207.09 263.926ZM1184.65 262L1191.46 223.396L1187.52 222.701L1180.71 261.306L1184.65 262ZM1189.84 221.079L1179.22 219.207L1178.52 223.146L1189.14 225.018L1189.84 221.079ZM1176.9 220.829L1168.39 269.085L1172.33 269.78L1180.84 221.524L1176.9 220.829ZM1213.04 276.958L1211.08 276.611C1210.88 277.699 1211.61 278.736 1212.7 278.928L1213.04 276.958ZM1249.79 283.437L1249.44 285.407C1250.53 285.598 1251.57 284.872 1251.76 283.784L1249.79 283.437ZM1251.45 273.993L1253.42 274.34C1253.61 273.252 1252.89 272.215 1251.8 272.023L1251.45 273.993ZM1225.26 269.374L1223.29 269.026C1223.1 270.114 1223.82 271.151 1224.91 271.343L1225.26 269.374ZM1227.04 259.24L1227.39 257.27C1226.3 257.078 1225.27 257.805 1225.07 258.893L1227.04 259.24ZM1249.79 263.251L1249.45 265.221C1250.53 265.413 1251.57 264.686 1251.76 263.598L1249.79 263.251ZM1251.46 253.807L1253.43 254.154C1253.62 253.066 1252.89 252.029 1251.81 251.837L1251.46 253.807ZM1228.71 249.796L1226.74 249.448C1226.55 250.536 1227.27 251.573 1228.36 251.765L1228.71 249.796ZM1230.44 240.007L1230.78 238.037C1229.7 237.845 1228.66 238.572 1228.47 239.659L1230.44 240.007ZM1256.29 244.565L1255.94 246.534C1257.03 246.726 1258.06 246 1258.26 244.912L1256.29 244.565ZM1257.95 235.121L1259.92 235.468C1260.11 234.38 1259.39 233.343 1258.3 233.151L1257.95 235.121ZM1221.55 228.703L1221.9 226.733C1220.81 226.541 1219.78 227.267 1219.58 228.355L1221.55 228.703ZM1212.7 278.928L1249.44 285.407L1250.14 281.467L1213.39 274.988L1212.7 278.928ZM1251.76 283.784L1253.42 274.34L1249.48 273.645L1247.82 283.09L1251.76 283.784ZM1251.8 272.023L1225.6 267.404L1224.91 271.343L1251.11 275.962L1251.8 272.023ZM1227.23 269.721L1229.01 259.587L1225.07 258.893L1223.29 269.026L1227.23 269.721ZM1226.7 261.21L1249.45 265.221L1250.14 261.282L1227.39 257.27L1226.7 261.21ZM1251.76 263.598L1253.43 254.154L1249.49 253.46L1247.82 262.904L1251.76 263.598ZM1251.81 251.837L1229.06 247.826L1228.36 251.765L1251.11 255.776L1251.81 251.837ZM1230.68 250.143L1232.41 240.354L1228.47 239.659L1226.74 249.448L1230.68 250.143ZM1230.09 241.976L1255.94 246.534L1256.63 242.595L1230.78 238.037L1230.09 241.976ZM1258.26 244.912L1259.92 235.468L1255.98 234.773L1254.32 244.218L1258.26 244.912ZM1258.3 233.151L1221.9 226.733L1221.21 230.672L1257.6 237.09L1258.3 233.151ZM1219.58 228.355L1211.08 276.611L1215.01 277.305L1223.52 229.05L1219.58 228.355ZM1325.23 266.957L1326.07 265.139L1326.06 265.136L1325.23 266.957ZM1334.62 262.5L1333.21 263.92C1333.59 264.294 1334.1 264.503 1334.63 264.5C1335.16 264.497 1335.67 264.282 1336.04 263.904L1334.62 262.5ZM1341.54 255.475L1342.97 256.88C1343.7 256.133 1343.74 254.945 1343.05 254.157L1341.54 255.475ZM1318.62 275.458L1319.44 273.636L1319.44 273.635L1318.62 275.458ZM1306.09 278.367L1307.61 277.069C1306.9 276.232 1305.64 276.129 1304.8 276.838L1306.09 278.367ZM1298.49 284.775L1297.2 283.246C1296.38 283.941 1296.25 285.165 1296.92 286.013L1298.49 284.775ZM1317.26 298.075C1322.78 299.049 1327.94 298.49 1332.03 296.217C1336.17 293.913 1338.99 289.958 1339.93 284.618L1335.99 283.923C1335.24 288.165 1333.09 291.046 1330.08 292.722C1327.01 294.43 1322.84 294.998 1317.95 294.136L1317.26 298.075ZM1339.93 284.618C1340.77 279.846 1339.83 275.983 1337.22 272.755C1334.71 269.654 1330.8 267.305 1326.07 265.139L1324.4 268.776C1329.01 270.886 1332.21 272.921 1334.11 275.269C1335.9 277.491 1336.66 280.147 1335.99 283.923L1339.93 284.618ZM1326.06 265.136C1322.01 263.302 1319.83 262.162 1318.69 261.186C1318.17 260.741 1318 260.432 1317.92 260.225C1317.85 260.018 1317.81 259.707 1317.91 259.127L1313.97 258.433C1313.79 259.438 1313.78 260.492 1314.15 261.551C1314.52 262.611 1315.21 263.472 1316.09 264.224C1317.74 265.641 1320.49 267.005 1324.41 268.779L1326.06 265.136ZM1317.91 259.127C1318.02 258.513 1318.34 258.053 1318.96 257.743C1319.64 257.403 1320.8 257.19 1322.56 257.5L1323.26 253.561C1320.95 253.154 1318.85 253.325 1317.17 254.168C1315.43 255.042 1314.3 256.565 1313.97 258.433L1317.91 259.127ZM1322.56 257.5C1326.06 258.117 1329.6 260.337 1333.21 263.92L1336.03 261.079C1332.14 257.226 1327.9 254.379 1323.26 253.561L1322.56 257.5ZM1336.04 263.904L1342.97 256.88L1340.12 254.071L1333.2 261.096L1336.04 263.904ZM1343.05 254.157C1338.54 249.016 1332.52 245.528 1325.05 244.21L1324.36 248.149C1330.95 249.311 1336.14 252.35 1340.04 256.794L1343.05 254.157ZM1325.05 244.21C1319.75 243.275 1314.77 244.005 1310.85 246.303C1306.89 248.619 1304.15 252.454 1303.28 257.4L1307.22 258.095C1307.89 254.285 1309.95 251.467 1312.87 249.754C1315.82 248.023 1319.8 247.346 1324.36 248.149L1325.05 244.21ZM1303.28 257.4C1302.33 262.768 1303.45 266.793 1306.32 270.005C1309.03 273.048 1313.17 275.192 1317.79 277.28L1319.44 273.635C1314.78 271.528 1311.38 269.677 1309.3 267.343C1307.37 265.179 1306.45 262.446 1307.22 258.095L1303.28 257.4ZM1317.79 277.279C1321.66 279.032 1323.64 280.204 1324.63 281.135C1325.07 281.56 1325.22 281.852 1325.28 282.039C1325.34 282.228 1325.37 282.491 1325.28 282.96L1329.22 283.654C1329.38 282.779 1329.41 281.825 1329.1 280.835C1328.78 279.843 1328.18 278.995 1327.38 278.231C1325.85 276.782 1323.28 275.373 1319.44 273.636L1317.79 277.279ZM1325.28 282.96C1325.14 283.766 1324.73 284.277 1323.99 284.606C1323.14 284.978 1321.76 285.141 1319.81 284.797L1319.12 288.736C1321.51 289.158 1323.77 289.073 1325.6 288.266C1327.53 287.414 1328.84 285.812 1329.22 283.654L1325.28 282.96ZM1319.81 284.797C1314.91 283.933 1311.14 281.207 1307.61 277.069L1304.57 279.665C1308.46 284.228 1312.99 287.656 1319.12 288.736L1319.81 284.797ZM1304.8 276.838L1297.2 283.246L1299.78 286.304L1307.38 279.896L1304.8 276.838ZM1296.92 286.013C1302.12 292.614 1309.5 296.707 1317.26 298.075L1317.95 294.136C1311.1 292.927 1304.62 289.318 1300.06 283.537L1296.92 286.013ZM1339.51 299.258L1337.83 298.167C1337.47 298.729 1337.41 299.438 1337.68 300.054C1337.94 300.67 1338.5 301.111 1339.16 301.227L1339.51 299.258ZM1350.33 301.166L1349.99 303.136C1350.79 303.277 1351.59 302.919 1352.03 302.231L1350.33 301.166ZM1356.65 291.121L1357 289.151C1356.2 289.01 1355.39 289.368 1354.96 290.056L1356.65 291.121ZM1377.06 294.719L1379.01 294.297C1378.84 293.502 1378.21 292.89 1377.41 292.749L1377.06 294.719ZM1379.56 306.32L1377.61 306.742C1377.78 307.536 1378.42 308.148 1379.22 308.289L1379.56 306.32ZM1390.66 308.277L1390.31 310.246C1390.98 310.363 1391.65 310.14 1392.11 309.653C1392.58 309.166 1392.76 308.479 1392.61 307.825L1390.66 308.277ZM1378.55 256.03L1380.5 255.578C1380.32 254.797 1379.69 254.2 1378.9 254.06L1378.55 256.03ZM1368.76 254.304L1369.11 252.334C1368.32 252.195 1367.52 252.541 1367.09 253.213L1368.76 254.304ZM1362.1 282.414L1360.41 281.346C1360.05 281.91 1360 282.613 1360.27 283.223C1360.54 283.833 1361.1 284.268 1361.75 284.384L1362.1 282.414ZM1371.27 267.896L1373.22 267.471C1373.05 266.677 1372.42 266.067 1371.62 265.926C1370.82 265.785 1370.01 266.141 1369.58 266.828L1371.27 267.896ZM1374.92 284.675L1374.57 286.645C1375.23 286.76 1375.9 286.541 1376.36 286.061C1376.83 285.58 1377.02 284.901 1376.88 284.25L1374.92 284.675ZM1339.16 301.227L1349.99 303.136L1350.68 299.196L1339.86 297.288L1339.16 301.227ZM1352.03 302.231L1358.35 292.186L1354.96 290.056L1348.64 300.101L1352.03 302.231ZM1356.31 293.09L1376.71 296.688L1377.41 292.749L1357 289.151L1356.31 293.09ZM1375.1 295.141L1377.61 306.742L1381.52 305.898L1379.01 294.297L1375.1 295.141ZM1379.22 308.289L1390.31 310.246L1391.01 306.307L1379.91 304.35L1379.22 308.289ZM1392.61 307.825L1380.5 255.578L1376.6 256.482L1388.71 308.728L1392.61 307.825ZM1378.9 254.06L1369.11 252.334L1368.41 256.273L1378.2 258L1378.9 254.06ZM1367.09 253.213L1337.83 298.167L1341.19 300.348L1370.44 255.395L1367.09 253.213ZM1363.79 283.482L1372.96 268.964L1369.58 266.828L1360.41 281.346L1363.79 283.482ZM1369.32 268.321L1372.97 285.1L1376.88 284.25L1373.22 267.471L1369.32 268.321ZM1375.27 282.705L1362.45 280.444L1361.75 284.384L1374.57 286.645L1375.27 282.705ZM1398.11 309.59L1396.14 309.243C1395.95 310.331 1396.67 311.368 1397.76 311.56L1398.11 309.59ZM1432.78 315.704L1432.44 317.674C1433.53 317.866 1434.56 317.139 1434.75 316.052L1432.78 315.704ZM1434.49 306.053L1436.46 306.4C1436.65 305.313 1435.92 304.275 1434.83 304.083L1434.49 306.053ZM1410.43 301.811L1408.46 301.464C1408.27 302.551 1408.99 303.589 1410.08 303.78L1410.43 301.811ZM1417.23 263.206L1419.2 263.554C1419.4 262.466 1418.67 261.429 1417.58 261.237L1417.23 263.206ZM1406.62 261.334L1406.97 259.365C1405.88 259.173 1404.84 259.899 1404.65 260.987L1406.62 261.334ZM1397.76 311.56L1432.44 317.674L1433.13 313.735L1398.46 307.62L1397.76 311.56ZM1434.75 316.052L1436.46 306.4L1432.52 305.706L1430.82 315.357L1434.75 316.052ZM1434.83 304.083L1410.78 299.841L1410.08 303.78L1434.14 308.023L1434.83 304.083ZM1412.4 302.158L1419.2 263.554L1415.27 262.859L1408.46 301.464L1412.4 302.158ZM1417.58 261.237L1406.97 259.365L1406.27 263.304L1416.89 265.176L1417.58 261.237ZM1404.65 260.987L1396.14 309.243L1400.08 309.937L1408.59 261.682L1404.65 260.987ZM1440.79 317.116L1438.82 316.769C1438.63 317.856 1439.36 318.894 1440.44 319.086L1440.79 317.116ZM1477.53 323.595L1477.19 325.564C1478.27 325.756 1479.31 325.03 1479.5 323.942L1477.53 323.595ZM1479.2 314.15L1481.17 314.498C1481.36 313.41 1480.63 312.373 1479.55 312.181L1479.2 314.15ZM1453 309.531L1451.03 309.184C1450.84 310.272 1451.57 311.309 1452.66 311.501L1453 309.531ZM1454.79 299.398L1455.14 297.428C1454.05 297.236 1453.01 297.963 1452.82 299.05L1454.79 299.398ZM1477.54 303.409L1477.19 305.379C1478.28 305.57 1479.32 304.844 1479.51 303.756L1477.54 303.409ZM1479.21 293.965L1481.17 294.312C1481.37 293.224 1480.64 292.187 1479.55 291.995L1479.21 293.965ZM1456.46 289.953L1454.49 289.606C1454.29 290.694 1455.02 291.731 1456.11 291.923L1456.46 289.953ZM1458.18 280.164L1458.53 278.195C1457.44 278.003 1456.4 278.729 1456.21 279.817L1458.18 280.164ZM1484.03 284.723L1483.69 286.692C1484.77 286.884 1485.81 286.158 1486 285.07L1484.03 284.723ZM1485.7 275.278L1487.67 275.626C1487.86 274.538 1487.13 273.501 1486.05 273.309L1485.7 275.278ZM1449.3 268.86L1449.65 266.891C1448.56 266.699 1447.52 267.425 1447.33 268.513L1449.3 268.86ZM1440.44 319.086L1477.19 325.564L1477.88 321.625L1441.14 315.146L1440.44 319.086ZM1479.5 323.942L1481.17 314.498L1477.23 313.803L1475.56 323.247L1479.5 323.942ZM1479.55 312.181L1453.35 307.562L1452.66 311.501L1478.85 316.12L1479.55 312.181ZM1454.97 309.879L1456.76 299.745L1452.82 299.05L1451.03 309.184L1454.97 309.879ZM1454.44 301.367L1477.19 305.379L1477.89 301.439L1455.14 297.428L1454.44 301.367ZM1479.51 303.756L1481.17 294.312L1477.24 293.617L1475.57 303.062L1479.51 303.756ZM1479.55 291.995L1456.8 287.984L1456.11 291.923L1478.86 295.934L1479.55 291.995ZM1458.43 290.301L1460.15 280.512L1456.21 279.817L1454.49 289.606L1458.43 290.301ZM1457.83 282.134L1483.69 286.692L1484.38 282.753L1458.53 278.195L1457.83 282.134ZM1486 285.07L1487.67 275.626L1483.73 274.931L1482.06 284.375L1486 285.07ZM1486.05 273.309L1449.65 266.891L1448.95 270.83L1485.35 277.248L1486.05 273.309ZM1447.33 268.513L1438.82 316.769L1442.76 317.463L1451.27 269.208L1447.33 268.513ZM1552.98 307.115L1553.81 305.297L1553.8 305.293L1552.98 307.115ZM1562.37 302.658L1560.96 304.078C1561.34 304.452 1561.85 304.661 1562.38 304.658C1562.91 304.654 1563.42 304.44 1563.79 304.062L1562.37 302.658ZM1569.29 295.633L1570.72 297.037C1571.45 296.291 1571.49 295.103 1570.79 294.315L1569.29 295.633ZM1546.36 315.615L1547.19 313.794L1547.19 313.793L1546.36 315.615ZM1533.84 318.525L1535.36 317.227C1534.65 316.39 1533.39 316.286 1532.55 316.996L1533.84 318.525ZM1526.24 324.933L1524.95 323.404C1524.13 324.099 1524 325.323 1524.67 326.17L1526.24 324.933ZM1545 338.233C1550.53 339.207 1555.69 338.648 1559.77 336.375C1563.91 334.071 1566.73 330.116 1567.68 324.776L1563.74 324.081C1562.99 328.323 1560.84 331.203 1557.83 332.88C1554.76 334.588 1550.59 335.156 1545.7 334.294L1545 338.233ZM1567.68 324.776C1568.52 320.004 1567.58 316.141 1564.97 312.913C1562.46 309.811 1558.54 307.463 1553.81 305.297L1552.15 308.934C1556.76 311.044 1559.96 313.078 1561.85 315.427C1563.65 317.649 1564.4 320.305 1563.74 324.081L1567.68 324.776ZM1553.8 305.293C1549.76 303.46 1547.58 302.32 1546.44 301.344C1545.92 300.899 1545.74 300.59 1545.67 300.383C1545.6 300.175 1545.56 299.865 1545.66 299.285L1541.72 298.59C1541.54 299.596 1541.52 300.649 1541.9 301.709C1542.27 302.769 1542.96 303.63 1543.84 304.381C1545.49 305.799 1548.24 307.163 1552.15 308.937L1553.8 305.293ZM1545.66 299.285C1545.77 298.671 1546.09 298.211 1546.71 297.901C1547.39 297.561 1548.55 297.348 1550.31 297.658L1551.01 293.719C1548.7 293.312 1546.6 293.483 1544.92 294.326C1543.17 295.199 1542.05 296.723 1541.72 298.59L1545.66 299.285ZM1550.31 297.658C1553.81 298.275 1557.34 300.495 1560.96 304.078L1563.77 301.237C1559.89 297.384 1555.64 294.537 1551.01 293.719L1550.31 297.658ZM1563.79 304.062L1570.72 297.037L1567.87 294.229L1560.94 301.253L1563.79 304.062ZM1570.79 294.315C1566.29 289.174 1560.27 285.686 1552.8 284.368L1552.1 288.307C1558.69 289.469 1563.89 292.508 1567.79 296.952L1570.79 294.315ZM1552.8 284.368C1547.49 283.433 1542.52 284.163 1538.59 286.461C1534.64 288.777 1531.9 292.612 1531.03 297.558L1534.96 298.252C1535.64 294.443 1537.69 291.625 1540.62 289.912C1543.57 288.18 1547.55 287.504 1552.1 288.307L1552.8 284.368ZM1531.03 297.558C1530.08 302.926 1531.2 306.95 1534.06 310.163C1536.77 313.206 1540.92 315.35 1545.54 317.438L1547.19 313.793C1542.52 311.686 1539.13 309.835 1537.05 307.501C1535.12 305.337 1534.2 302.604 1534.96 298.252L1531.03 297.558ZM1545.54 317.437C1549.4 319.19 1551.39 320.362 1552.37 321.293C1552.82 321.718 1552.97 322.01 1553.03 322.197C1553.09 322.385 1553.11 322.649 1553.03 323.117L1556.97 323.812C1557.13 322.937 1557.15 321.983 1556.84 320.993C1556.53 320.001 1555.93 319.153 1555.12 318.389C1553.59 316.939 1551.02 315.531 1547.19 313.794L1545.54 317.437ZM1553.03 323.117C1552.89 323.924 1552.48 324.435 1551.73 324.763C1550.89 325.136 1549.51 325.299 1547.56 324.955L1546.86 328.894C1549.26 329.316 1551.51 329.231 1553.35 328.424C1555.28 327.572 1556.59 325.969 1556.97 323.812L1553.03 323.117ZM1547.56 324.955C1542.66 324.091 1538.89 321.365 1535.36 317.227L1532.32 319.823C1536.21 324.386 1540.74 327.814 1546.86 328.894L1547.56 324.955ZM1532.55 316.996L1524.95 323.404L1527.53 326.461L1535.13 320.054L1532.55 316.996ZM1524.67 326.17C1529.87 332.772 1537.25 336.865 1545 338.233L1545.7 334.294C1538.84 333.085 1532.37 329.476 1527.81 323.695L1524.67 326.17ZM1567.26 339.415L1565.58 338.325C1565.21 338.887 1565.16 339.596 1565.42 340.212C1565.69 340.828 1566.25 341.268 1566.91 341.385L1567.26 339.415ZM1578.08 341.324L1577.73 343.293C1578.53 343.435 1579.34 343.077 1579.77 342.389L1578.08 341.324ZM1584.4 331.279L1584.75 329.309C1583.95 329.168 1583.14 329.525 1582.71 330.214L1584.4 331.279ZM1604.81 334.877L1606.76 334.455C1606.59 333.66 1605.95 333.048 1605.15 332.907L1604.81 334.877ZM1607.31 346.478L1605.35 346.9C1605.53 347.694 1606.16 348.306 1606.96 348.447L1607.31 346.478ZM1618.41 348.435L1618.06 350.404C1618.72 350.521 1619.4 350.298 1619.86 349.811C1620.32 349.324 1620.51 348.637 1620.36 347.983L1618.41 348.435ZM1606.3 296.188L1608.25 295.736C1608.06 294.955 1607.43 294.357 1606.64 294.218L1606.3 296.188ZM1596.51 294.462L1596.86 292.492C1596.07 292.353 1595.27 292.699 1594.83 293.371L1596.51 294.462ZM1589.85 322.572L1588.15 321.504C1587.8 322.067 1587.75 322.771 1588.02 323.381C1588.29 323.99 1588.84 324.426 1589.5 324.541L1589.85 322.572ZM1599.02 308.054L1600.97 307.628C1600.8 306.835 1600.16 306.225 1599.36 306.084C1598.56 305.943 1597.76 306.299 1597.32 306.986L1599.02 308.054ZM1602.67 324.833L1602.32 326.802C1602.98 326.918 1603.65 326.699 1604.11 326.219C1604.57 325.738 1604.76 325.059 1604.62 324.407L1602.67 324.833ZM1566.91 341.385L1577.73 343.293L1578.43 339.354L1567.6 337.446L1566.91 341.385ZM1579.77 342.389L1586.09 332.344L1582.71 330.214L1576.39 340.259L1579.77 342.389ZM1584.05 333.248L1604.46 336.846L1605.15 332.907L1584.75 329.309L1584.05 333.248ZM1602.85 335.299L1605.35 346.9L1609.26 346.056L1606.76 334.455L1602.85 335.299ZM1606.96 348.447L1618.06 350.404L1618.76 346.465L1607.66 344.508L1606.96 348.447ZM1620.36 347.983L1608.25 295.736L1604.35 296.639L1616.46 348.886L1620.36 347.983ZM1606.64 294.218L1596.86 292.492L1596.16 296.431L1605.95 298.157L1606.64 294.218ZM1594.83 293.371L1565.58 338.325L1568.93 340.506L1598.18 295.552L1594.83 293.371ZM1591.54 323.64L1600.71 309.122L1597.32 306.986L1588.15 321.504L1591.54 323.64ZM1597.06 308.479L1600.71 325.258L1604.62 324.407L1600.97 307.628L1597.06 308.479ZM1603.02 322.863L1590.19 320.602L1589.5 324.541L1602.32 326.802L1603.02 322.863ZM1625.86 349.748L1623.89 349.401C1623.69 350.488 1624.42 351.526 1625.51 351.718L1625.86 349.748ZM1660.53 355.862L1660.18 357.832C1661.27 358.023 1662.31 357.297 1662.5 356.209L1660.53 355.862ZM1662.23 346.211L1664.2 346.558C1664.39 345.47 1663.67 344.433 1662.58 344.241L1662.23 346.211ZM1638.17 341.969L1636.2 341.621C1636.01 342.709 1636.74 343.747 1637.83 343.938L1638.17 341.969ZM1644.98 303.364L1646.95 303.712C1647.14 302.624 1646.42 301.586 1645.33 301.395L1644.98 303.364ZM1634.37 301.492L1634.71 299.523C1633.62 299.331 1632.59 300.057 1632.4 301.145L1634.37 301.492ZM1625.51 351.718L1660.18 357.832L1660.88 353.892L1626.2 347.778L1625.51 351.718ZM1662.5 356.209L1664.2 346.558L1660.26 345.864L1658.56 355.515L1662.5 356.209ZM1662.58 344.241L1638.52 339.999L1637.83 343.938L1661.89 348.181L1662.58 344.241ZM1640.14 342.316L1646.95 303.712L1643.01 303.017L1636.2 341.621L1640.14 342.316ZM1645.33 301.395L1634.71 299.523L1634.02 303.462L1644.63 305.334L1645.33 301.395ZM1632.4 301.145L1623.89 349.401L1627.83 350.095L1636.33 301.84L1632.4 301.145ZM1668.54 357.274L1666.57 356.926C1666.38 358.014 1667.1 359.052 1668.19 359.243L1668.54 357.274ZM1705.28 363.753L1704.93 365.722C1706.02 365.914 1707.06 365.188 1707.25 364.1L1705.28 363.753ZM1706.95 354.308L1708.92 354.656C1709.11 353.568 1708.38 352.53 1707.29 352.339L1706.95 354.308ZM1680.75 349.689L1678.78 349.342C1678.59 350.43 1679.32 351.467 1680.4 351.659L1680.75 349.689ZM1682.54 339.556L1682.88 337.586C1681.8 337.394 1680.76 338.12 1680.57 339.208L1682.54 339.556ZM1705.29 343.567L1704.94 345.536C1706.03 345.728 1707.06 345.002 1707.26 343.914L1705.29 343.567ZM1706.95 334.123L1708.92 334.47C1709.11 333.382 1708.39 332.345 1707.3 332.153L1706.95 334.123ZM1684.2 330.111L1682.23 329.764C1682.04 330.852 1682.77 331.889 1683.86 332.081L1684.2 330.111ZM1685.93 320.322L1686.28 318.353C1685.19 318.161 1684.15 318.887 1683.96 319.975L1685.93 320.322ZM1711.78 324.881L1711.43 326.85C1712.52 327.042 1713.56 326.316 1713.75 325.228L1711.78 324.881ZM1713.44 315.436L1715.41 315.784C1715.61 314.696 1714.88 313.658 1713.79 313.467L1713.44 315.436ZM1677.05 309.018L1677.39 307.049C1676.31 306.857 1675.27 307.583 1675.08 308.671L1677.05 309.018ZM1668.19 359.243L1704.93 365.722L1705.63 361.783L1668.88 355.304L1668.19 359.243ZM1707.25 364.1L1708.92 354.656L1704.98 353.961L1703.31 363.405L1707.25 364.1ZM1707.29 352.339L1681.1 347.72L1680.4 351.659L1706.6 356.278L1707.29 352.339ZM1682.72 350.037L1684.51 339.903L1680.57 339.208L1678.78 349.342L1682.72 350.037ZM1682.19 341.525L1704.94 345.536L1705.63 341.597L1682.88 337.586L1682.19 341.525ZM1707.26 343.914L1708.92 334.47L1704.98 333.775L1703.32 343.22L1707.26 343.914ZM1707.3 332.153L1684.55 328.142L1683.86 332.081L1706.6 336.092L1707.3 332.153ZM1686.17 330.459L1687.9 320.67L1683.96 319.975L1682.23 329.764L1686.17 330.459ZM1685.58 322.292L1711.43 326.85L1712.13 322.911L1686.28 318.353L1685.58 322.292ZM1713.75 325.228L1715.41 315.784L1711.48 315.089L1709.81 324.533L1713.75 325.228ZM1713.79 313.467L1677.39 307.049L1676.7 310.988L1713.1 317.406L1713.79 313.467ZM1675.08 308.671L1666.57 356.926L1670.51 357.621L1679.02 309.365L1675.08 308.671ZM1780.73 347.273L1781.56 345.455L1781.55 345.451L1780.73 347.273ZM1790.11 342.815L1788.7 344.236C1789.08 344.61 1789.59 344.818 1790.12 344.815C1790.66 344.812 1791.16 344.598 1791.54 344.219L1790.11 342.815ZM1797.04 335.791L1798.46 337.195C1799.2 336.449 1799.23 335.261 1798.54 334.473L1797.04 335.791ZM1774.11 355.773L1774.93 353.952L1774.93 353.951L1774.11 355.773ZM1761.58 358.682L1763.11 357.385C1762.39 356.548 1761.14 356.444 1760.29 357.154L1761.58 358.682ZM1753.99 365.09L1752.7 363.562C1751.87 364.257 1751.75 365.481 1752.41 366.328L1753.99 365.09ZM1772.75 378.391C1778.27 379.365 1783.43 378.806 1787.52 376.533C1791.66 374.229 1794.48 370.274 1795.42 364.933L1791.48 364.239C1790.74 368.481 1788.59 371.361 1785.57 373.038C1782.5 374.746 1778.33 375.314 1773.45 374.452L1772.75 378.391ZM1795.42 364.933C1796.26 360.161 1795.32 356.299 1792.71 353.071C1790.21 349.969 1786.29 347.621 1781.56 345.455L1779.89 349.092C1784.5 351.202 1787.7 353.236 1789.6 355.585C1791.4 357.807 1792.15 360.463 1791.48 364.239L1795.42 364.933ZM1781.55 345.451C1777.5 343.618 1775.32 342.478 1774.19 341.502C1773.67 341.057 1773.49 340.748 1773.42 340.541C1773.34 340.333 1773.3 340.023 1773.4 339.443L1769.47 338.748C1769.29 339.754 1769.27 340.807 1769.64 341.867C1770.02 342.926 1770.71 343.787 1771.58 344.539C1773.24 345.957 1775.98 347.32 1779.9 349.095L1781.55 345.451ZM1773.4 339.443C1773.51 338.828 1773.84 338.369 1774.46 338.059C1775.13 337.719 1776.3 337.506 1778.06 337.816L1778.75 333.877C1776.44 333.47 1774.34 333.641 1772.66 334.484C1770.92 335.357 1769.79 336.881 1769.47 338.748L1773.4 339.443ZM1778.06 337.816C1781.55 338.433 1785.09 340.653 1788.7 344.236L1791.52 341.395C1787.63 337.542 1783.39 334.695 1778.75 333.877L1778.06 337.816ZM1791.54 344.219L1798.46 337.195L1795.61 334.387L1788.69 341.411L1791.54 344.219ZM1798.54 334.473C1794.03 329.332 1788.02 325.843 1780.54 324.526L1779.85 328.465C1786.44 329.627 1791.64 332.665 1795.53 337.11L1798.54 334.473ZM1780.54 324.526C1775.24 323.59 1770.26 324.321 1766.34 326.619C1762.39 328.935 1759.64 332.77 1758.77 337.716L1762.71 338.41C1763.38 334.601 1765.44 331.783 1768.36 330.07C1771.32 328.338 1775.3 327.662 1779.85 328.465L1780.54 324.526ZM1758.77 337.716C1757.83 343.084 1758.95 347.108 1761.81 350.321C1764.52 353.363 1768.67 355.507 1773.29 357.596L1774.93 353.951C1770.27 351.844 1766.87 349.992 1764.79 347.659C1762.87 345.495 1761.94 342.762 1762.71 338.41L1758.77 337.716ZM1773.28 357.595C1777.15 359.348 1779.14 360.52 1780.12 361.451C1780.57 361.876 1780.71 362.168 1780.77 362.355C1780.83 362.543 1780.86 362.806 1780.78 363.275L1784.72 363.97C1784.87 363.095 1784.9 362.141 1784.59 361.151C1784.27 360.159 1783.68 359.311 1782.87 358.547C1781.34 357.097 1778.77 355.689 1774.93 353.952L1773.28 357.595ZM1780.78 363.275C1780.64 364.082 1780.22 364.593 1779.48 364.921C1778.63 365.294 1777.26 365.457 1775.31 365.113L1774.61 369.052C1777 369.474 1779.26 369.389 1781.09 368.581C1783.03 367.729 1784.34 366.127 1784.72 363.97L1780.78 363.275ZM1775.31 365.113C1770.4 364.248 1766.63 361.522 1763.11 357.385L1760.06 359.98C1763.95 364.544 1768.48 367.972 1774.61 369.052L1775.31 365.113ZM1760.29 357.154L1752.7 363.562L1755.28 366.619L1762.87 360.211L1760.29 357.154ZM1752.41 366.328C1757.62 372.93 1764.99 377.023 1772.75 378.391L1773.45 374.452C1766.59 373.243 1760.11 369.633 1755.56 363.853L1752.41 366.328ZM1795 379.573L1793.33 378.482C1792.96 379.045 1792.9 379.754 1793.17 380.37C1793.44 380.986 1794 381.426 1794.66 381.543L1795 379.573ZM1805.83 381.482L1805.48 383.451C1806.28 383.592 1807.09 383.235 1807.52 382.547L1805.83 381.482ZM1812.15 371.436L1812.49 369.467C1811.69 369.326 1810.89 369.683 1810.45 370.371L1812.15 371.436ZM1832.55 375.034L1834.51 374.613C1834.34 373.818 1833.7 373.206 1832.9 373.065L1832.55 375.034ZM1835.06 386.635L1833.1 387.057C1833.27 387.852 1833.91 388.464 1834.71 388.605L1835.06 386.635ZM1846.15 388.592L1845.81 390.562C1846.47 390.679 1847.14 390.456 1847.61 389.969C1848.07 389.481 1848.25 388.795 1848.1 388.141L1846.15 388.592ZM1834.04 336.346L1835.99 335.894C1835.81 335.113 1835.18 334.515 1834.39 334.376L1834.04 336.346ZM1824.25 334.62L1824.6 332.65C1823.81 332.511 1823.02 332.857 1822.58 333.529L1824.25 334.62ZM1817.59 362.73L1815.9 361.662C1815.55 362.225 1815.49 362.929 1815.76 363.539C1816.03 364.148 1816.59 364.584 1817.24 364.699L1817.59 362.73ZM1826.76 348.212L1828.72 347.786C1828.54 346.993 1827.91 346.383 1827.11 346.242C1826.31 346.101 1825.5 346.457 1825.07 347.143L1826.76 348.212ZM1830.41 364.991L1830.07 366.96C1830.72 367.076 1831.39 366.857 1831.86 366.376C1832.32 365.896 1832.51 365.217 1832.37 364.565L1830.41 364.991ZM1794.66 381.543L1805.48 383.451L1806.17 379.512L1795.35 377.604L1794.66 381.543ZM1807.52 382.547L1813.84 372.502L1810.45 370.371L1804.13 380.416L1807.52 382.547ZM1811.8 373.406L1832.21 377.004L1832.9 373.065L1812.49 369.467L1811.8 373.406ZM1830.6 375.456L1833.1 387.057L1837.01 386.214L1834.51 374.613L1830.6 375.456ZM1834.71 388.605L1845.81 390.562L1846.5 386.623L1835.4 384.666L1834.71 388.605ZM1848.1 388.141L1835.99 335.894L1832.1 336.797L1844.21 389.044L1848.1 388.141ZM1834.39 334.376L1824.6 332.65L1823.91 336.589L1833.7 338.315L1834.39 334.376ZM1822.58 333.529L1793.33 378.482L1796.68 380.664L1825.93 335.71L1822.58 333.529ZM1819.28 363.798L1828.45 349.28L1825.07 347.143L1815.9 361.662L1819.28 363.798ZM1824.81 348.637L1828.46 365.416L1832.37 364.565L1828.72 347.786L1824.81 348.637ZM1830.76 363.021L1817.94 360.76L1817.24 364.699L1830.07 366.96L1830.76 363.021ZM1853.6 389.906L1851.63 389.558C1851.44 390.646 1852.17 391.684 1853.26 391.875L1853.6 389.906ZM1888.28 396.02L1887.93 397.99C1889.02 398.181 1890.06 397.455 1890.25 396.367L1888.28 396.02ZM1889.98 386.369L1891.95 386.716C1892.14 385.628 1891.41 384.591 1890.33 384.399L1889.98 386.369ZM1865.92 382.127L1863.95 381.779C1863.76 382.867 1864.49 383.904 1865.57 384.096L1865.92 382.127ZM1872.73 343.522L1874.7 343.869C1874.89 342.782 1874.16 341.744 1873.07 341.552L1872.73 343.522ZM1862.11 341.65L1862.46 339.681C1861.37 339.489 1860.33 340.215 1860.14 341.303L1862.11 341.65ZM1853.26 391.875L1887.93 397.99L1888.63 394.05L1853.95 387.936L1853.26 391.875ZM1890.25 396.367L1891.95 386.716L1888.01 386.021L1886.31 395.673L1890.25 396.367ZM1890.33 384.399L1866.27 380.157L1865.57 384.096L1889.63 388.338L1890.33 384.399ZM1867.89 382.474L1874.7 343.869L1870.76 343.175L1863.95 381.779L1867.89 382.474ZM1873.07 341.552L1862.46 339.681L1861.76 343.62L1872.38 345.492L1873.07 341.552ZM1860.14 341.303L1851.63 389.558L1855.57 390.253L1864.08 341.997L1860.14 341.303ZM1896.28 397.432L1894.31 397.084C1894.12 398.172 1894.85 399.209 1895.94 399.401L1896.28 397.432ZM1933.03 403.91L1932.68 405.88C1933.77 406.072 1934.81 405.346 1935 404.258L1933.03 403.91ZM1934.69 394.466L1936.66 394.813C1936.85 393.726 1936.13 392.688 1935.04 392.497L1934.69 394.466ZM1908.5 389.847L1906.53 389.5C1906.34 390.588 1907.06 391.625 1908.15 391.817L1908.5 389.847ZM1910.28 379.713L1910.63 377.744C1909.54 377.552 1908.51 378.278 1908.31 379.366L1910.28 379.713ZM1933.03 383.725L1932.69 385.694C1933.77 385.886 1934.81 385.16 1935 384.072L1933.03 383.725ZM1934.7 374.28L1936.67 374.628C1936.86 373.54 1936.13 372.503 1935.05 372.311L1934.7 374.28ZM1911.95 370.269L1909.98 369.922C1909.79 371.01 1910.51 372.047 1911.6 372.239L1911.95 370.269ZM1913.67 360.48L1914.02 358.511C1912.93 358.319 1911.9 359.045 1911.71 360.133L1913.67 360.48ZM1939.53 365.038L1939.18 367.008C1940.27 367.2 1941.3 366.473 1941.5 365.386L1939.53 365.038ZM1941.19 355.594L1943.16 355.941C1943.35 354.854 1942.63 353.816 1941.54 353.624L1941.19 355.594ZM1904.79 349.176L1905.14 347.206C1904.05 347.015 1903.02 347.741 1902.82 348.829L1904.79 349.176ZM1895.94 399.401L1932.68 405.88L1933.37 401.941L1896.63 395.462L1895.94 399.401ZM1935 404.258L1936.66 394.813L1932.72 394.119L1931.06 403.563L1935 404.258ZM1935.04 392.497L1908.84 387.877L1908.15 391.817L1934.35 396.436L1935.04 392.497ZM1910.47 390.194L1912.25 380.061L1908.31 379.366L1906.53 389.5L1910.47 390.194ZM1909.94 381.683L1932.69 385.694L1933.38 381.755L1910.63 377.744L1909.94 381.683ZM1935 384.072L1936.67 374.628L1932.73 373.933L1931.06 383.377L1935 384.072ZM1935.05 372.311L1912.3 368.299L1911.6 372.239L1934.35 376.25L1935.05 372.311ZM1913.92 370.616L1915.64 360.827L1911.71 360.133L1909.98 369.922L1913.92 370.616ZM1913.33 362.45L1939.18 367.008L1939.87 363.069L1914.02 358.511L1913.33 362.45ZM1941.5 365.386L1943.16 355.941L1939.22 355.247L1937.56 364.691L1941.5 365.386ZM1941.54 353.624L1905.14 347.206L1904.45 351.146L1940.84 357.564L1941.54 353.624ZM1902.82 348.829L1894.31 397.084L1898.25 397.779L1906.76 349.523L1902.82 348.829ZM2008.47 387.431L2009.3 385.613L2009.3 385.609L2008.47 387.431ZM2017.86 382.973L2016.45 384.394C2016.83 384.768 2017.34 384.976 2017.87 384.973C2018.4 384.97 2018.91 384.756 2019.28 384.377L2017.86 382.973ZM2024.78 375.949L2026.21 377.353C2026.94 376.607 2026.98 375.419 2026.29 374.631L2024.78 375.949ZM2001.86 395.931L2002.68 394.11L2002.68 394.109L2001.86 395.931ZM1989.33 398.84L1990.85 397.542C1990.14 396.705 1988.88 396.602 1988.04 397.311L1989.33 398.84ZM1981.73 405.248L1980.44 403.719C1979.62 404.415 1979.49 405.639 1980.16 406.486L1981.73 405.248ZM2000.5 418.549C2006.02 419.522 2011.18 418.964 2015.26 416.691C2019.4 414.386 2022.23 410.432 2023.17 405.091L2019.23 404.397C2018.48 408.639 2016.33 411.519 2013.32 413.196C2010.25 414.904 2006.08 415.472 2001.19 414.61L2000.5 418.549ZM2023.17 405.091C2024.01 400.319 2023.07 396.457 2020.46 393.228C2017.95 390.127 2014.04 387.779 2009.3 385.613L2007.64 389.249C2012.25 391.36 2015.45 393.394 2017.35 395.743C2019.14 397.965 2019.9 400.621 2019.23 404.397L2023.17 405.091ZM2009.3 385.609C2005.25 383.776 2003.07 382.636 2001.93 381.66C2001.41 381.214 2001.24 380.906 2001.16 380.698C2001.09 380.491 2001.05 380.18 2001.15 379.601L1997.21 378.906C1997.03 379.912 1997.02 380.965 1997.39 382.025C1997.76 383.084 1998.45 383.945 1999.33 384.697C2000.98 386.115 2003.73 387.478 2007.65 389.253L2009.3 385.609ZM2001.15 379.601C2001.26 378.986 2001.58 378.527 2002.2 378.217C2002.88 377.877 2004.04 377.664 2005.8 377.974L2006.5 374.035C2004.19 373.628 2002.09 373.799 2000.41 374.642C1998.67 375.515 1997.54 377.039 1997.21 378.906L2001.15 379.601ZM2005.8 377.974C2009.3 378.59 2012.84 380.811 2016.45 384.394L2019.27 381.553C2015.38 377.7 2011.14 374.853 2006.5 374.035L2005.8 377.974ZM2019.28 384.377L2026.21 377.353L2023.36 374.545L2016.43 381.569L2019.28 384.377ZM2026.29 374.631C2021.78 369.49 2015.76 366.001 2008.29 364.684L2007.59 368.623C2014.19 369.785 2019.38 372.823 2023.28 377.267L2026.29 374.631ZM2008.29 364.684C2002.98 363.748 1998.01 364.478 1994.09 366.777C1990.13 369.093 1987.39 372.928 1986.52 377.874L1990.46 378.568C1991.13 374.759 1993.18 371.941 1996.11 370.228C1999.06 368.496 2003.04 367.82 2007.59 368.623L2008.29 364.684ZM1986.52 377.874C1985.57 383.242 1986.69 387.266 1989.56 390.478C1992.27 393.521 1996.41 395.665 2001.03 397.754L2002.68 394.109C1998.02 392.001 1994.62 390.15 1992.54 387.817C1990.61 385.653 1989.69 382.92 1990.46 378.568L1986.52 377.874ZM2001.03 397.753C2004.9 399.506 2006.88 400.678 2007.87 401.608C2008.31 402.034 2008.46 402.326 2008.52 402.513C2008.58 402.701 2008.61 402.964 2008.52 403.433L2012.46 404.128C2012.62 403.252 2012.65 402.298 2012.33 401.309C2012.02 400.317 2011.42 399.469 2010.62 398.704C2009.09 397.255 2006.51 395.847 2002.68 394.11L2001.03 397.753ZM2008.52 403.433C2008.38 404.24 2007.97 404.751 2007.23 405.079C2006.38 405.452 2005 405.615 2003.05 405.271L2002.36 409.21C2004.75 409.632 2007.01 409.547 2008.84 408.739C2010.77 407.887 2012.08 406.285 2012.46 404.128L2008.52 403.433ZM2003.05 405.271C1998.15 404.406 1994.38 401.68 1990.85 397.542L1987.81 400.138C1991.7 404.701 1996.23 408.13 2002.36 409.21L2003.05 405.271ZM1988.04 397.311L1980.44 403.719L1983.02 406.777L1990.62 400.369L1988.04 397.311ZM1980.16 406.486C1985.36 413.088 1992.74 417.181 2000.5 418.549L2001.19 414.61C1994.34 413.401 1987.86 409.791 1983.3 404.01L1980.16 406.486ZM2022.75 419.731L2021.07 418.64C2020.71 419.203 2020.65 419.912 2020.92 420.528C2021.18 421.144 2021.74 421.584 2022.4 421.701L2022.75 419.731ZM2033.57 421.639L2033.23 423.609C2034.03 423.75 2034.83 423.393 2035.27 422.705L2033.57 421.639ZM2039.89 411.594L2040.24 409.625C2039.44 409.484 2038.63 409.841 2038.2 410.529L2039.89 411.594ZM2060.3 415.192L2062.25 414.77C2062.08 413.976 2061.45 413.364 2060.65 413.223L2060.3 415.192ZM2062.8 426.793L2060.85 427.215C2061.02 428.01 2061.65 428.622 2062.46 428.763L2062.8 426.793ZM2073.9 428.75L2073.55 430.72C2074.22 430.837 2074.89 430.614 2075.35 430.126C2075.81 429.639 2076 428.953 2075.85 428.299L2073.9 428.75ZM2061.79 376.503L2063.74 376.052C2063.56 375.271 2062.93 374.673 2062.14 374.534L2061.79 376.503ZM2052 374.777L2052.35 372.808C2051.56 372.669 2050.76 373.014 2050.32 373.687L2052 374.777ZM2045.34 402.888L2043.65 401.819C2043.29 402.383 2043.24 403.087 2043.51 403.697C2043.78 404.306 2044.33 404.741 2044.99 404.857L2045.34 402.888ZM2054.51 388.369L2056.46 387.944C2056.29 387.151 2055.66 386.541 2054.86 386.4C2054.06 386.259 2053.25 386.615 2052.82 387.301L2054.51 388.369ZM2058.16 405.148L2057.81 407.118C2058.47 407.234 2059.14 407.015 2059.6 406.534C2060.06 406.054 2060.26 405.374 2060.11 404.723L2058.16 405.148ZM2022.4 421.701L2033.23 423.609L2033.92 419.67L2023.1 417.761L2022.4 421.701ZM2035.27 422.705L2041.59 412.659L2038.2 410.529L2031.88 420.574L2035.27 422.705ZM2039.55 413.564L2059.95 417.162L2060.65 413.223L2040.24 409.625L2039.55 413.564ZM2058.34 415.614L2060.85 427.215L2064.76 426.371L2062.25 414.77L2058.34 415.614ZM2062.46 428.763L2073.55 430.72L2074.25 426.781L2063.15 424.824L2062.46 428.763ZM2075.85 428.299L2063.74 376.052L2059.84 376.955L2071.95 429.202L2075.85 428.299ZM2062.14 374.534L2052.35 372.808L2051.65 376.747L2061.44 378.473L2062.14 374.534ZM2050.32 373.687L2021.07 418.64L2024.43 420.822L2053.68 375.868L2050.32 373.687ZM2047.03 403.956L2056.2 389.437L2052.82 387.301L2043.65 401.819L2047.03 403.956ZM2052.55 388.795L2056.21 405.574L2060.11 404.723L2056.46 387.944L2052.55 388.795ZM2058.51 403.179L2045.69 400.918L2044.99 404.857L2057.81 407.118L2058.51 403.179ZM2081.35 430.064L2079.38 429.716C2079.19 430.804 2079.91 431.841 2081 432.033L2081.35 430.064ZM2116.02 436.178L2115.68 438.147C2116.76 438.339 2117.8 437.613 2117.99 436.525L2116.02 436.178ZM2117.73 426.527L2119.7 426.874C2119.89 425.786 2119.16 424.749 2118.07 424.557L2117.73 426.527ZM2093.67 422.284L2091.7 421.937C2091.51 423.025 2092.23 424.062 2093.32 424.254L2093.67 422.284ZM2100.47 383.68L2102.44 384.027C2102.64 382.939 2101.91 381.902 2100.82 381.71L2100.47 383.68ZM2089.86 381.808L2090.21 379.838C2089.12 379.647 2088.08 380.373 2087.89 381.461L2089.86 381.808ZM2081 432.033L2115.68 438.147L2116.37 434.208L2081.7 428.094L2081 432.033ZM2117.99 436.525L2119.7 426.874L2115.76 426.179L2114.05 435.83L2117.99 436.525ZM2118.07 424.557L2094.01 420.315L2093.32 424.254L2117.38 428.496L2118.07 424.557ZM2095.64 422.632L2102.44 384.027L2098.5 383.333L2091.7 421.937L2095.64 422.632ZM2100.82 381.71L2090.21 379.838L2089.51 383.778L2100.13 385.65L2100.82 381.71ZM2087.89 381.461L2079.38 429.716L2083.32 430.411L2091.83 382.155L2087.89 381.461ZM2124.03 437.589L2122.06 437.242C2121.87 438.33 2122.6 439.367 2123.68 439.559L2124.03 437.589ZM2160.77 444.068L2160.43 446.038C2161.51 446.23 2162.55 445.503 2162.74 444.416L2160.77 444.068ZM2162.44 434.624L2164.41 434.971C2164.6 433.883 2163.87 432.846 2162.79 432.654L2162.44 434.624ZM2136.24 430.005L2134.27 429.658C2134.08 430.745 2134.81 431.783 2135.9 431.975L2136.24 430.005ZM2138.03 419.871L2138.38 417.902C2137.29 417.71 2136.25 418.436 2136.06 419.524L2138.03 419.871ZM2160.78 423.883L2160.43 425.852C2161.52 426.044 2162.56 425.318 2162.75 424.23L2160.78 423.883ZM2162.44 414.438L2164.41 414.786C2164.61 413.698 2163.88 412.66 2162.79 412.469L2162.44 414.438ZM2139.7 410.427L2137.73 410.08C2137.53 411.167 2138.26 412.205 2139.35 412.397L2139.7 410.427ZM2141.42 400.638L2141.77 398.668C2140.68 398.477 2139.64 399.203 2139.45 400.291L2141.42 400.638ZM2167.27 405.196L2166.93 407.166C2168.01 407.358 2169.05 406.631 2169.24 405.544L2167.27 405.196ZM2168.94 395.752L2170.91 396.099C2171.1 395.011 2170.37 393.974 2169.29 393.782L2168.94 395.752ZM2132.54 389.334L2132.89 387.364C2131.8 387.172 2130.76 387.899 2130.57 388.987L2132.54 389.334ZM2123.68 439.559L2160.43 446.038L2161.12 442.099L2124.38 435.62L2123.68 439.559ZM2162.74 444.416L2164.41 434.971L2160.47 434.277L2158.8 443.721L2162.74 444.416ZM2162.79 432.654L2136.59 428.035L2135.9 431.975L2162.09 436.594L2162.79 432.654ZM2138.21 430.352L2140 420.219L2136.06 419.524L2134.27 429.658L2138.21 430.352ZM2137.68 421.841L2160.43 425.852L2161.13 421.913L2138.38 417.902L2137.68 421.841ZM2162.75 424.23L2164.41 414.786L2160.47 414.091L2158.81 423.535L2162.75 424.23ZM2162.79 412.469L2140.04 408.457L2139.35 412.397L2162.1 416.408L2162.79 412.469ZM2141.66 410.774L2143.39 400.985L2139.45 400.291L2137.73 410.08L2141.66 410.774ZM2141.07 402.608L2166.93 407.166L2167.62 403.227L2141.77 398.668L2141.07 402.608ZM2169.24 405.544L2170.91 396.099L2166.97 395.405L2165.3 404.849L2169.24 405.544ZM2169.29 393.782L2132.89 387.364L2132.19 391.303L2168.59 397.722L2169.29 393.782ZM2130.57 388.987L2122.06 437.242L2126 437.937L2134.51 389.681L2130.57 388.987Z" fill="url(#paint1_linear)"/>
</g>
<defs>
<linearGradient id="paint0_linear" x1="28.0756" y1="49.4126" x2="2545.31" y2="19.4666" gradientUnits="userSpaceOnUse">
<stop offset="0.166667" stop-color="#00FFF0"/>
<stop offset="0.510417" stop-color="#003633"/>
<stop offset="0.838542" stop-color="#FB5ECF"/>
</linearGradient>
<linearGradient id="paint1_linear" x1="372.5" y1="115" x2="2210.5" y2="425.999" gradientUnits="userSpaceOnUse">
<stop offset="0.15625" stop-color="white"/>
<stop offset="0.505208" stop-color="#7B7B7B"/>
<stop offset="0.807292" stop-color="white"/>
</linearGradient>
</defs>
</svg>
