<svg width="2595" height="353" viewBox="0 0 2595 353" fill="none" xmlns="http://www.w3.org/2000/svg">
<rect x="0.853027" y="272.575" width="2600" height="80" transform="rotate(-6 0.853027 272.575)" fill="url(#paint0_linear)"/>
<path d="M1033.91 227.529C1047.87 226.061 1056.91 214.457 1055.56 201.593C1054.19 188.6 1043.08 179.245 1029.12 180.713C1015.15 182.181 1006.11 193.784 1007.46 206.648C1008.83 219.642 1019.94 228.996 1033.91 227.529ZM1033.07 218.336C1025.06 219.178 1018.69 213.312 1017.87 205.554C1017.04 197.668 1021.94 190.748 1029.95 189.906C1037.97 189.063 1044.34 194.93 1045.15 202.687C1045.98 210.574 1041.09 217.493 1033.07 218.336ZM1066.77 223.291L1076.72 222.244L1074.81 204.079L1093.17 202.15L1095.08 220.315L1105.04 219.268L1100.28 174.018L1090.33 175.064L1092.21 192.97L1073.85 194.9L1071.97 176.993L1062.01 178.04L1066.77 223.291ZM1117.14 172.246L1118.12 181.619C1120.69 205.99 1118.01 209.735 1112.64 210.299C1112 210.367 1111.54 210.35 1111.08 210.333L1111.29 218.611C1112.56 218.805 1114.97 218.812 1116.59 218.642C1126.93 217.555 1130.55 210.312 1127.75 183.679L1127.39 180.253L1140.45 178.88L1144.26 215.146L1154.22 214.099L1149.46 168.849L1117.14 172.246ZM1161.18 213.367L1171.33 212.301L1174.4 201.717L1193.54 199.706L1198.74 209.42L1209.15 208.326L1184.96 164.79L1175.79 165.755L1161.18 213.367ZM1177.03 192.551L1181.5 177.245L1189.06 191.288L1177.03 192.551ZM1250.36 158.244L1241.11 159.216L1224.32 190.98L1221.2 161.308L1211.38 162.341L1216.13 207.592L1225.51 206.607L1242.17 174.856L1245.29 204.528L1255.11 203.495L1250.36 158.244ZM1230.67 156.85C1236.61 156.224 1240.24 152.183 1240.49 145.882L1234.63 145.453C1234.07 148.191 1232.7 150.035 1229.98 150.32C1227.27 150.606 1225.54 149.088 1224.42 146.526L1218.77 148.165C1220.33 154.276 1224.72 157.475 1230.67 156.85ZM1266 202.35L1275.96 201.304L1274.05 183.139L1292.41 181.209L1294.32 199.374L1304.27 198.328L1299.52 153.077L1289.56 154.123L1291.44 172.03L1273.08 173.959L1271.2 156.053L1261.25 157.099L1266 202.35ZM1334.5 195.151L1344.45 194.105L1343 180.271L1347.66 174.291L1363.72 192.08L1375.68 190.823L1353.67 166.796L1370.08 145.661L1358.06 146.924L1341.78 168.635L1339.7 148.854L1329.74 149.9L1334.5 195.151ZM1398.61 166.844L1383.81 144.217L1372.7 145.386L1394.36 177.357C1392.84 180.327 1390.86 181.384 1389.05 181.575C1387.3 181.758 1385.45 181.56 1383.53 180.652L1380.42 188.364C1383.43 189.681 1386.58 190.396 1390.46 189.989C1396.79 189.323 1400.99 185.744 1404.1 177.443L1417.82 140.643L1407.02 141.778L1398.61 166.844ZM1429.19 185.198L1439.15 184.152L1435.34 147.887L1453.18 146.012L1456.99 182.277L1466.94 181.231L1462.19 135.98L1424.44 139.948L1429.19 185.198ZM1494.69 156.746L1479.9 134.118L1468.78 135.287L1490.44 167.258C1488.92 170.228 1486.94 171.286 1485.13 171.476C1483.39 171.659 1481.53 171.462 1479.61 170.553L1476.5 178.266C1479.51 179.583 1482.66 180.298 1486.54 179.89C1492.87 179.224 1497.07 175.646 1500.19 167.345L1513.9 130.545L1503.1 131.679L1494.69 156.746ZM1559.5 125.752L1550.25 126.724L1533.46 158.488L1530.34 128.816L1520.52 129.849L1525.27 175.1L1534.65 174.115L1551.31 142.364L1554.43 172.036L1564.25 171.003L1559.5 125.752ZM1539.81 124.357C1545.76 123.732 1549.38 119.691 1549.64 113.39L1543.77 112.96C1543.21 115.699 1541.84 117.543 1539.12 117.828C1536.41 118.114 1534.68 116.596 1533.56 114.034L1527.92 115.673C1529.47 121.784 1533.86 124.982 1539.81 124.357Z" fill="white"/>
<path d="M404.588 295.343L402.599 295.552C402.714 296.65 403.698 297.447 404.797 297.332L404.588 295.343ZM432.096 268.53L430.942 266.897C430.308 267.345 429.99 268.119 430.127 268.883C430.264 269.647 430.83 270.263 431.58 270.463L432.096 268.53ZM433.092 250.648L431.833 252.202L431.833 252.202L433.092 250.648ZM399.832 250.092L399.623 248.103C398.524 248.218 397.727 249.202 397.843 250.301L399.832 250.092ZM411.451 267.367L409.462 267.576C409.577 268.674 410.562 269.471 411.66 269.356L411.451 267.367ZM410.445 257.8L410.236 255.811C409.138 255.926 408.341 256.91 408.456 258.009L410.445 257.8ZM413.367 285.596L411.378 285.805C411.493 286.904 412.478 287.701 413.576 287.585L413.367 285.596ZM412.321 275.641L412.112 273.652C411.013 273.768 410.216 274.752 410.332 275.85L412.321 275.641ZM404.797 297.332L426.323 295.069L425.905 291.091L404.379 293.353L404.797 297.332ZM426.323 295.069C431.655 294.509 436.234 292.942 439.398 290.195C442.652 287.369 444.236 283.438 443.735 278.679L439.757 279.097C440.127 282.613 439.001 285.241 436.775 287.174C434.459 289.186 430.787 290.578 425.905 291.091L426.323 295.069ZM443.735 278.679C443.37 275.205 442.162 272.519 440.125 270.505C438.128 268.53 435.504 267.37 432.611 266.598L431.58 270.463C434.135 271.144 436.009 272.06 437.313 273.349C438.576 274.599 439.47 276.366 439.757 279.097L443.735 278.679ZM433.25 270.164C434.934 268.974 436.549 267.44 437.656 265.4C438.778 263.335 439.314 260.866 439.006 257.935L435.028 258.353C435.257 260.528 434.854 262.179 434.141 263.492C433.414 264.831 432.3 265.937 430.942 266.897L433.25 270.164ZM439.006 257.935C438.615 254.211 437.076 251.301 434.351 249.094L431.833 252.202C433.68 253.698 434.74 255.613 435.028 258.353L439.006 257.935ZM434.351 249.094C430.949 246.339 426.134 245.316 420.632 245.895L421.05 249.873C425.891 249.364 429.52 250.329 431.833 252.202L434.351 249.094ZM420.632 245.895L399.623 248.103L400.041 252.081L421.05 249.873L420.632 245.895ZM397.843 250.301L402.599 295.552L406.577 295.133L401.821 249.883L397.843 250.301ZM413.44 267.158L412.435 257.59L408.456 258.009L409.462 267.576L413.44 267.158ZM410.655 259.789L420.48 258.756L420.062 254.778L410.236 255.811L410.655 259.789ZM420.48 258.756C422.36 258.558 423.564 258.819 424.252 259.21C424.837 259.542 425.206 260.048 425.301 260.944L429.279 260.526C429.06 258.448 428.021 256.749 426.226 255.731C424.534 254.77 422.384 254.534 420.062 254.778L420.48 258.756ZM425.301 260.944C425.418 262.06 425.089 262.672 424.502 263.138C423.777 263.715 422.467 264.198 420.421 264.413L420.84 268.391C423.19 268.144 425.393 267.539 426.99 266.27C428.726 264.891 429.528 262.9 429.279 260.526L425.301 260.944ZM420.421 264.413L411.242 265.378L411.66 269.356L420.84 268.391L420.421 264.413ZM415.356 285.387L414.31 275.432L410.332 275.85L411.378 285.805L415.356 285.387ZM412.53 277.63L424.036 276.421L423.618 272.443L412.112 273.652L412.53 277.63ZM424.036 276.421C426.401 276.172 427.812 276.472 428.591 276.907C429.245 277.272 429.624 277.822 429.724 278.779L433.702 278.361C433.483 276.28 432.472 274.492 430.54 273.414C428.732 272.405 426.361 272.155 423.618 272.443L424.036 276.421ZM429.724 278.779C429.846 279.941 429.514 280.593 428.95 281.07C428.266 281.649 427.009 282.152 424.988 282.364L425.406 286.342C427.781 286.093 429.966 285.449 431.532 284.125C433.218 282.699 433.947 280.69 433.702 278.361L429.724 278.779ZM424.988 282.364L413.158 283.607L413.576 287.585L425.406 286.342L424.988 282.364ZM447.448 300.38L445.459 300.589C445.575 301.688 446.559 302.484 447.657 302.369L447.448 300.38ZM456.434 299.436L456.643 301.425C457.689 301.315 458.471 300.414 458.432 299.363L456.434 299.436ZM456.088 289.93L455.879 287.941C454.833 288.05 454.051 288.951 454.09 290.002L456.088 289.93ZM484.402 286.954L486.391 286.745C486.276 285.646 485.292 284.849 484.193 284.965L484.402 286.954ZM485.394 296.392L483.405 296.601C483.521 297.699 484.505 298.496 485.603 298.381L485.394 296.392ZM493.733 295.515L493.942 297.504C494.987 297.394 495.768 296.496 495.732 295.446L493.733 295.515ZM493.09 276.956L495.089 276.887C495.069 276.332 494.821 275.811 494.402 275.447C493.983 275.083 493.432 274.909 492.881 274.967L493.09 276.956ZM487.66 277.527L485.671 277.736C485.786 278.834 486.77 279.631 487.869 279.516L487.66 277.527ZM483.848 241.261L485.837 241.052C485.722 239.954 484.738 239.157 483.639 239.272L483.848 241.261ZM450.944 244.72L450.735 242.731C449.637 242.846 448.84 243.83 448.955 244.929L450.944 244.72ZM449.778 281.508L449.987 283.497C450.782 283.414 451.451 282.865 451.688 282.101L449.778 281.508ZM445.512 281.956L445.303 279.967C444.204 280.083 443.407 281.067 443.523 282.166L445.512 281.956ZM474.837 251.293L476.826 251.084C476.711 249.986 475.727 249.189 474.628 249.304L474.837 251.293ZM477.705 278.573L477.914 280.562C479.012 280.446 479.809 279.462 479.694 278.364L477.705 278.573ZM460.251 280.407L458.332 279.842C458.144 280.483 458.287 281.175 458.714 281.687C459.141 282.2 459.796 282.466 460.46 282.396L460.251 280.407ZM461.456 252.7L461.247 250.711C460.148 250.826 459.352 251.81 459.467 252.909L461.456 252.7ZM447.657 302.369L456.643 301.425L456.225 297.447L447.239 298.391L447.657 302.369ZM458.432 299.363L458.087 289.857L454.09 290.002L454.435 299.508L458.432 299.363ZM456.297 291.919L484.611 288.943L484.193 284.965L455.879 287.941L456.297 291.919ZM482.413 287.163L483.405 296.601L487.383 296.183L486.391 286.745L482.413 287.163ZM485.603 298.381L493.942 297.504L493.524 293.526L485.185 294.403L485.603 298.381ZM495.732 295.446L495.089 276.887L491.091 277.025L491.735 295.585L495.732 295.446ZM492.881 274.967L487.451 275.537L487.869 279.516L493.299 278.945L492.881 274.967ZM489.649 277.317L485.837 241.052L481.859 241.47L485.671 277.736L489.649 277.317ZM483.639 239.272L450.735 242.731L451.153 246.709L484.057 243.25L483.639 239.272ZM448.955 244.929L449.512 250.229L453.49 249.811L452.933 244.511L448.955 244.929ZM449.512 250.229C451.118 265.509 450.302 273.08 447.868 280.915L451.688 282.101C454.333 273.586 455.132 265.432 453.49 249.811L449.512 250.229ZM449.569 279.519L445.303 279.967L445.721 283.945L449.987 283.497L449.569 279.519ZM443.523 282.166L445.459 300.589L449.437 300.171L447.501 281.747L443.523 282.166ZM472.848 251.502L475.715 278.782L479.694 278.364L476.826 251.084L472.848 251.502ZM477.495 276.584L460.042 278.418L460.46 282.396L477.914 280.562L477.495 276.584ZM462.169 280.972C464.177 274.155 464.958 266.881 463.927 257.08L459.949 257.498C460.93 266.832 460.178 273.575 458.332 279.842L462.169 280.972ZM463.927 257.08L463.445 252.49L459.467 252.909L459.949 257.498L463.927 257.08ZM461.665 254.689L475.046 253.282L474.628 249.304L461.247 250.711L461.665 254.689ZM523.255 285.665C538.299 284.084 548.157 271.512 546.688 257.532L542.709 257.95C543.944 269.698 535.719 280.333 522.837 281.687L523.255 285.665ZM546.688 257.532C545.205 243.429 533.098 233.29 518.047 234.872L518.465 238.85C531.34 237.496 541.46 246.066 542.709 257.95L546.688 257.532ZM518.047 234.872C503.003 236.453 493.145 249.025 494.614 263.005L498.593 262.587C497.358 250.839 505.583 240.204 518.465 238.85L518.047 234.872ZM494.614 263.005C496.097 277.108 508.204 287.247 523.255 285.665L522.837 281.687C509.962 283.041 499.842 274.471 498.593 262.587L494.614 263.005ZM522.001 272.494C515.203 273.209 509.713 268.275 509 261.493L505.022 261.911C505.94 270.644 513.186 277.443 522.419 276.472L522.001 272.494ZM509 261.493C508.272 254.568 512.515 248.756 519.301 248.043L518.883 244.065C509.636 245.036 504.092 253.063 505.022 261.911L509 261.493ZM519.301 248.043C526.099 247.328 531.589 252.262 532.302 259.044L536.28 258.626C535.362 249.893 528.116 243.094 518.883 244.065L519.301 248.043ZM532.302 259.044C533.03 265.969 528.787 271.781 522.001 272.494L522.419 276.472C531.666 275.501 537.21 267.474 536.28 258.626L532.302 259.044ZM555.908 279.438L553.918 279.647C554.034 280.746 555.018 281.543 556.117 281.427L555.908 279.438ZM565.669 278.412L565.878 280.401C566.976 280.286 567.773 279.302 567.658 278.203L565.669 278.412ZM562.584 249.064L564.13 247.795C563.57 247.112 562.628 246.878 561.813 247.219C560.998 247.559 560.503 248.394 560.595 249.273L562.584 249.064ZM577.201 266.874L575.655 268.142C576.082 268.662 576.741 268.933 577.41 268.863L577.201 266.874ZM577.459 266.846L577.668 268.835C578.337 268.765 578.926 268.363 579.235 267.766L577.459 266.846ZM588.163 246.179L590.152 245.97C590.059 245.092 589.402 244.378 588.534 244.214C587.666 244.05 586.793 244.475 586.387 245.26L588.163 246.179ZM591.268 275.722L589.279 275.931C589.394 277.029 590.378 277.826 591.477 277.711L591.268 275.722ZM601.158 274.682L601.367 276.671C602.466 276.556 603.263 275.572 603.147 274.473L601.158 274.682ZM596.402 229.431L598.391 229.222C598.276 228.124 597.292 227.327 596.193 227.442L596.402 229.431ZM585.671 230.559L585.462 228.57C584.775 228.642 584.173 229.065 583.872 229.687L585.671 230.559ZM575.788 250.944L574.209 252.172C574.633 252.717 575.31 253.005 575.997 252.933C576.685 252.861 577.286 252.439 577.588 251.817L575.788 250.944ZM561.882 233.06L563.461 231.832C563.037 231.286 562.361 230.998 561.673 231.071L561.882 233.06ZM551.151 234.187L550.942 232.198C549.844 232.314 549.047 233.298 549.162 234.396L551.151 234.187ZM556.117 281.427L565.878 280.401L565.46 276.423L555.698 277.449L556.117 281.427ZM567.658 278.203L564.573 248.855L560.595 249.273L563.68 278.621L567.658 278.203ZM561.038 250.333L575.655 268.142L578.747 265.605L564.13 247.795L561.038 250.333ZM577.41 268.863L577.668 268.835L577.25 264.857L576.992 264.885L577.41 268.863ZM579.235 267.766L589.939 247.099L586.387 245.26L575.683 265.927L579.235 267.766ZM586.174 246.388L589.279 275.931L593.257 275.513L590.152 245.97L586.174 246.388ZM591.477 277.711L601.367 276.671L600.949 272.693L591.059 273.733L591.477 277.711ZM603.147 274.473L598.391 229.222L594.413 229.64L599.169 274.891L603.147 274.473ZM596.193 227.442L585.462 228.57L585.88 232.548L596.611 231.42L596.193 227.442ZM583.872 229.687L573.988 250.071L577.588 251.817L587.471 231.432L583.872 229.687ZM577.367 249.716L563.461 231.832L560.303 234.287L574.209 252.172L577.367 249.716ZM561.673 231.071L550.942 232.198L551.361 236.176L562.091 235.049L561.673 231.071ZM549.162 234.396L553.918 279.647L557.897 279.229L553.141 233.978L549.162 234.396ZM608.15 273.947L606.238 273.361C606.041 274.003 606.18 274.7 606.607 275.219C607.033 275.737 607.692 276.006 608.359 275.936L608.15 273.947ZM618.3 272.881L618.509 274.87C619.317 274.785 619.994 274.219 620.22 273.438L618.3 272.881ZM621.37 262.297L621.161 260.308C620.352 260.393 619.676 260.958 619.449 261.739L621.37 262.297ZM640.505 260.285L642.268 259.341C641.884 258.624 641.104 258.211 640.296 258.296L640.505 260.285ZM645.709 270L643.946 270.944C644.329 271.661 645.109 272.074 645.918 271.989L645.709 270ZM656.116 268.906L656.325 270.895C656.993 270.825 657.581 270.424 657.891 269.829C658.2 269.233 658.191 268.522 657.865 267.935L656.116 268.906ZM631.933 225.37L633.681 224.399C633.292 223.698 632.521 223.297 631.724 223.381L631.933 225.37ZM622.754 226.335L622.545 224.346C621.747 224.43 621.077 224.982 620.841 225.748L622.754 226.335ZM624.001 253.131L622.082 252.571C621.895 253.211 622.039 253.901 622.466 254.413C622.893 254.925 623.548 255.19 624.21 255.12L624.001 253.131ZM628.471 237.825L630.232 236.878C629.848 236.163 629.069 235.751 628.262 235.836C627.455 235.921 626.779 236.485 626.551 237.265L628.471 237.825ZM636.025 251.868L636.234 253.857C636.897 253.787 637.482 253.392 637.793 252.802C638.105 252.213 638.102 251.507 637.786 250.92L636.025 251.868ZM608.359 275.936L618.509 274.87L618.09 270.891L607.941 271.958L608.359 275.936ZM620.22 273.438L623.291 262.854L619.449 261.739L616.379 272.323L620.22 273.438ZM621.579 264.286L640.714 262.274L640.296 258.296L621.161 260.308L621.579 264.286ZM638.742 261.23L643.946 270.944L647.472 269.055L642.268 259.341L638.742 261.23ZM645.918 271.989L656.325 270.895L655.907 266.917L645.499 268.011L645.918 271.989ZM657.865 267.935L633.681 224.399L630.185 226.341L654.368 269.877L657.865 267.935ZM631.724 223.381L622.545 224.346L622.963 228.324L632.142 227.359L631.724 223.381ZM620.841 225.748L606.238 273.361L610.063 274.534L624.666 226.921L620.841 225.748ZM625.921 253.692L630.391 238.386L626.551 237.265L622.082 252.571L625.921 253.692ZM626.71 238.773L634.264 252.815L637.786 250.92L630.232 236.878L626.71 238.773ZM635.816 249.879L623.792 251.142L624.21 255.12L636.234 253.857L635.816 249.879ZM682.481 266.135L680.492 266.344C680.607 267.442 681.591 268.239 682.69 268.124L682.481 266.135ZM692.436 265.088L692.645 267.077C693.744 266.962 694.541 265.978 694.425 264.879L692.436 265.088ZM690.982 251.255L689.405 250.024C689.087 250.433 688.939 250.949 688.993 251.464L690.982 251.255ZM695.647 245.274L697.132 243.934C696.736 243.496 696.167 243.254 695.576 243.275C694.985 243.297 694.434 243.578 694.071 244.044L695.647 245.274ZM711.7 263.064L710.215 264.404C710.643 264.878 711.273 265.12 711.909 265.053L711.7 263.064ZM723.659 261.807L723.868 263.796C724.619 263.717 725.262 263.222 725.529 262.516C725.797 261.81 725.644 261.013 725.134 260.456L723.659 261.807ZM701.657 237.78L700.077 236.554C699.48 237.323 699.524 238.412 700.182 239.131L701.657 237.78ZM718.063 216.644L719.643 217.871C720.134 217.238 720.2 216.372 719.81 215.672C719.421 214.972 718.651 214.572 717.854 214.655L718.063 216.644ZM706.039 217.908L705.83 215.919C705.277 215.977 704.772 216.263 704.439 216.708L706.039 217.908ZM689.759 239.619L687.77 239.828C687.856 240.646 688.434 241.328 689.227 241.547C690.02 241.765 690.866 241.477 691.359 240.819L689.759 239.619ZM687.68 219.838L689.669 219.629C689.554 218.53 688.569 217.733 687.471 217.849L687.68 219.838ZM677.725 220.884L677.516 218.895C676.417 219.01 675.62 219.995 675.736 221.093L677.725 220.884ZM682.69 268.124L692.645 267.077L692.227 263.099L682.272 264.146L682.69 268.124ZM694.425 264.879L692.971 251.046L688.993 251.464L690.447 265.297L694.425 264.879ZM692.559 252.485L697.224 246.504L694.071 244.044L689.405 250.024L692.559 252.485ZM694.163 246.614L710.215 264.404L713.185 261.724L697.132 243.934L694.163 246.614ZM711.909 265.053L723.868 263.796L723.45 259.818L711.491 261.075L711.909 265.053ZM725.134 260.456L703.132 236.429L700.182 239.131L722.184 263.157L725.134 260.456ZM703.237 239.006L719.643 217.871L716.483 215.418L700.077 236.554L703.237 239.006ZM717.854 214.655L705.83 215.919L706.248 219.897L718.272 218.633L717.854 214.655ZM704.439 216.708L688.159 238.419L691.359 240.819L707.639 219.108L704.439 216.708ZM691.748 239.41L689.669 219.629L685.691 220.047L687.77 239.828L691.748 239.41ZM687.471 217.849L677.516 218.895L677.934 222.873L687.889 221.827L687.471 217.849ZM675.736 221.093L680.492 266.344L684.47 265.926L679.714 220.675L675.736 221.093ZM725.823 261.579L723.91 260.993C723.714 261.635 723.852 262.333 724.279 262.851C724.706 263.369 725.364 263.639 726.032 263.568L725.823 261.579ZM735.972 260.513L736.181 262.502C736.989 262.417 737.666 261.851 737.892 261.07L735.972 260.513ZM739.042 249.929L738.833 247.94C738.025 248.025 737.348 248.591 737.121 249.371L739.042 249.929ZM758.177 247.918L759.94 246.973C759.556 246.257 758.776 245.844 757.968 245.929L758.177 247.918ZM763.381 257.632L761.618 258.576C762.002 259.293 762.781 259.706 763.59 259.621L763.381 257.632ZM773.788 256.538L773.997 258.527C774.665 258.457 775.253 258.056 775.563 257.461C775.873 256.865 775.863 256.154 775.537 255.567L773.788 256.538ZM749.605 213.002L751.354 212.031C750.964 211.33 750.194 210.929 749.396 211.013L749.605 213.002ZM740.426 213.967L740.217 211.978C739.419 212.062 738.749 212.614 738.514 213.381L740.426 213.967ZM741.674 240.763L739.754 240.203C739.567 240.843 739.711 241.534 740.138 242.045C740.566 242.557 741.22 242.822 741.883 242.753L741.674 240.763ZM746.143 225.457L747.904 224.51C747.52 223.795 746.741 223.384 745.934 223.468C745.127 223.553 744.451 224.118 744.223 224.897L746.143 225.457ZM753.697 239.5L753.906 241.489C754.569 241.419 755.154 241.024 755.465 240.434C755.777 239.845 755.774 239.139 755.459 238.552L753.697 239.5ZM726.032 263.568L736.181 262.502L735.763 258.524L725.614 259.59L726.032 263.568ZM737.892 261.07L740.963 250.486L737.121 249.371L734.051 259.955L737.892 261.07ZM739.251 251.918L758.386 249.907L757.968 245.929L738.833 247.94L739.251 251.918ZM756.414 248.862L761.618 258.576L765.144 256.687L759.94 246.973L756.414 248.862ZM763.59 259.621L773.997 258.527L773.579 254.549L763.172 255.643L763.59 259.621ZM775.537 255.567L751.354 212.031L747.857 213.973L772.04 257.509L775.537 255.567ZM749.396 211.013L740.217 211.978L740.635 215.956L749.814 214.991L749.396 211.013ZM738.514 213.381L723.91 260.993L727.735 262.166L742.338 214.554L738.514 213.381ZM743.593 241.324L748.063 226.018L744.223 224.897L739.754 240.203L743.593 241.324ZM744.382 226.405L751.936 240.447L755.459 238.552L747.904 224.51L744.382 226.405ZM753.488 237.511L741.464 238.774L741.883 242.753L753.906 241.489L753.488 237.511ZM814.997 206.456L816.986 206.247C816.87 205.149 815.886 204.352 814.788 204.467L814.997 206.456ZM805.753 207.428L805.544 205.439C804.881 205.508 804.296 205.904 803.984 206.493L805.753 207.428ZM788.961 239.192L786.972 239.401C787.064 240.276 787.717 240.989 788.582 241.156C789.446 241.323 790.318 240.905 790.729 240.127L788.961 239.192ZM785.842 209.52L787.831 209.311C787.716 208.213 786.732 207.416 785.633 207.531L785.842 209.52ZM776.016 210.553L775.807 208.564C774.709 208.68 773.912 209.664 774.027 210.762L776.016 210.553ZM780.772 255.804L778.783 256.013C778.899 257.111 779.883 257.908 780.981 257.793L780.772 255.804ZM790.146 254.819L790.355 256.808C791.02 256.738 791.606 256.34 791.917 255.748L790.146 254.819ZM806.808 223.068L808.797 222.859C808.705 221.983 808.05 221.27 807.185 221.104C806.319 220.938 805.447 221.358 805.037 222.139L806.808 223.068ZM809.927 252.74L807.938 252.949C808.053 254.047 809.037 254.844 810.136 254.729L809.927 252.74ZM819.753 251.707L819.962 253.696C821.06 253.581 821.857 252.596 821.742 251.498L819.753 251.707ZM805.135 194.094L807.134 194.174C807.177 193.096 806.358 192.178 805.282 192.1L805.135 194.094ZM799.273 193.665L799.42 191.67C798.417 191.597 797.516 192.278 797.314 193.263L799.273 193.665ZM789.06 194.738L790.893 193.938C790.49 193.017 789.467 192.537 788.502 192.817L789.06 194.738ZM783.415 196.377L782.857 194.456C781.821 194.757 781.211 195.826 781.477 196.871L783.415 196.377ZM814.788 204.467L805.544 205.439L805.962 209.417L815.206 208.445L814.788 204.467ZM803.984 206.493L787.193 238.257L790.729 240.127L807.521 208.362L803.984 206.493ZM790.95 238.983L787.831 209.311L783.853 209.729L786.972 239.401L790.95 238.983ZM785.633 207.531L775.807 208.564L776.225 212.542L786.051 211.509L785.633 207.531ZM774.027 210.762L778.783 256.013L782.761 255.595L778.005 210.344L774.027 210.762ZM780.981 257.793L790.355 256.808L789.937 252.83L780.563 253.815L780.981 257.793ZM791.917 255.748L808.579 223.997L805.037 222.139L788.375 253.889L791.917 255.748ZM804.819 223.277L807.938 252.949L811.916 252.531L808.797 222.859L804.819 223.277ZM810.136 254.729L819.962 253.696L819.544 249.718L809.718 250.751L810.136 254.729ZM821.742 251.498L816.986 206.247L813.008 206.665L817.764 251.916L821.742 251.498ZM795.517 207.051C798.908 206.694 801.786 205.339 803.846 203.041C805.899 200.752 806.993 197.691 807.134 194.174L803.137 194.014C803.025 196.798 802.179 198.908 800.868 200.371C799.564 201.825 797.655 202.804 795.099 203.073L795.517 207.051ZM805.282 192.1L799.42 191.67L799.127 195.659L804.989 196.089L805.282 192.1ZM797.314 193.263C797.076 194.427 796.702 195.198 796.267 195.682C795.871 196.123 795.319 196.448 794.413 196.543L794.831 200.522C796.639 200.331 798.132 199.592 799.243 198.355C800.315 197.161 800.91 195.641 801.233 194.067L797.314 193.263ZM794.413 196.543C793.506 196.639 792.898 196.435 792.42 196.087C791.894 195.703 791.368 195.026 790.893 193.938L787.227 195.539C787.87 197.012 788.768 198.375 790.064 199.32C791.409 200.299 793.023 200.712 794.831 200.522L794.413 196.543ZM788.502 192.817L782.857 194.456L783.973 198.298L789.617 196.659L788.502 192.817ZM781.477 196.871C782.346 200.282 784.053 203.048 786.536 204.861C789.029 206.68 792.126 207.407 795.517 207.051L795.099 203.073C792.543 203.341 790.472 202.781 788.894 201.63C787.308 200.472 786.041 198.583 785.353 195.883L781.477 196.871ZM856.742 213.441L856.533 211.452C855.434 211.567 854.637 212.551 854.753 213.65L856.742 213.441ZM859.059 235.484L857.07 235.693C857.185 236.792 858.169 237.589 859.268 237.473L859.059 235.484ZM860.506 249.254L860.715 251.243C861.814 251.127 862.611 250.143 862.495 249.045L860.506 249.254ZM859.99 244.341L859.781 242.352C858.682 242.467 857.885 243.451 858.001 244.55L859.99 244.341ZM855.811 204.585L853.822 204.794C853.938 205.892 854.922 206.689 856.02 206.574L855.811 204.585ZM855.376 200.447L857.365 200.238C857.25 199.14 856.266 198.343 855.167 198.458L855.376 200.447ZM845.421 201.494L845.212 199.505C844.114 199.62 843.317 200.604 843.432 201.703L845.421 201.494ZM845.856 205.631L846.065 207.62C847.164 207.505 847.96 206.52 847.845 205.422L845.856 205.631ZM850.034 245.387L852.024 245.178C851.908 244.079 850.924 243.282 849.825 243.398L850.034 245.387ZM850.551 250.3L848.562 250.509C848.677 251.608 849.661 252.404 850.76 252.289L850.551 250.3ZM849.104 236.531L849.313 238.52C850.411 238.404 851.208 237.42 851.093 236.322L849.104 236.531ZM846.787 214.487L848.776 214.278C848.66 213.18 847.676 212.383 846.578 212.498L846.787 214.487ZM856.951 215.43C860.216 215.087 862.848 215.785 864.697 217.13C866.523 218.458 867.765 220.543 868.061 223.362L872.039 222.944C871.636 219.105 869.875 215.95 867.049 213.895C864.245 211.856 860.573 211.027 856.533 211.452L856.951 215.43ZM868.061 223.362C868.365 226.255 867.579 228.566 866.074 230.239C864.55 231.933 862.122 233.151 858.85 233.495L859.268 237.473C863.3 237.05 866.725 235.496 869.048 232.914C871.391 230.309 872.448 226.838 872.039 222.944L868.061 223.362ZM861.048 235.275L858.731 213.232L854.753 213.65L857.07 235.693L861.048 235.275ZM862.495 249.045L861.979 244.132L858.001 244.55L858.517 249.463L862.495 249.045ZM860.199 246.33C867.595 245.552 873.473 242.609 877.344 238.173C881.221 233.731 882.956 227.935 882.304 221.734L878.326 222.152C878.87 227.329 877.424 231.998 874.33 235.543C871.23 239.095 866.348 241.661 859.781 242.352L860.199 246.33ZM882.304 221.734C881.651 215.52 878.714 210.29 873.981 206.837C869.263 203.394 862.917 201.827 855.602 202.596L856.02 206.574C862.539 205.889 867.847 207.312 871.623 210.068C875.385 212.813 877.783 216.989 878.326 222.152L882.304 221.734ZM857.8 204.376L857.365 200.238L853.387 200.656L853.822 204.794L857.8 204.376ZM855.167 198.458L845.212 199.505L845.63 203.483L855.585 202.436L855.167 198.458ZM843.432 201.703L843.867 205.84L847.845 205.422L847.41 201.285L843.432 201.703ZM845.647 203.642C838.301 204.414 832.42 207.265 828.526 211.606C824.621 215.96 822.851 221.669 823.501 227.849L827.479 227.431C826.94 222.299 828.404 217.734 831.504 214.277C834.616 210.806 839.512 208.309 846.065 207.62L845.647 203.642ZM823.501 227.849C824.156 234.08 827.057 239.404 831.775 242.953C836.485 246.496 842.847 248.153 850.244 247.376L849.825 243.398C843.259 244.088 837.95 242.593 834.179 239.756C830.416 236.926 828.027 232.643 827.479 227.431L823.501 227.849ZM848.045 245.596L848.562 250.509L852.54 250.091L852.024 245.178L848.045 245.596ZM850.76 252.289L860.715 251.243L860.297 247.265L850.342 248.311L850.76 252.289ZM848.895 234.542C845.621 234.886 842.974 234.201 841.112 232.857C839.276 231.532 838.016 229.437 837.713 226.552L833.735 226.97C834.145 230.873 835.923 234.046 838.772 236.101C841.595 238.138 845.281 238.944 849.313 238.52L848.895 234.542ZM837.713 226.552C837.418 223.741 838.209 221.443 839.736 219.758C841.282 218.052 843.73 216.819 846.996 216.476L846.578 212.498C842.539 212.923 839.106 214.497 836.772 217.072C834.419 219.668 833.331 223.122 833.735 226.97L837.713 226.552ZM844.798 214.696L847.115 236.74L851.093 236.322L848.776 214.278L844.798 214.696ZM907.762 220.889L906.088 221.983C906.507 222.625 907.256 222.97 908.016 222.872C908.776 222.775 909.414 222.251 909.658 221.525L907.762 220.889ZM892.965 198.261L894.639 197.167C894.229 196.539 893.502 196.194 892.756 196.272L892.965 198.261ZM881.847 199.43L881.638 197.441C880.939 197.514 880.329 197.949 880.033 198.587C879.737 199.224 879.797 199.97 880.191 200.552L881.847 199.43ZM903.507 231.401L905.288 232.311C905.62 231.662 905.572 230.883 905.163 230.279L903.507 231.401ZM892.677 234.696L893.531 232.887C893.033 232.652 892.46 232.633 891.948 232.834C891.435 233.034 891.028 233.437 890.822 233.948L892.677 234.696ZM889.566 242.408L887.712 241.66C887.307 242.664 887.774 243.808 888.766 244.241L889.566 242.408ZM913.255 231.488L915.127 232.19L915.129 232.186L913.255 231.488ZM926.968 194.687L928.842 195.386C929.084 194.737 928.973 194.009 928.549 193.462C928.125 192.915 927.448 192.626 926.759 192.698L926.968 194.687ZM916.173 195.822L915.963 193.833C915.185 193.915 914.525 194.444 914.276 195.186L916.173 195.822ZM909.436 219.794L894.639 197.167L891.291 199.356L906.088 221.983L909.436 219.794ZM892.756 196.272L881.638 197.441L882.056 201.419L893.174 200.25L892.756 196.272ZM880.191 200.552L901.851 232.523L905.163 230.279L883.502 198.308L880.191 200.552ZM901.726 230.491C900.481 232.928 899.053 233.518 897.99 233.63L898.408 237.608C900.964 237.339 903.498 235.814 905.288 232.311L901.726 230.491ZM897.99 233.63C896.56 233.78 895.083 233.62 893.531 232.887L891.824 236.505C894.122 237.589 896.348 237.825 898.408 237.608L897.99 233.63ZM890.822 233.948L887.712 241.66L891.421 243.157L894.532 235.444L890.822 233.948ZM888.766 244.241C892.039 245.672 895.534 246.472 899.815 246.022L899.397 242.044C895.921 242.409 893.122 241.779 890.367 240.576L888.766 244.241ZM899.815 246.022C903.338 245.652 906.388 244.448 908.979 242.107C911.532 239.801 913.506 236.51 915.127 232.19L911.382 230.785C909.888 234.766 908.206 237.415 906.297 239.139C904.427 240.83 902.209 241.748 899.397 242.044L899.815 246.022ZM915.129 232.186L928.842 195.386L925.094 193.989L911.38 230.789L915.129 232.186ZM926.759 192.698L915.963 193.833L916.382 197.811L927.177 196.677L926.759 192.698ZM914.276 195.186L905.866 220.252L909.658 221.525L918.069 196.458L914.276 195.186ZM972.566 189.895L974.555 189.686C974.44 188.587 973.456 187.79 972.357 187.906L972.566 189.895ZM963.322 190.867L963.113 188.877C962.45 188.947 961.866 189.343 961.554 189.932L963.322 190.867ZM946.53 222.631L944.541 222.84C944.633 223.715 945.287 224.428 946.151 224.594C947.015 224.761 947.887 224.344 948.299 223.565L946.53 222.631ZM943.412 192.959L945.401 192.75C945.285 191.652 944.301 190.855 943.203 190.97L943.412 192.959ZM933.586 193.992L933.377 192.003C932.278 192.118 931.481 193.102 931.597 194.201L933.586 193.992ZM938.342 239.243L936.353 239.452C936.468 240.55 937.453 241.347 938.551 241.232L938.342 239.243ZM947.715 238.257L947.924 240.247C948.589 240.177 949.176 239.779 949.486 239.187L947.715 238.257ZM964.378 206.507L966.367 206.298C966.275 205.421 965.62 204.708 964.754 204.543C963.889 204.377 963.016 204.797 962.607 205.577L964.378 206.507ZM967.496 236.178L965.507 236.387C965.623 237.486 966.607 238.283 967.705 238.167L967.496 236.178ZM977.322 235.146L977.531 237.135C978.63 237.019 979.427 236.035 979.311 234.937L977.322 235.146ZM962.705 177.533L964.703 177.613C964.747 176.535 963.927 175.617 962.851 175.538L962.705 177.533ZM956.843 177.103L956.989 175.109C955.987 175.035 955.086 175.717 954.884 176.701L956.843 177.103ZM946.629 178.177L948.462 177.376C948.06 176.455 947.037 175.976 946.072 176.256L946.629 178.177ZM940.985 179.816L940.427 177.895C939.391 178.196 938.78 179.264 939.047 180.31L940.985 179.816ZM972.357 187.906L963.113 188.877L963.531 192.856L972.775 191.884L972.357 187.906ZM961.554 189.932L944.762 221.696L948.299 223.565L965.09 191.801L961.554 189.932ZM948.52 222.422L945.401 192.75L941.423 193.168L944.541 222.84L948.52 222.422ZM943.203 190.97L933.377 192.003L933.795 195.981L943.621 194.948L943.203 190.97ZM931.597 194.201L936.353 239.452L940.331 239.034L935.575 193.783L931.597 194.201ZM938.551 241.232L947.924 240.247L947.506 236.268L938.133 237.254L938.551 241.232ZM949.486 239.187L966.149 207.436L962.607 205.577L945.944 237.328L949.486 239.187ZM962.389 206.716L965.507 236.387L969.485 235.969L966.367 206.298L962.389 206.716ZM967.705 238.167L977.531 237.135L977.113 233.157L967.287 234.189L967.705 238.167ZM979.311 234.937L974.555 189.686L970.577 190.104L975.333 235.355L979.311 234.937ZM953.087 190.489C956.478 190.133 959.356 188.778 961.416 186.48C963.468 184.191 964.562 181.13 964.703 177.613L960.707 177.453C960.595 180.237 959.749 182.347 958.438 183.81C957.134 185.264 955.225 186.243 952.669 186.511L953.087 190.489ZM962.851 175.538L956.989 175.109L956.697 179.098L962.559 179.528L962.851 175.538ZM954.884 176.701C954.645 177.865 954.272 178.637 953.837 179.121C953.441 179.562 952.889 179.887 951.982 179.982L952.4 183.96C954.209 183.77 955.702 183.031 956.813 181.794C957.884 180.6 958.479 179.08 958.802 177.505L954.884 176.701ZM951.982 179.982C951.076 180.078 950.468 179.874 949.99 179.525C949.463 179.142 948.938 178.465 948.462 177.376L944.796 178.977C945.44 180.451 946.338 181.814 947.634 182.758C948.978 183.738 950.592 184.15 952.4 183.96L951.982 179.982ZM946.072 176.256L940.427 177.895L941.542 181.737L947.187 180.098L946.072 176.256ZM939.047 180.31C939.916 183.72 941.622 186.487 944.106 188.299C946.599 190.119 949.696 190.846 953.087 190.489L952.669 186.511C950.112 186.78 948.041 186.22 946.464 185.069C944.877 183.91 943.611 182.022 942.923 179.322L939.047 180.31ZM986.406 244.779L984.5 245.386C984.791 246.302 985.694 246.881 986.648 246.764L986.406 244.779ZM996.177 222.707L998.166 222.498C998.05 221.399 997.066 220.602 995.968 220.718L996.177 222.707ZM985.705 223.807L985.495 221.818C984.397 221.934 983.6 222.918 983.715 224.016L985.705 223.807ZM986.792 234.15L984.803 234.359C984.918 235.458 985.902 236.255 987.001 236.139L986.792 234.15ZM990.8 233.729L992.789 233.52C992.673 232.422 991.689 231.625 990.591 231.74L990.8 233.729ZM985.137 240.795L984.716 238.84C984.165 238.958 983.689 239.304 983.407 239.792C983.124 240.28 983.06 240.864 983.231 241.401L985.137 240.795ZM986.648 246.764C990.733 246.265 994.207 244.943 996.491 242.248C998.797 239.528 999.564 235.8 999.083 231.225L995.105 231.643C995.521 235.601 994.784 238.076 993.44 239.661C992.076 241.271 989.757 242.355 986.163 242.794L986.648 246.764ZM999.083 231.225L998.166 222.498L994.188 222.916L995.105 231.643L999.083 231.225ZM995.968 220.718L985.495 221.818L985.914 225.796L996.386 224.696L995.968 220.718ZM983.715 224.016L984.803 234.359L988.781 233.941L987.694 223.598L983.715 224.016ZM987.001 236.139L991.009 235.718L990.591 231.74L986.583 232.161L987.001 236.139ZM988.811 233.938L988.885 234.649L992.863 234.231L992.789 233.52L988.811 233.938ZM988.885 234.649C989.009 235.831 988.726 236.604 988.207 237.181C987.634 237.817 986.565 238.442 984.716 238.84L985.558 242.75C987.863 242.254 989.837 241.349 991.18 239.856C992.578 238.303 993.086 236.347 992.863 234.231L988.885 234.649ZM983.231 241.401L984.5 245.386L988.311 244.172L987.043 240.188L983.231 241.401Z" fill="url(#paint1_linear)"/>
<path d="M1595.59 166.343L1593.6 166.552C1593.71 167.65 1594.7 168.447 1595.8 168.332L1595.59 166.343ZM1623.1 139.53L1621.94 137.897C1621.31 138.345 1620.99 139.119 1621.13 139.883C1621.26 140.647 1621.83 141.263 1622.58 141.463L1623.1 139.53ZM1624.09 121.648L1622.83 123.202L1622.83 123.202L1624.09 121.648ZM1590.83 121.092L1590.62 119.103C1589.52 119.218 1588.73 120.202 1588.84 121.301L1590.83 121.092ZM1602.45 138.367L1600.46 138.576C1600.58 139.674 1601.56 140.471 1602.66 140.356L1602.45 138.367ZM1601.45 128.8L1601.24 126.811C1600.14 126.926 1599.34 127.91 1599.46 129.009L1601.45 128.8ZM1604.37 156.596L1602.38 156.805C1602.49 157.904 1603.48 158.701 1604.58 158.585L1604.37 156.596ZM1603.32 146.641L1603.11 144.652C1602.01 144.768 1601.22 145.752 1601.33 146.85L1603.32 146.641ZM1595.8 168.332L1617.32 166.069L1616.91 162.091L1595.38 164.353L1595.8 168.332ZM1617.32 166.069C1622.66 165.509 1627.23 163.942 1630.4 161.195C1633.65 158.369 1635.24 154.438 1634.74 149.679L1630.76 150.097C1631.13 153.613 1630 156.241 1627.78 158.174C1625.46 160.186 1621.79 161.578 1616.91 162.091L1617.32 166.069ZM1634.74 149.679C1634.37 146.205 1633.16 143.519 1631.13 141.505C1629.13 139.53 1626.5 138.37 1623.61 137.598L1622.58 141.463C1625.13 142.144 1627.01 143.06 1628.31 144.349C1629.58 145.599 1630.47 147.366 1630.76 150.097L1634.74 149.679ZM1624.25 141.164C1625.93 139.974 1627.55 138.44 1628.66 136.4C1629.78 134.335 1630.31 131.866 1630.01 128.935L1626.03 129.353C1626.26 131.528 1625.85 133.179 1625.14 134.492C1624.41 135.831 1623.3 136.937 1621.94 137.897L1624.25 141.164ZM1630.01 128.935C1629.61 125.211 1628.08 122.301 1625.35 120.094L1622.83 123.202C1624.68 124.698 1625.74 126.613 1626.03 129.353L1630.01 128.935ZM1625.35 120.094C1621.95 117.339 1617.13 116.316 1611.63 116.895L1612.05 120.873C1616.89 120.364 1620.52 121.329 1622.83 123.202L1625.35 120.094ZM1611.63 116.895L1590.62 119.103L1591.04 123.081L1612.05 120.873L1611.63 116.895ZM1588.84 121.301L1593.6 166.552L1597.58 166.133L1592.82 120.883L1588.84 121.301ZM1604.44 138.158L1603.43 128.59L1599.46 129.009L1600.46 138.576L1604.44 138.158ZM1601.65 130.789L1611.48 129.756L1611.06 125.778L1601.24 126.811L1601.65 130.789ZM1611.48 129.756C1613.36 129.558 1614.56 129.819 1615.25 130.21C1615.84 130.542 1616.21 131.048 1616.3 131.944L1620.28 131.526C1620.06 129.448 1619.02 127.749 1617.23 126.731C1615.53 125.77 1613.38 125.534 1611.06 125.778L1611.48 129.756ZM1616.3 131.944C1616.42 133.06 1616.09 133.672 1615.5 134.138C1614.78 134.715 1613.47 135.198 1611.42 135.413L1611.84 139.391C1614.19 139.144 1616.39 138.539 1617.99 137.27C1619.73 135.891 1620.53 133.9 1620.28 131.526L1616.3 131.944ZM1611.42 135.413L1602.24 136.378L1602.66 140.356L1611.84 139.391L1611.42 135.413ZM1606.36 156.387L1605.31 146.432L1601.33 146.85L1602.38 156.805L1606.36 156.387ZM1603.53 148.63L1615.04 147.421L1614.62 143.443L1603.11 144.652L1603.53 148.63ZM1615.04 147.421C1617.4 147.172 1618.81 147.472 1619.59 147.907C1620.25 148.272 1620.62 148.822 1620.72 149.779L1624.7 149.361C1624.48 147.28 1623.47 145.492 1621.54 144.414C1619.73 143.405 1617.36 143.155 1614.62 143.443L1615.04 147.421ZM1620.72 149.779C1620.85 150.941 1620.51 151.593 1619.95 152.07C1619.27 152.649 1618.01 153.152 1615.99 153.364L1616.41 157.342C1618.78 157.093 1620.97 156.449 1622.53 155.125C1624.22 153.699 1624.95 151.69 1624.7 149.361L1620.72 149.779ZM1615.99 153.364L1604.16 154.607L1604.58 158.585L1616.41 157.342L1615.99 153.364ZM1638.45 171.38L1636.46 171.589C1636.57 172.688 1637.56 173.484 1638.66 173.369L1638.45 171.38ZM1647.43 170.436L1647.64 172.425C1648.69 172.315 1649.47 171.414 1649.43 170.363L1647.43 170.436ZM1647.09 160.93L1646.88 158.941C1645.83 159.05 1645.05 159.951 1645.09 161.002L1647.09 160.93ZM1675.4 157.954L1677.39 157.745C1677.28 156.646 1676.29 155.849 1675.19 155.965L1675.4 157.954ZM1676.39 167.392L1674.41 167.601C1674.52 168.699 1675.5 169.496 1676.6 169.381L1676.39 167.392ZM1684.73 166.515L1684.94 168.504C1685.99 168.394 1686.77 167.496 1686.73 166.446L1684.73 166.515ZM1684.09 147.956L1686.09 147.887C1686.07 147.332 1685.82 146.811 1685.4 146.447C1684.98 146.083 1684.43 145.909 1683.88 145.967L1684.09 147.956ZM1678.66 148.527L1676.67 148.736C1676.79 149.834 1677.77 150.631 1678.87 150.516L1678.66 148.527ZM1674.85 112.261L1676.84 112.052C1676.72 110.954 1675.74 110.157 1674.64 110.272L1674.85 112.261ZM1641.94 115.72L1641.74 113.731C1640.64 113.846 1639.84 114.83 1639.96 115.929L1641.94 115.72ZM1640.78 152.508L1640.99 154.497C1641.78 154.414 1642.45 153.865 1642.69 153.101L1640.78 152.508ZM1636.51 152.956L1636.3 150.967C1635.2 151.083 1634.41 152.067 1634.52 153.166L1636.51 152.956ZM1665.84 122.293L1667.83 122.084C1667.71 120.986 1666.73 120.189 1665.63 120.304L1665.84 122.293ZM1668.7 149.573L1668.91 151.562C1670.01 151.446 1670.81 150.462 1670.69 149.364L1668.7 149.573ZM1651.25 151.407L1649.33 150.842C1649.14 151.483 1649.29 152.175 1649.71 152.687C1650.14 153.2 1650.8 153.466 1651.46 153.396L1651.25 151.407ZM1652.46 123.7L1652.25 121.711C1651.15 121.826 1650.35 122.81 1650.47 123.909L1652.46 123.7ZM1638.66 173.369L1647.64 172.425L1647.22 168.447L1638.24 169.391L1638.66 173.369ZM1649.43 170.363L1649.09 160.857L1645.09 161.002L1645.44 170.508L1649.43 170.363ZM1647.3 162.919L1675.61 159.943L1675.19 155.965L1646.88 158.941L1647.3 162.919ZM1673.41 158.163L1674.41 167.601L1678.38 167.183L1677.39 157.745L1673.41 158.163ZM1676.6 169.381L1684.94 168.504L1684.52 164.526L1676.19 165.403L1676.6 169.381ZM1686.73 166.446L1686.09 147.887L1682.09 148.025L1682.73 166.585L1686.73 166.446ZM1683.88 145.967L1678.45 146.537L1678.87 150.516L1684.3 149.945L1683.88 145.967ZM1680.65 148.317L1676.84 112.052L1672.86 112.47L1676.67 148.736L1680.65 148.317ZM1674.64 110.272L1641.74 113.731L1642.15 117.709L1675.06 114.25L1674.64 110.272ZM1639.96 115.929L1640.51 121.229L1644.49 120.811L1643.93 115.511L1639.96 115.929ZM1640.51 121.229C1642.12 136.509 1641.3 144.08 1638.87 151.915L1642.69 153.101C1645.33 144.586 1646.13 136.432 1644.49 120.811L1640.51 121.229ZM1640.57 150.519L1636.3 150.967L1636.72 154.945L1640.99 154.497L1640.57 150.519ZM1634.52 153.166L1636.46 171.589L1640.44 171.171L1638.5 152.747L1634.52 153.166ZM1663.85 122.502L1666.72 149.782L1670.69 149.364L1667.83 122.084L1663.85 122.502ZM1668.5 147.584L1651.04 149.418L1651.46 153.396L1668.91 151.562L1668.5 147.584ZM1653.17 151.972C1655.18 145.155 1655.96 137.881 1654.93 128.08L1650.95 128.498C1651.93 137.832 1651.18 144.575 1649.33 150.842L1653.17 151.972ZM1654.93 128.08L1654.45 123.49L1650.47 123.909L1650.95 128.498L1654.93 128.08ZM1652.67 125.689L1666.05 124.282L1665.63 120.304L1652.25 121.711L1652.67 125.689ZM1714.25 156.665C1729.3 155.084 1739.16 142.512 1737.69 128.532L1733.71 128.95C1734.94 140.698 1726.72 151.333 1713.84 152.687L1714.25 156.665ZM1737.69 128.532C1736.21 114.429 1724.1 104.29 1709.05 105.872L1709.47 109.85C1722.34 108.496 1732.46 117.066 1733.71 128.95L1737.69 128.532ZM1709.05 105.872C1694 107.453 1684.15 120.025 1685.61 134.005L1689.59 133.587C1688.36 121.839 1696.58 111.204 1709.47 109.85L1709.05 105.872ZM1685.61 134.005C1687.1 148.108 1699.2 158.247 1714.25 156.665L1713.84 152.687C1700.96 154.041 1690.84 145.471 1689.59 133.587L1685.61 134.005ZM1713 143.494C1706.2 144.209 1700.71 139.275 1700 132.493L1696.02 132.911C1696.94 141.644 1704.19 148.443 1713.42 147.472L1713 143.494ZM1700 132.493C1699.27 125.568 1703.52 119.756 1710.3 119.043L1709.88 115.065C1700.64 116.036 1695.09 124.063 1696.02 132.911L1700 132.493ZM1710.3 119.043C1717.1 118.328 1722.59 123.262 1723.3 130.044L1727.28 129.626C1726.36 120.893 1719.12 114.094 1709.88 115.065L1710.3 119.043ZM1723.3 130.044C1724.03 136.969 1719.79 142.781 1713 143.494L1713.42 147.472C1722.67 146.501 1728.21 138.474 1727.28 129.626L1723.3 130.044ZM1746.91 150.438L1744.92 150.647C1745.03 151.746 1746.02 152.543 1747.12 152.427L1746.91 150.438ZM1756.67 149.412L1756.88 151.401C1757.98 151.286 1758.77 150.302 1758.66 149.203L1756.67 149.412ZM1753.58 120.064L1755.13 118.795C1754.57 118.112 1753.63 117.878 1752.81 118.219C1752 118.559 1751.5 119.394 1751.6 120.273L1753.58 120.064ZM1768.2 137.874L1766.65 139.142C1767.08 139.662 1767.74 139.933 1768.41 139.863L1768.2 137.874ZM1768.46 137.846L1768.67 139.835C1769.34 139.765 1769.93 139.363 1770.24 138.766L1768.46 137.846ZM1779.16 117.179L1781.15 116.97C1781.06 116.092 1780.4 115.378 1779.53 115.214C1778.67 115.05 1777.79 115.475 1777.39 116.26L1779.16 117.179ZM1782.27 146.722L1780.28 146.931C1780.39 148.029 1781.38 148.826 1782.48 148.711L1782.27 146.722ZM1792.16 145.682L1792.37 147.671C1793.47 147.556 1794.26 146.572 1794.15 145.473L1792.16 145.682ZM1787.4 100.431L1789.39 100.222C1789.28 99.1238 1788.29 98.3269 1787.19 98.4423L1787.4 100.431ZM1776.67 101.559L1776.46 99.5702C1775.77 99.6424 1775.17 100.065 1774.87 100.687L1776.67 101.559ZM1766.79 121.944L1765.21 123.172C1765.63 123.717 1766.31 124.005 1767 123.933C1767.68 123.861 1768.29 123.439 1768.59 122.817L1766.79 121.944ZM1752.88 104.06L1754.46 102.832C1754.04 102.286 1753.36 101.998 1752.67 102.071L1752.88 104.06ZM1742.15 105.187L1741.94 103.198C1740.84 103.314 1740.05 104.298 1740.16 105.396L1742.15 105.187ZM1747.12 152.427L1756.88 151.401L1756.46 147.423L1746.7 148.449L1747.12 152.427ZM1758.66 149.203L1755.57 119.855L1751.6 120.273L1754.68 149.621L1758.66 149.203ZM1752.04 121.333L1766.65 139.142L1769.75 136.605L1755.13 118.795L1752.04 121.333ZM1768.41 139.863L1768.67 139.835L1768.25 135.857L1767.99 135.885L1768.41 139.863ZM1770.24 138.766L1780.94 118.099L1777.39 116.26L1766.68 136.927L1770.24 138.766ZM1777.17 117.388L1780.28 146.931L1784.26 146.513L1781.15 116.97L1777.17 117.388ZM1782.48 148.711L1792.37 147.671L1791.95 143.693L1782.06 144.733L1782.48 148.711ZM1794.15 145.473L1789.39 100.222L1785.41 100.64L1790.17 145.891L1794.15 145.473ZM1787.19 98.4423L1776.46 99.5702L1776.88 103.548L1787.61 102.42L1787.19 98.4423ZM1774.87 100.687L1764.99 121.071L1768.59 122.817L1778.47 102.432L1774.87 100.687ZM1768.37 120.716L1754.46 102.832L1751.3 105.287L1765.21 123.172L1768.37 120.716ZM1752.67 102.071L1741.94 103.198L1742.36 107.176L1753.09 106.049L1752.67 102.071ZM1740.16 105.396L1744.92 150.647L1748.9 150.229L1744.14 104.978L1740.16 105.396ZM1799.15 144.947L1797.24 144.361C1797.04 145.003 1797.18 145.7 1797.61 146.219C1798.03 146.737 1798.69 147.006 1799.36 146.936L1799.15 144.947ZM1809.3 143.881L1809.51 145.87C1810.32 145.785 1810.99 145.219 1811.22 144.438L1809.3 143.881ZM1812.37 133.297L1812.16 131.308C1811.35 131.393 1810.68 131.958 1810.45 132.739L1812.37 133.297ZM1831.5 131.285L1833.27 130.341C1832.88 129.624 1832.1 129.211 1831.3 129.296L1831.5 131.285ZM1836.71 141L1834.95 141.944C1835.33 142.661 1836.11 143.074 1836.92 142.989L1836.71 141ZM1847.12 139.906L1847.33 141.895C1847.99 141.825 1848.58 141.424 1848.89 140.829C1849.2 140.233 1849.19 139.522 1848.86 138.935L1847.12 139.906ZM1822.93 96.3701L1824.68 95.399C1824.29 94.6979 1823.52 94.2973 1822.72 94.3811L1822.93 96.3701ZM1813.75 97.3349L1813.54 95.3459C1812.75 95.4297 1812.08 95.9818 1811.84 96.7485L1813.75 97.3349ZM1815 124.131L1813.08 123.571C1812.89 124.211 1813.04 124.901 1813.47 125.413C1813.89 125.925 1814.55 126.19 1815.21 126.12L1815 124.131ZM1819.47 108.825L1821.23 107.878C1820.85 107.163 1820.07 106.751 1819.26 106.836C1818.45 106.921 1817.78 107.485 1817.55 108.265L1819.47 108.825ZM1827.03 122.868L1827.23 124.857C1827.9 124.787 1828.48 124.392 1828.79 123.802C1829.1 123.213 1829.1 122.507 1828.79 121.92L1827.03 122.868ZM1799.36 146.936L1809.51 145.87L1809.09 141.891L1798.94 142.958L1799.36 146.936ZM1811.22 144.438L1814.29 133.854L1810.45 132.739L1807.38 143.323L1811.22 144.438ZM1812.58 135.286L1831.71 133.274L1831.3 129.296L1812.16 131.308L1812.58 135.286ZM1829.74 132.23L1834.95 141.944L1838.47 140.055L1833.27 130.341L1829.74 132.23ZM1836.92 142.989L1847.33 141.895L1846.91 137.917L1836.5 139.011L1836.92 142.989ZM1848.86 138.935L1824.68 95.399L1821.18 97.3413L1845.37 140.877L1848.86 138.935ZM1822.72 94.3811L1813.54 95.3459L1813.96 99.324L1823.14 98.3592L1822.72 94.3811ZM1811.84 96.7485L1797.24 144.361L1801.06 145.534L1815.67 97.9214L1811.84 96.7485ZM1816.92 124.692L1821.39 109.386L1817.55 108.265L1813.08 123.571L1816.92 124.692ZM1817.71 109.773L1825.26 123.815L1828.79 121.92L1821.23 107.878L1817.71 109.773ZM1826.82 120.879L1814.79 122.142L1815.21 126.12L1827.23 124.857L1826.82 120.879ZM1873.48 137.135L1871.49 137.344C1871.61 138.442 1872.59 139.239 1873.69 139.124L1873.48 137.135ZM1883.44 136.088L1883.65 138.077C1884.74 137.962 1885.54 136.978 1885.43 135.879L1883.44 136.088ZM1881.98 122.255L1880.41 121.024C1880.09 121.433 1879.94 121.949 1879.99 122.464L1881.98 122.255ZM1886.65 116.274L1888.13 114.934C1887.74 114.496 1887.17 114.254 1886.58 114.275C1885.99 114.297 1885.43 114.578 1885.07 115.044L1886.65 116.274ZM1902.7 134.064L1901.22 135.404C1901.64 135.878 1902.27 136.12 1902.91 136.053L1902.7 134.064ZM1914.66 132.807L1914.87 134.796C1915.62 134.717 1916.26 134.222 1916.53 133.516C1916.8 132.81 1916.64 132.013 1916.13 131.456L1914.66 132.807ZM1892.66 108.78L1891.08 107.554C1890.48 108.323 1890.52 109.412 1891.18 110.131L1892.66 108.78ZM1909.06 87.6443L1910.64 88.8707C1911.13 88.2376 1911.2 87.3723 1910.81 86.672C1910.42 85.9716 1909.65 85.5715 1908.85 85.6553L1909.06 87.6443ZM1897.04 88.9081L1896.83 86.9191C1896.28 86.9772 1895.77 87.2632 1895.44 87.7082L1897.04 88.9081ZM1880.76 110.619L1878.77 110.828C1878.86 111.646 1879.43 112.328 1880.23 112.547C1881.02 112.765 1881.87 112.477 1882.36 111.819L1880.76 110.619ZM1878.68 90.8377L1880.67 90.6286C1880.55 89.5301 1879.57 88.7332 1878.47 88.8486L1878.68 90.8377ZM1868.72 91.884L1868.52 89.895C1867.42 90.0104 1866.62 90.9946 1866.74 92.0931L1868.72 91.884ZM1873.69 139.124L1883.65 138.077L1883.23 134.099L1873.27 135.146L1873.69 139.124ZM1885.43 135.879L1883.97 122.046L1879.99 122.464L1881.45 136.297L1885.43 135.879ZM1883.56 123.485L1888.22 117.504L1885.07 115.044L1880.41 121.024L1883.56 123.485ZM1885.16 117.614L1901.22 135.404L1904.18 132.724L1888.13 114.934L1885.16 117.614ZM1902.91 136.053L1914.87 134.796L1914.45 130.818L1902.49 132.075L1902.91 136.053ZM1916.13 131.456L1894.13 107.429L1891.18 110.131L1913.18 134.157L1916.13 131.456ZM1894.24 110.006L1910.64 88.8707L1907.48 86.418L1891.08 107.554L1894.24 110.006ZM1908.85 85.6553L1896.83 86.9191L1897.25 90.8971L1909.27 89.6334L1908.85 85.6553ZM1895.44 87.7082L1879.16 109.419L1882.36 111.819L1898.64 90.1079L1895.44 87.7082ZM1882.75 110.41L1880.67 90.6286L1876.69 91.0467L1878.77 110.828L1882.75 110.41ZM1878.47 88.8486L1868.52 89.895L1868.93 93.8731L1878.89 92.8267L1878.47 88.8486ZM1866.74 92.0931L1871.49 137.344L1875.47 136.926L1870.71 91.675L1866.74 92.0931ZM1916.82 132.579L1914.91 131.993C1914.71 132.635 1914.85 133.333 1915.28 133.851C1915.71 134.369 1916.36 134.639 1917.03 134.568L1916.82 132.579ZM1926.97 131.513L1927.18 133.502C1927.99 133.417 1928.67 132.851 1928.89 132.07L1926.97 131.513ZM1930.04 120.929L1929.83 118.94C1929.02 119.025 1928.35 119.591 1928.12 120.371L1930.04 120.929ZM1949.18 118.918L1950.94 117.973C1950.56 117.257 1949.78 116.844 1948.97 116.929L1949.18 118.918ZM1954.38 128.632L1952.62 129.576C1953 130.293 1953.78 130.706 1954.59 130.621L1954.38 128.632ZM1964.79 127.538L1965 129.527C1965.67 129.457 1966.25 129.056 1966.56 128.461C1966.87 127.865 1966.86 127.154 1966.54 126.567L1964.79 127.538ZM1940.61 84.0023L1942.35 83.0311C1941.96 82.3301 1941.19 81.9294 1940.4 82.0133L1940.61 84.0023ZM1931.43 84.9671L1931.22 82.9781C1930.42 83.0619 1929.75 83.614 1929.51 84.3806L1931.43 84.9671ZM1932.67 111.763L1930.75 111.203C1930.57 111.843 1930.71 112.534 1931.14 113.045C1931.57 113.557 1932.22 113.822 1932.88 113.753L1932.67 111.763ZM1937.14 96.4574L1938.9 95.5099C1938.52 94.795 1937.74 94.3835 1936.93 94.4684C1936.13 94.5532 1935.45 95.1176 1935.22 95.8968L1937.14 96.4574ZM1944.7 110.5L1944.91 112.489C1945.57 112.419 1946.15 112.024 1946.47 111.434C1946.78 110.845 1946.77 110.139 1946.46 109.552L1944.7 110.5ZM1917.03 134.568L1927.18 133.502L1926.76 129.524L1916.61 130.59L1917.03 134.568ZM1928.89 132.07L1931.96 121.486L1928.12 120.371L1925.05 130.955L1928.89 132.07ZM1930.25 122.918L1949.39 120.907L1948.97 116.929L1929.83 118.94L1930.25 122.918ZM1947.41 119.862L1952.62 129.576L1956.14 127.687L1950.94 117.973L1947.41 119.862ZM1954.59 130.621L1965 129.527L1964.58 125.549L1954.17 126.643L1954.59 130.621ZM1966.54 126.567L1942.35 83.0311L1938.86 84.9735L1963.04 128.509L1966.54 126.567ZM1940.4 82.0133L1931.22 82.9781L1931.63 86.9561L1940.81 85.9913L1940.4 82.0133ZM1929.51 84.3806L1914.91 131.993L1918.73 133.166L1933.34 85.5536L1929.51 84.3806ZM1934.59 112.324L1939.06 97.018L1935.22 95.8968L1930.75 111.203L1934.59 112.324ZM1935.38 97.4049L1942.94 111.447L1946.46 109.552L1938.9 95.5099L1935.38 97.4049ZM1944.49 108.511L1932.46 109.774L1932.88 113.753L1944.91 112.489L1944.49 108.511ZM2006 77.4562L2007.99 77.2471C2007.87 76.1486 2006.89 75.3517 2005.79 75.4671L2006 77.4562ZM1996.75 78.4278L1996.54 76.4387C1995.88 76.5084 1995.3 76.9038 1994.98 77.4931L1996.75 78.4278ZM1979.96 110.192L1977.97 110.401C1978.06 111.276 1978.72 111.989 1979.58 112.156C1980.45 112.323 1981.32 111.905 1981.73 111.127L1979.96 110.192ZM1976.84 80.5204L1978.83 80.3114C1978.72 79.2128 1977.73 78.4159 1976.63 78.5314L1976.84 80.5204ZM1967.02 81.5532L1966.81 79.5641C1965.71 79.6796 1964.91 80.6637 1965.03 81.7622L1967.02 81.5532ZM1971.77 126.804L1969.78 127.013C1969.9 128.111 1970.88 128.908 1971.98 128.793L1971.77 126.804ZM1981.15 125.819L1981.35 127.808C1982.02 127.738 1982.61 127.34 1982.92 126.748L1981.15 125.819ZM1997.81 94.0681L1999.8 93.859C1999.71 92.9825 1999.05 92.2696 1998.18 92.1038C1997.32 91.938 1996.45 92.3583 1996.04 93.1387L1997.81 94.0681ZM2000.93 123.74L1998.94 123.949C1999.05 125.047 2000.04 125.844 2001.14 125.729L2000.93 123.74ZM2010.75 122.707L2010.96 124.696C2012.06 124.581 2012.86 123.596 2012.74 122.498L2010.75 122.707ZM1996.14 65.0942L1998.13 65.1744C1998.18 64.0964 1997.36 63.1784 1996.28 63.0996L1996.14 65.0942ZM1990.27 64.6646L1990.42 62.67C1989.42 62.5965 1988.52 63.2782 1988.31 64.2627L1990.27 64.6646ZM1980.06 65.7381L1981.89 64.9377C1981.49 64.0167 1980.47 63.5372 1979.5 63.8175L1980.06 65.7381ZM1974.42 67.3771L1973.86 65.4565C1972.82 65.7573 1972.21 66.8256 1972.48 67.871L1974.42 67.3771ZM2005.79 75.4671L1996.54 76.4387L1996.96 80.4168L2006.21 79.4452L2005.79 75.4671ZM1994.98 77.4931L1978.19 109.257L1981.73 111.127L1998.52 79.3625L1994.98 77.4931ZM1981.95 109.983L1978.83 80.3114L1974.85 80.7295L1977.97 110.401L1981.95 109.983ZM1976.63 78.5314L1966.81 79.5641L1967.23 83.5422L1977.05 82.5095L1976.63 78.5314ZM1965.03 81.7622L1969.78 127.013L1973.76 126.595L1969.01 81.3441L1965.03 81.7622ZM1971.98 128.793L1981.35 127.808L1980.94 123.83L1971.56 124.815L1971.98 128.793ZM1982.92 126.748L1999.58 94.9975L1996.04 93.1387L1979.37 124.889L1982.92 126.748ZM1995.82 94.2772L1998.94 123.949L2002.92 123.531L1999.8 93.859L1995.82 94.2772ZM2001.14 125.729L2010.96 124.696L2010.54 120.718L2000.72 121.751L2001.14 125.729ZM2012.74 122.498L2007.99 77.2471L2004.01 77.6652L2008.76 122.916L2012.74 122.498ZM1986.52 78.0506C1989.91 77.6942 1992.79 76.3395 1994.85 74.0414C1996.9 71.752 1997.99 68.6912 1998.13 65.1744L1994.14 65.0141C1994.03 67.7982 1993.18 69.9085 1991.87 71.3713C1990.56 72.8253 1988.66 73.8038 1986.1 74.0725L1986.52 78.0506ZM1996.28 63.0996L1990.42 62.67L1990.13 66.6593L1995.99 67.0889L1996.28 63.0996ZM1988.31 64.2627C1988.08 65.4266 1987.7 66.1979 1987.27 66.6824C1986.87 67.1229 1986.32 67.4482 1985.41 67.5435L1985.83 71.5216C1987.64 71.3315 1989.13 70.5922 1990.24 69.3548C1991.31 68.1613 1991.91 66.6414 1992.23 65.0665L1988.31 64.2627ZM1985.41 67.5435C1984.51 67.6388 1983.9 67.4353 1983.42 67.0867C1982.89 66.7032 1982.37 66.0265 1981.89 64.9377L1978.23 66.5386C1978.87 68.0119 1979.77 69.375 1981.06 70.3195C1982.41 71.2989 1984.02 71.7116 1985.83 71.5216L1985.41 67.5435ZM1979.5 63.8175L1973.86 65.4565L1974.97 69.2978L1980.62 67.6588L1979.5 63.8175ZM1972.48 67.871C1973.35 71.2816 1975.05 74.0481 1977.54 75.8607C1980.03 77.6803 1983.13 78.407 1986.52 78.0506L1986.1 74.0725C1983.54 74.3412 1981.47 73.781 1979.89 72.6298C1978.31 71.4716 1977.04 69.5833 1976.35 66.8832L1972.48 67.871ZM2047.74 84.4409L2047.53 82.4518C2046.43 82.5673 2045.64 83.5514 2045.75 84.6499L2047.74 84.4409ZM2050.06 106.484L2048.07 106.693C2048.19 107.792 2049.17 108.589 2050.27 108.473L2050.06 106.484ZM2051.51 120.254L2051.72 122.243C2052.81 122.127 2053.61 121.143 2053.5 120.045L2051.51 120.254ZM2050.99 115.341L2050.78 113.352C2049.68 113.467 2048.89 114.451 2049 115.55L2050.99 115.341ZM2046.81 75.5846L2044.82 75.7937C2044.94 76.8922 2045.92 77.6891 2047.02 77.5737L2046.81 75.5846ZM2046.38 71.4474L2048.37 71.2384C2048.25 70.1399 2047.27 69.3429 2046.17 69.4584L2046.38 71.4474ZM2036.42 72.4938L2036.21 70.5047C2035.11 70.6202 2034.32 71.6043 2034.43 72.7028L2036.42 72.4938ZM2036.86 76.631L2037.07 78.62C2038.16 78.5046 2038.96 77.5204 2038.84 76.4219L2036.86 76.631ZM2041.03 116.387L2043.02 116.178C2042.91 115.079 2041.92 114.282 2040.83 114.398L2041.03 116.387ZM2041.55 121.3L2039.56 121.509C2039.68 122.608 2040.66 123.404 2041.76 123.289L2041.55 121.3ZM2040.1 107.531L2040.31 109.52C2041.41 109.404 2042.21 108.42 2042.09 107.322L2040.1 107.531ZM2037.79 85.4872L2039.78 85.2781C2039.66 84.1796 2038.68 83.3827 2037.58 83.4981L2037.79 85.4872ZM2047.95 86.4299C2051.22 86.0867 2053.85 86.7852 2055.7 88.1297C2057.52 89.458 2058.76 91.5431 2059.06 94.362L2063.04 93.9439C2062.64 90.1046 2060.88 86.9497 2058.05 84.8946C2055.25 82.8556 2051.57 82.0272 2047.53 82.4518L2047.95 86.4299ZM2059.06 94.362C2059.37 97.2554 2058.58 99.5661 2057.07 101.239C2055.55 102.933 2053.12 104.151 2049.85 104.495L2050.27 108.473C2054.3 108.05 2057.73 106.496 2060.05 103.914C2062.39 101.309 2063.45 97.8382 2063.04 93.9439L2059.06 94.362ZM2052.05 106.275L2049.73 84.2318L2045.75 84.6499L2048.07 106.693L2052.05 106.275ZM2053.5 120.045L2052.98 115.132L2049 115.55L2049.52 120.463L2053.5 120.045ZM2051.2 117.33C2058.59 116.552 2064.47 113.609 2068.34 109.173C2072.22 104.731 2073.96 98.9353 2073.3 92.7343L2069.33 93.1525C2069.87 98.3288 2068.42 102.998 2065.33 106.543C2062.23 110.095 2057.35 112.661 2050.78 113.352L2051.2 117.33ZM2073.3 92.7343C2072.65 86.52 2069.71 81.2903 2064.98 77.8367C2060.26 74.3936 2053.92 72.8267 2046.6 73.5956L2047.02 77.5737C2053.54 76.8886 2058.85 78.3124 2062.62 81.0679C2066.38 83.8128 2068.78 87.9895 2069.33 93.1525L2073.3 92.7343ZM2048.8 75.3756L2048.37 71.2384L2044.39 71.6565L2044.82 75.7937L2048.8 75.3756ZM2046.17 69.4584L2036.21 70.5047L2036.63 74.4828L2046.59 73.4365L2046.17 69.4584ZM2034.43 72.7028L2034.87 76.84L2038.84 76.4219L2038.41 72.2847L2034.43 72.7028ZM2036.65 74.6419C2029.3 75.414 2023.42 78.2648 2019.53 82.6059C2015.62 86.9601 2013.85 92.6687 2014.5 98.8494L2018.48 98.4313C2017.94 93.2993 2019.4 88.7336 2022.5 85.2765C2025.62 81.8062 2030.51 79.3088 2037.07 78.62L2036.65 74.6419ZM2014.5 98.8494C2015.16 105.08 2018.06 110.404 2022.77 113.953C2027.49 117.496 2033.85 119.153 2041.24 118.376L2040.83 114.398C2034.26 115.088 2028.95 113.593 2025.18 110.756C2021.42 107.926 2019.03 103.643 2018.48 98.4313L2014.5 98.8494ZM2039.05 116.596L2039.56 121.509L2043.54 121.091L2043.02 116.178L2039.05 116.596ZM2041.76 123.289L2051.72 122.243L2051.3 118.265L2041.34 119.311L2041.76 123.289ZM2039.89 105.542C2036.62 105.886 2033.97 105.201 2032.11 103.857C2030.28 102.532 2029.02 100.437 2028.71 97.5517L2024.74 97.9698C2025.15 101.873 2026.92 105.046 2029.77 107.101C2032.6 109.138 2036.28 109.944 2040.31 109.52L2039.89 105.542ZM2028.71 97.5517C2028.42 94.7412 2029.21 92.4427 2030.74 90.7583C2032.28 89.0524 2034.73 87.8195 2038 87.4762L2037.58 83.4981C2033.54 83.9227 2030.11 85.4974 2027.77 88.0718C2025.42 90.6677 2024.33 94.122 2024.74 97.9698L2028.71 97.5517ZM2035.8 85.6962L2038.11 107.74L2042.09 107.322L2039.78 85.2781L2035.8 85.6962ZM2098.76 91.8887L2097.09 92.9832C2097.51 93.6246 2098.26 93.97 2099.02 93.8724C2099.78 93.7748 2100.41 93.2514 2100.66 92.5249L2098.76 91.8887ZM2083.97 69.2613L2085.64 68.1668C2085.23 67.5392 2084.5 67.1939 2083.76 67.2723L2083.97 69.2613ZM2072.85 70.43L2072.64 68.4409C2071.94 68.5144 2071.33 68.9493 2071.03 69.5866C2070.74 70.2238 2070.8 70.9699 2071.19 71.5517L2072.85 70.43ZM2094.51 102.401L2096.29 103.311C2096.62 102.662 2096.57 101.883 2096.16 101.279L2094.51 102.401ZM2083.68 105.696L2084.53 103.887C2084.03 103.652 2083.46 103.633 2082.95 103.834C2082.44 104.034 2082.03 104.437 2081.82 104.948L2083.68 105.696ZM2080.57 113.408L2078.71 112.66C2078.31 113.664 2078.77 114.808 2079.77 115.241L2080.57 113.408ZM2104.25 102.488L2106.13 103.19L2106.13 103.186L2104.25 102.488ZM2117.97 65.6875L2119.84 66.3859C2120.08 65.7371 2119.97 65.0094 2119.55 64.4622C2119.12 63.915 2118.45 63.6261 2117.76 63.6985L2117.97 65.6875ZM2107.17 66.8222L2106.96 64.8331C2106.18 64.915 2105.53 65.4436 2105.28 66.1859L2107.17 66.8222ZM2100.44 90.7941L2085.64 68.1668L2082.29 70.3559L2097.09 92.9832L2100.44 90.7941ZM2083.76 67.2723L2072.64 68.4409L2073.06 72.419L2084.17 71.2504L2083.76 67.2723ZM2071.19 71.5517L2092.85 103.523L2096.16 101.279L2074.5 69.3082L2071.19 71.5517ZM2092.73 101.491C2091.48 103.928 2090.05 104.518 2088.99 104.63L2089.41 108.608C2091.96 108.339 2094.5 106.814 2096.29 103.311L2092.73 101.491ZM2088.99 104.63C2087.56 104.78 2086.08 104.62 2084.53 103.887L2082.82 107.505C2085.12 108.589 2087.35 108.825 2089.41 108.608L2088.99 104.63ZM2081.82 104.948L2078.71 112.66L2082.42 114.157L2085.53 106.444L2081.82 104.948ZM2079.77 115.241C2083.04 116.672 2086.53 117.472 2090.82 117.022L2090.4 113.044C2086.92 113.409 2084.12 112.779 2081.37 111.576L2079.77 115.241ZM2090.82 117.022C2094.34 116.652 2097.39 115.448 2099.98 113.107C2102.53 110.801 2104.51 107.51 2106.13 103.19L2102.38 101.785C2100.89 105.766 2099.21 108.415 2097.3 110.139C2095.43 111.83 2093.21 112.748 2090.4 113.044L2090.82 117.022ZM2106.13 103.186L2119.84 66.3859L2116.09 64.9891L2102.38 101.789L2106.13 103.186ZM2117.76 63.6985L2106.96 64.8331L2107.38 68.8112L2118.18 67.6765L2117.76 63.6985ZM2105.28 66.1859L2096.87 91.2524L2100.66 92.5249L2109.07 67.4584L2105.28 66.1859ZM2163.57 60.8949L2165.56 60.6859C2165.44 59.5874 2164.46 58.7904 2163.36 58.9059L2163.57 60.8949ZM2154.32 61.8665L2154.11 59.8775C2153.45 59.9472 2152.87 60.3425 2152.55 60.9318L2154.32 61.8665ZM2137.53 93.6307L2135.54 93.8398C2135.63 94.7152 2136.29 95.4275 2137.15 95.5945C2138.02 95.7614 2138.89 95.3436 2139.3 94.5655L2137.53 93.6307ZM2134.41 63.9592L2136.4 63.7501C2136.29 62.6516 2135.3 61.8547 2134.2 61.9701L2134.41 63.9592ZM2124.59 64.9919L2124.38 63.0029C2123.28 63.1183 2122.48 64.1025 2122.6 65.201L2124.59 64.9919ZM2129.34 110.243L2127.35 110.452C2127.47 111.55 2128.45 112.347 2129.55 112.232L2129.34 110.243ZM2138.72 109.257L2138.92 111.247C2139.59 111.177 2140.18 110.779 2140.49 110.187L2138.72 109.257ZM2155.38 77.5069L2157.37 77.2978C2157.27 76.4213 2156.62 75.7084 2155.75 75.5426C2154.89 75.3768 2154.02 75.7971 2153.61 76.5775L2155.38 77.5069ZM2158.5 107.178L2156.51 107.387C2156.62 108.486 2157.61 109.283 2158.71 109.167L2158.5 107.178ZM2168.32 106.146L2168.53 108.135C2169.63 108.019 2170.43 107.035 2170.31 105.937L2168.32 106.146ZM2153.71 48.533L2155.7 48.6132C2155.75 47.5352 2154.93 46.6172 2153.85 46.5383L2153.71 48.533ZM2147.84 48.1034L2147.99 46.1087C2146.99 46.0353 2146.09 46.717 2145.88 47.7015L2147.84 48.1034ZM2137.63 49.1769L2139.46 48.3764C2139.06 47.4555 2138.04 46.976 2137.07 47.2562L2137.63 49.1769ZM2131.98 50.8159L2131.43 48.8952C2130.39 49.1961 2129.78 50.2644 2130.05 51.3098L2131.98 50.8159ZM2163.36 58.9059L2154.11 59.8775L2154.53 63.8556L2163.78 62.884L2163.36 58.9059ZM2152.55 60.9318L2135.76 92.696L2139.3 94.5655L2156.09 62.8012L2152.55 60.9318ZM2139.52 93.4217L2136.4 63.7501L2132.42 64.1682L2135.54 93.8398L2139.52 93.4217ZM2134.2 61.9701L2124.38 63.0029L2124.8 66.981L2134.62 65.9482L2134.2 61.9701ZM2122.6 65.201L2127.35 110.452L2131.33 110.034L2126.58 64.7829L2122.6 65.201ZM2129.55 112.232L2138.92 111.247L2138.51 107.268L2129.13 108.254L2129.55 112.232ZM2140.49 110.187L2157.15 78.4362L2153.61 76.5775L2136.94 108.328L2140.49 110.187ZM2153.39 77.7159L2156.51 107.387L2160.49 106.969L2157.37 77.2978L2153.39 77.7159ZM2158.71 109.167L2168.53 108.135L2168.11 104.157L2158.29 105.189L2158.71 109.167ZM2170.31 105.937L2165.56 60.6859L2161.58 61.104L2166.33 106.355L2170.31 105.937ZM2144.09 61.4894C2147.48 61.1329 2150.36 59.7782 2152.42 57.4801C2154.47 55.1908 2155.56 52.1299 2155.7 48.6132L2151.71 48.4528C2151.59 51.237 2150.75 53.3472 2149.44 54.8101C2148.13 56.2641 2146.22 57.2426 2143.67 57.5113L2144.09 61.4894ZM2153.85 46.5383L2147.99 46.1087L2147.7 50.098L2153.56 50.5276L2153.85 46.5383ZM2145.88 47.7015C2145.65 48.8653 2145.27 49.6366 2144.84 50.1211C2144.44 50.5616 2143.89 50.8869 2142.98 50.9822L2143.4 54.9603C2145.21 54.7703 2146.7 54.031 2147.81 52.7935C2148.88 51.6001 2149.48 50.0801 2149.8 48.5053L2145.88 47.7015ZM2142.98 50.9822C2142.08 51.0775 2141.47 50.8741 2140.99 50.5255C2140.46 50.142 2139.94 49.4652 2139.46 48.3764L2135.8 49.9773C2136.44 51.4506 2137.34 52.8137 2138.63 53.7583C2139.98 54.7377 2141.59 55.1504 2143.4 54.9603L2142.98 50.9822ZM2137.07 47.2562L2131.43 48.8952L2132.54 52.7366L2138.19 51.0976L2137.07 47.2562ZM2130.05 51.3098C2130.92 54.7204 2132.62 57.4869 2135.11 59.2995C2137.6 61.1191 2140.7 61.8458 2144.09 61.4894L2143.67 57.5113C2141.11 57.7799 2139.04 57.2198 2137.46 56.0685C2135.88 54.9103 2134.61 53.0221 2133.92 50.322L2130.05 51.3098ZM2177.41 115.779L2175.5 116.386C2175.79 117.302 2176.69 117.881 2177.65 117.764L2177.41 115.779ZM2187.18 93.7067L2189.17 93.4976C2189.05 92.3991 2188.07 91.6022 2186.97 91.7177L2187.18 93.7067ZM2176.7 94.8074L2176.5 92.8183C2175.4 92.9338 2174.6 93.9179 2174.72 95.0164L2176.7 94.8074ZM2177.79 105.15L2175.8 105.359C2175.92 106.458 2176.9 107.255 2178 107.139L2177.79 105.15ZM2181.8 104.729L2183.79 104.52C2183.67 103.422 2182.69 102.625 2181.59 102.74L2181.8 104.729ZM2176.14 111.795L2175.72 109.84C2175.17 109.958 2174.69 110.304 2174.41 110.792C2174.12 111.28 2174.06 111.864 2174.23 112.401L2176.14 111.795ZM2177.65 117.764C2181.73 117.265 2185.21 115.943 2187.49 113.248C2189.8 110.528 2190.56 106.8 2190.08 102.225L2186.11 102.643C2186.52 106.601 2185.78 109.076 2184.44 110.661C2183.08 112.271 2180.76 113.355 2177.16 113.794L2177.65 117.764ZM2190.08 102.225L2189.17 93.4976L2185.19 93.9158L2186.11 102.643L2190.08 102.225ZM2186.97 91.7177L2176.5 92.8183L2176.91 96.7964L2187.39 95.6957L2186.97 91.7177ZM2174.72 95.0164L2175.8 105.359L2179.78 104.941L2178.69 94.5983L2174.72 95.0164ZM2178 107.139L2182.01 106.718L2181.59 102.74L2177.58 103.161L2178 107.139ZM2179.81 104.938L2179.89 105.649L2183.86 105.231L2183.79 104.52L2179.81 104.938ZM2179.89 105.649C2180.01 106.831 2179.73 107.604 2179.21 108.181C2178.63 108.817 2177.57 109.442 2175.72 109.84L2176.56 113.75C2178.86 113.254 2180.84 112.349 2182.18 110.856C2183.58 109.303 2184.09 107.347 2183.86 105.231L2179.89 105.649ZM2174.23 112.401L2175.5 116.386L2179.31 115.172L2178.04 111.188L2174.23 112.401Z" fill="url(#paint2_linear)"/>
<defs>
<linearGradient id="paint0_linear" x1="14.6782" y1="321.162" x2="2531.92" y2="291.216" gradientUnits="userSpaceOnUse">
<stop offset="0.125219" stop-color="#FB5ECF"/>
<stop offset="0.887044" stop-color="#00FFF0"/>
</linearGradient>
<linearGradient id="paint1_linear" x1="378.379" y1="288.736" x2="1018.65" y2="219.943" gradientUnits="userSpaceOnUse">
<stop stop-color="white"/>
<stop offset="1" stop-color="white"/>
</linearGradient>
<linearGradient id="paint2_linear" x1="1569.38" y1="159.736" x2="2209.65" y2="90.943" gradientUnits="userSpaceOnUse">
<stop stop-color="white"/>
<stop offset="1" stop-color="white"/>
</linearGradient>
</defs>
</svg>
